<svg width="1099" height="730" viewBox="0 0 1099 730" fill="none" xmlns="http://www.w3.org/2000/svg">
<line x1="67" y1="4" x2="67" y2="691" stroke="#333332" stroke-width="2"/>
<line x1="56" y1="2.5" x2="78" y2="2.5" stroke="#333332" stroke-width="3"/>
<line x1="59" y1="141" x2="75" y2="141" stroke="#333332" stroke-width="2"/>
<line x1="59" y1="277" x2="75" y2="277" stroke="#333332" stroke-width="2"/>
<line x1="59" y1="414" x2="75" y2="414" stroke="#333332" stroke-width="2"/>
<line x1="59" y1="551" x2="75" y2="551" stroke="#333332" stroke-width="2"/>
<line x1="212" y1="682" x2="212" y2="698" stroke="#333332" stroke-width="2"/>
<line x1="385" y1="682" x2="385" y2="698" stroke="#333332" stroke-width="2"/>
<line x1="558" y1="682" x2="558" y2="698" stroke="#333332" stroke-width="2"/>
<line x1="731" y1="682" x2="731" y2="698" stroke="#333332" stroke-width="2"/>
<line x1="903" y1="682" x2="903" y2="698" stroke="#333332" stroke-width="2"/>
<line x1="1076.5" y1="679" x2="1076.5" y2="701" stroke="#333332" stroke-width="3"/>
<line x1="1075" y1="690" x2="66" y2="690" stroke="#333332" stroke-width="2"/>
<path d="M14.544 149.336C13.744 149.336 13 149.176 12.312 148.856C11.64 148.536 11.096 148.096 10.68 147.536C10.264 146.976 10.056 146.328 10.056 145.592C10.056 144.92 10.24 144.352 10.608 143.888C10.976 143.424 11.416 143.032 11.928 142.712C12.44 142.392 12.904 142.112 13.32 141.872C13.448 141.808 13.488 141.76 13.44 141.728C13.408 141.68 13.344 141.616 13.248 141.536C12.768 141.136 12.312 140.744 11.88 140.36C11.464 139.96 11.12 139.52 10.848 139.04C10.592 138.544 10.464 137.976 10.464 137.336C10.464 136.664 10.688 136.072 11.136 135.56C11.6 135.048 12.184 134.64 12.888 134.336C13.608 134.032 14.344 133.88 15.096 133.88C15.768 133.88 16.408 134.016 17.016 134.288C17.64 134.56 18.144 134.944 18.528 135.44C18.912 135.92 19.104 136.496 19.104 137.168C19.104 137.76 18.96 138.24 18.672 138.608C18.384 138.976 18.088 139.272 17.784 139.496C17.576 139.656 17.384 139.8 17.208 139.928C17.032 140.04 16.824 140.184 16.584 140.36C16.36 140.504 16.248 140.608 16.248 140.672C16.248 140.736 16.32 140.808 16.464 140.888C17.056 141.304 17.584 141.712 18.048 142.112C18.528 142.496 18.896 142.92 19.152 143.384C19.424 143.832 19.56 144.368 19.56 144.992C19.56 145.84 19.32 146.592 18.84 147.248C18.36 147.904 17.736 148.416 16.968 148.784C16.216 149.152 15.408 149.336 14.544 149.336ZM14.904 148.52C15.56 148.52 16.104 148.28 16.536 147.8C16.984 147.304 17.208 146.728 17.208 146.072C17.208 145.592 17.064 145.136 16.776 144.704C16.504 144.272 16.16 143.864 15.744 143.48C15.328 143.096 14.912 142.752 14.496 142.448C14.4 142.368 14.32 142.312 14.256 142.28C14.192 142.232 14.12 142.208 14.04 142.208C13.992 142.208 13.896 142.264 13.752 142.376C13.288 142.76 12.952 143.16 12.744 143.576C12.536 143.992 12.432 144.56 12.432 145.28C12.432 145.824 12.528 146.344 12.72 146.84C12.912 147.32 13.192 147.72 13.56 148.04C13.944 148.36 14.392 148.52 14.904 148.52ZM15.72 140.216C16.184 139.832 16.488 139.368 16.632 138.824C16.776 138.28 16.848 137.68 16.848 137.024C16.848 136.368 16.688 135.808 16.368 135.344C16.064 134.864 15.576 134.624 14.904 134.624C14.552 134.624 14.208 134.72 13.872 134.912C13.552 135.104 13.28 135.36 13.056 135.68C12.848 136 12.744 136.368 12.744 136.784C12.744 137.328 12.856 137.776 13.08 138.128C13.304 138.48 13.608 138.808 13.992 139.112C14.392 139.4 14.84 139.752 15.336 140.168C15.4 140.216 15.464 140.248 15.528 140.264C15.608 140.28 15.672 140.264 15.72 140.216Z" fill="#333332"/>
<path d="M26.4737 149.336C25.6097 149.336 24.8577 149.112 24.2177 148.664C23.5937 148.216 23.0657 147.624 22.6337 146.888C22.2177 146.136 21.9057 145.312 21.6977 144.416C21.4897 143.52 21.3857 142.632 21.3857 141.752C21.3857 140.84 21.4897 139.92 21.6977 138.992C21.9057 138.064 22.2257 137.216 22.6577 136.448C23.0897 135.68 23.6417 135.064 24.3137 134.6C24.9857 134.12 25.7937 133.88 26.7377 133.88C27.6017 133.88 28.3537 134.104 28.9937 134.552C29.6337 135 30.1617 135.6 30.5777 136.352C30.9937 137.088 31.3057 137.904 31.5137 138.8C31.7217 139.68 31.8257 140.552 31.8257 141.416C31.8257 142.312 31.7217 143.224 31.5137 144.152C31.3217 145.08 31.0097 145.936 30.5777 146.72C30.1457 147.504 29.5937 148.136 28.9217 148.616C28.2497 149.096 27.4337 149.336 26.4737 149.336ZM26.8817 148.544C27.4737 148.544 27.9457 148.232 28.2977 147.608C28.6657 146.968 28.9297 146.144 29.0897 145.136C29.2657 144.112 29.3537 143.016 29.3537 141.848C29.3537 140.968 29.2897 140.104 29.1617 139.256C29.0337 138.408 28.8417 137.64 28.5857 136.952C28.3297 136.264 28.0097 135.72 27.6257 135.32C27.2417 134.904 26.8017 134.696 26.3057 134.696C25.7137 134.696 25.2417 135.008 24.8897 135.632C24.5377 136.24 24.2817 137.048 24.1217 138.056C23.9617 139.064 23.8817 140.152 23.8817 141.32C23.8817 142.2 23.9457 143.072 24.0737 143.936C24.2017 144.8 24.3857 145.576 24.6257 146.264C24.8817 146.952 25.1937 147.504 25.5617 147.92C25.9297 148.336 26.3697 148.544 26.8817 148.544Z" fill="#333332"/>
<path d="M41.1367 142.688C40.4647 142.688 39.8968 142.488 39.4328 142.088C38.9688 141.688 38.6088 141.168 38.3528 140.528C38.0968 139.888 37.9688 139.216 37.9688 138.512C37.9688 137.744 38.1127 137.04 38.4007 136.4C38.6887 135.744 39.0968 135.224 39.6248 134.84C40.1528 134.44 40.7767 134.24 41.4967 134.24C42.1528 134.24 42.7048 134.432 43.1528 134.816C43.6168 135.184 43.9688 135.68 44.2088 136.304C44.4648 136.912 44.5928 137.56 44.5928 138.248C44.5928 139.048 44.4488 139.784 44.1608 140.456C43.8888 141.128 43.4967 141.672 42.9847 142.088C42.4727 142.488 41.8567 142.688 41.1367 142.688ZM41.3768 142.088C41.8088 142.088 42.1288 141.904 42.3368 141.536C42.5448 141.168 42.6808 140.712 42.7448 140.168C42.8088 139.608 42.8408 139.064 42.8408 138.536C42.8408 137.976 42.8007 137.424 42.7207 136.88C42.6407 136.32 42.4888 135.856 42.2648 135.488C42.0408 135.104 41.6968 134.912 41.2327 134.912C40.8328 134.912 40.5207 135.088 40.2967 135.44C40.0887 135.776 39.9447 136.2 39.8647 136.712C39.7847 137.224 39.7448 137.736 39.7448 138.248C39.7448 138.68 39.7607 139.12 39.7927 139.568C39.8407 140.016 39.9207 140.432 40.0327 140.816C40.1447 141.184 40.3048 141.488 40.5128 141.728C40.7208 141.968 41.0088 142.088 41.3768 142.088ZM49.8008 133.496C49.9288 133.304 50.0728 133.184 50.2327 133.136C50.4087 133.072 50.6087 133.04 50.8327 133.04C50.9287 133.04 51.0168 133.08 51.0968 133.16C51.1768 133.224 51.2168 133.304 51.2168 133.4C51.2168 133.448 51.2088 133.48 51.1928 133.496L40.9207 149.768C40.8087 149.944 40.6648 150.048 40.4888 150.08C40.3288 150.128 40.1528 150.152 39.9608 150.152C39.8488 150.152 39.7448 150.12 39.6488 150.056C39.5528 149.992 39.5047 149.92 39.5047 149.84C39.5047 149.808 39.5127 149.784 39.5287 149.768L49.8008 133.496ZM49.6087 149.408C48.9367 149.408 48.3688 149.208 47.9048 148.808C47.4408 148.408 47.0807 147.888 46.8247 147.248C46.5687 146.608 46.4408 145.936 46.4408 145.232C46.4408 144.464 46.5847 143.76 46.8727 143.12C47.1607 142.464 47.5688 141.944 48.0968 141.56C48.6248 141.16 49.2487 140.96 49.9688 140.96C50.6247 140.96 51.1767 141.152 51.6247 141.536C52.0887 141.904 52.4408 142.4 52.6808 143.024C52.9368 143.632 53.0648 144.28 53.0648 144.968C53.0648 145.768 52.9208 146.504 52.6328 147.176C52.3608 147.848 51.9687 148.392 51.4567 148.808C50.9447 149.208 50.3287 149.408 49.6087 149.408ZM49.8488 148.808C50.2808 148.808 50.6007 148.624 50.8088 148.256C51.0168 147.888 51.1528 147.432 51.2168 146.888C51.2808 146.328 51.3128 145.784 51.3128 145.256C51.3128 144.696 51.2728 144.144 51.1928 143.6C51.1128 143.04 50.9608 142.576 50.7368 142.208C50.5128 141.824 50.1687 141.632 49.7048 141.632C49.3047 141.632 48.9927 141.808 48.7687 142.16C48.5607 142.496 48.4167 142.92 48.3368 143.432C48.2567 143.944 48.2168 144.456 48.2168 144.968C48.2168 145.4 48.2328 145.84 48.2648 146.288C48.3128 146.736 48.3927 147.152 48.5047 147.536C48.6167 147.904 48.7767 148.208 48.9847 148.448C49.1927 148.688 49.4808 148.808 49.8488 148.808Z" fill="#333332"/>
<path d="M14.808 285.36C13.88 285.36 13.04 285.168 12.288 284.784C11.536 284.4 10.936 283.84 10.488 283.104C10.04 282.352 9.816 281.44 9.816 280.368C9.816 279.472 9.92 278.664 10.128 277.944C10.336 277.208 10.592 276.56 10.896 276C11.216 275.424 11.536 274.936 11.856 274.536C12.176 274.136 12.448 273.816 12.672 273.576C13.056 273.16 13.552 272.704 14.16 272.208C14.784 271.712 15.504 271.24 16.32 270.792C17.136 270.328 18.016 269.96 18.96 269.688C19.136 269.624 19.296 269.608 19.44 269.64C19.584 269.672 19.64 269.728 19.608 269.808C19.576 269.952 19.488 270.072 19.344 270.168C19.2 270.248 19.056 270.32 18.912 270.384C17.904 270.816 17.04 271.32 16.32 271.896C15.616 272.472 14.976 273.184 14.4 274.032C14.16 274.416 13.872 274.936 13.536 275.592C13.2 276.248 12.912 276.984 12.672 277.8C12.432 278.616 12.312 279.448 12.312 280.296C12.328 281.176 12.488 281.92 12.792 282.528C13.096 283.136 13.48 283.6 13.944 283.92C14.408 284.24 14.872 284.4 15.336 284.4C15.928 284.416 16.44 284.184 16.872 283.704C17.32 283.224 17.544 282.496 17.544 281.52C17.544 281.024 17.456 280.576 17.28 280.176C17.104 279.76 16.864 279.424 16.56 279.168C16.256 278.896 15.912 278.76 15.528 278.76C15.192 278.76 14.896 278.784 14.64 278.832C14.4 278.864 14.168 278.936 13.944 279.048C13.752 279.144 13.632 279.144 13.584 279.048C13.552 278.936 13.592 278.808 13.704 278.664C13.816 278.552 13.912 278.456 13.992 278.376C14.088 278.296 14.2 278.216 14.328 278.136C14.52 277.976 14.856 277.792 15.336 277.584C15.816 277.36 16.272 277.248 16.704 277.248C17.28 277.248 17.808 277.384 18.288 277.656C18.784 277.928 19.184 278.296 19.488 278.76C19.792 279.224 19.944 279.76 19.944 280.368C19.944 281.072 19.8 281.728 19.512 282.336C19.24 282.944 18.864 283.48 18.384 283.944C17.904 284.392 17.352 284.744 16.728 285C16.12 285.24 15.48 285.36 14.808 285.36Z" fill="#333332"/>
<path d="M26.4737 285.336C25.6097 285.336 24.8577 285.112 24.2177 284.664C23.5937 284.216 23.0657 283.624 22.6337 282.888C22.2177 282.136 21.9057 281.312 21.6977 280.416C21.4897 279.52 21.3857 278.632 21.3857 277.752C21.3857 276.84 21.4897 275.92 21.6977 274.992C21.9057 274.064 22.2257 273.216 22.6577 272.448C23.0897 271.68 23.6417 271.064 24.3137 270.6C24.9857 270.12 25.7937 269.88 26.7377 269.88C27.6017 269.88 28.3537 270.104 28.9937 270.552C29.6337 271 30.1617 271.6 30.5777 272.352C30.9937 273.088 31.3057 273.904 31.5137 274.8C31.7217 275.68 31.8257 276.552 31.8257 277.416C31.8257 278.312 31.7217 279.224 31.5137 280.152C31.3217 281.08 31.0097 281.936 30.5777 282.72C30.1457 283.504 29.5937 284.136 28.9217 284.616C28.2497 285.096 27.4337 285.336 26.4737 285.336ZM26.8817 284.544C27.4737 284.544 27.9457 284.232 28.2977 283.608C28.6657 282.968 28.9297 282.144 29.0897 281.136C29.2657 280.112 29.3537 279.016 29.3537 277.848C29.3537 276.968 29.2897 276.104 29.1617 275.256C29.0337 274.408 28.8417 273.64 28.5857 272.952C28.3297 272.264 28.0097 271.72 27.6257 271.32C27.2417 270.904 26.8017 270.696 26.3057 270.696C25.7137 270.696 25.2417 271.008 24.8897 271.632C24.5377 272.24 24.2817 273.048 24.1217 274.056C23.9617 275.064 23.8817 276.152 23.8817 277.32C23.8817 278.2 23.9457 279.072 24.0737 279.936C24.2017 280.8 24.3857 281.576 24.6257 282.264C24.8817 282.952 25.1937 283.504 25.5617 283.92C25.9297 284.336 26.3697 284.544 26.8817 284.544Z" fill="#333332"/>
<path d="M41.1367 278.688C40.4647 278.688 39.8968 278.488 39.4328 278.088C38.9688 277.688 38.6088 277.168 38.3528 276.528C38.0968 275.888 37.9688 275.216 37.9688 274.512C37.9688 273.744 38.1127 273.04 38.4007 272.4C38.6887 271.744 39.0968 271.224 39.6248 270.84C40.1528 270.44 40.7767 270.24 41.4967 270.24C42.1528 270.24 42.7048 270.432 43.1528 270.816C43.6168 271.184 43.9688 271.68 44.2088 272.304C44.4648 272.912 44.5928 273.56 44.5928 274.248C44.5928 275.048 44.4488 275.784 44.1608 276.456C43.8888 277.128 43.4967 277.672 42.9847 278.088C42.4727 278.488 41.8567 278.688 41.1367 278.688ZM41.3768 278.088C41.8088 278.088 42.1288 277.904 42.3368 277.536C42.5448 277.168 42.6808 276.712 42.7448 276.168C42.8088 275.608 42.8408 275.064 42.8408 274.536C42.8408 273.976 42.8007 273.424 42.7207 272.88C42.6407 272.32 42.4888 271.856 42.2648 271.488C42.0408 271.104 41.6968 270.912 41.2327 270.912C40.8328 270.912 40.5207 271.088 40.2967 271.44C40.0887 271.776 39.9447 272.2 39.8647 272.712C39.7847 273.224 39.7448 273.736 39.7448 274.248C39.7448 274.68 39.7607 275.12 39.7927 275.568C39.8407 276.016 39.9207 276.432 40.0327 276.816C40.1447 277.184 40.3048 277.488 40.5128 277.728C40.7208 277.968 41.0088 278.088 41.3768 278.088ZM49.8008 269.496C49.9288 269.304 50.0728 269.184 50.2327 269.136C50.4087 269.072 50.6087 269.04 50.8327 269.04C50.9287 269.04 51.0168 269.08 51.0968 269.16C51.1768 269.224 51.2168 269.304 51.2168 269.4C51.2168 269.448 51.2088 269.48 51.1928 269.496L40.9207 285.768C40.8087 285.944 40.6648 286.048 40.4888 286.08C40.3288 286.128 40.1528 286.152 39.9608 286.152C39.8488 286.152 39.7448 286.12 39.6488 286.056C39.5528 285.992 39.5047 285.92 39.5047 285.84C39.5047 285.808 39.5127 285.784 39.5287 285.768L49.8008 269.496ZM49.6087 285.408C48.9367 285.408 48.3688 285.208 47.9048 284.808C47.4408 284.408 47.0807 283.888 46.8247 283.248C46.5687 282.608 46.4408 281.936 46.4408 281.232C46.4408 280.464 46.5847 279.76 46.8727 279.12C47.1607 278.464 47.5688 277.944 48.0968 277.56C48.6248 277.16 49.2487 276.96 49.9688 276.96C50.6247 276.96 51.1767 277.152 51.6247 277.536C52.0887 277.904 52.4408 278.4 52.6808 279.024C52.9368 279.632 53.0648 280.28 53.0648 280.968C53.0648 281.768 52.9208 282.504 52.6328 283.176C52.3608 283.848 51.9687 284.392 51.4567 284.808C50.9447 285.208 50.3287 285.408 49.6087 285.408ZM49.8488 284.808C50.2808 284.808 50.6007 284.624 50.8088 284.256C51.0168 283.888 51.1528 283.432 51.2168 282.888C51.2808 282.328 51.3128 281.784 51.3128 281.256C51.3128 280.696 51.2728 280.144 51.1928 279.6C51.1128 279.04 50.9608 278.576 50.7368 278.208C50.5128 277.824 50.1687 277.632 49.7048 277.632C49.3047 277.632 48.9927 277.808 48.7687 278.16C48.5607 278.496 48.4167 278.92 48.3368 279.432C48.2567 279.944 48.2168 280.456 48.2168 280.968C48.2168 281.4 48.2328 281.84 48.2648 282.288C48.3128 282.736 48.3927 283.152 48.5047 283.536C48.6167 283.904 48.7767 284.208 48.9847 284.448C49.1927 284.688 49.4808 284.808 49.8488 284.808Z" fill="#333332"/>
<path d="M13.608 422.072C13.528 422.072 13.432 422.048 13.32 422C13.208 421.936 13.152 421.848 13.152 421.736C13.152 421.64 13.2 421.568 13.296 421.52C13.408 421.456 13.52 421.416 13.632 421.4C14.336 421.288 14.808 421.128 15.048 420.92C15.288 420.696 15.408 420.376 15.408 419.96V418.04C15.408 417.96 15.352 417.904 15.24 417.872C15.128 417.84 15.056 417.824 15.024 417.824C14.416 417.824 13.816 417.84 13.224 417.872C12.632 417.888 12.016 417.912 11.376 417.944C10.752 417.96 10.056 417.976 9.288 417.992C9.224 417.992 9.16 417.968 9.096 417.92C9.032 417.872 9 417.816 9 417.752C9 417.72 9.024 417.68 9.072 417.632C9.248 417.408 9.376 417.248 9.456 417.152C9.552 417.056 9.632 416.968 9.696 416.888C9.76 416.808 9.84 416.696 9.936 416.552L16.104 407.336C16.216 407.16 16.352 406.992 16.512 406.832C16.672 406.672 16.824 406.592 16.968 406.592H17.352C17.448 406.592 17.48 406.648 17.448 406.76C17.432 406.872 17.416 406.944 17.4 406.976L11.208 416.168C11.176 416.232 11.16 416.296 11.16 416.36C11.16 416.408 11.2 416.432 11.28 416.432H15.144C15.208 416.432 15.264 416.416 15.312 416.384C15.376 416.336 15.408 416.288 15.408 416.24V412.832C15.408 412.608 15.416 412.464 15.432 412.4C15.464 412.32 15.544 412.248 15.672 412.184C15.976 412.024 16.304 411.92 16.656 411.872C17.008 411.824 17.256 411.8 17.4 411.8C17.624 411.8 17.752 411.944 17.784 412.232C17.832 412.504 17.856 412.912 17.856 413.456V416.336C17.856 416.448 17.896 416.504 17.976 416.504C18.168 416.52 18.328 416.528 18.456 416.528C18.6 416.528 18.752 416.528 18.912 416.528C19.136 416.528 19.36 416.528 19.584 416.528C19.808 416.512 20.048 416.496 20.304 416.48C20.48 416.48 20.568 416.536 20.568 416.648C20.568 416.776 20.536 416.936 20.472 417.128C20.408 417.304 20.328 417.456 20.232 417.584C20.152 417.712 20.096 417.776 20.064 417.776C19.888 417.776 19.696 417.776 19.488 417.776C19.296 417.76 19.096 417.752 18.888 417.752C18.744 417.752 18.616 417.76 18.504 417.776C18.392 417.776 18.288 417.784 18.192 417.8C18.128 417.816 18.056 417.84 17.976 417.872C17.912 417.904 17.88 417.928 17.88 417.944V419.888C17.88 420.352 17.984 420.68 18.192 420.872C18.416 421.048 18.84 421.224 19.464 421.4C19.576 421.416 19.68 421.456 19.776 421.52C19.888 421.584 19.944 421.672 19.944 421.784C19.944 421.848 19.904 421.912 19.824 421.976C19.744 422.04 19.648 422.072 19.536 422.072C19.12 422.072 18.752 422.056 18.432 422.024C18.128 422.008 17.832 421.992 17.544 421.976C17.272 421.96 16.952 421.952 16.584 421.952C16.2 421.952 15.864 421.96 15.576 421.976C15.288 421.992 14.992 422.008 14.688 422.024C14.384 422.056 14.024 422.072 13.608 422.072Z" fill="#333332"/>
<path d="M26.4737 422.336C25.6097 422.336 24.8577 422.112 24.2177 421.664C23.5937 421.216 23.0657 420.624 22.6337 419.888C22.2177 419.136 21.9057 418.312 21.6977 417.416C21.4897 416.52 21.3857 415.632 21.3857 414.752C21.3857 413.84 21.4897 412.92 21.6977 411.992C21.9057 411.064 22.2257 410.216 22.6577 409.448C23.0897 408.68 23.6417 408.064 24.3137 407.6C24.9857 407.12 25.7937 406.88 26.7377 406.88C27.6017 406.88 28.3537 407.104 28.9937 407.552C29.6337 408 30.1617 408.6 30.5777 409.352C30.9937 410.088 31.3057 410.904 31.5137 411.8C31.7217 412.68 31.8257 413.552 31.8257 414.416C31.8257 415.312 31.7217 416.224 31.5137 417.152C31.3217 418.08 31.0097 418.936 30.5777 419.72C30.1457 420.504 29.5937 421.136 28.9217 421.616C28.2497 422.096 27.4337 422.336 26.4737 422.336ZM26.8817 421.544C27.4737 421.544 27.9457 421.232 28.2977 420.608C28.6657 419.968 28.9297 419.144 29.0897 418.136C29.2657 417.112 29.3537 416.016 29.3537 414.848C29.3537 413.968 29.2897 413.104 29.1617 412.256C29.0337 411.408 28.8417 410.64 28.5857 409.952C28.3297 409.264 28.0097 408.72 27.6257 408.32C27.2417 407.904 26.8017 407.696 26.3057 407.696C25.7137 407.696 25.2417 408.008 24.8897 408.632C24.5377 409.24 24.2817 410.048 24.1217 411.056C23.9617 412.064 23.8817 413.152 23.8817 414.32C23.8817 415.2 23.9457 416.072 24.0737 416.936C24.2017 417.8 24.3857 418.576 24.6257 419.264C24.8817 419.952 25.1937 420.504 25.5617 420.92C25.9297 421.336 26.3697 421.544 26.8817 421.544Z" fill="#333332"/>
<path d="M41.1367 415.688C40.4647 415.688 39.8968 415.488 39.4328 415.088C38.9688 414.688 38.6088 414.168 38.3528 413.528C38.0968 412.888 37.9688 412.216 37.9688 411.512C37.9688 410.744 38.1127 410.04 38.4007 409.4C38.6887 408.744 39.0968 408.224 39.6248 407.84C40.1528 407.44 40.7767 407.24 41.4967 407.24C42.1528 407.24 42.7048 407.432 43.1528 407.816C43.6168 408.184 43.9688 408.68 44.2088 409.304C44.4648 409.912 44.5928 410.56 44.5928 411.248C44.5928 412.048 44.4488 412.784 44.1608 413.456C43.8888 414.128 43.4967 414.672 42.9847 415.088C42.4727 415.488 41.8567 415.688 41.1367 415.688ZM41.3768 415.088C41.8088 415.088 42.1288 414.904 42.3368 414.536C42.5448 414.168 42.6808 413.712 42.7448 413.168C42.8088 412.608 42.8408 412.064 42.8408 411.536C42.8408 410.976 42.8007 410.424 42.7207 409.88C42.6407 409.32 42.4888 408.856 42.2648 408.488C42.0408 408.104 41.6968 407.912 41.2327 407.912C40.8328 407.912 40.5207 408.088 40.2967 408.44C40.0887 408.776 39.9447 409.2 39.8647 409.712C39.7847 410.224 39.7448 410.736 39.7448 411.248C39.7448 411.68 39.7607 412.12 39.7927 412.568C39.8407 413.016 39.9207 413.432 40.0327 413.816C40.1447 414.184 40.3048 414.488 40.5128 414.728C40.7208 414.968 41.0088 415.088 41.3768 415.088ZM49.8008 406.496C49.9288 406.304 50.0728 406.184 50.2327 406.136C50.4087 406.072 50.6087 406.04 50.8327 406.04C50.9287 406.04 51.0168 406.08 51.0968 406.16C51.1768 406.224 51.2168 406.304 51.2168 406.4C51.2168 406.448 51.2088 406.48 51.1928 406.496L40.9207 422.768C40.8087 422.944 40.6648 423.048 40.4888 423.08C40.3288 423.128 40.1528 423.152 39.9608 423.152C39.8488 423.152 39.7448 423.12 39.6488 423.056C39.5528 422.992 39.5047 422.92 39.5047 422.84C39.5047 422.808 39.5127 422.784 39.5287 422.768L49.8008 406.496ZM49.6087 422.408C48.9367 422.408 48.3688 422.208 47.9048 421.808C47.4408 421.408 47.0807 420.888 46.8247 420.248C46.5687 419.608 46.4408 418.936 46.4408 418.232C46.4408 417.464 46.5847 416.76 46.8727 416.12C47.1607 415.464 47.5688 414.944 48.0968 414.56C48.6248 414.16 49.2487 413.96 49.9688 413.96C50.6247 413.96 51.1767 414.152 51.6247 414.536C52.0887 414.904 52.4408 415.4 52.6808 416.024C52.9368 416.632 53.0648 417.28 53.0648 417.968C53.0648 418.768 52.9208 419.504 52.6328 420.176C52.3608 420.848 51.9687 421.392 51.4567 421.808C50.9447 422.208 50.3287 422.408 49.6087 422.408ZM49.8488 421.808C50.2808 421.808 50.6007 421.624 50.8088 421.256C51.0168 420.888 51.1528 420.432 51.2168 419.888C51.2808 419.328 51.3128 418.784 51.3128 418.256C51.3128 417.696 51.2728 417.144 51.1928 416.6C51.1128 416.04 50.9608 415.576 50.7368 415.208C50.5128 414.824 50.1687 414.632 49.7048 414.632C49.3047 414.632 48.9927 414.808 48.7687 415.16C48.5607 415.496 48.4167 415.92 48.3368 416.432C48.2567 416.944 48.2168 417.456 48.2168 417.968C48.2168 418.4 48.2328 418.84 48.2648 419.288C48.3128 419.736 48.3927 420.152 48.5047 420.536C48.6167 420.904 48.7767 421.208 48.9847 421.448C49.1927 421.688 49.4808 421.808 49.8488 421.808Z" fill="#333332"/>
<path d="M18.864 559.072C18.768 559.072 18.576 559.064 18.288 559.048C18 559.048 17.664 559.04 17.28 559.024C16.912 559.008 16.528 558.992 16.128 558.976C15.728 558.96 15.36 558.952 15.024 558.952C14.704 558.952 14.28 558.96 13.752 558.976C13.24 558.992 12.712 559 12.168 559C11.64 559.016 11.176 559.024 10.776 559.024C10.392 559.04 10.144 559.048 10.032 559.048C9.984 559.048 9.888 559 9.744 558.904C9.616 558.808 9.552 558.72 9.552 558.64C9.552 558.544 9.576 558.472 9.624 558.424C9.672 558.376 9.728 558.32 9.792 558.256L13.68 554.128C14.496 553.264 15.144 552.336 15.624 551.344C16.12 550.352 16.368 549.312 16.368 548.224C16.368 547.44 16.144 546.816 15.696 546.352C15.248 545.872 14.688 545.632 14.016 545.632C13.392 545.632 12.808 545.808 12.264 546.16C11.736 546.496 11.304 546.92 10.968 547.432C10.904 547.528 10.824 547.616 10.728 547.696C10.632 547.776 10.528 547.816 10.416 547.816C10.336 547.816 10.256 547.752 10.176 547.624C10.112 547.496 10.08 547.336 10.08 547.144C10.08 546.936 10.2 546.656 10.44 546.304C10.68 545.936 11.016 545.568 11.448 545.2C11.88 544.832 12.392 544.52 12.984 544.264C13.576 544.008 14.216 543.88 14.904 543.88C15.704 543.88 16.392 544.056 16.968 544.408C17.544 544.744 17.984 545.216 18.288 545.824C18.592 546.416 18.744 547.096 18.744 547.864C18.744 548.296 18.656 548.768 18.48 549.28C18.32 549.792 18.104 550.288 17.832 550.768C17.56 551.248 17.256 551.688 16.92 552.088C16.712 552.344 16.408 552.672 16.008 553.072C15.624 553.472 15.208 553.896 14.76 554.344C14.328 554.776 13.912 555.192 13.512 555.592C13.112 555.976 12.784 556.296 12.528 556.552C12.288 556.808 12.168 556.952 12.168 556.984C12.168 557.048 12.28 557.096 12.504 557.128C12.792 557.16 13.112 557.184 13.464 557.2C13.832 557.216 14.224 557.224 14.64 557.224C15.072 557.224 15.496 557.216 15.912 557.2C16.344 557.184 16.76 557.16 17.16 557.128C17.592 557.096 17.936 557.048 18.192 556.984C18.448 556.92 18.664 556.8 18.84 556.624C19.032 556.448 19.216 556.2 19.392 555.88C19.456 555.784 19.544 555.672 19.656 555.544C19.768 555.416 19.888 555.352 20.016 555.352C20.112 555.352 20.176 555.392 20.208 555.472C20.24 555.552 20.248 555.632 20.232 555.712C20.184 555.904 20.104 556.16 19.992 556.48C19.88 556.8 19.768 557.144 19.656 557.512C19.544 557.864 19.456 558.2 19.392 558.52C19.36 558.744 19.28 558.896 19.152 558.976C19.04 559.04 18.944 559.072 18.864 559.072Z" fill="#333332"/>
<path d="M26.4737 559.336C25.6097 559.336 24.8577 559.112 24.2177 558.664C23.5937 558.216 23.0657 557.624 22.6337 556.888C22.2177 556.136 21.9057 555.312 21.6977 554.416C21.4897 553.52 21.3857 552.632 21.3857 551.752C21.3857 550.84 21.4897 549.92 21.6977 548.992C21.9057 548.064 22.2257 547.216 22.6577 546.448C23.0897 545.68 23.6417 545.064 24.3137 544.6C24.9857 544.12 25.7937 543.88 26.7377 543.88C27.6017 543.88 28.3537 544.104 28.9937 544.552C29.6337 545 30.1617 545.6 30.5777 546.352C30.9937 547.088 31.3057 547.904 31.5137 548.8C31.7217 549.68 31.8257 550.552 31.8257 551.416C31.8257 552.312 31.7217 553.224 31.5137 554.152C31.3217 555.08 31.0097 555.936 30.5777 556.72C30.1457 557.504 29.5937 558.136 28.9217 558.616C28.2497 559.096 27.4337 559.336 26.4737 559.336ZM26.8817 558.544C27.4737 558.544 27.9457 558.232 28.2977 557.608C28.6657 556.968 28.9297 556.144 29.0897 555.136C29.2657 554.112 29.3537 553.016 29.3537 551.848C29.3537 550.968 29.2897 550.104 29.1617 549.256C29.0337 548.408 28.8417 547.64 28.5857 546.952C28.3297 546.264 28.0097 545.72 27.6257 545.32C27.2417 544.904 26.8017 544.696 26.3057 544.696C25.7137 544.696 25.2417 545.008 24.8897 545.632C24.5377 546.24 24.2817 547.048 24.1217 548.056C23.9617 549.064 23.8817 550.152 23.8817 551.32C23.8817 552.2 23.9457 553.072 24.0737 553.936C24.2017 554.8 24.3857 555.576 24.6257 556.264C24.8817 556.952 25.1937 557.504 25.5617 557.92C25.9297 558.336 26.3697 558.544 26.8817 558.544Z" fill="#333332"/>
<path d="M41.1367 552.688C40.4647 552.688 39.8968 552.488 39.4328 552.088C38.9688 551.688 38.6088 551.168 38.3528 550.528C38.0968 549.888 37.9688 549.216 37.9688 548.512C37.9688 547.744 38.1127 547.04 38.4007 546.4C38.6887 545.744 39.0968 545.224 39.6248 544.84C40.1528 544.44 40.7767 544.24 41.4967 544.24C42.1528 544.24 42.7048 544.432 43.1528 544.816C43.6168 545.184 43.9688 545.68 44.2088 546.304C44.4648 546.912 44.5928 547.56 44.5928 548.248C44.5928 549.048 44.4488 549.784 44.1608 550.456C43.8888 551.128 43.4967 551.672 42.9847 552.088C42.4727 552.488 41.8567 552.688 41.1367 552.688ZM41.3768 552.088C41.8088 552.088 42.1288 551.904 42.3368 551.536C42.5448 551.168 42.6808 550.712 42.7448 550.168C42.8088 549.608 42.8408 549.064 42.8408 548.536C42.8408 547.976 42.8007 547.424 42.7207 546.88C42.6407 546.32 42.4888 545.856 42.2648 545.488C42.0408 545.104 41.6968 544.912 41.2327 544.912C40.8328 544.912 40.5207 545.088 40.2967 545.44C40.0887 545.776 39.9447 546.2 39.8647 546.712C39.7847 547.224 39.7448 547.736 39.7448 548.248C39.7448 548.68 39.7607 549.12 39.7927 549.568C39.8407 550.016 39.9207 550.432 40.0327 550.816C40.1447 551.184 40.3048 551.488 40.5128 551.728C40.7208 551.968 41.0088 552.088 41.3768 552.088ZM49.8008 543.496C49.9288 543.304 50.0728 543.184 50.2327 543.136C50.4087 543.072 50.6087 543.04 50.8327 543.04C50.9287 543.04 51.0168 543.08 51.0968 543.16C51.1768 543.224 51.2168 543.304 51.2168 543.4C51.2168 543.448 51.2088 543.48 51.1928 543.496L40.9207 559.768C40.8087 559.944 40.6648 560.048 40.4888 560.08C40.3288 560.128 40.1528 560.152 39.9608 560.152C39.8488 560.152 39.7448 560.12 39.6488 560.056C39.5528 559.992 39.5047 559.92 39.5047 559.84C39.5047 559.808 39.5127 559.784 39.5287 559.768L49.8008 543.496ZM49.6087 559.408C48.9367 559.408 48.3688 559.208 47.9048 558.808C47.4408 558.408 47.0807 557.888 46.8247 557.248C46.5687 556.608 46.4408 555.936 46.4408 555.232C46.4408 554.464 46.5847 553.76 46.8727 553.12C47.1607 552.464 47.5688 551.944 48.0968 551.56C48.6248 551.16 49.2487 550.96 49.9688 550.96C50.6247 550.96 51.1767 551.152 51.6247 551.536C52.0887 551.904 52.4408 552.4 52.6808 553.024C52.9368 553.632 53.0648 554.28 53.0648 554.968C53.0648 555.768 52.9208 556.504 52.6328 557.176C52.3608 557.848 51.9687 558.392 51.4567 558.808C50.9447 559.208 50.3287 559.408 49.6087 559.408ZM49.8488 558.808C50.2808 558.808 50.6007 558.624 50.8088 558.256C51.0168 557.888 51.1528 557.432 51.2168 556.888C51.2808 556.328 51.3128 555.784 51.3128 555.256C51.3128 554.696 51.2728 554.144 51.1928 553.6C51.1128 553.04 50.9608 552.576 50.7368 552.208C50.5128 551.824 50.1687 551.632 49.7048 551.632C49.3047 551.632 48.9927 551.808 48.7687 552.16C48.5607 552.496 48.4167 552.92 48.3368 553.432C48.2567 553.944 48.2168 554.456 48.2168 554.968C48.2168 555.4 48.2328 555.84 48.2648 556.288C48.3128 556.736 48.3927 557.152 48.5047 557.536C48.6167 557.904 48.7767 558.208 48.9847 558.448C49.1927 558.688 49.4808 558.808 49.8488 558.808Z" fill="#333332"/>
<path d="M362.64 729.072C362.544 729.072 362.456 729.04 362.376 728.976C362.312 728.912 362.28 728.84 362.28 728.76C362.28 728.584 362.408 728.464 362.664 728.4C363.208 728.24 363.664 728.104 364.032 727.992C364.4 727.864 364.672 727.688 364.848 727.464C365.04 727.224 365.136 726.888 365.136 726.456V717.456C365.136 717.136 365.04 716.888 364.848 716.712C364.656 716.536 364.4 716.416 364.08 716.352C363.776 716.272 363.448 716.216 363.096 716.184C362.952 716.168 362.808 716.128 362.664 716.064C362.536 715.984 362.472 715.872 362.472 715.728C362.472 715.584 362.536 715.472 362.664 715.392C362.792 715.296 362.944 715.24 363.12 715.224C363.92 715.128 364.632 714.992 365.256 714.816C365.896 714.624 366.528 714.272 367.152 713.76C367.168 713.744 367.192 713.736 367.224 713.736C367.256 713.72 367.288 713.712 367.32 713.712C367.416 713.712 367.496 713.736 367.56 713.784C367.64 713.832 367.68 713.888 367.68 713.952C367.648 714.176 367.616 714.424 367.584 714.696C367.568 714.968 367.56 715.288 367.56 715.656V726.672C367.56 727.04 367.64 727.328 367.8 727.536C367.976 727.728 368.24 727.888 368.592 728.016C368.96 728.128 369.44 728.256 370.032 728.4C370.144 728.432 370.24 728.48 370.32 728.544C370.4 728.592 370.44 728.672 370.44 728.784C370.44 728.976 370.328 729.072 370.104 729.072C369.688 729.072 369.264 729.056 368.832 729.024C368.416 729.008 368 728.992 367.584 728.976C367.184 728.96 366.784 728.952 366.384 728.952C365.984 728.952 365.576 728.96 365.16 728.976C364.744 728.992 364.32 729.008 363.888 729.024C363.472 729.056 363.056 729.072 362.64 729.072Z" fill="#333332"/>
<path d="M374.738 729.912C374.546 729.912 374.33 729.888 374.09 729.84C373.866 729.808 373.754 729.728 373.754 729.6C373.754 729.456 373.858 729.344 374.066 729.264C374.29 729.184 374.49 729.136 374.666 729.12C375.818 729.088 376.794 728.856 377.594 728.424C378.394 727.992 378.994 727.456 379.394 726.816C379.81 726.176 380.018 725.528 380.018 724.872C380.018 724.264 379.842 723.728 379.49 723.264C379.138 722.784 378.57 722.352 377.786 721.968C377.018 721.584 375.978 721.216 374.666 720.864C374.362 720.688 374.146 720.512 374.018 720.336C373.906 720.16 373.85 719.952 373.85 719.712C373.85 719.488 373.89 719.2 373.97 718.848C374.066 718.496 374.178 718.128 374.306 717.744C374.434 717.344 374.554 716.968 374.666 716.616C374.794 716.248 374.89 715.96 374.954 715.752C375.05 715.464 375.186 715.248 375.362 715.104C375.538 714.944 375.754 714.832 376.01 714.768C376.346 714.688 376.73 714.608 377.162 714.528C377.61 714.432 378.066 714.352 378.53 714.288C379.01 714.208 379.474 714.136 379.922 714.072C380.37 714.008 380.77 713.96 381.122 713.928C381.25 713.912 381.346 713.952 381.41 714.048C381.474 714.144 381.482 714.256 381.434 714.384C381.386 714.544 381.314 714.72 381.218 714.912C381.122 715.088 381.034 715.264 380.954 715.44C380.842 715.696 380.69 715.904 380.498 716.064C380.322 716.208 380.106 716.296 379.85 716.328C379.562 716.36 379.218 716.392 378.818 716.424C378.418 716.456 378.018 716.488 377.618 716.52C377.218 716.552 376.85 716.584 376.514 716.616C376.194 716.632 375.954 716.656 375.794 716.688C375.682 716.704 375.554 716.816 375.41 717.024C375.282 717.232 375.17 717.456 375.074 717.696C374.978 717.936 374.922 718.112 374.906 718.224C374.89 718.336 374.906 718.424 374.954 718.488C375.002 718.552 375.082 718.6 375.194 718.632C376.09 718.856 376.898 719.096 377.618 719.352C378.338 719.608 378.97 719.88 379.514 720.168C380.458 720.648 381.154 721.224 381.602 721.896C382.05 722.568 382.274 723.368 382.274 724.296C382.274 725.192 382.002 726.032 381.458 726.816C380.93 727.6 380.218 728.248 379.322 728.76C378.938 728.968 378.498 729.16 378.002 729.336C377.506 729.512 376.986 729.648 376.442 729.744C375.898 729.856 375.33 729.912 374.738 729.912Z" fill="#333332"/>
<path d="M389.859 729.336C389.059 729.336 388.315 729.176 387.627 728.856C386.955 728.536 386.411 728.096 385.995 727.536C385.579 726.976 385.371 726.328 385.371 725.592C385.371 724.92 385.555 724.352 385.923 723.888C386.291 723.424 386.731 723.032 387.243 722.712C387.755 722.392 388.219 722.112 388.635 721.872C388.763 721.808 388.803 721.76 388.755 721.728C388.723 721.68 388.659 721.616 388.563 721.536C388.083 721.136 387.627 720.744 387.195 720.36C386.779 719.96 386.435 719.52 386.163 719.04C385.907 718.544 385.779 717.976 385.779 717.336C385.779 716.664 386.003 716.072 386.451 715.56C386.915 715.048 387.499 714.64 388.203 714.336C388.923 714.032 389.659 713.88 390.411 713.88C391.083 713.88 391.723 714.016 392.331 714.288C392.955 714.56 393.459 714.944 393.843 715.44C394.227 715.92 394.419 716.496 394.419 717.168C394.419 717.76 394.275 718.24 393.987 718.608C393.699 718.976 393.403 719.272 393.099 719.496C392.891 719.656 392.699 719.8 392.523 719.928C392.347 720.04 392.139 720.184 391.899 720.36C391.675 720.504 391.563 720.608 391.563 720.672C391.563 720.736 391.635 720.808 391.779 720.888C392.371 721.304 392.899 721.712 393.363 722.112C393.843 722.496 394.211 722.92 394.467 723.384C394.739 723.832 394.875 724.368 394.875 724.992C394.875 725.84 394.635 726.592 394.155 727.248C393.675 727.904 393.051 728.416 392.283 728.784C391.531 729.152 390.723 729.336 389.859 729.336ZM390.219 728.52C390.875 728.52 391.419 728.28 391.851 727.8C392.299 727.304 392.523 726.728 392.523 726.072C392.523 725.592 392.379 725.136 392.091 724.704C391.819 724.272 391.475 723.864 391.059 723.48C390.643 723.096 390.227 722.752 389.811 722.448C389.715 722.368 389.635 722.312 389.571 722.28C389.507 722.232 389.435 722.208 389.355 722.208C389.307 722.208 389.211 722.264 389.067 722.376C388.603 722.76 388.267 723.16 388.059 723.576C387.851 723.992 387.747 724.56 387.747 725.28C387.747 725.824 387.843 726.344 388.035 726.84C388.227 727.32 388.507 727.72 388.875 728.04C389.259 728.36 389.707 728.52 390.219 728.52ZM391.035 720.216C391.499 719.832 391.803 719.368 391.947 718.824C392.091 718.28 392.163 717.68 392.163 717.024C392.163 716.368 392.003 715.808 391.683 715.344C391.379 714.864 390.891 714.624 390.219 714.624C389.867 714.624 389.523 714.72 389.187 714.912C388.867 715.104 388.595 715.36 388.371 715.68C388.163 716 388.059 716.368 388.059 716.784C388.059 717.328 388.171 717.776 388.395 718.128C388.619 718.48 388.923 718.808 389.307 719.112C389.707 719.4 390.155 719.752 390.651 720.168C390.715 720.216 390.779 720.248 390.843 720.264C390.923 720.28 390.987 720.264 391.035 720.216Z" fill="#333332"/>
<path d="M398.597 729.912C398.405 729.912 398.189 729.888 397.949 729.84C397.725 729.808 397.613 729.728 397.613 729.6C397.613 729.456 397.717 729.344 397.925 729.264C398.149 729.184 398.349 729.136 398.525 729.12C399.677 729.088 400.653 728.856 401.453 728.424C402.253 727.992 402.853 727.456 403.253 726.816C403.669 726.176 403.877 725.528 403.877 724.872C403.877 724.264 403.701 723.728 403.349 723.264C402.997 722.784 402.429 722.352 401.645 721.968C400.877 721.584 399.837 721.216 398.525 720.864C398.221 720.688 398.005 720.512 397.877 720.336C397.765 720.16 397.709 719.952 397.709 719.712C397.709 719.488 397.749 719.2 397.829 718.848C397.925 718.496 398.037 718.128 398.165 717.744C398.293 717.344 398.413 716.968 398.525 716.616C398.653 716.248 398.749 715.96 398.813 715.752C398.909 715.464 399.045 715.248 399.221 715.104C399.397 714.944 399.613 714.832 399.869 714.768C400.205 714.688 400.589 714.608 401.021 714.528C401.469 714.432 401.925 714.352 402.389 714.288C402.869 714.208 403.333 714.136 403.781 714.072C404.229 714.008 404.629 713.96 404.981 713.928C405.109 713.912 405.205 713.952 405.269 714.048C405.333 714.144 405.341 714.256 405.293 714.384C405.245 714.544 405.173 714.72 405.077 714.912C404.981 715.088 404.893 715.264 404.813 715.44C404.701 715.696 404.549 715.904 404.357 716.064C404.181 716.208 403.965 716.296 403.709 716.328C403.421 716.36 403.077 716.392 402.677 716.424C402.277 716.456 401.877 716.488 401.477 716.52C401.077 716.552 400.709 716.584 400.373 716.616C400.053 716.632 399.813 716.656 399.653 716.688C399.541 716.704 399.413 716.816 399.269 717.024C399.141 717.232 399.029 717.456 398.933 717.696C398.837 717.936 398.781 718.112 398.765 718.224C398.749 718.336 398.765 718.424 398.813 718.488C398.861 718.552 398.941 718.6 399.053 718.632C399.949 718.856 400.757 719.096 401.477 719.352C402.197 719.608 402.829 719.88 403.373 720.168C404.317 720.648 405.013 721.224 405.461 721.896C405.909 722.568 406.133 723.368 406.133 724.296C406.133 725.192 405.861 726.032 405.317 726.816C404.789 727.6 404.077 728.248 403.181 728.76C402.797 728.968 402.357 729.16 401.861 729.336C401.365 729.512 400.845 729.648 400.301 729.744C399.757 729.856 399.189 729.912 398.597 729.912Z" fill="#333332"/>
<path d="M536.64 729.072C536.544 729.072 536.456 729.04 536.376 728.976C536.312 728.912 536.28 728.84 536.28 728.76C536.28 728.584 536.408 728.464 536.664 728.4C537.208 728.24 537.664 728.104 538.032 727.992C538.4 727.864 538.672 727.688 538.848 727.464C539.04 727.224 539.136 726.888 539.136 726.456V717.456C539.136 717.136 539.04 716.888 538.848 716.712C538.656 716.536 538.4 716.416 538.08 716.352C537.776 716.272 537.448 716.216 537.096 716.184C536.952 716.168 536.808 716.128 536.664 716.064C536.536 715.984 536.472 715.872 536.472 715.728C536.472 715.584 536.536 715.472 536.664 715.392C536.792 715.296 536.944 715.24 537.12 715.224C537.92 715.128 538.632 714.992 539.256 714.816C539.896 714.624 540.528 714.272 541.152 713.76C541.168 713.744 541.192 713.736 541.224 713.736C541.256 713.72 541.288 713.712 541.32 713.712C541.416 713.712 541.496 713.736 541.56 713.784C541.64 713.832 541.68 713.888 541.68 713.952C541.648 714.176 541.616 714.424 541.584 714.696C541.568 714.968 541.56 715.288 541.56 715.656V726.672C541.56 727.04 541.64 727.328 541.8 727.536C541.976 727.728 542.24 727.888 542.592 728.016C542.96 728.128 543.44 728.256 544.032 728.4C544.144 728.432 544.24 728.48 544.32 728.544C544.4 728.592 544.44 728.672 544.44 728.784C544.44 728.976 544.328 729.072 544.104 729.072C543.688 729.072 543.264 729.056 542.832 729.024C542.416 729.008 542 728.992 541.584 728.976C541.184 728.96 540.784 728.952 540.384 728.952C539.984 728.952 539.576 728.96 539.16 728.976C538.744 728.992 538.32 729.008 537.888 729.024C537.472 729.056 537.056 729.072 536.64 729.072Z" fill="#333332"/>
<path d="M548.738 729.912C548.546 729.912 548.33 729.888 548.09 729.84C547.866 729.808 547.754 729.728 547.754 729.6C547.754 729.456 547.858 729.344 548.066 729.264C548.29 729.184 548.49 729.136 548.666 729.12C549.818 729.088 550.794 728.856 551.594 728.424C552.394 727.992 552.994 727.456 553.394 726.816C553.81 726.176 554.018 725.528 554.018 724.872C554.018 724.264 553.842 723.728 553.49 723.264C553.138 722.784 552.57 722.352 551.786 721.968C551.018 721.584 549.978 721.216 548.666 720.864C548.362 720.688 548.146 720.512 548.018 720.336C547.906 720.16 547.85 719.952 547.85 719.712C547.85 719.488 547.89 719.2 547.97 718.848C548.066 718.496 548.178 718.128 548.306 717.744C548.434 717.344 548.554 716.968 548.666 716.616C548.794 716.248 548.89 715.96 548.954 715.752C549.05 715.464 549.186 715.248 549.362 715.104C549.538 714.944 549.754 714.832 550.01 714.768C550.346 714.688 550.73 714.608 551.162 714.528C551.61 714.432 552.066 714.352 552.53 714.288C553.01 714.208 553.474 714.136 553.922 714.072C554.37 714.008 554.77 713.96 555.122 713.928C555.25 713.912 555.346 713.952 555.41 714.048C555.474 714.144 555.482 714.256 555.434 714.384C555.386 714.544 555.314 714.72 555.218 714.912C555.122 715.088 555.034 715.264 554.954 715.44C554.842 715.696 554.69 715.904 554.498 716.064C554.322 716.208 554.106 716.296 553.85 716.328C553.562 716.36 553.218 716.392 552.818 716.424C552.418 716.456 552.018 716.488 551.618 716.52C551.218 716.552 550.85 716.584 550.514 716.616C550.194 716.632 549.954 716.656 549.794 716.688C549.682 716.704 549.554 716.816 549.41 717.024C549.282 717.232 549.17 717.456 549.074 717.696C548.978 717.936 548.922 718.112 548.906 718.224C548.89 718.336 548.906 718.424 548.954 718.488C549.002 718.552 549.082 718.6 549.194 718.632C550.09 718.856 550.898 719.096 551.618 719.352C552.338 719.608 552.97 719.88 553.514 720.168C554.458 720.648 555.154 721.224 555.602 721.896C556.05 722.568 556.274 723.368 556.274 724.296C556.274 725.192 556.002 726.032 555.458 726.816C554.93 727.6 554.218 728.248 553.322 728.76C552.938 728.968 552.498 729.16 552.002 729.336C551.506 729.512 550.986 729.648 550.442 729.744C549.898 729.856 549.33 729.912 548.738 729.912Z" fill="#333332"/>
<path d="M563.859 729.336C563.059 729.336 562.315 729.176 561.627 728.856C560.955 728.536 560.411 728.096 559.995 727.536C559.579 726.976 559.371 726.328 559.371 725.592C559.371 724.92 559.555 724.352 559.923 723.888C560.291 723.424 560.731 723.032 561.243 722.712C561.755 722.392 562.219 722.112 562.635 721.872C562.763 721.808 562.803 721.76 562.755 721.728C562.723 721.68 562.659 721.616 562.563 721.536C562.083 721.136 561.627 720.744 561.195 720.36C560.779 719.96 560.435 719.52 560.163 719.04C559.907 718.544 559.779 717.976 559.779 717.336C559.779 716.664 560.003 716.072 560.451 715.56C560.915 715.048 561.499 714.64 562.203 714.336C562.923 714.032 563.659 713.88 564.411 713.88C565.083 713.88 565.723 714.016 566.331 714.288C566.955 714.56 567.459 714.944 567.843 715.44C568.227 715.92 568.419 716.496 568.419 717.168C568.419 717.76 568.275 718.24 567.987 718.608C567.699 718.976 567.403 719.272 567.099 719.496C566.891 719.656 566.699 719.8 566.523 719.928C566.347 720.04 566.139 720.184 565.899 720.36C565.675 720.504 565.563 720.608 565.563 720.672C565.563 720.736 565.635 720.808 565.779 720.888C566.371 721.304 566.899 721.712 567.363 722.112C567.843 722.496 568.211 722.92 568.467 723.384C568.739 723.832 568.875 724.368 568.875 724.992C568.875 725.84 568.635 726.592 568.155 727.248C567.675 727.904 567.051 728.416 566.283 728.784C565.531 729.152 564.723 729.336 563.859 729.336ZM564.219 728.52C564.875 728.52 565.419 728.28 565.851 727.8C566.299 727.304 566.523 726.728 566.523 726.072C566.523 725.592 566.379 725.136 566.091 724.704C565.819 724.272 565.475 723.864 565.059 723.48C564.643 723.096 564.227 722.752 563.811 722.448C563.715 722.368 563.635 722.312 563.571 722.28C563.507 722.232 563.435 722.208 563.355 722.208C563.307 722.208 563.211 722.264 563.067 722.376C562.603 722.76 562.267 723.16 562.059 723.576C561.851 723.992 561.747 724.56 561.747 725.28C561.747 725.824 561.843 726.344 562.035 726.84C562.227 727.32 562.507 727.72 562.875 728.04C563.259 728.36 563.707 728.52 564.219 728.52ZM565.035 720.216C565.499 719.832 565.803 719.368 565.947 718.824C566.091 718.28 566.163 717.68 566.163 717.024C566.163 716.368 566.003 715.808 565.683 715.344C565.379 714.864 564.891 714.624 564.219 714.624C563.867 714.624 563.523 714.72 563.187 714.912C562.867 715.104 562.595 715.36 562.371 715.68C562.163 716 562.059 716.368 562.059 716.784C562.059 717.328 562.171 717.776 562.395 718.128C562.619 718.48 562.923 718.808 563.307 719.112C563.707 719.4 564.155 719.752 564.651 720.168C564.715 720.216 564.779 720.248 564.843 720.264C564.923 720.28 564.987 720.264 565.035 720.216Z" fill="#333332"/>
<path d="M576.053 729.36C575.125 729.36 574.285 729.168 573.533 728.784C572.781 728.4 572.181 727.84 571.733 727.104C571.285 726.352 571.061 725.44 571.061 724.368C571.061 723.472 571.165 722.664 571.373 721.944C571.581 721.208 571.837 720.56 572.141 720C572.461 719.424 572.781 718.936 573.101 718.536C573.421 718.136 573.693 717.816 573.917 717.576C574.301 717.16 574.797 716.704 575.405 716.208C576.029 715.712 576.749 715.24 577.565 714.792C578.381 714.328 579.261 713.96 580.205 713.688C580.381 713.624 580.541 713.608 580.685 713.64C580.829 713.672 580.885 713.728 580.853 713.808C580.821 713.952 580.733 714.072 580.589 714.168C580.445 714.248 580.301 714.32 580.157 714.384C579.149 714.816 578.285 715.32 577.565 715.896C576.861 716.472 576.221 717.184 575.645 718.032C575.405 718.416 575.117 718.936 574.781 719.592C574.445 720.248 574.157 720.984 573.917 721.8C573.677 722.616 573.557 723.448 573.557 724.296C573.573 725.176 573.733 725.92 574.037 726.528C574.341 727.136 574.725 727.6 575.189 727.92C575.653 728.24 576.117 728.4 576.581 728.4C577.173 728.416 577.685 728.184 578.117 727.704C578.565 727.224 578.789 726.496 578.789 725.52C578.789 725.024 578.701 724.576 578.525 724.176C578.349 723.76 578.109 723.424 577.805 723.168C577.501 722.896 577.157 722.76 576.773 722.76C576.437 722.76 576.141 722.784 575.885 722.832C575.645 722.864 575.413 722.936 575.189 723.048C574.997 723.144 574.877 723.144 574.829 723.048C574.797 722.936 574.837 722.808 574.949 722.664C575.061 722.552 575.157 722.456 575.237 722.376C575.333 722.296 575.445 722.216 575.573 722.136C575.765 721.976 576.101 721.792 576.581 721.584C577.061 721.36 577.517 721.248 577.949 721.248C578.525 721.248 579.053 721.384 579.533 721.656C580.029 721.928 580.429 722.296 580.733 722.76C581.037 723.224 581.189 723.76 581.189 724.368C581.189 725.072 581.045 725.728 580.757 726.336C580.485 726.944 580.109 727.48 579.629 727.944C579.149 728.392 578.597 728.744 577.973 729C577.365 729.24 576.725 729.36 576.053 729.36Z" fill="#333332"/>
<path d="M708.64 729.072C708.544 729.072 708.456 729.04 708.376 728.976C708.312 728.912 708.28 728.84 708.28 728.76C708.28 728.584 708.408 728.464 708.664 728.4C709.208 728.24 709.664 728.104 710.032 727.992C710.4 727.864 710.672 727.688 710.848 727.464C711.04 727.224 711.136 726.888 711.136 726.456V717.456C711.136 717.136 711.04 716.888 710.848 716.712C710.656 716.536 710.4 716.416 710.08 716.352C709.776 716.272 709.448 716.216 709.096 716.184C708.952 716.168 708.808 716.128 708.664 716.064C708.536 715.984 708.472 715.872 708.472 715.728C708.472 715.584 708.536 715.472 708.664 715.392C708.792 715.296 708.944 715.24 709.12 715.224C709.92 715.128 710.632 714.992 711.256 714.816C711.896 714.624 712.528 714.272 713.152 713.76C713.168 713.744 713.192 713.736 713.224 713.736C713.256 713.72 713.288 713.712 713.32 713.712C713.416 713.712 713.496 713.736 713.56 713.784C713.64 713.832 713.68 713.888 713.68 713.952C713.648 714.176 713.616 714.424 713.584 714.696C713.568 714.968 713.56 715.288 713.56 715.656V726.672C713.56 727.04 713.64 727.328 713.8 727.536C713.976 727.728 714.24 727.888 714.592 728.016C714.96 728.128 715.44 728.256 716.032 728.4C716.144 728.432 716.24 728.48 716.32 728.544C716.4 728.592 716.44 728.672 716.44 728.784C716.44 728.976 716.328 729.072 716.104 729.072C715.688 729.072 715.264 729.056 714.832 729.024C714.416 729.008 714 728.992 713.584 728.976C713.184 728.96 712.784 728.952 712.384 728.952C711.984 728.952 711.576 728.96 711.16 728.976C710.744 728.992 710.32 729.008 709.888 729.024C709.472 729.056 709.056 729.072 708.64 729.072Z" fill="#333332"/>
<path d="M720.738 729.912C720.546 729.912 720.33 729.888 720.09 729.84C719.866 729.808 719.754 729.728 719.754 729.6C719.754 729.456 719.858 729.344 720.066 729.264C720.29 729.184 720.49 729.136 720.666 729.12C721.818 729.088 722.794 728.856 723.594 728.424C724.394 727.992 724.994 727.456 725.394 726.816C725.81 726.176 726.018 725.528 726.018 724.872C726.018 724.264 725.842 723.728 725.49 723.264C725.138 722.784 724.57 722.352 723.786 721.968C723.018 721.584 721.978 721.216 720.666 720.864C720.362 720.688 720.146 720.512 720.018 720.336C719.906 720.16 719.85 719.952 719.85 719.712C719.85 719.488 719.89 719.2 719.97 718.848C720.066 718.496 720.178 718.128 720.306 717.744C720.434 717.344 720.554 716.968 720.666 716.616C720.794 716.248 720.89 715.96 720.954 715.752C721.05 715.464 721.186 715.248 721.362 715.104C721.538 714.944 721.754 714.832 722.01 714.768C722.346 714.688 722.73 714.608 723.162 714.528C723.61 714.432 724.066 714.352 724.53 714.288C725.01 714.208 725.474 714.136 725.922 714.072C726.37 714.008 726.77 713.96 727.122 713.928C727.25 713.912 727.346 713.952 727.41 714.048C727.474 714.144 727.482 714.256 727.434 714.384C727.386 714.544 727.314 714.72 727.218 714.912C727.122 715.088 727.034 715.264 726.954 715.44C726.842 715.696 726.69 715.904 726.498 716.064C726.322 716.208 726.106 716.296 725.85 716.328C725.562 716.36 725.218 716.392 724.818 716.424C724.418 716.456 724.018 716.488 723.618 716.52C723.218 716.552 722.85 716.584 722.514 716.616C722.194 716.632 721.954 716.656 721.794 716.688C721.682 716.704 721.554 716.816 721.41 717.024C721.282 717.232 721.17 717.456 721.074 717.696C720.978 717.936 720.922 718.112 720.906 718.224C720.89 718.336 720.906 718.424 720.954 718.488C721.002 718.552 721.082 718.6 721.194 718.632C722.09 718.856 722.898 719.096 723.618 719.352C724.338 719.608 724.97 719.88 725.514 720.168C726.458 720.648 727.154 721.224 727.602 721.896C728.05 722.568 728.274 723.368 728.274 724.296C728.274 725.192 728.002 726.032 727.458 726.816C726.93 727.6 726.218 728.248 725.322 728.76C724.938 728.968 724.498 729.16 724.002 729.336C723.506 729.512 722.986 729.648 722.442 729.744C721.898 729.856 721.33 729.912 720.738 729.912Z" fill="#333332"/>
<path d="M735.859 729.336C735.059 729.336 734.315 729.176 733.627 728.856C732.955 728.536 732.411 728.096 731.995 727.536C731.579 726.976 731.371 726.328 731.371 725.592C731.371 724.92 731.555 724.352 731.923 723.888C732.291 723.424 732.731 723.032 733.243 722.712C733.755 722.392 734.219 722.112 734.635 721.872C734.763 721.808 734.803 721.76 734.755 721.728C734.723 721.68 734.659 721.616 734.563 721.536C734.083 721.136 733.627 720.744 733.195 720.36C732.779 719.96 732.435 719.52 732.163 719.04C731.907 718.544 731.779 717.976 731.779 717.336C731.779 716.664 732.003 716.072 732.451 715.56C732.915 715.048 733.499 714.64 734.203 714.336C734.923 714.032 735.659 713.88 736.411 713.88C737.083 713.88 737.723 714.016 738.331 714.288C738.955 714.56 739.459 714.944 739.843 715.44C740.227 715.92 740.419 716.496 740.419 717.168C740.419 717.76 740.275 718.24 739.987 718.608C739.699 718.976 739.403 719.272 739.099 719.496C738.891 719.656 738.699 719.8 738.523 719.928C738.347 720.04 738.139 720.184 737.899 720.36C737.675 720.504 737.563 720.608 737.563 720.672C737.563 720.736 737.635 720.808 737.779 720.888C738.371 721.304 738.899 721.712 739.363 722.112C739.843 722.496 740.211 722.92 740.467 723.384C740.739 723.832 740.875 724.368 740.875 724.992C740.875 725.84 740.635 726.592 740.155 727.248C739.675 727.904 739.051 728.416 738.283 728.784C737.531 729.152 736.723 729.336 735.859 729.336ZM736.219 728.52C736.875 728.52 737.419 728.28 737.851 727.8C738.299 727.304 738.523 726.728 738.523 726.072C738.523 725.592 738.379 725.136 738.091 724.704C737.819 724.272 737.475 723.864 737.059 723.48C736.643 723.096 736.227 722.752 735.811 722.448C735.715 722.368 735.635 722.312 735.571 722.28C735.507 722.232 735.435 722.208 735.355 722.208C735.307 722.208 735.211 722.264 735.067 722.376C734.603 722.76 734.267 723.16 734.059 723.576C733.851 723.992 733.747 724.56 733.747 725.28C733.747 725.824 733.843 726.344 734.035 726.84C734.227 727.32 734.507 727.72 734.875 728.04C735.259 728.36 735.707 728.52 736.219 728.52ZM737.035 720.216C737.499 719.832 737.803 719.368 737.947 718.824C738.091 718.28 738.163 717.68 738.163 717.024C738.163 716.368 738.003 715.808 737.683 715.344C737.379 714.864 736.891 714.624 736.219 714.624C735.867 714.624 735.523 714.72 735.187 714.912C734.867 715.104 734.595 715.36 734.371 715.68C734.163 716 734.059 716.368 734.059 716.784C734.059 717.328 734.171 717.776 734.395 718.128C734.619 718.48 734.923 718.808 735.307 719.112C735.707 719.4 736.155 719.752 736.651 720.168C736.715 720.216 736.779 720.248 736.843 720.264C736.923 720.28 736.987 720.264 737.035 720.216Z" fill="#333332"/>
<path d="M745.197 729.744C745.005 729.744 744.861 729.68 744.765 729.552C744.669 729.424 744.621 729.264 744.621 729.072C744.621 729.008 744.685 728.864 744.813 728.64C744.941 728.416 745.061 728.208 745.173 728.016L751.605 716.496C751.653 716.416 751.661 716.36 751.629 716.328C751.613 716.28 751.525 716.248 751.365 716.232H745.485C745.085 716.232 744.749 716.304 744.477 716.448C744.221 716.576 743.957 716.848 743.685 717.264C743.653 717.328 743.597 717.424 743.517 717.552C743.437 717.68 743.341 717.8 743.229 717.912C743.117 718.024 743.013 718.08 742.917 718.08C742.837 718.08 742.773 718.04 742.725 717.96C742.677 717.88 742.653 717.8 742.653 717.72C742.653 717.624 742.677 717.496 742.725 717.336C742.773 717.176 742.805 717.056 742.821 716.976C742.901 716.56 742.989 716.096 743.085 715.584C743.181 715.072 743.245 714.64 743.277 714.288C743.277 714.144 743.317 714.056 743.397 714.024C743.493 713.976 743.565 713.96 743.613 713.976C743.693 713.976 743.941 714.016 744.357 714.096C744.773 714.16 745.229 714.192 745.725 714.192C746.029 714.192 746.341 714.2 746.661 714.216C746.981 714.216 747.309 714.224 747.645 714.24C747.997 714.24 748.349 714.24 748.701 714.24C749.421 714.24 750.117 714.24 750.789 714.24C751.477 714.224 752.077 714.208 752.589 714.192C753.101 714.16 753.445 714.136 753.621 714.12C753.669 714.12 753.709 714.168 753.741 714.264C753.773 714.344 753.789 714.424 753.789 714.504C753.789 714.616 753.733 714.768 753.621 714.96C753.525 715.152 753.405 715.352 753.261 715.56C753.117 715.768 752.997 715.968 752.901 716.16L745.677 729.048C745.613 729.192 745.525 729.344 745.413 729.504C745.317 729.664 745.245 729.744 745.197 729.744Z" fill="#333332"/>
<path d="M879.64 729.072C879.544 729.072 879.456 729.04 879.376 728.976C879.312 728.912 879.28 728.84 879.28 728.76C879.28 728.584 879.408 728.464 879.664 728.4C880.208 728.24 880.664 728.104 881.032 727.992C881.4 727.864 881.672 727.688 881.848 727.464C882.04 727.224 882.136 726.888 882.136 726.456V717.456C882.136 717.136 882.04 716.888 881.848 716.712C881.656 716.536 881.4 716.416 881.08 716.352C880.776 716.272 880.448 716.216 880.096 716.184C879.952 716.168 879.808 716.128 879.664 716.064C879.536 715.984 879.472 715.872 879.472 715.728C879.472 715.584 879.536 715.472 879.664 715.392C879.792 715.296 879.944 715.24 880.12 715.224C880.92 715.128 881.632 714.992 882.256 714.816C882.896 714.624 883.528 714.272 884.152 713.76C884.168 713.744 884.192 713.736 884.224 713.736C884.256 713.72 884.288 713.712 884.32 713.712C884.416 713.712 884.496 713.736 884.56 713.784C884.64 713.832 884.68 713.888 884.68 713.952C884.648 714.176 884.616 714.424 884.584 714.696C884.568 714.968 884.56 715.288 884.56 715.656V726.672C884.56 727.04 884.64 727.328 884.8 727.536C884.976 727.728 885.24 727.888 885.592 728.016C885.96 728.128 886.44 728.256 887.032 728.4C887.144 728.432 887.24 728.48 887.32 728.544C887.4 728.592 887.44 728.672 887.44 728.784C887.44 728.976 887.328 729.072 887.104 729.072C886.688 729.072 886.264 729.056 885.832 729.024C885.416 729.008 885 728.992 884.584 728.976C884.184 728.96 883.784 728.952 883.384 728.952C882.984 728.952 882.576 728.96 882.16 728.976C881.744 728.992 881.32 729.008 880.888 729.024C880.472 729.056 880.056 729.072 879.64 729.072Z" fill="#333332"/>
<path d="M891.738 729.912C891.546 729.912 891.33 729.888 891.09 729.84C890.866 729.808 890.754 729.728 890.754 729.6C890.754 729.456 890.858 729.344 891.066 729.264C891.29 729.184 891.49 729.136 891.666 729.12C892.818 729.088 893.794 728.856 894.594 728.424C895.394 727.992 895.994 727.456 896.394 726.816C896.81 726.176 897.018 725.528 897.018 724.872C897.018 724.264 896.842 723.728 896.49 723.264C896.138 722.784 895.57 722.352 894.786 721.968C894.018 721.584 892.978 721.216 891.666 720.864C891.362 720.688 891.146 720.512 891.018 720.336C890.906 720.16 890.85 719.952 890.85 719.712C890.85 719.488 890.89 719.2 890.97 718.848C891.066 718.496 891.178 718.128 891.306 717.744C891.434 717.344 891.554 716.968 891.666 716.616C891.794 716.248 891.89 715.96 891.954 715.752C892.05 715.464 892.186 715.248 892.362 715.104C892.538 714.944 892.754 714.832 893.01 714.768C893.346 714.688 893.73 714.608 894.162 714.528C894.61 714.432 895.066 714.352 895.53 714.288C896.01 714.208 896.474 714.136 896.922 714.072C897.37 714.008 897.77 713.96 898.122 713.928C898.25 713.912 898.346 713.952 898.41 714.048C898.474 714.144 898.482 714.256 898.434 714.384C898.386 714.544 898.314 714.72 898.218 714.912C898.122 715.088 898.034 715.264 897.954 715.44C897.842 715.696 897.69 715.904 897.498 716.064C897.322 716.208 897.106 716.296 896.85 716.328C896.562 716.36 896.218 716.392 895.818 716.424C895.418 716.456 895.018 716.488 894.618 716.52C894.218 716.552 893.85 716.584 893.514 716.616C893.194 716.632 892.954 716.656 892.794 716.688C892.682 716.704 892.554 716.816 892.41 717.024C892.282 717.232 892.17 717.456 892.074 717.696C891.978 717.936 891.922 718.112 891.906 718.224C891.89 718.336 891.906 718.424 891.954 718.488C892.002 718.552 892.082 718.6 892.194 718.632C893.09 718.856 893.898 719.096 894.618 719.352C895.338 719.608 895.97 719.88 896.514 720.168C897.458 720.648 898.154 721.224 898.602 721.896C899.05 722.568 899.274 723.368 899.274 724.296C899.274 725.192 899.002 726.032 898.458 726.816C897.93 727.6 897.218 728.248 896.322 728.76C895.938 728.968 895.498 729.16 895.002 729.336C894.506 729.512 893.986 729.648 893.442 729.744C892.898 729.856 892.33 729.912 891.738 729.912Z" fill="#333332"/>
<path d="M906.859 729.336C906.059 729.336 905.315 729.176 904.627 728.856C903.955 728.536 903.411 728.096 902.995 727.536C902.579 726.976 902.371 726.328 902.371 725.592C902.371 724.92 902.555 724.352 902.923 723.888C903.291 723.424 903.731 723.032 904.243 722.712C904.755 722.392 905.219 722.112 905.635 721.872C905.763 721.808 905.803 721.76 905.755 721.728C905.723 721.68 905.659 721.616 905.563 721.536C905.083 721.136 904.627 720.744 904.195 720.36C903.779 719.96 903.435 719.52 903.163 719.04C902.907 718.544 902.779 717.976 902.779 717.336C902.779 716.664 903.003 716.072 903.451 715.56C903.915 715.048 904.499 714.64 905.203 714.336C905.923 714.032 906.659 713.88 907.411 713.88C908.083 713.88 908.723 714.016 909.331 714.288C909.955 714.56 910.459 714.944 910.843 715.44C911.227 715.92 911.419 716.496 911.419 717.168C911.419 717.76 911.275 718.24 910.987 718.608C910.699 718.976 910.403 719.272 910.099 719.496C909.891 719.656 909.699 719.8 909.523 719.928C909.347 720.04 909.139 720.184 908.899 720.36C908.675 720.504 908.563 720.608 908.563 720.672C908.563 720.736 908.635 720.808 908.779 720.888C909.371 721.304 909.899 721.712 910.363 722.112C910.843 722.496 911.211 722.92 911.467 723.384C911.739 723.832 911.875 724.368 911.875 724.992C911.875 725.84 911.635 726.592 911.155 727.248C910.675 727.904 910.051 728.416 909.283 728.784C908.531 729.152 907.723 729.336 906.859 729.336ZM907.219 728.52C907.875 728.52 908.419 728.28 908.851 727.8C909.299 727.304 909.523 726.728 909.523 726.072C909.523 725.592 909.379 725.136 909.091 724.704C908.819 724.272 908.475 723.864 908.059 723.48C907.643 723.096 907.227 722.752 906.811 722.448C906.715 722.368 906.635 722.312 906.571 722.28C906.507 722.232 906.435 722.208 906.355 722.208C906.307 722.208 906.211 722.264 906.067 722.376C905.603 722.76 905.267 723.16 905.059 723.576C904.851 723.992 904.747 724.56 904.747 725.28C904.747 725.824 904.843 726.344 905.035 726.84C905.227 727.32 905.507 727.72 905.875 728.04C906.259 728.36 906.707 728.52 907.219 728.52ZM908.035 720.216C908.499 719.832 908.803 719.368 908.947 718.824C909.091 718.28 909.163 717.68 909.163 717.024C909.163 716.368 909.003 715.808 908.683 715.344C908.379 714.864 907.891 714.624 907.219 714.624C906.867 714.624 906.523 714.72 906.187 714.912C905.867 715.104 905.595 715.36 905.371 715.68C905.163 716 905.059 716.368 905.059 716.784C905.059 717.328 905.171 717.776 905.395 718.128C905.619 718.48 905.923 718.808 906.307 719.112C906.707 719.4 907.155 719.752 907.651 720.168C907.715 720.216 907.779 720.248 907.843 720.264C907.923 720.28 907.987 720.264 908.035 720.216Z" fill="#333332"/>
<path d="M918.789 729.336C917.989 729.336 917.245 729.176 916.557 728.856C915.885 728.536 915.341 728.096 914.925 727.536C914.509 726.976 914.301 726.328 914.301 725.592C914.301 724.92 914.485 724.352 914.853 723.888C915.221 723.424 915.661 723.032 916.173 722.712C916.685 722.392 917.149 722.112 917.565 721.872C917.693 721.808 917.733 721.76 917.685 721.728C917.653 721.68 917.589 721.616 917.493 721.536C917.013 721.136 916.557 720.744 916.125 720.36C915.709 719.96 915.365 719.52 915.093 719.04C914.837 718.544 914.709 717.976 914.709 717.336C914.709 716.664 914.933 716.072 915.381 715.56C915.845 715.048 916.429 714.64 917.133 714.336C917.853 714.032 918.589 713.88 919.341 713.88C920.013 713.88 920.653 714.016 921.261 714.288C921.885 714.56 922.389 714.944 922.773 715.44C923.157 715.92 923.349 716.496 923.349 717.168C923.349 717.76 923.205 718.24 922.917 718.608C922.629 718.976 922.333 719.272 922.029 719.496C921.821 719.656 921.629 719.8 921.453 719.928C921.277 720.04 921.069 720.184 920.829 720.36C920.605 720.504 920.493 720.608 920.493 720.672C920.493 720.736 920.565 720.808 920.709 720.888C921.301 721.304 921.829 721.712 922.293 722.112C922.773 722.496 923.141 722.92 923.397 723.384C923.669 723.832 923.805 724.368 923.805 724.992C923.805 725.84 923.565 726.592 923.085 727.248C922.605 727.904 921.981 728.416 921.213 728.784C920.461 729.152 919.653 729.336 918.789 729.336ZM919.149 728.52C919.805 728.52 920.349 728.28 920.781 727.8C921.229 727.304 921.453 726.728 921.453 726.072C921.453 725.592 921.309 725.136 921.021 724.704C920.749 724.272 920.405 723.864 919.989 723.48C919.573 723.096 919.157 722.752 918.741 722.448C918.645 722.368 918.565 722.312 918.501 722.28C918.437 722.232 918.365 722.208 918.285 722.208C918.237 722.208 918.141 722.264 917.997 722.376C917.533 722.76 917.197 723.16 916.989 723.576C916.781 723.992 916.677 724.56 916.677 725.28C916.677 725.824 916.773 726.344 916.965 726.84C917.157 727.32 917.437 727.72 917.805 728.04C918.189 728.36 918.637 728.52 919.149 728.52ZM919.965 720.216C920.429 719.832 920.733 719.368 920.877 718.824C921.021 718.28 921.093 717.68 921.093 717.024C921.093 716.368 920.933 715.808 920.613 715.344C920.309 714.864 919.821 714.624 919.149 714.624C918.797 714.624 918.453 714.72 918.117 714.912C917.797 715.104 917.525 715.36 917.301 715.68C917.093 716 916.989 716.368 916.989 716.784C916.989 717.328 917.101 717.776 917.325 718.128C917.549 718.48 917.853 718.808 918.237 719.112C918.637 719.4 919.085 719.752 919.581 720.168C919.645 720.216 919.709 720.248 919.773 720.264C919.853 720.28 919.917 720.264 919.965 720.216Z" fill="#333332"/>
<path d="M1053.64 729.072C1053.54 729.072 1053.46 729.04 1053.38 728.976C1053.31 728.912 1053.28 728.84 1053.28 728.76C1053.28 728.584 1053.41 728.464 1053.66 728.4C1054.21 728.24 1054.66 728.104 1055.03 727.992C1055.4 727.864 1055.67 727.688 1055.85 727.464C1056.04 727.224 1056.14 726.888 1056.14 726.456V717.456C1056.14 717.136 1056.04 716.888 1055.85 716.712C1055.66 716.536 1055.4 716.416 1055.08 716.352C1054.78 716.272 1054.45 716.216 1054.1 716.184C1053.95 716.168 1053.81 716.128 1053.66 716.064C1053.54 715.984 1053.47 715.872 1053.47 715.728C1053.47 715.584 1053.54 715.472 1053.66 715.392C1053.79 715.296 1053.94 715.24 1054.12 715.224C1054.92 715.128 1055.63 714.992 1056.26 714.816C1056.9 714.624 1057.53 714.272 1058.15 713.76C1058.17 713.744 1058.19 713.736 1058.22 713.736C1058.26 713.72 1058.29 713.712 1058.32 713.712C1058.42 713.712 1058.5 713.736 1058.56 713.784C1058.64 713.832 1058.68 713.888 1058.68 713.952C1058.65 714.176 1058.62 714.424 1058.58 714.696C1058.57 714.968 1058.56 715.288 1058.56 715.656V726.672C1058.56 727.04 1058.64 727.328 1058.8 727.536C1058.98 727.728 1059.24 727.888 1059.59 728.016C1059.96 728.128 1060.44 728.256 1061.03 728.4C1061.14 728.432 1061.24 728.48 1061.32 728.544C1061.4 728.592 1061.44 728.672 1061.44 728.784C1061.44 728.976 1061.33 729.072 1061.1 729.072C1060.69 729.072 1060.26 729.056 1059.83 729.024C1059.42 729.008 1059 728.992 1058.58 728.976C1058.18 728.96 1057.78 728.952 1057.38 728.952C1056.98 728.952 1056.58 728.96 1056.16 728.976C1055.74 728.992 1055.32 729.008 1054.89 729.024C1054.47 729.056 1054.06 729.072 1053.64 729.072Z" fill="#333332"/>
<path d="M1065.74 729.912C1065.55 729.912 1065.33 729.888 1065.09 729.84C1064.87 729.808 1064.75 729.728 1064.75 729.6C1064.75 729.456 1064.86 729.344 1065.07 729.264C1065.29 729.184 1065.49 729.136 1065.67 729.12C1066.82 729.088 1067.79 728.856 1068.59 728.424C1069.39 727.992 1069.99 727.456 1070.39 726.816C1070.81 726.176 1071.02 725.528 1071.02 724.872C1071.02 724.264 1070.84 723.728 1070.49 723.264C1070.14 722.784 1069.57 722.352 1068.79 721.968C1068.02 721.584 1066.98 721.216 1065.67 720.864C1065.36 720.688 1065.15 720.512 1065.02 720.336C1064.91 720.16 1064.85 719.952 1064.85 719.712C1064.85 719.488 1064.89 719.2 1064.97 718.848C1065.07 718.496 1065.18 718.128 1065.31 717.744C1065.43 717.344 1065.55 716.968 1065.67 716.616C1065.79 716.248 1065.89 715.96 1065.95 715.752C1066.05 715.464 1066.19 715.248 1066.36 715.104C1066.54 714.944 1066.75 714.832 1067.01 714.768C1067.35 714.688 1067.73 714.608 1068.16 714.528C1068.61 714.432 1069.07 714.352 1069.53 714.288C1070.01 714.208 1070.47 714.136 1070.92 714.072C1071.37 714.008 1071.77 713.96 1072.12 713.928C1072.25 713.912 1072.35 713.952 1072.41 714.048C1072.47 714.144 1072.48 714.256 1072.43 714.384C1072.39 714.544 1072.31 714.72 1072.22 714.912C1072.12 715.088 1072.03 715.264 1071.95 715.44C1071.84 715.696 1071.69 715.904 1071.5 716.064C1071.32 716.208 1071.11 716.296 1070.85 716.328C1070.56 716.36 1070.22 716.392 1069.82 716.424C1069.42 716.456 1069.02 716.488 1068.62 716.52C1068.22 716.552 1067.85 716.584 1067.51 716.616C1067.19 716.632 1066.95 716.656 1066.79 716.688C1066.68 716.704 1066.55 716.816 1066.41 717.024C1066.28 717.232 1066.17 717.456 1066.07 717.696C1065.98 717.936 1065.92 718.112 1065.91 718.224C1065.89 718.336 1065.91 718.424 1065.95 718.488C1066 718.552 1066.08 718.6 1066.19 718.632C1067.09 718.856 1067.9 719.096 1068.62 719.352C1069.34 719.608 1069.97 719.88 1070.51 720.168C1071.46 720.648 1072.15 721.224 1072.6 721.896C1073.05 722.568 1073.27 723.368 1073.27 724.296C1073.27 725.192 1073 726.032 1072.46 726.816C1071.93 727.6 1071.22 728.248 1070.32 728.76C1069.94 728.968 1069.5 729.16 1069 729.336C1068.51 729.512 1067.99 729.648 1067.44 729.744C1066.9 729.856 1066.33 729.912 1065.74 729.912Z" fill="#333332"/>
<path d="M1080.86 729.336C1080.06 729.336 1079.32 729.176 1078.63 728.856C1077.96 728.536 1077.41 728.096 1077 727.536C1076.58 726.976 1076.37 726.328 1076.37 725.592C1076.37 724.92 1076.56 724.352 1076.92 723.888C1077.29 723.424 1077.73 723.032 1078.24 722.712C1078.76 722.392 1079.22 722.112 1079.64 721.872C1079.76 721.808 1079.8 721.76 1079.76 721.728C1079.72 721.68 1079.66 721.616 1079.56 721.536C1079.08 721.136 1078.63 720.744 1078.2 720.36C1077.78 719.96 1077.44 719.52 1077.16 719.04C1076.91 718.544 1076.78 717.976 1076.78 717.336C1076.78 716.664 1077 716.072 1077.45 715.56C1077.92 715.048 1078.5 714.64 1079.2 714.336C1079.92 714.032 1080.66 713.88 1081.41 713.88C1082.08 713.88 1082.72 714.016 1083.33 714.288C1083.96 714.56 1084.46 714.944 1084.84 715.44C1085.23 715.92 1085.42 716.496 1085.42 717.168C1085.42 717.76 1085.28 718.24 1084.99 718.608C1084.7 718.976 1084.4 719.272 1084.1 719.496C1083.89 719.656 1083.7 719.8 1083.52 719.928C1083.35 720.04 1083.14 720.184 1082.9 720.36C1082.68 720.504 1082.56 720.608 1082.56 720.672C1082.56 720.736 1082.64 720.808 1082.78 720.888C1083.37 721.304 1083.9 721.712 1084.36 722.112C1084.84 722.496 1085.21 722.92 1085.47 723.384C1085.74 723.832 1085.88 724.368 1085.88 724.992C1085.88 725.84 1085.64 726.592 1085.16 727.248C1084.68 727.904 1084.05 728.416 1083.28 728.784C1082.53 729.152 1081.72 729.336 1080.86 729.336ZM1081.22 728.52C1081.88 728.52 1082.42 728.28 1082.85 727.8C1083.3 727.304 1083.52 726.728 1083.52 726.072C1083.52 725.592 1083.38 725.136 1083.09 724.704C1082.82 724.272 1082.48 723.864 1082.06 723.48C1081.64 723.096 1081.23 722.752 1080.81 722.448C1080.72 722.368 1080.64 722.312 1080.57 722.28C1080.51 722.232 1080.44 722.208 1080.36 722.208C1080.31 722.208 1080.21 722.264 1080.07 722.376C1079.6 722.76 1079.27 723.16 1079.06 723.576C1078.85 723.992 1078.75 724.56 1078.75 725.28C1078.75 725.824 1078.84 726.344 1079.04 726.84C1079.23 727.32 1079.51 727.72 1079.88 728.04C1080.26 728.36 1080.71 728.52 1081.22 728.52ZM1082.04 720.216C1082.5 719.832 1082.8 719.368 1082.95 718.824C1083.09 718.28 1083.16 717.68 1083.16 717.024C1083.16 716.368 1083 715.808 1082.68 715.344C1082.38 714.864 1081.89 714.624 1081.22 714.624C1080.87 714.624 1080.52 714.72 1080.19 714.912C1079.87 715.104 1079.6 715.36 1079.37 715.68C1079.16 716 1079.06 716.368 1079.06 716.784C1079.06 717.328 1079.17 717.776 1079.4 718.128C1079.62 718.48 1079.92 718.808 1080.31 719.112C1080.71 719.4 1081.16 719.752 1081.65 720.168C1081.72 720.216 1081.78 720.248 1081.84 720.264C1081.92 720.28 1081.99 720.264 1082.04 720.216Z" fill="#333332"/>
<path d="M1088.52 729.912C1088.36 729.912 1088.25 729.88 1088.18 729.816C1088.12 729.768 1088.09 729.712 1088.09 729.648C1088.09 729.536 1088.13 729.448 1088.23 729.384C1088.33 729.32 1088.43 729.288 1088.54 729.288C1089.05 729.272 1089.61 729.104 1090.22 728.784C1090.85 728.448 1091.46 728.016 1092.07 727.488C1092.69 726.96 1093.25 726.392 1093.73 725.784C1094.17 725.192 1094.56 724.584 1094.88 723.96C1095.21 723.32 1095.47 722.648 1095.65 721.944C1095.84 721.24 1095.93 720.48 1095.93 719.664C1095.93 719.104 1095.85 718.544 1095.67 717.984C1095.51 717.424 1095.29 716.912 1095 716.448C1094.71 715.968 1094.38 715.592 1094.01 715.32C1093.65 715.032 1093.26 714.888 1092.86 714.888C1092.4 714.888 1092 715.016 1091.66 715.272C1091.34 715.528 1091.1 715.856 1090.94 716.256C1090.78 716.656 1090.7 717.096 1090.7 717.576C1090.7 718.056 1090.81 718.528 1091.01 718.992C1091.24 719.44 1091.52 719.816 1091.85 720.12C1092.21 720.408 1092.57 720.552 1092.93 720.552C1093.35 720.552 1093.66 720.496 1093.87 720.384C1094.08 720.272 1094.3 720.16 1094.54 720.048C1094.7 719.984 1094.81 720.008 1094.85 720.12C1094.9 720.232 1094.89 720.336 1094.81 720.432C1094.73 720.576 1094.61 720.712 1094.47 720.84C1094.34 720.968 1094.22 721.08 1094.11 721.176C1094 721.272 1093.81 721.384 1093.56 721.512C1093.32 721.64 1093.05 721.76 1092.77 721.872C1092.48 721.968 1092.18 722.016 1091.88 722.016C1091.32 722.016 1090.77 721.88 1090.22 721.608C1089.68 721.32 1089.23 720.936 1088.88 720.456C1088.54 719.96 1088.37 719.408 1088.37 718.8C1088.37 718.256 1088.5 717.704 1088.76 717.144C1089.01 716.568 1089.37 716.04 1089.84 715.56C1090.32 715.064 1090.87 714.664 1091.49 714.36C1092.13 714.056 1092.83 713.904 1093.58 713.904C1094.19 713.904 1094.78 714.056 1095.36 714.36C1095.93 714.664 1096.45 715.08 1096.89 715.608C1097.36 716.12 1097.72 716.704 1097.97 717.36C1098.23 718.016 1098.36 718.696 1098.36 719.4C1098.36 720.392 1098.21 721.32 1097.9 722.184C1097.6 723.048 1097.18 723.864 1096.65 724.632C1096.14 725.384 1095.55 726.112 1094.88 726.816C1094.46 727.248 1093.97 727.656 1093.41 728.04C1092.87 728.408 1092.3 728.728 1091.71 729C1091.13 729.288 1090.57 729.512 1090.01 729.672C1089.45 729.832 1088.95 729.912 1088.52 729.912Z" fill="#333332"/>
<path d="M190.64 729.072C190.544 729.072 190.456 729.04 190.376 728.976C190.312 728.912 190.28 728.84 190.28 728.76C190.28 728.584 190.408 728.464 190.664 728.4C191.208 728.24 191.664 728.104 192.032 727.992C192.4 727.864 192.672 727.688 192.848 727.464C193.04 727.224 193.136 726.888 193.136 726.456V717.456C193.136 717.136 193.04 716.888 192.848 716.712C192.656 716.536 192.4 716.416 192.08 716.352C191.776 716.272 191.448 716.216 191.096 716.184C190.952 716.168 190.808 716.128 190.664 716.064C190.536 715.984 190.472 715.872 190.472 715.728C190.472 715.584 190.536 715.472 190.664 715.392C190.792 715.296 190.944 715.24 191.12 715.224C191.92 715.128 192.632 714.992 193.256 714.816C193.896 714.624 194.528 714.272 195.152 713.76C195.168 713.744 195.192 713.736 195.224 713.736C195.256 713.72 195.288 713.712 195.32 713.712C195.416 713.712 195.496 713.736 195.56 713.784C195.64 713.832 195.68 713.888 195.68 713.952C195.648 714.176 195.616 714.424 195.584 714.696C195.568 714.968 195.56 715.288 195.56 715.656V726.672C195.56 727.04 195.64 727.328 195.8 727.536C195.976 727.728 196.24 727.888 196.592 728.016C196.96 728.128 197.44 728.256 198.032 728.4C198.144 728.432 198.24 728.48 198.32 728.544C198.4 728.592 198.44 728.672 198.44 728.784C198.44 728.976 198.328 729.072 198.104 729.072C197.688 729.072 197.264 729.056 196.832 729.024C196.416 729.008 196 728.992 195.584 728.976C195.184 728.96 194.784 728.952 194.384 728.952C193.984 728.952 193.576 728.96 193.16 728.976C192.744 728.992 192.32 729.008 191.888 729.024C191.472 729.056 191.056 729.072 190.64 729.072Z" fill="#333332"/>
<path d="M202.738 729.912C202.546 729.912 202.33 729.888 202.09 729.84C201.866 729.808 201.754 729.728 201.754 729.6C201.754 729.456 201.858 729.344 202.066 729.264C202.29 729.184 202.49 729.136 202.666 729.12C203.818 729.088 204.794 728.856 205.594 728.424C206.394 727.992 206.994 727.456 207.394 726.816C207.81 726.176 208.018 725.528 208.018 724.872C208.018 724.264 207.842 723.728 207.49 723.264C207.138 722.784 206.57 722.352 205.786 721.968C205.018 721.584 203.978 721.216 202.666 720.864C202.362 720.688 202.146 720.512 202.018 720.336C201.906 720.16 201.85 719.952 201.85 719.712C201.85 719.488 201.89 719.2 201.97 718.848C202.066 718.496 202.178 718.128 202.306 717.744C202.434 717.344 202.554 716.968 202.666 716.616C202.794 716.248 202.89 715.96 202.954 715.752C203.05 715.464 203.186 715.248 203.362 715.104C203.538 714.944 203.754 714.832 204.01 714.768C204.346 714.688 204.73 714.608 205.162 714.528C205.61 714.432 206.066 714.352 206.53 714.288C207.01 714.208 207.474 714.136 207.922 714.072C208.37 714.008 208.77 713.96 209.122 713.928C209.25 713.912 209.346 713.952 209.41 714.048C209.474 714.144 209.482 714.256 209.434 714.384C209.386 714.544 209.314 714.72 209.218 714.912C209.122 715.088 209.034 715.264 208.954 715.44C208.842 715.696 208.69 715.904 208.498 716.064C208.322 716.208 208.106 716.296 207.85 716.328C207.562 716.36 207.218 716.392 206.818 716.424C206.418 716.456 206.018 716.488 205.618 716.52C205.218 716.552 204.85 716.584 204.514 716.616C204.194 716.632 203.954 716.656 203.794 716.688C203.682 716.704 203.554 716.816 203.41 717.024C203.282 717.232 203.17 717.456 203.074 717.696C202.978 717.936 202.922 718.112 202.906 718.224C202.89 718.336 202.906 718.424 202.954 718.488C203.002 718.552 203.082 718.6 203.194 718.632C204.09 718.856 204.898 719.096 205.618 719.352C206.338 719.608 206.97 719.88 207.514 720.168C208.458 720.648 209.154 721.224 209.602 721.896C210.05 722.568 210.274 723.368 210.274 724.296C210.274 725.192 210.002 726.032 209.458 726.816C208.93 727.6 208.218 728.248 207.322 728.76C206.938 728.968 206.498 729.16 206.002 729.336C205.506 729.512 204.986 729.648 204.442 729.744C203.898 729.856 203.33 729.912 202.738 729.912Z" fill="#333332"/>
<path d="M217.859 729.336C217.059 729.336 216.315 729.176 215.627 728.856C214.955 728.536 214.411 728.096 213.995 727.536C213.579 726.976 213.371 726.328 213.371 725.592C213.371 724.92 213.555 724.352 213.923 723.888C214.291 723.424 214.731 723.032 215.243 722.712C215.755 722.392 216.219 722.112 216.635 721.872C216.763 721.808 216.803 721.76 216.755 721.728C216.723 721.68 216.659 721.616 216.563 721.536C216.083 721.136 215.627 720.744 215.195 720.36C214.779 719.96 214.435 719.52 214.163 719.04C213.907 718.544 213.779 717.976 213.779 717.336C213.779 716.664 214.003 716.072 214.451 715.56C214.915 715.048 215.499 714.64 216.203 714.336C216.923 714.032 217.659 713.88 218.411 713.88C219.083 713.88 219.723 714.016 220.331 714.288C220.955 714.56 221.459 714.944 221.843 715.44C222.227 715.92 222.419 716.496 222.419 717.168C222.419 717.76 222.275 718.24 221.987 718.608C221.699 718.976 221.403 719.272 221.099 719.496C220.891 719.656 220.699 719.8 220.523 719.928C220.347 720.04 220.139 720.184 219.899 720.36C219.675 720.504 219.563 720.608 219.563 720.672C219.563 720.736 219.635 720.808 219.779 720.888C220.371 721.304 220.899 721.712 221.363 722.112C221.843 722.496 222.211 722.92 222.467 723.384C222.739 723.832 222.875 724.368 222.875 724.992C222.875 725.84 222.635 726.592 222.155 727.248C221.675 727.904 221.051 728.416 220.283 728.784C219.531 729.152 218.723 729.336 217.859 729.336ZM218.219 728.52C218.875 728.52 219.419 728.28 219.851 727.8C220.299 727.304 220.523 726.728 220.523 726.072C220.523 725.592 220.379 725.136 220.091 724.704C219.819 724.272 219.475 723.864 219.059 723.48C218.643 723.096 218.227 722.752 217.811 722.448C217.715 722.368 217.635 722.312 217.571 722.28C217.507 722.232 217.435 722.208 217.355 722.208C217.307 722.208 217.211 722.264 217.067 722.376C216.603 722.76 216.267 723.16 216.059 723.576C215.851 723.992 215.747 724.56 215.747 725.28C215.747 725.824 215.843 726.344 216.035 726.84C216.227 727.32 216.507 727.72 216.875 728.04C217.259 728.36 217.707 728.52 218.219 728.52ZM219.035 720.216C219.499 719.832 219.803 719.368 219.947 718.824C220.091 718.28 220.163 717.68 220.163 717.024C220.163 716.368 220.003 715.808 219.683 715.344C219.379 714.864 218.891 714.624 218.219 714.624C217.867 714.624 217.523 714.72 217.187 714.912C216.867 715.104 216.595 715.36 216.371 715.68C216.163 716 216.059 716.368 216.059 716.784C216.059 717.328 216.171 717.776 216.395 718.128C216.619 718.48 216.923 718.808 217.307 719.112C217.707 719.4 218.155 719.752 218.651 720.168C218.715 720.216 218.779 720.248 218.843 720.264C218.923 720.28 218.987 720.264 219.035 720.216Z" fill="#333332"/>
<path d="M228.853 729.072C228.773 729.072 228.677 729.048 228.565 729C228.453 728.936 228.397 728.848 228.397 728.736C228.397 728.64 228.445 728.568 228.541 728.52C228.653 728.456 228.765 728.416 228.877 728.4C229.581 728.288 230.053 728.128 230.293 727.92C230.533 727.696 230.653 727.376 230.653 726.96V725.04C230.653 724.96 230.597 724.904 230.485 724.872C230.373 724.84 230.301 724.824 230.269 724.824C229.661 724.824 229.061 724.84 228.469 724.872C227.877 724.888 227.261 724.912 226.621 724.944C225.997 724.96 225.301 724.976 224.533 724.992C224.469 724.992 224.405 724.968 224.341 724.92C224.277 724.872 224.245 724.816 224.245 724.752C224.245 724.72 224.269 724.68 224.317 724.632C224.493 724.408 224.621 724.248 224.701 724.152C224.797 724.056 224.877 723.968 224.941 723.888C225.005 723.808 225.085 723.696 225.181 723.552L231.349 714.336C231.461 714.16 231.597 713.992 231.757 713.832C231.917 713.672 232.069 713.592 232.213 713.592H232.597C232.693 713.592 232.725 713.648 232.693 713.76C232.677 713.872 232.661 713.944 232.645 713.976L226.453 723.168C226.421 723.232 226.405 723.296 226.405 723.36C226.405 723.408 226.445 723.432 226.525 723.432H230.389C230.453 723.432 230.509 723.416 230.557 723.384C230.621 723.336 230.653 723.288 230.653 723.24V719.832C230.653 719.608 230.661 719.464 230.677 719.4C230.709 719.32 230.789 719.248 230.917 719.184C231.221 719.024 231.549 718.92 231.901 718.872C232.253 718.824 232.501 718.8 232.645 718.8C232.869 718.8 232.997 718.944 233.029 719.232C233.077 719.504 233.101 719.912 233.101 720.456V723.336C233.101 723.448 233.141 723.504 233.221 723.504C233.413 723.52 233.573 723.528 233.701 723.528C233.845 723.528 233.997 723.528 234.157 723.528C234.381 723.528 234.605 723.528 234.829 723.528C235.053 723.512 235.293 723.496 235.549 723.48C235.725 723.48 235.813 723.536 235.813 723.648C235.813 723.776 235.781 723.936 235.717 724.128C235.653 724.304 235.573 724.456 235.477 724.584C235.397 724.712 235.341 724.776 235.309 724.776C235.133 724.776 234.941 724.776 234.733 724.776C234.541 724.76 234.341 724.752 234.133 724.752C233.989 724.752 233.861 724.76 233.749 724.776C233.637 724.776 233.533 724.784 233.437 724.8C233.373 724.816 233.301 724.84 233.221 724.872C233.157 724.904 233.125 724.928 233.125 724.944V726.888C233.125 727.352 233.229 727.68 233.437 727.872C233.661 728.048 234.085 728.224 234.709 728.4C234.821 728.416 234.925 728.456 235.021 728.52C235.133 728.584 235.189 728.672 235.189 728.784C235.189 728.848 235.149 728.912 235.069 728.976C234.989 729.04 234.893 729.072 234.781 729.072C234.365 729.072 233.997 729.056 233.677 729.024C233.373 729.008 233.077 728.992 232.789 728.976C232.517 728.96 232.197 728.952 231.829 728.952C231.445 728.952 231.109 728.96 230.821 728.976C230.533 728.992 230.237 729.008 229.933 729.024C229.629 729.056 229.269 729.072 228.853 729.072Z" fill="#333332"/>
<mask id="mask0_513_105" style="mask-type:alpha" maskUnits="userSpaceOnUse" x="68" y="32" width="1018" height="644">
<rect x="68" y="32" width="1018" height="644" fill="#D9D9D9"/>
</mask>
<g mask="url(#mask0_513_105)">
<path d="M67 71L215 413L384.5 481.5L559 520L1077.5 550.5" stroke="#333332" stroke-width="2"/>
<circle cx="215" cy="413" r="9" fill="#DC8C22"/>
<circle cx="384" cy="482" r="9" fill="#DC8C22"/>
<circle cx="557" cy="520" r="9" fill="#DC8C22"/>
<circle cx="1075" cy="551" r="9" fill="#DC8C22"/>
</g>
</svg>
