<svg width="289" height="289" viewBox="0 0 289 289" fill="none" xmlns="http://www.w3.org/2000/svg">
<circle cx="144.5" cy="144.5" r="144.5" fill="#DC8C22"/>
<path d="M11.614 109.85C10.1161 109.85 8.67044 109.676 7.27702 109.328C5.88361 108.979 4.57728 108.422 3.35805 107.656C3.14903 107.481 2.94002 107.29 2.73101 107.081C2.522 106.872 2.36524 106.645 2.26073 106.401C1.91238 105.461 1.66853 104.311 1.52919 102.953C1.42468 101.594 1.38985 100.218 1.42468 98.8248C1.42468 98.581 1.52919 98.4068 1.7382 98.3023C1.94721 98.1978 2.19106 98.1455 2.46974 98.1455C2.8181 98.1455 3.04453 98.1978 3.14903 98.3023C3.28838 98.372 3.42772 98.5287 3.56706 98.7726C4.33344 101.385 5.46558 103.493 6.9635 105.095C8.49626 106.698 10.2729 107.499 12.2933 107.499C13.408 107.499 14.3138 107.255 15.0105 106.767C15.742 106.245 16.2994 105.6 16.6826 104.834C17.0658 104.033 17.2573 103.231 17.2573 102.43C17.2573 101.316 17.0309 100.375 16.5781 99.6086C16.16 98.8422 15.5156 98.1455 14.6447 97.5185C13.7738 96.8914 12.6591 96.2122 11.3005 95.4806C9.83742 94.6446 8.42659 93.7737 7.06801 92.868C5.70943 91.9274 4.5947 90.7953 3.72382 89.4715C2.85293 88.1478 2.41749 86.4931 2.41749 84.5075C2.41749 82.4522 2.94002 80.6756 3.98508 79.1777C5.06498 77.6798 6.52806 76.5128 8.37434 75.6767C10.2206 74.8407 12.2933 74.4226 14.5924 74.4226C15.9162 74.4226 17.1703 74.562 18.3547 74.8407C19.5739 75.1194 20.5493 75.398 21.2808 75.6767C21.6989 75.8509 21.995 76.0425 22.1691 76.2515C22.3781 76.4605 22.5523 76.8263 22.6917 77.3488C22.8658 78.0804 23.0052 78.9687 23.1097 80.0137C23.249 81.0588 23.3187 82.2083 23.3187 83.4624C23.3187 83.9153 23.0052 84.1417 22.3781 84.1417C22.0646 84.1417 21.7685 84.072 21.4898 83.9327C21.246 83.7585 21.0892 83.5495 21.0196 83.3057C20.4274 81.2155 19.5565 79.6305 18.4069 78.5506C17.2573 77.4707 15.8465 76.9308 14.1744 76.9308C13.1294 76.9308 12.2411 77.105 11.5095 77.4533C10.778 77.8017 10.2206 78.3242 9.83742 79.0209C9.48907 79.7176 9.31489 80.5885 9.31489 81.6336C9.31489 82.4696 9.59357 83.2534 10.1509 83.985C10.7431 84.6817 11.5792 85.3958 12.6591 86.1273C13.739 86.8589 14.9756 87.6427 16.369 88.4787C18.2502 89.5934 19.7481 90.6908 20.8628 91.7707C21.9775 92.8505 22.7788 94.0001 23.2664 95.2194C23.789 96.4038 24.0502 97.7798 24.0502 99.3473C24.0502 101.716 23.5277 103.684 22.4827 105.252C21.4724 106.82 20.0268 107.987 18.1457 108.753C16.2994 109.484 14.1222 109.85 11.614 109.85Z" fill="white"/>
<path d="M27.8721 122.809C27.6282 122.809 27.3844 122.739 27.1405 122.6C26.9315 122.495 26.827 122.321 26.827 122.077C26.827 121.799 26.9315 121.572 27.1405 121.398C27.3844 121.259 27.6805 121.137 28.0288 121.032C28.7604 120.788 29.2655 120.527 29.5442 120.249C29.8577 120.005 30.0144 119.604 30.0144 119.047V94.0175C30.0144 93.5647 29.9273 93.1292 29.7532 92.7112C29.579 92.2932 29.3351 91.9274 29.0216 91.6139C28.7081 91.2655 28.3075 91.0565 27.8198 90.9869C27.6108 90.9172 27.454 90.8301 27.3495 90.7256C27.245 90.5863 27.1928 90.3598 27.1928 90.0463C27.1928 89.7676 27.245 89.5586 27.3495 89.4193C27.454 89.2799 27.5934 89.1928 27.7676 89.158C28.9868 88.8793 30.2931 88.5135 31.6865 88.0607C33.0799 87.6078 34.2818 87.1376 35.292 86.6499C35.4313 86.5802 35.5707 86.5105 35.71 86.4408C35.8842 86.3363 36.0409 86.2841 36.1803 86.2841C36.3893 86.2841 36.5112 86.3538 36.5461 86.4931C36.6157 86.5976 36.6506 86.7369 36.6506 86.9111C36.6506 87.1898 36.5983 87.6601 36.4938 88.322C36.4241 88.949 36.3893 89.4889 36.3893 89.9418C36.3893 90.2901 36.4241 90.4992 36.4938 90.5688C36.8422 90.2205 37.4518 89.7502 38.3227 89.158C39.2284 88.5658 40.256 88.0433 41.4056 87.5904C42.5552 87.1376 43.6699 86.9111 44.7498 86.9111C46.6309 86.9111 48.2159 87.4162 49.5048 88.4265C50.8286 89.4018 51.8388 90.6733 52.5355 92.2409C53.2322 93.7737 53.5805 95.3935 53.5805 97.1005C53.5805 98.7377 53.267 100.323 52.64 101.855C52.0478 103.388 51.1943 104.782 50.0796 106.036C48.9649 107.255 47.676 108.23 46.2129 108.962C44.7498 109.693 43.1822 110.059 41.5101 110.059C41.1269 110.059 40.6566 110.007 40.0993 109.902C39.5767 109.798 39.0368 109.659 38.4794 109.484C37.9569 109.31 37.4692 109.136 37.0163 108.962C36.9815 108.962 36.9467 109.014 36.9118 109.119C36.877 109.223 36.8422 109.345 36.8073 109.484C36.8073 109.624 36.8073 109.763 36.8073 109.902V118.576C36.8073 119.029 36.9118 119.412 37.1208 119.726C37.3647 120.04 37.6956 120.283 38.1137 120.458C38.5317 120.667 39.0368 120.858 39.629 121.032C39.9773 121.137 40.256 121.259 40.465 121.398C40.674 121.572 40.7786 121.799 40.7786 122.077C40.7786 122.286 40.674 122.461 40.465 122.6C40.2909 122.739 40.0993 122.809 39.8903 122.809C38.8452 122.809 37.7479 122.757 36.5983 122.652C35.4836 122.583 34.4734 122.548 33.5676 122.548C32.9754 122.548 32.3658 122.565 31.7388 122.6C31.1466 122.635 30.5195 122.67 29.8577 122.704C29.2306 122.774 28.5688 122.809 27.8721 122.809ZM41.3533 107.656C41.7365 107.656 42.1894 107.516 42.7119 107.238C43.2693 106.924 43.8092 106.436 44.3318 105.774C44.8891 105.113 45.342 104.224 45.6903 103.11C46.0735 101.995 46.2651 100.619 46.2651 98.9816C46.2651 97.0656 46.0735 95.5503 45.6903 94.4356C45.3071 93.286 44.8369 92.4325 44.2795 91.8752C43.7221 91.3178 43.1474 90.952 42.5552 90.7778C41.9978 90.5688 41.5101 90.4643 41.0921 90.4643C40.465 90.4643 39.8206 90.6037 39.1587 90.8824C38.4968 91.161 37.9569 91.492 37.5389 91.8752C37.1208 92.2583 36.9118 92.6067 36.9118 92.9202C36.9118 93.1989 36.9118 93.7388 36.9118 94.5401C36.9118 95.3413 36.8944 96.2296 36.8596 97.205C36.8596 98.1804 36.8422 99.0687 36.8073 99.8699C36.8073 100.671 36.8073 101.228 36.8073 101.542C36.8073 102.343 36.9815 103.231 37.3299 104.207C37.713 105.147 38.2356 105.966 38.8974 106.663C39.5942 107.325 40.4128 107.656 41.3533 107.656Z" fill="white"/>
<path d="M61.3585 109.85C60.4179 109.85 59.547 109.624 58.7458 109.171C57.9446 108.718 57.3002 108.126 56.8125 107.394C56.3596 106.663 56.1332 105.862 56.1332 104.991C56.1332 103.806 56.499 102.813 57.2305 102.012C57.9969 101.211 59.1116 100.497 60.5747 99.8699L65.2252 97.832C65.9219 97.5185 66.3399 97.2398 66.4793 96.996C66.6535 96.7521 66.7405 96.2992 66.7405 95.6374L66.7928 92.659C66.8276 91.6836 66.6535 90.9172 66.2703 90.3598C65.8871 89.7676 65.3123 89.4715 64.5459 89.4715C64.0931 89.4715 63.6402 89.576 63.1873 89.785C62.7345 89.9592 62.3861 90.1682 62.1423 90.4121C62.0378 90.5514 61.9507 90.7256 61.881 90.9346C61.8462 91.1088 61.8288 91.3004 61.8288 91.5094C61.8288 91.7184 61.8462 91.9797 61.881 92.2932C61.9159 92.5719 61.9333 92.8157 61.9333 93.0247C61.9333 93.2337 61.6546 93.5124 61.0972 93.8608C60.5399 94.1743 59.8954 94.4704 59.1639 94.7491C58.4323 94.9929 57.8053 95.1148 57.2827 95.1148C57.0389 95.1148 56.8125 95.0103 56.6035 94.8013C56.4293 94.5923 56.3422 94.331 56.3422 94.0175C56.3422 93.4602 56.5338 92.9202 56.917 92.3977C57.3002 91.8403 57.9272 91.2133 58.7981 90.5166C59.7038 89.7502 60.6966 89.0709 61.7765 88.4787C62.8564 87.8865 63.9189 87.4162 64.9639 87.0679C66.0438 86.7195 66.9496 86.5454 67.6811 86.5454C69.5622 86.5454 71.0601 87.155 72.1749 88.3742C73.2896 89.5586 73.8121 91.1436 73.7424 93.1292L73.4812 103.684C73.4464 104.486 73.5857 105.165 73.8992 105.722C74.2127 106.28 74.5959 106.558 75.0488 106.558C75.7106 106.558 76.2854 106.332 76.7731 105.879C76.8776 105.774 76.9821 105.722 77.0866 105.722C77.2608 105.722 77.4002 105.774 77.5047 105.879C77.644 105.983 77.7137 106.123 77.7137 106.297C77.7137 106.715 77.4002 107.255 76.7731 107.917C76.1113 108.544 75.4146 109.014 74.683 109.328C73.9515 109.676 73.1851 109.85 72.3839 109.85C70.4331 109.85 68.8133 108.857 67.5243 106.872H67.4198C66.2703 107.917 65.2252 108.666 64.2847 109.119C63.3789 109.606 62.4035 109.85 61.3585 109.85ZM64.4937 106.454C64.8769 106.454 65.1904 106.402 65.4342 106.297C65.6781 106.158 65.9219 105.949 66.1658 105.67C66.2703 105.531 66.3574 105.356 66.427 105.147C66.4967 104.904 66.5315 104.625 66.5315 104.311L66.6883 100.549C66.6883 100.201 66.636 99.9744 66.5315 99.8699C66.427 99.7654 66.3051 99.7131 66.1658 99.7131C66.0961 99.7131 66.009 99.7305 65.9045 99.7654C65.8 99.8002 65.6781 99.8525 65.5387 99.9221C64.5285 100.41 63.7795 100.915 63.2918 101.437C62.8042 101.925 62.5603 102.726 62.5603 103.841C62.5603 104.851 62.7693 105.548 63.1873 105.931C63.6054 106.28 64.0408 106.454 64.4937 106.454Z" fill="white"/>
<path d="M79.6719 109.275C79.4281 109.275 79.1842 109.223 78.9404 109.119C78.7314 108.979 78.6269 108.788 78.6269 108.544C78.6269 108.265 78.7488 108.056 78.9927 107.917C79.2365 107.743 79.5152 107.603 79.8287 107.499C80.3512 107.325 80.8041 107.133 81.1873 106.924C81.6053 106.68 81.8143 106.21 81.8143 105.513V93.5473C81.8143 92.7809 81.6924 92.1364 81.4485 91.6139C81.2395 91.0914 80.8215 90.7604 80.1945 90.6211C80.0551 90.5863 79.9158 90.4992 79.7765 90.3598C79.6719 90.2205 79.6197 89.994 79.6197 89.6805C79.6197 89.1928 79.7939 88.8967 80.1422 88.7922C81.3266 88.5135 82.6155 88.1478 84.0089 87.6949C85.4372 87.2072 86.6564 86.7021 87.6667 86.1796C87.806 86.1099 87.9628 86.0228 88.1369 85.9183C88.3111 85.8138 88.4679 85.7616 88.6072 85.7616C88.8162 85.7616 88.9381 85.8312 88.973 85.9706C89.0426 86.0751 89.0775 86.2144 89.0775 86.3886C89.0775 86.6673 89.0252 87.1201 88.9207 87.7472C88.8511 88.3394 88.8162 88.8793 88.8162 89.367C88.8162 89.5064 88.8162 89.6631 88.8162 89.8373C88.8511 90.0115 88.8859 90.116 88.9207 90.1508C90.1051 89.0012 91.3069 88.1129 92.5262 87.4859C93.7454 86.8589 95.1563 86.5454 96.7587 86.5454C98.5701 86.5454 100.085 87.2246 101.305 88.5832C102.559 89.907 103.186 91.7184 103.186 94.0175V105.513C103.186 106.21 103.377 106.68 103.761 106.924C104.179 107.133 104.649 107.325 105.171 107.499C105.45 107.603 105.694 107.743 105.903 107.917C106.112 108.056 106.216 108.265 106.216 108.544C106.216 108.788 106.112 108.979 105.903 109.119C105.729 109.223 105.537 109.275 105.328 109.275C104.631 109.275 103.97 109.241 103.343 109.171C102.75 109.136 102.158 109.101 101.566 109.066C101.009 109.032 100.416 109.014 99.7894 109.014C99.1972 109.014 98.605 109.032 98.0128 109.066C97.4206 109.101 96.8283 109.136 96.2361 109.171C95.6439 109.241 94.9995 109.275 94.3028 109.275C94.0938 109.275 93.8848 109.223 93.6758 109.119C93.5016 108.979 93.4145 108.788 93.4145 108.544C93.4145 108.265 93.519 108.056 93.728 107.917C93.937 107.743 94.1809 107.603 94.4595 107.499C94.9821 107.325 95.4175 107.133 95.7659 106.924C96.1142 106.68 96.2884 106.21 96.2884 105.513V95.1148C96.2884 93.7911 95.9749 92.7635 95.3479 92.0319C94.7557 91.2655 93.9544 90.8649 92.9442 90.8301C92.1778 90.8301 91.4985 90.952 90.9063 91.1959C90.3141 91.4397 89.7045 91.7707 89.0775 92.1887C88.9381 92.328 88.8336 92.4848 88.764 92.659C88.6943 92.8331 88.6595 93.0073 88.6595 93.1815V105.513C88.6595 106.21 88.8511 106.68 89.2342 106.924C89.6174 107.133 90.0529 107.325 90.5406 107.499C91.2373 107.708 91.5856 108.056 91.5856 108.544C91.5856 108.753 91.4985 108.927 91.3244 109.066C91.1502 109.206 90.9412 109.275 90.6973 109.275C90.0006 109.275 89.3562 109.241 88.764 109.171C88.1718 109.136 87.6144 109.101 87.0919 109.066C86.5694 109.032 85.9946 109.014 85.3675 109.014C84.7753 109.014 84.1657 109.032 83.5387 109.066C82.9465 109.101 82.3194 109.136 81.6576 109.171C81.0305 109.241 80.3687 109.275 79.6719 109.275Z" fill="white"/>
<path d="M109.059 109.275C108.85 109.275 108.659 109.223 108.485 109.119C108.31 108.979 108.223 108.805 108.223 108.596C108.223 108.317 108.31 108.091 108.485 107.917C108.659 107.743 108.885 107.621 109.164 107.551C110.07 107.342 110.697 107.116 111.045 106.872C111.428 106.593 111.62 106.175 111.62 105.618V94.3311C111.62 93.1467 111.428 92.3106 111.045 91.8229C110.697 91.3004 110.139 90.9869 109.373 90.8824C109.164 90.8475 109.007 90.743 108.903 90.5688C108.798 90.3947 108.746 90.1856 108.746 89.9418C108.746 89.4193 108.937 89.1232 109.321 89.0535C111.132 88.7051 112.734 88.2174 114.128 87.5904C115.556 86.9634 116.653 86.4757 117.42 86.1273C117.977 85.8486 118.326 85.7093 118.465 85.7093C118.918 85.7093 119.144 85.9183 119.144 86.3363C119.109 86.9285 119.022 87.6775 118.883 88.5832C118.778 89.4541 118.674 90.3598 118.569 91.3004C118.5 92.2409 118.465 93.1466 118.465 94.0175V105.565C118.465 106.053 118.639 106.436 118.987 106.715C119.371 106.994 120.033 107.272 120.973 107.551C121.252 107.656 121.478 107.777 121.652 107.917C121.827 108.056 121.914 108.265 121.914 108.544C121.914 108.997 121.652 109.223 121.13 109.223C120.468 109.223 119.771 109.206 119.04 109.171C118.308 109.136 117.594 109.101 116.897 109.066C116.235 109.032 115.591 109.014 114.964 109.014C114.372 109.014 113.745 109.032 113.083 109.066C112.456 109.101 111.794 109.136 111.097 109.171C110.435 109.241 109.756 109.275 109.059 109.275ZM114.807 83.3579C113.727 83.3579 112.769 82.9573 111.933 82.1561C111.132 81.3549 110.731 80.3969 110.731 79.2822C110.731 78.0978 111.132 77.105 111.933 76.3038C112.769 75.5025 113.727 75.1019 114.807 75.1019C116.026 75.1019 117.037 75.5025 117.838 76.3038C118.639 77.105 119.04 78.0978 119.04 79.2822C119.04 80.3969 118.639 81.3549 117.838 82.1561C117.037 82.9573 116.026 83.3579 114.807 83.3579Z" fill="white"/>
<path d="M131.158 109.85C130.009 109.85 128.894 109.711 127.814 109.432C126.734 109.153 125.759 108.701 124.888 108.074C124.574 107.551 124.348 106.732 124.209 105.618C124.069 104.503 124.017 103.336 124.052 102.117C124.052 101.699 124.4 101.49 125.097 101.49C125.376 101.49 125.619 101.577 125.829 101.751C126.038 101.925 126.159 102.099 126.194 102.274C126.856 103.737 127.623 104.991 128.493 106.036C129.364 107.046 130.409 107.551 131.629 107.551C132.569 107.551 133.283 107.272 133.771 106.715C134.259 106.123 134.503 105.461 134.503 104.729C134.503 103.824 134.137 103.075 133.405 102.483C132.708 101.855 131.855 101.281 130.845 100.758C129.835 100.236 128.877 99.6434 127.971 98.9816C127.065 98.3197 126.316 97.5359 125.724 96.6302C125.167 95.6896 124.888 94.5749 124.888 93.286C124.888 91.9274 125.254 90.743 125.985 89.7328C126.752 88.7226 127.762 87.9388 129.016 87.3814C130.305 86.7892 131.733 86.4931 133.301 86.4931C134.45 86.4931 135.513 86.6324 136.488 86.9111C137.464 87.155 138.125 87.3988 138.474 87.6427C138.752 87.991 138.979 88.6529 139.153 89.6283C139.327 90.5688 139.414 91.6139 139.414 92.7635C139.414 93.1466 139.101 93.3382 138.474 93.3382C138.23 93.3382 137.969 93.2512 137.69 93.077C137.446 92.9028 137.289 92.7286 137.22 92.5544C136.767 91.1959 136.175 90.1856 135.443 89.5238C134.746 88.8271 133.963 88.4787 133.092 88.4787C132.325 88.4787 131.629 88.7226 131.002 89.2103C130.375 89.6979 130.061 90.3598 130.061 91.1959C130.061 91.9274 130.392 92.5893 131.054 93.1815C131.751 93.7388 132.604 94.2962 133.614 94.8536C135.878 96.038 137.498 97.1875 138.474 98.3023C139.449 99.3822 139.937 100.828 139.937 102.639C139.937 104.904 139.188 106.68 137.69 107.969C136.227 109.223 134.05 109.85 131.158 109.85Z" fill="white"/>
<path d="M143.299 109.275C142.603 109.275 142.254 109.032 142.254 108.544C142.254 108.091 142.655 107.743 143.456 107.499C143.979 107.325 144.432 107.133 144.815 106.924C145.198 106.715 145.407 106.227 145.442 105.461V80.3795C145.442 79.4389 145.32 78.6203 145.076 77.9236C144.832 77.2269 144.275 76.7915 143.404 76.6173C143.021 76.5476 142.829 76.2863 142.829 75.8335C142.829 75.3806 143.003 75.1194 143.352 75.0497C144.153 74.8755 145.059 74.6317 146.069 74.3181C147.114 73.9698 148.124 73.6214 149.099 73.2731C150.075 72.8899 150.824 72.6112 151.346 72.437C151.625 72.3325 151.851 72.2803 152.026 72.2803C152.235 72.2803 152.374 72.3499 152.444 72.4893C152.513 72.5938 152.548 72.7331 152.548 72.9073C152.548 73.0815 152.513 73.3428 152.444 73.6911C152.409 74.0046 152.374 74.4052 152.339 74.8929C152.304 75.3458 152.269 75.8857 152.235 76.5128V88.5832C152.235 88.9316 152.252 89.2451 152.287 89.5238C152.322 89.8025 152.409 89.994 152.548 90.0986C153.071 89.6457 153.698 89.158 154.429 88.6355C155.161 88.0781 155.997 87.5904 156.937 87.1724C157.913 86.7544 158.993 86.5454 160.177 86.5454C162.023 86.5454 163.574 87.2072 164.828 88.531C166.082 89.8199 166.709 91.6313 166.709 93.9653V105.356C166.709 106.088 166.9 106.593 167.284 106.872C167.667 107.116 168.102 107.325 168.59 107.499C168.973 107.603 169.252 107.743 169.426 107.917C169.635 108.056 169.739 108.265 169.739 108.544C169.739 109.032 169.356 109.275 168.59 109.275C167.754 109.275 167.075 109.241 166.552 109.171C166.029 109.136 165.524 109.101 165.037 109.066C164.584 109.032 163.992 109.014 163.26 109.014C162.494 109.014 161.901 109.032 161.483 109.066C161.065 109.101 160.63 109.136 160.177 109.171C159.724 109.241 159.08 109.275 158.244 109.275C157.373 109.275 156.937 109.014 156.937 108.492C156.937 108.213 157.042 108.004 157.251 107.865C157.495 107.69 157.756 107.568 158.035 107.499C158.488 107.325 158.906 107.098 159.289 106.82C159.672 106.541 159.864 106.018 159.864 105.252V94.9581C159.864 94.1917 159.707 93.5124 159.393 92.9202C159.08 92.2932 158.662 91.8055 158.139 91.4571C157.652 91.0739 157.112 90.8824 156.519 90.8824C155.997 90.8824 155.422 90.9694 154.795 91.1436C154.168 91.3178 153.558 91.6139 152.966 92.0319C152.688 92.2409 152.496 92.4848 152.391 92.7635C152.322 93.0073 152.287 93.3905 152.287 93.913V105.356C152.287 106.053 152.461 106.541 152.809 106.82C153.158 107.063 153.558 107.272 154.011 107.447C154.325 107.551 154.586 107.69 154.795 107.865C155.004 108.004 155.109 108.213 155.109 108.492C155.109 109.014 154.795 109.275 154.168 109.275C153.471 109.275 152.809 109.241 152.182 109.171C151.59 109.136 151.015 109.101 150.458 109.066C149.936 109.032 149.361 109.014 148.734 109.014C148.142 109.014 147.549 109.032 146.957 109.066C146.4 109.101 145.825 109.136 145.233 109.171C144.641 109.241 143.996 109.275 143.299 109.275Z" fill="white"/>
<path d="M184.94 109.275C184.661 109.275 184.417 109.223 184.208 109.119C183.999 108.979 183.895 108.788 183.895 108.544C183.895 107.987 184.26 107.621 184.992 107.447C186.316 107.168 187.221 106.82 187.709 106.401C188.197 105.949 188.441 105.147 188.441 103.998V80.5885C188.441 79.4041 188.232 78.5506 187.814 78.0281C187.396 77.4707 186.56 77.0527 185.305 76.774C184.853 76.6695 184.539 76.5302 184.365 76.356C184.191 76.147 184.104 75.9206 184.104 75.6767C184.104 75.4677 184.208 75.2935 184.417 75.1542C184.626 74.98 184.905 74.8929 185.253 74.8929C186.089 74.8929 186.96 74.9103 187.866 74.9452C188.772 74.98 189.66 75.0323 190.531 75.1019C191.402 75.1368 192.238 75.1542 193.039 75.1542C194.398 75.1542 195.878 75.1542 197.48 75.1542C199.118 75.1542 200.685 75.1542 202.183 75.1542C203.611 75.1542 204.9 75.0671 206.05 74.8929C207.234 74.6839 208.192 74.5794 208.924 74.5794C209.203 74.5794 209.481 74.6491 209.76 74.7884C210.039 74.9278 210.195 75.189 210.23 75.5722C210.3 76.3734 210.352 77.2095 210.387 78.0804C210.422 78.9512 210.439 79.7873 210.439 80.5885C210.474 81.3897 210.491 82.069 210.491 82.6264C210.491 83.3231 210.282 83.6714 209.864 83.6714C209.69 83.6714 209.481 83.6018 209.237 83.4624C209.028 83.3231 208.889 83.1141 208.819 82.8354C208.576 81.9645 208.314 81.1981 208.036 80.5363C207.757 79.8395 207.391 79.2648 206.938 78.8119C206.485 78.3242 205.945 77.9759 205.318 77.7668C204.726 77.5578 204.012 77.4533 203.176 77.4533H199.257C198.386 77.4533 197.707 77.6798 197.219 78.1326C196.731 78.5506 196.488 79.1254 196.488 79.857C196.488 80.484 196.488 81.2155 196.488 82.0516C196.488 82.8876 196.488 83.6366 196.488 84.2985C196.488 85.0648 196.488 85.9009 196.488 86.8066C196.488 87.7123 196.488 88.5484 196.488 89.3148C196.488 89.7676 196.592 90.0986 196.801 90.3076C197.01 90.4817 197.306 90.5688 197.689 90.5688C198.56 90.5688 199.431 90.5688 200.302 90.5688C201.173 90.5688 201.992 90.5688 202.758 90.5688C203.664 90.5688 204.326 90.3076 204.744 89.785C205.162 89.2277 205.527 88.5832 205.841 87.8517C205.98 87.573 206.137 87.3466 206.311 87.1724C206.52 86.9982 206.712 86.9111 206.886 86.9111C207.06 86.9111 207.217 87.0156 207.356 87.2246C207.53 87.4337 207.6 87.7123 207.565 88.0607C207.496 88.7922 207.426 89.4889 207.356 90.1508C207.321 90.7778 207.304 91.3352 207.304 91.8229C207.304 92.4848 207.321 93.0596 207.356 93.5473C207.391 94.0001 207.443 94.6271 207.513 95.4284C207.548 95.8812 207.513 96.2296 207.409 96.4734C207.304 96.6824 207.165 96.7869 206.991 96.7869C206.712 96.7869 206.451 96.665 206.207 96.4212C205.998 96.1425 205.841 95.8464 205.736 95.5329C205.458 94.4878 205.109 93.7911 204.691 93.4427C204.273 93.0596 203.751 92.868 203.124 92.868C202.741 92.868 202.323 92.868 201.87 92.868C201.452 92.868 201.051 92.868 200.668 92.868C200.18 92.868 199.658 92.868 199.1 92.868C198.578 92.868 198.073 92.8854 197.585 92.9202C197.202 92.9202 196.906 93.0247 196.697 93.2337C196.522 93.4427 196.435 93.7388 196.435 94.122C196.435 95.6896 196.435 97.3269 196.435 99.0338C196.47 100.741 196.505 102.378 196.54 103.946C196.54 105.06 196.836 105.844 197.428 106.297C198.02 106.75 199.048 107.133 200.511 107.447C200.859 107.516 201.121 107.638 201.295 107.812C201.504 107.952 201.608 108.178 201.608 108.492C201.608 108.735 201.521 108.927 201.347 109.066C201.208 109.206 200.981 109.275 200.668 109.275C199.902 109.275 199.013 109.241 198.003 109.171C196.993 109.136 196 109.101 195.025 109.066C194.049 109.032 193.213 109.014 192.516 109.014C191.82 109.014 191.036 109.032 190.165 109.066C189.294 109.101 188.406 109.136 187.5 109.171C186.594 109.241 185.741 109.275 184.94 109.275Z" fill="white"/>
<path d="M228.691 110.216C228.412 110.216 228.273 110.042 228.273 109.693C228.273 109.275 228.308 108.718 228.378 108.021C228.482 107.325 228.534 106.785 228.534 106.401C228.534 106.262 228.517 106.14 228.482 106.036C228.482 105.931 228.465 105.862 228.43 105.827C227.489 106.976 226.287 107.952 224.824 108.753C223.361 109.519 221.811 109.902 220.174 109.902C219.094 109.902 218.118 109.589 217.248 108.962C216.377 108.3 215.68 107.412 215.157 106.297C214.67 105.182 214.426 103.928 214.426 102.535V92.7635C214.426 91.9622 214.269 91.3178 213.956 90.8301C213.677 90.3424 213.137 90.0115 212.336 89.8373C212.127 89.8025 211.935 89.7154 211.761 89.576C211.622 89.4018 211.552 89.158 211.552 88.8445C211.552 88.6006 211.622 88.409 211.761 88.2697C211.9 88.0955 212.092 87.991 212.336 87.9562C213.799 87.8865 215.123 87.7472 216.307 87.5382C217.491 87.2943 218.693 87.0156 219.913 86.7021C220.087 86.6673 220.261 86.6324 220.435 86.5976C220.644 86.5279 220.836 86.4931 221.01 86.4931C221.498 86.4931 221.724 86.7369 221.689 87.2246C221.55 88.0259 221.445 88.7051 221.376 89.2625C221.306 89.785 221.271 90.4469 221.271 91.2481V101.281C221.271 102.117 221.41 102.848 221.689 103.475C221.968 104.102 222.351 104.59 222.839 104.938C223.326 105.287 223.866 105.478 224.459 105.513C225.016 105.513 225.556 105.444 226.078 105.304C226.636 105.165 227.158 104.851 227.646 104.364C227.855 104.189 228.081 103.841 228.325 103.319C228.569 102.761 228.691 102.03 228.691 101.124V92.7112C228.691 92.0842 228.569 91.5791 228.325 91.1959C228.081 90.7778 227.75 90.4469 227.332 90.2031C226.914 89.9592 226.427 89.8199 225.869 89.785C225.486 89.7502 225.173 89.6631 224.929 89.5238C224.72 89.3496 224.615 89.0535 224.615 88.6355C224.615 88.2871 224.737 88.0259 224.981 87.8517C225.225 87.6775 225.521 87.5904 225.869 87.5904C227.646 87.4859 229.057 87.3988 230.102 87.3291C231.147 87.2246 232 87.1201 232.662 87.0156C233.324 86.9111 233.986 86.7892 234.648 86.6499C234.752 86.615 234.874 86.5802 235.014 86.5454C235.153 86.5105 235.257 86.4931 235.327 86.4931C235.85 86.4931 236.111 86.7021 236.111 87.1201C236.111 87.2246 236.094 87.3466 236.059 87.4859C236.024 87.6252 235.972 87.7646 235.902 87.9039C235.867 88.0433 235.815 88.3568 235.745 88.8445C235.71 89.2973 235.658 89.785 235.588 90.3076C235.554 90.8301 235.536 91.2481 235.536 91.5616V103.684C235.536 104.486 235.623 105.026 235.797 105.304C236.006 105.548 236.233 105.67 236.477 105.67C236.651 105.67 236.912 105.687 237.261 105.722C237.609 105.722 237.835 105.722 237.94 105.722C238.253 105.722 238.497 105.809 238.671 105.983C238.846 106.158 238.933 106.384 238.933 106.663C238.933 106.976 238.863 107.238 238.724 107.447C238.619 107.621 238.393 107.725 238.044 107.76C236.372 107.899 234.857 108.196 233.498 108.648C232.175 109.066 231.025 109.467 230.05 109.85C229.841 109.92 229.614 109.99 229.37 110.059C229.126 110.164 228.9 110.216 228.691 110.216Z" fill="white"/>
<path d="M241.586 109.275C241.307 109.275 241.064 109.223 240.855 109.119C240.646 108.979 240.541 108.788 240.541 108.544C240.541 108.265 240.646 108.056 240.855 107.917C241.064 107.743 241.36 107.603 241.743 107.499C242.509 107.255 243.014 106.994 243.258 106.715C243.537 106.436 243.676 106.036 243.676 105.513V93.495C243.676 92.7635 243.572 92.1713 243.363 91.7184C243.188 91.2307 242.77 90.8998 242.109 90.7256C241.934 90.6559 241.778 90.5688 241.638 90.4643C241.499 90.325 241.429 90.0986 241.429 89.785C241.429 89.2973 241.638 89.0012 242.056 88.8967C243.171 88.6181 244.39 88.2523 245.714 87.7994C247.073 87.3466 248.222 86.8937 249.163 86.4408C249.337 86.3015 249.546 86.1796 249.79 86.0751C250.068 85.9357 250.26 85.8661 250.365 85.8661C250.678 85.8661 250.835 86.0577 250.835 86.4408C250.835 86.615 250.817 86.9808 250.783 87.5382C250.783 88.0607 250.765 88.6006 250.73 89.158C250.73 89.7154 250.713 90.1856 250.678 90.5688C250.678 90.8824 250.748 91.0391 250.887 91.0391C251.41 90.3076 252.019 89.5934 252.716 88.8967C253.448 88.2 254.231 87.6252 255.067 87.1724C255.903 86.7195 256.722 86.4931 257.523 86.4931C258.742 86.4931 259.596 86.7195 260.084 87.1724C260.606 87.6252 260.867 88.2174 260.867 88.949C260.867 89.4715 260.711 90.0463 260.397 90.6733C260.118 91.3004 259.753 91.8403 259.3 92.2932C258.847 92.746 258.359 92.9725 257.837 92.9725C257.523 92.9725 257.192 92.9028 256.844 92.7635C256.496 92.5893 256.147 92.4151 255.799 92.2409C255.451 92.1016 255.102 91.9622 254.754 91.8229C254.44 91.6487 254.144 91.5616 253.866 91.5616C252.96 91.5616 252.176 91.8926 251.514 92.5544C250.852 93.2163 250.521 94.5401 250.521 96.5257V105.043C250.521 105.74 250.73 106.262 251.148 106.611C251.601 106.924 252.315 107.22 253.291 107.499C253.674 107.603 253.953 107.743 254.127 107.917C254.336 108.056 254.44 108.265 254.44 108.544C254.44 109.032 254.144 109.275 253.552 109.275C252.507 109.275 251.427 109.223 250.312 109.119C249.198 109.049 248.187 109.014 247.282 109.014C246.689 109.014 246.08 109.032 245.453 109.066C244.861 109.101 244.234 109.136 243.572 109.171C242.945 109.241 242.283 109.275 241.586 109.275Z" fill="white"/>
<path d="M265.469 123.906C264.563 123.906 263.692 123.593 262.856 122.966C262.02 122.339 261.602 121.555 261.602 120.614C261.602 119.952 261.776 119.291 262.125 118.629C262.473 118.002 263.013 117.688 263.745 117.688C264.302 117.688 264.859 117.775 265.417 117.949C266.009 118.158 266.566 118.246 267.089 118.211C267.611 118.141 267.977 118.002 268.186 117.793C268.395 117.618 268.639 117.27 268.918 116.748C269.162 116.33 269.388 115.912 269.597 115.494C269.841 115.11 270.102 114.605 270.381 113.978C270.694 113.386 271.077 112.602 271.53 111.627C271.948 110.686 272.157 109.85 272.157 109.119C272.157 108.596 272.07 108.126 271.896 107.708C271.757 107.255 271.6 106.82 271.426 106.401L264.999 91.8229C264.685 91.0217 264.337 90.3598 263.954 89.8373C263.57 89.3148 263.048 88.949 262.386 88.74C262.073 88.6006 261.829 88.4613 261.655 88.322C261.48 88.1478 261.393 87.9039 261.393 87.5904C261.393 87.3466 261.55 87.1898 261.864 87.1201C262.177 87.0505 262.456 87.0156 262.7 87.0156C263.536 87.0156 264.232 87.033 264.79 87.0679C265.382 87.1027 265.904 87.1375 266.357 87.1724C266.81 87.2072 267.263 87.2246 267.716 87.2246C268.482 87.2246 269.127 87.2072 269.649 87.1724C270.172 87.1375 270.729 87.1027 271.321 87.0679C271.914 87.033 272.61 87.0156 273.411 87.0156C273.655 87.0156 273.917 87.0679 274.195 87.1724C274.474 87.2769 274.613 87.4511 274.613 87.6949C274.613 88.0084 274.474 88.2349 274.195 88.3742C273.951 88.4787 273.69 88.6006 273.411 88.74C273.028 88.8793 272.732 89.0883 272.523 89.367C272.314 89.6457 272.21 90.0986 272.21 90.7256C272.21 91.0043 272.244 91.3352 272.314 91.7184C272.419 92.1016 272.575 92.5719 272.784 93.1292L276.024 101.019C276.059 101.124 276.111 101.176 276.181 101.176C276.216 101.176 276.268 101.124 276.338 101.019L279.003 93.0247C279.107 92.746 279.194 92.4151 279.264 92.0319C279.368 91.6139 279.421 91.2481 279.421 90.9346C279.421 90.3424 279.246 89.8721 278.898 89.5238C278.55 89.1406 278.184 88.8793 277.801 88.74C277.522 88.6355 277.243 88.5135 276.965 88.3742C276.721 88.2349 276.599 88.0084 276.599 87.6949C276.599 87.4511 276.738 87.2769 277.017 87.1724C277.296 87.0679 277.557 87.0156 277.801 87.0156C278.741 87.0505 279.473 87.1027 279.995 87.1724C280.518 87.2072 281.058 87.2246 281.615 87.2246C281.964 87.2246 282.277 87.2246 282.556 87.2246C282.869 87.1898 283.235 87.155 283.653 87.1201C284.071 87.0853 284.576 87.0505 285.168 87.0156C285.412 87.0156 285.673 87.0505 285.952 87.1201C286.266 87.1898 286.422 87.3466 286.422 87.5904C286.422 87.9039 286.335 88.1478 286.161 88.322C286.022 88.4613 285.795 88.6006 285.482 88.74C284.82 88.949 284.228 89.3496 283.705 89.9418C283.183 90.4992 282.747 91.1785 282.399 91.9797L274.613 110.686C274.335 111.383 274.021 112.132 273.673 112.933C273.324 113.769 272.959 114.623 272.575 115.494C272.227 116.364 271.861 117.253 271.478 118.158C271.095 119.064 270.712 119.952 270.329 120.823C269.91 121.834 269.266 122.6 268.395 123.122C267.524 123.645 266.549 123.906 265.469 123.906Z" fill="white"/>
</svg>
