<svg width="194" height="85" viewBox="0 0 194 85" fill="none" xmlns="http://www.w3.org/2000/svg">
<path d="M30.1737 63.684L3.07526 81.6698L20.6766 54.6832L20.839 54.4342V54.1369V1H193V63.5172H30.7267H30.425L30.1737 63.684Z" fill="#F5ECE5" stroke="black" stroke-width="2"/>
<path d="M35.1028 32.8824V29.6618H54.5129V32.8824H35.1028ZM52.2082 18.3892H55.6453V46.5709H52.2082V18.3892ZM33.2021 18.3892H36.6393V46.5709H33.2021V18.3892Z" fill="#333332"/>
<path d="M64.011 46.5704V43.3494H78.2856V46.5704H64.011ZM64.011 21.6094V18.3887H78.2856V21.6094H64.011ZM64.011 32.882V29.6614H77.4771V32.882H64.011ZM62.1104 18.3887H65.5475V46.5704H62.1104V18.3887Z" fill="#333332"/>
<path d="M89.3977 32.6811H93.2393L103.349 46.5709H99.1032L89.3977 32.6811ZM84.3428 18.3892H87.7803V46.5709H84.3428V18.3892ZM86.2434 21.4086V18.3892H92.0263C93.8593 18.3892 95.4904 18.738 96.9193 19.4359C98.3752 20.1069 99.521 21.0731 100.356 22.3346C101.219 23.5961 101.651 25.0991 101.651 26.8437C101.651 28.5614 101.219 30.0644 100.356 31.3528C99.521 32.6141 98.3752 33.594 96.9193 34.2918C95.4904 34.9628 93.8593 35.2981 92.0263 35.2981H86.2434V32.2789H92.0263C93.2393 32.2789 94.3044 32.0639 95.2209 31.6347C96.1644 31.2052 96.8923 30.5878 97.4048 29.7826C97.9438 28.9774 98.2133 27.9978 98.2133 26.8437C98.2133 25.6896 97.9438 24.7099 97.4048 23.9047C96.8923 23.0995 96.1644 22.4822 95.2209 22.0528C94.3044 21.6233 93.2393 21.4086 92.0263 21.4086H86.2434Z" fill="#333332"/>
<path d="M108.872 46.5704V43.3494H123.147V46.5704H108.872ZM108.872 21.6094V18.3887H123.147V21.6094H108.872ZM108.872 32.882V29.6614H122.338V32.882H108.872ZM106.972 18.3887H110.409V46.5704H106.972V18.3887Z" fill="#333332"/>
<path d="M130.257 38.0356C130.904 39.163 131.578 40.156 132.279 41.0147C133.006 41.8738 133.815 42.5448 134.705 43.0276C135.594 43.5109 136.605 43.7524 137.738 43.7524C139.247 43.7524 140.46 43.3365 141.377 42.5043C142.294 41.6724 142.752 40.6124 142.752 39.3238C142.752 38.0624 142.455 37.0562 141.862 36.3046C141.269 35.553 140.487 34.9489 139.517 34.4929C138.574 34.0097 137.562 33.5801 136.484 33.2043C135.783 32.9629 135.001 32.6545 134.139 32.2786C133.276 31.876 132.454 31.3795 131.672 30.7889C130.89 30.1716 130.243 29.4201 129.731 28.5344C129.246 27.6486 129.003 26.5616 129.003 25.2733C129.003 23.8776 129.354 22.6296 130.054 21.5292C130.755 20.4287 131.726 19.5699 132.966 18.9526C134.206 18.3084 135.621 17.9863 137.212 17.9863C138.749 17.9863 140.083 18.2816 141.215 18.872C142.374 19.4357 143.359 20.1738 144.167 21.0863C144.976 21.9721 145.61 22.9114 146.068 23.9045L143.116 25.5954C142.766 24.8976 142.321 24.2132 141.781 23.5422C141.242 22.8712 140.582 22.3209 139.8 21.8915C139.045 21.4621 138.115 21.2474 137.01 21.2474C135.473 21.2474 134.354 21.6231 133.654 22.3746C132.953 23.0993 132.602 23.9179 132.602 24.8305C132.602 25.6088 132.804 26.3335 133.208 27.0045C133.613 27.6486 134.287 28.266 135.23 28.8564C136.201 29.4201 137.508 29.9837 139.153 30.5473C139.908 30.8158 140.703 31.1645 141.539 31.594C142.374 32.0236 143.143 32.5738 143.844 33.2448C144.572 33.8889 145.165 34.6806 145.623 35.6199C146.081 36.5328 146.311 37.6329 146.311 38.9215C146.311 40.156 146.068 41.2698 145.583 42.2628C145.124 43.2559 144.477 44.1013 143.642 44.7992C142.833 45.497 141.903 46.0341 140.851 46.4094C139.827 46.7852 138.749 46.9734 137.616 46.9734C136.079 46.9734 134.651 46.6513 133.33 46.0072C132.036 45.3362 130.89 44.4639 129.893 43.3902C128.922 42.2897 128.127 41.1222 127.507 39.8877L130.257 38.0356Z" fill="#333332"/>
<path d="M166.764 18.3887H170.606L161.184 34.412V46.5704H157.746V34.4521L148.324 18.3887H152.166L159.445 31.4329L166.764 18.3887Z" fill="#333332"/>
<path d="M174.834 18.3887H178.878L178.069 38.5186H175.643L174.834 18.3887ZM174.632 44.9601C174.632 44.3425 174.848 43.8195 175.279 43.3899C175.737 42.9604 176.263 42.7458 176.856 42.7458C177.476 42.7458 178.002 42.9604 178.433 43.3899C178.865 43.8195 179.08 44.3425 179.08 44.9601C179.08 45.5505 178.865 46.0739 178.433 46.5303C178.002 46.9594 177.476 47.1744 176.856 47.1744C176.263 47.1744 175.737 46.9594 175.279 46.5303C174.848 46.0739 174.632 45.5505 174.632 44.9601Z" fill="#333332"/>
</svg>
