<svg  viewBox="0 0 84 49" fill="none" xmlns="http://www.w3.org/2000/svg">
<path d="M83.2094 29.2382C83.2094 40.0033 64.5826 48.7316 41.6047 48.7316C18.6272 48.7316 0 40.0033 0 29.2382C0 26.1039 0 23.1469 0 19.4923C7.34189 19.492 24.7932 19.4923 40.3812 19.4923C58.5577 19.4923 77.0913 19.4927 83.2094 19.4917C83.2094 21.9282 83.2094 26.989 83.2094 29.2382Z" fill="#B1701A"/>
<path d="M41.6047 38.9842C64.5823 38.9842 83.2094 30.2573 83.2094 19.4921C83.2094 8.72691 64.5823 0 41.6047 0C18.6271 0 0 8.72691 0 19.4921C0 30.2573 18.6271 38.9842 41.6047 38.9842Z" fill="#DC8C22"/>
</svg>
