<svg  viewBox="0 0 84 49" fill="none" xmlns="http://www.w3.org/2000/svg">
<path d="M83.2094 29.2382C83.2094 40.0033 64.5826 48.7316 41.6047 48.7316C18.6272 48.7316 0 40.0033 0 29.2382C0 26.1039 0 23.1469 0 19.4923C7.34189 19.492 24.7932 19.4923 40.3812 19.4923C58.5577 19.4923 77.0913 19.4927 83.2094 19.4917C83.2094 21.9282 83.2094 26.989 83.2094 29.2382Z" fill="#B1701A"/>
<path d="M41.6047 38.9842C64.5823 38.9842 83.2094 30.2573 83.2094 19.4921C83.2094 8.72691 64.5823 0 41.6047 0C18.6271 0 0 8.72691 0 19.4921C0 30.2573 18.6271 38.9842 41.6047 38.9842Z" fill="#DC8C22"/>
<path d="M11.3125 19.5453C11.3125 20.756 11.5844 21.8195 12.1281 22.7357C12.6883 23.6519 13.4132 24.3636 14.3029 24.8708C15.2091 25.3617 16.1894 25.6071 17.2439 25.6071C18.0677 25.6071 18.8091 25.5007 19.4681 25.288C20.1272 25.0753 20.7203 24.789 21.2475 24.4291C21.7913 24.0528 22.2608 23.6356 22.6562 23.1774V26.6133C21.9313 27.2023 21.1487 27.6522 20.3084 27.9631C19.4681 28.274 18.4137 28.4294 17.145 28.4294C15.8764 28.4294 14.6901 28.2167 13.5862 27.7913C12.4988 27.3659 11.5514 26.7524 10.7441 25.9507C9.93676 25.149 9.30243 24.2082 8.84111 23.1284C8.39625 22.0322 8.17383 20.8378 8.17383 19.5453C8.17383 18.2527 8.39625 17.0665 8.84111 15.9867C9.30243 14.8905 9.93676 13.9416 10.7441 13.1399C11.5514 12.3382 12.4988 11.7246 13.5862 11.2992C14.6901 10.8738 15.8764 10.6611 17.145 10.6611C18.4137 10.6611 19.4681 10.8166 20.3084 11.1274C21.1487 11.4383 21.9313 11.8882 22.6562 12.4772V15.9131C22.2608 15.455 21.7913 15.0459 21.2475 14.686C20.7203 14.3097 20.1272 14.0152 19.4681 13.8025C18.8091 13.5898 18.0677 13.4834 17.2439 13.4834C16.1894 13.4834 15.2091 13.737 14.3029 14.2442C13.4132 14.7351 12.6883 15.4386 12.1281 16.3548C11.5844 17.2547 11.3125 18.3182 11.3125 19.5453Z" fill="#333332"/>
<path d="M26.2498 10.9556H29.1661V25.5335H36.0366V28.1349H26.2498V10.9556Z" fill="#333332"/>
<path d="M38.1483 10.9556H41.0892V28.1349H38.1483V10.9556Z" fill="#333332"/>
<path d="M47.1044 19.5453C47.1044 20.756 47.3762 21.8195 47.92 22.7357C48.4801 23.6519 49.2051 24.3636 50.0948 24.8708C51.001 25.3617 51.9813 25.6071 53.0358 25.6071C53.8596 25.6071 54.601 25.5007 55.26 25.288C55.9191 25.0753 56.5122 24.789 57.0394 24.4291C57.5831 24.0528 58.0527 23.6356 58.4481 23.1774V26.6133C57.7232 27.2023 56.9406 27.6522 56.1003 27.9631C55.26 28.274 54.2056 28.4294 52.9369 28.4294C51.6682 28.4294 50.482 28.2167 49.3781 27.7913C48.2907 27.3659 47.3433 26.7524 46.536 25.9507C45.7286 25.149 45.0943 24.2082 44.633 23.1284C44.1881 22.0322 43.9657 20.8378 43.9657 19.5453C43.9657 18.2527 44.1881 17.0665 44.633 15.9867C45.0943 14.8905 45.7286 13.9416 46.536 13.1399C47.3433 12.3382 48.2907 11.7246 49.3781 11.2992C50.482 10.8738 51.6682 10.6611 52.9369 10.6611C54.2056 10.6611 55.26 10.8166 56.1003 11.1274C56.9406 11.4383 57.7232 11.8882 58.4481 12.4772V15.9131C58.0527 15.455 57.5831 15.0459 57.0394 14.686C56.5122 14.3097 55.9191 14.0152 55.26 13.8025C54.601 13.5898 53.8596 13.4834 53.0358 13.4834C51.9813 13.4834 51.001 13.737 50.0948 14.2442C49.2051 14.7351 48.4801 15.4386 47.92 16.3548C47.3762 17.2547 47.1044 18.3182 47.1044 19.5453Z" fill="#333332"/>
<path d="M62.0417 10.9556H65.0321V28.1349H62.0417V10.9556ZM71.4577 10.9556H74.9671L67.6765 19.0053L75.3378 28.1349H71.7543L64.1424 19.079L71.4577 10.9556Z" fill="#333332"/>
</svg>
