<svg width="78" height="78" viewBox="0 0 78 78" fill="none" xmlns="http://www.w3.org/2000/svg">
<g clip-path="url(#clip0_456_80)">
<path d="M27.7334 15.1667V13C27.7334 12.9133 27.82 12.9133 28.08 12.8267H28.1667V12.5667H27.3V12.6533C27.3 12.6533 26.9534 13.4333 26.6934 13.9533C26.6067 14.1267 26.52 14.3867 26.4334 14.56C26.3467 14.6467 26.3467 14.82 26.26 14.9067C26.1734 14.6467 26 14.3 25.8267 13.9533C25.5667 13.4333 25.22 12.6533 25.22 12.6533V12.5667H24.2667V12.8267H24.3534C24.5267 12.8267 24.6134 12.9133 24.7 12.9133C24.7867 12.9133 24.7867 13 24.8734 13.1733V14.9933C24.8734 15.1667 24.8734 15.34 24.5267 15.34H24.44V15.6867H24.96C25.22 15.6867 25.48 15.6867 25.5667 15.7733H25.6534V15.4267H25.5667C25.22 15.34 25.22 15.34 25.1334 15.1667V13.8667C25.22 13.9533 25.22 14.04 25.3067 14.2133L25.3934 14.4733C25.3934 14.56 25.48 14.6467 25.48 14.7333C25.6534 14.9933 25.8267 15.34 26 15.86V15.9467H26.26V15.86C26.3467 15.6 26.52 15.08 26.78 14.7333L26.8667 14.56C26.9534 14.3867 26.9534 14.3 27.04 14.1267C27.1267 14.04 27.1267 13.9533 27.2134 13.78V15.34C27.2134 15.4267 27.1267 15.5133 26.8667 15.5133H26.78V15.7733H26.8667C26.8667 15.7733 27.2134 15.6867 27.3867 15.6867C27.6467 15.6867 27.9067 15.6867 28.1667 15.7733H28.2534V15.4267H28.1667C27.82 15.34 27.7334 15.2533 27.7334 15.1667ZM33.1067 12.5667H32.3267V12.9133H32.4134C32.6734 12.9133 32.76 13 32.76 13.0867C32.8467 13.1733 32.8467 13.4333 32.8467 13.6067V14.3867C32.8467 15.2533 32.3267 15.34 31.98 15.34C31.6334 15.34 31.1134 15.2533 31.1134 14.4733V13.26C31.1134 13 31.2 13 31.5467 12.9133H31.6334V12.6533H29.9867V12.9133H30.0734C30.42 13 30.5067 13 30.5067 13.3467V14.6467C30.5067 15.4267 31.0267 15.86 31.8934 15.86C32.5 15.86 33.1934 15.5133 33.1934 14.56V13.6933C33.1934 13.52 33.1934 13.26 33.28 13.1733C33.28 13.0867 33.3667 13.0867 33.6267 13.0867H33.7133V12.74H33.6267C33.3667 12.5667 33.1934 12.5667 33.1067 12.5667ZM36.8334 13.8667C36.4 13.6933 36.3133 13.52 36.3133 13.3467C36.3133 13.0867 36.4867 12.9133 36.8334 12.9133C37.0934 12.9133 37.2667 13.0867 37.2667 13.3467V13.4333H37.5267V12.74H37.44C37.18 12.6533 37.0067 12.5667 36.7467 12.5667C36.14 12.5667 35.7067 12.9133 35.7067 13.4333C35.7067 13.8667 35.9667 14.1267 36.5734 14.3867C37.0067 14.56 37.0934 14.6467 37.0934 14.9067C37.0934 15.1667 36.8334 15.4267 36.5734 15.4267C36.2267 15.4267 36.0534 15.2533 35.9667 14.9067V14.82H35.7067V15.6H35.7934C36.0534 15.6867 36.4 15.7733 36.66 15.7733C37.3534 15.7733 37.7867 15.34 37.7867 14.82C37.7 14.2133 37.2667 14.04 36.8334 13.8667ZM42.0334 14.82C41.9467 15.08 41.9467 15.1667 41.86 15.1667C41.7734 15.1667 41.5134 15.2533 41.2534 15.2533C41.08 15.2533 40.9933 15.2533 40.9067 15.1667C40.9067 15.1667 40.82 14.9933 40.82 14.6467V14.2133H41.08C41.2533 14.2133 41.4267 14.2133 41.4267 14.3C41.5134 14.3 41.5134 14.4733 41.6 14.56V14.7333L41.86 14.6467V14.56C41.7734 14.3867 41.7734 14.2133 41.7734 14.04V13.6067H41.6V13.6933C41.5134 13.8667 41.5134 13.9533 41.4267 13.9533C41.34 13.9533 41.2533 14.04 41.08 14.04H40.82V13.0867H41.1667C41.4267 13.0867 41.5134 13.0867 41.6 13.1733C41.6867 13.26 41.7734 13.3467 41.7734 13.52V13.6067H42.0334V12.74H39.6934V13H39.8667C40.04 13 40.2133 13.0867 40.2133 13.1733V15.4267C40.2133 15.5133 40.04 15.5133 39.8667 15.5133H39.78V15.7733H42.2067V15.6867C42.2067 15.5133 42.2067 15.5133 42.2934 15.34V14.9067L42.0334 14.82ZM47.4067 12.5667H46.7133V12.9133H46.8C47.06 12.9133 47.1467 13 47.1467 13.0867C47.2333 13.1733 47.2334 13.4333 47.2334 13.6067V14.3867C47.2334 15.2533 46.7134 15.34 46.3667 15.34C46.02 15.34 45.5 15.2533 45.5 14.4733V13.26C45.5 13 45.5867 13 45.9334 12.9133H46.02V12.6533H44.3734V12.9133H44.46C44.8067 13 44.8934 13 44.8934 13.3467V14.6467C44.8934 15.4267 45.4133 15.86 46.28 15.86C46.8867 15.86 47.58 15.5133 47.58 14.56V13.6933C47.58 13.52 47.58 13.26 47.6667 13.1733C47.6667 13.0867 47.7533 13.0867 48.0133 13.0867H48.1V12.74H48.0133C47.6667 12.5667 47.58 12.5667 47.4067 12.5667ZM53.7334 15.34C53.4734 15.2533 53.3867 15.2533 53.3867 15.1667V13C53.3867 12.9133 53.4734 12.9133 53.7334 12.8267H53.82V12.5667H52.8667V12.6533C52.8667 12.6533 52.52 13.4333 52.26 13.9533C52.1734 14.1267 52.0867 14.3867 52 14.56C51.9134 14.6467 51.9134 14.7333 51.8267 14.82C51.74 14.56 51.5667 14.2133 51.3934 13.8667L50.7867 12.6533V12.5667H49.8334V12.8267H49.92C50.0934 12.8267 50.18 12.9133 50.2667 12.9133C50.3534 12.9133 50.3533 13 50.44 13.1733V15.08C50.44 15.2533 50.44 15.4267 50.0934 15.4267H50.0067V15.7733H50.5267C50.7867 15.7733 51.0467 15.7733 51.1334 15.86H51.22V15.5133H51.1334C50.7867 15.4267 50.7867 15.4267 50.7 15.2533V13.9533C50.7867 14.04 50.7867 14.1267 50.8734 14.3L50.96 14.56C50.96 14.6467 51.0467 14.7333 51.0467 14.82C51.22 15.08 51.3934 15.4267 51.5667 15.9467V16.0333H51.8267V15.9467C51.9134 15.6867 52.1733 15.1667 52.3467 14.82L52.4334 14.6467C52.52 14.4733 52.52 14.3867 52.6067 14.2133C52.6933 14.1267 52.6933 14.04 52.78 13.8667V15.4267C52.78 15.5133 52.6934 15.6 52.4334 15.6H52.3467V15.86H52.4334C52.4334 15.86 52.78 15.7733 52.9534 15.7733C53.2134 15.7733 53.4734 15.7733 53.7334 15.86H53.82V15.5133L53.7334 15.34ZM8.49336 22.9667C8.58003 23.2267 8.58002 23.66 8.58002 24.7867C8.58002 26.0867 8.58003 26.6067 8.49336 26.8667C8.40669 27.1267 8.32003 27.3 7.62669 27.3867C7.62669 27.3867 7.54002 27.3867 7.54002 27.4733V27.82C7.97335 27.7333 8.40669 27.7333 9.01336 27.7333C9.53336 27.7333 10.14 27.7333 10.5734 27.82V27.4733C10.5734 27.4733 10.5734 27.3867 10.4867 27.3867C9.88002 27.3 9.70669 27.2133 9.62002 27.04C9.53336 26.8667 9.44669 26.1733 9.44669 24.2667V22.5333H9.70669C10.4867 22.5333 10.92 23.0533 10.92 23.7467C10.92 24.44 10.4867 24.96 9.79336 25.0467C9.79336 25.0467 9.70669 25.0467 9.70669 25.1333V25.3933C9.70669 25.3933 9.70669 25.48 9.79336 25.48C10.66 25.48 11.18 25.3933 11.5267 25.0467C11.8734 24.7867 12.1334 24.3533 12.1334 23.8333C12.1334 22.7933 11.2667 22.1867 9.96669 22.1867H7.28002C7.28002 22.1867 7.19336 22.1867 7.19336 22.2733V22.5333C7.19336 22.5333 7.19336 22.62 7.28002 22.62C8.23336 22.5333 8.40669 22.62 8.49336 22.9667ZM20.02 27.9067H20.9734C21.06 27.7333 21.06 27.6467 21.1467 27.3867C21.32 26.9533 21.4934 26.6067 21.58 26.4333V26.3467H21.06C20.8 26.78 20.54 27.04 20.28 27.2133C20.02 27.3867 19.76 27.3867 19.5 27.3867C18.98 27.3867 18.8067 27.3 18.6334 27.2133C18.3734 27.04 18.2867 26.8667 18.2867 26V24.44C18.2867 23.2267 18.2867 22.9667 18.46 22.7933C18.5467 22.7067 18.8067 22.5333 19.1534 22.5333C19.1534 22.5333 19.24 22.5333 19.24 22.4467V22.1H17.7667C17.0734 22.1 16.7267 22.1 16.4667 22.0133H16.2934V22.36C16.2934 22.36 16.2934 22.4467 16.38 22.4467C16.8134 22.5333 16.9867 22.62 17.16 22.7067C17.2467 22.88 17.3334 23.0533 17.3334 23.4V25.74C17.3334 26.52 17.3334 26.9533 17.2467 27.1267C17.16 27.2133 17.0734 27.3 16.5534 27.3867C16.5534 27.3867 16.4667 27.3867 16.4667 27.4733V27.7333C16.4667 27.7333 16.4667 27.82 16.5534 27.82H16.64C16.8134 27.82 17.2467 27.7333 17.68 27.7333H18.8934C19.1534 27.82 19.5867 27.9067 20.02 27.9067ZM28.4267 27.4733L28.34 27.82H31.2V27.4733C31.2 27.4733 31.2 27.3867 31.1134 27.3867C30.7667 27.3867 30.5934 27.3 30.5067 27.1267C30.3334 26.9533 30.3334 26.78 29.8134 25.6533C29.64 25.3067 29.4667 24.8733 29.2934 24.2667C28.7734 22.9667 28.34 21.6667 28.34 21.6667H28.1667C27.9934 22.0133 27.7334 22.4467 27.3867 22.4467V22.5333L27.4734 22.7067C27.3867 22.9667 26.52 25.22 26.0867 26.52C25.8267 27.2133 25.6534 27.3867 25.0467 27.4733C25.0467 27.4733 24.96 27.4733 24.96 27.56V27.9067H27.3V27.56C27.3 27.56 27.3 27.4733 27.2134 27.4733C26.6067 27.4733 26.3467 27.3 26.3467 27.04C26.3467 26.8667 26.6934 25.8267 26.78 25.6533H28.5134C28.6 25.8267 28.6867 26 28.6867 26.1733C28.86 26.6067 28.9467 26.8667 28.9467 27.04C29.2934 27.2133 29.12 27.3867 28.4267 27.4733ZM28.6 25.0467H27.3867L27.9934 23.4L28.6 25.0467ZM36.8334 27.1267C36.7467 26.9533 36.7467 26.8667 36.7467 25.5667V23.5733C37.0067 23.92 37.96 24.96 38.6534 25.6533L38.8267 25.9133C39.8667 27.04 40.56 27.82 40.7334 28.1667L40.9934 27.9933V27.9067C40.9934 27.9067 41.08 24.7 41.08 24.5267C41.08 23.4867 41.08 23.14 41.1667 22.9667C41.2534 22.7933 41.5134 22.62 42.0334 22.62C42.0334 22.62 42.12 22.62 42.12 22.5333V22.1H39.6067V22.5333C40.1267 22.62 40.3 22.7067 40.3867 22.88C40.4734 23.0533 40.4734 23.2267 40.4734 24.44V26C40.3 25.74 39.9534 25.3933 39.6067 25.0467L39.3467 24.7C37.6133 22.88 37.18 22.2733 37.0934 22.1H34.84C34.84 22.1 34.7534 22.1 34.7534 22.1867V22.5333C34.7534 22.5333 34.7534 22.62 34.84 22.62C35.36 22.62 35.62 22.7933 35.9667 23.0533V25.9133C35.9667 26.9533 35.9667 27.1267 35.88 27.3C35.7933 27.4733 35.62 27.56 35.0133 27.6467C35.0133 27.6467 34.9267 27.6467 34.9267 27.7333V28.08C35.36 28.08 35.7933 27.9933 36.3133 27.9933C36.92 27.9933 37.2667 27.9933 37.6133 28.08V27.7333C37.6133 27.7333 37.6134 27.6467 37.5267 27.6467C37.2667 27.3867 36.92 27.3 36.8334 27.1267ZM46.8 22.88H48.36V25.9133C48.36 26.3467 48.36 26.9533 48.1867 27.1267C48.1 27.3 47.9267 27.3 47.6667 27.3867H47.4934V27.82C47.84 27.82 48.4467 27.7333 48.88 27.7333C49.3133 27.7333 49.8334 27.7333 50.3534 27.82V27.4733C50.3534 27.4733 50.3534 27.3867 50.2667 27.3867C49.7467 27.3 49.5734 27.2133 49.4867 26.8667C49.4 26.6067 49.4 26.3467 49.4 25.48V22.7933H50.3534C50.8734 22.7933 50.96 22.7933 51.0467 22.88C51.1333 22.9667 51.1334 23.0533 51.1334 23.4867C51.1334 23.4867 51.1334 23.5733 51.22 23.5733H51.5667C51.5667 23.5733 51.6534 23.5733 51.6534 23.4867C51.74 22.9667 51.8267 22.5333 51.9133 22.1V22.0133H51.48C51.3933 22.1867 51.3067 22.1867 51.0467 22.1867C50.6133 22.1867 49.3134 22.2733 48.36 22.2733H46.54C46.3667 22.2733 46.28 22.2733 46.28 22.0133C46.28 22.0133 46.28 21.9267 46.1934 21.9267H45.8467C45.8467 21.9267 45.76 21.9267 45.76 22.0133C45.76 22.36 45.6734 22.88 45.5867 23.4V23.4867H46.02V23.4C46.3667 22.9667 46.4534 22.88 46.8 22.88ZM56.8534 22.7933C56.94 22.9667 57.0267 23.14 57.0267 23.4867C57.0267 23.92 57.1133 24.96 57.1133 25.8267C57.1133 26.6933 57.1133 27.1267 56.94 27.3C56.8533 27.3867 56.68 27.4733 56.2467 27.4733V27.9067C56.2467 27.9067 56.8534 27.82 57.46 27.82C58.0667 27.82 58.6734 27.82 59.1067 27.9067V27.56C59.1067 27.56 59.1067 27.4733 59.02 27.4733C58.5867 27.3867 58.4134 27.3 58.3267 27.1267C58.24 26.9533 58.1534 26.78 58.1534 25.5667V24.0933C58.1534 23.0533 58.24 22.88 58.3267 22.7933C58.5 22.62 58.5 22.62 59.1067 22.5333V22.1867C59.1067 22.1867 59.1067 22.1 59.02 22.1H57.6334C57.0267 22.1 56.5067 22.1 56.0733 22.0133V22.36C56.0733 22.36 56.0734 22.4467 56.16 22.4467C56.5067 22.5333 56.7667 22.62 56.8534 22.7933ZM70.46 22.1H67.9467V22.4467C67.9467 22.4467 67.9467 22.5333 68.0333 22.5333C68.5533 22.62 68.7267 22.7067 68.8133 22.88C68.9 23.0533 68.9 23.2267 68.9 24.44V26C68.7267 25.74 68.38 25.3933 68.0333 25.0467L67.6867 24.7C66.3 23.2267 65.6067 22.36 65.4334 22.1H63.18C63.18 22.1 63.0934 22.1 63.0934 22.1867V22.5333C63.0934 22.5333 63.0933 22.62 63.18 22.62C63.7 22.62 63.96 22.7933 64.3067 23.0533V25.9133C64.3067 26.9533 64.3067 27.1267 64.22 27.3C64.1334 27.4733 63.96 27.56 63.3534 27.6467C63.3534 27.6467 63.2667 27.6467 63.2667 27.7333V28.08C63.7 28.08 64.1334 27.9933 64.6534 27.9933C65.26 27.9933 65.6067 27.9933 65.9534 28.08V27.7333C65.9534 27.7333 65.9534 27.6467 65.8667 27.6467C65.26 27.56 65 27.4733 64.9133 27.3C64.8267 27.1267 64.8267 27.04 64.8267 25.74V23.7467C65.0867 24.0933 66.04 25.1333 66.7334 25.8267L66.9067 26C67.9467 27.1267 68.64 27.9067 68.9 28.2533L69.16 28.08V27.9933C69.16 27.9933 69.2467 24.7867 69.2467 24.6133C69.2467 23.5733 69.2467 23.2267 69.3333 23.0533C69.42 22.88 69.68 22.7067 70.2 22.7067C70.2 22.7067 70.2867 22.7067 70.2867 22.62L70.46 22.1C70.5467 22.1 70.5467 22.1 70.46 22.1ZM15.34 32.5867C14.7334 32.6733 14.1267 32.6733 13.8667 32.6733H13.52C13.52 32.6733 13 33.7133 12.48 34.84C12.22 35.36 11.96 35.88 11.7867 36.3133C11.7 36.5733 11.5267 36.8333 11.5267 36.92C11.44 36.66 11.2667 36.3133 11.0067 35.88C10.8334 35.62 10.7467 35.36 10.5734 35.0133C10.3134 34.4933 10.14 34.1467 9.96669 33.8867C9.62002 33.28 9.53336 33.02 9.44669 32.76H8.92669C8.49336 32.76 7.54002 32.6733 7.54002 32.6733V33.02C7.54002 33.02 7.54003 33.1067 7.62669 33.1067C7.97336 33.1933 8.23336 33.1933 8.32002 33.28C8.40669 33.3667 8.49336 33.4533 8.66669 33.8V36.2267C8.66669 37.44 8.66669 37.6133 8.58002 37.7867C8.49336 37.96 8.40669 38.0467 7.80002 38.1333V38.5667H7.88669C8.23336 38.48 8.40669 38.48 8.84002 38.48C9.36002 38.48 10.0534 38.5667 10.2267 38.5667V38.22C10.2267 38.22 10.2267 38.1333 10.14 38.1333C9.53335 38.0467 9.44669 37.96 9.36003 37.7867C9.27336 37.6133 9.27335 37.44 9.27335 37.3533V35.0133C9.44669 35.2733 9.70669 35.88 10.14 36.66C10.66 37.7 11.0067 38.3933 11.18 38.6533H11.7C11.8734 38.1333 12.0467 37.7867 12.6534 36.4867L13.0867 35.62C13.26 35.1867 13.4334 34.9267 13.52 34.7533V36.3133C13.52 37.2667 13.52 37.6133 13.4334 37.7867C13.3467 37.96 13.26 38.1333 12.74 38.1333C12.74 38.1333 12.6534 38.1333 12.6534 38.22V38.5667C13.0867 38.48 13.52 38.48 13.9534 38.48C14.3 38.48 15.4267 38.5667 15.4267 38.5667V38.22C15.4267 38.22 15.4267 38.1333 15.34 38.1333C14.82 38.0467 14.6467 37.96 14.56 37.7C14.4734 37.44 14.4734 37.18 14.4734 36.2267V34.7533C14.4734 33.8867 14.4734 33.6267 14.56 33.54C14.6467 33.3667 14.82 33.28 15.34 33.1933C15.34 33.1933 15.4267 33.1933 15.4267 33.1067L15.34 32.5867C15.4267 32.6733 15.4267 32.6733 15.34 32.5867ZM21.84 32.6733C20.1067 32.6733 18.72 33.9733 18.72 35.62C18.72 37.2667 20.02 38.48 21.84 38.48C23.5734 38.48 24.96 37.18 24.96 35.4467C24.96 33.8867 23.66 32.6733 21.84 32.6733ZM21.9267 38.1333C20.8867 38.1333 20.02 37.0067 20.02 35.4467C20.02 34.06 20.7134 33.1067 21.84 33.1067C22.88 33.1067 23.66 34.2333 23.66 35.7067C23.66 37.0933 22.88 38.1333 21.9267 38.1333ZM33.6267 37.7C33.1934 37.2667 32.9334 36.8333 32.4134 35.9667L32.1534 35.5333C32.8467 35.36 33.28 34.9267 33.28 34.32C33.28 33.28 32.4134 32.6733 30.94 32.6733H30.0734C29.12 32.6733 28.5134 32.5867 28.4267 32.5867V32.9333C28.4267 32.9333 28.4267 33.02 28.5134 33.02C28.86 33.1067 29.0334 33.1067 29.2067 33.1933C29.4667 33.4533 29.4667 33.8 29.4667 36.14C29.4667 37.18 29.4667 37.5267 29.38 37.7C29.2934 37.8733 29.12 37.8733 28.6 37.96C28.6 37.96 28.5134 37.96 28.5134 38.0467V38.3933C28.9467 38.3067 29.4667 38.3067 29.9867 38.3067C30.5067 38.3067 31.1134 38.3067 31.3734 38.3933H31.5467C31.5467 38.3933 31.6334 38.3933 31.6334 38.3067V37.96C31.6334 37.96 31.6334 37.8733 31.5467 37.8733C30.7667 37.7867 30.68 37.6133 30.5934 37.2667C30.5934 37.0067 30.5067 36.5733 30.5067 35.88V35.7067H30.68C31.0267 35.7067 31.1134 35.88 31.2867 36.2267C31.2867 36.3133 31.3734 36.3133 31.3734 36.4C31.3734 36.4867 31.46 36.4867 31.46 36.5733C31.72 37.0067 32.24 37.8733 32.6734 38.1333C32.9334 38.3067 33.3667 38.3933 33.9734 38.3933H34.58C34.58 38.3933 34.6667 38.3933 34.6667 38.3067V38.1333C34.6667 38.1333 34.6667 38.0467 34.58 38.0467C34.2333 38.1333 33.9734 37.96 33.6267 37.7ZM32.0667 34.32C32.0667 35.0133 31.6334 35.4467 30.8534 35.4467H30.5067V33.1067H30.7667C31.5467 33.1067 32.0667 33.6267 32.0667 34.32ZM42.9 37.0067H42.5534C42.5534 37.0933 42.5534 37.0933 42.4667 37.18C42.38 37.44 42.2934 37.6133 42.0334 37.7867C41.7734 37.8733 41.5133 37.96 41.08 37.96C40.56 37.96 40.3 37.8733 40.1267 37.7C39.9534 37.5267 39.9534 37.44 39.9534 36.5733V35.7067H40.4734C41.1667 35.7067 41.34 35.7933 41.4267 35.9667C41.5134 36.14 41.6 36.14 41.6 36.4867L41.86 36.3133V36.2267C41.7734 35.88 41.7734 35.7067 41.7734 35.2733V34.58H41.34C41.2534 34.84 41.1667 35.0133 41.08 35.0133C40.9933 35.1 40.6467 35.1 40.1267 35.1H39.78V33.1067H40.7334C41.6867 33.1067 41.86 33.28 42.0334 33.9733H42.38V32.6733H40.2133C38.74 32.6733 38.3933 32.6733 38.0467 32.5867H37.8734V32.9333C37.8734 32.9333 37.8734 33.02 37.96 33.02C38.3067 33.1067 38.48 33.1067 38.6534 33.28C38.8267 33.4533 38.8267 33.6267 38.8267 33.9733V37.0933C38.8267 37.5267 38.74 37.7 38.74 37.7867C38.6534 37.96 38.48 37.96 38.1334 38.0467V38.48H38.22C38.3934 38.48 38.8267 38.3933 39.3467 38.3933H42.7267C42.7267 38.3933 42.8133 38.3933 42.8133 38.3067C42.8133 38.1333 42.8134 38.0467 42.9 37.7V37.0067C42.9867 37.0933 42.9867 37.0933 42.9 37.0067ZM52.6067 32.6733H52.1733C52.0867 32.8467 52 32.8467 51.74 32.8467C51.22 32.8467 49.92 32.9333 49.0534 32.9333H47.2334C47.06 32.9333 46.9734 32.9333 46.9734 32.6733C46.9734 32.6733 46.9734 32.5867 46.8867 32.5867H46.54C46.54 32.5867 46.4534 32.5867 46.4534 32.6733C46.4534 33.02 46.3667 33.54 46.28 34.06V34.1467H46.7133V34.06C46.8867 33.6267 46.9734 33.54 47.32 33.4533H48.88V36.4867C48.88 36.92 48.88 37.5267 48.7067 37.7C48.62 37.8733 48.4467 37.8733 48.1867 37.96H48.0133V38.3933C48.36 38.3933 48.9667 38.3067 49.4 38.3067C49.8334 38.3067 50.3534 38.3067 50.8734 38.3933V38.0467C50.8734 38.0467 50.8734 37.96 50.7867 37.96C50.2667 37.8733 50.0934 37.7867 50.0067 37.44C49.92 37.18 49.92 36.92 49.92 36.0533V33.3667H50.8734C51.3934 33.3667 51.48 33.3667 51.5667 33.4533C51.6534 33.54 51.6534 33.6267 51.6534 34.06C51.6534 34.06 51.6534 34.1467 51.74 34.1467H52.0867C52.0867 34.1467 52.1733 34.1467 52.1733 34.06C52.4333 33.6267 52.52 33.1933 52.6067 32.6733ZM62.5734 32.6733C62.2267 32.6733 61.88 32.76 61.2734 32.76H60.1467V33.1067C60.1467 33.1067 60.1467 33.1933 60.2334 33.1933C60.9267 33.28 61.0134 33.3667 61.1 33.7133C61.1867 33.9733 61.1867 35.0133 61.1867 35.7933C61.1867 36.7467 61.1 37.0933 60.84 37.44C60.58 37.7867 60.06 38.0467 59.4534 38.0467C58.9334 38.0467 58.5867 37.8733 58.24 37.6133C57.8933 37.2667 57.8067 37.0067 57.8067 35.4467V34.1467C57.8067 33.3667 57.98 33.28 58.8467 33.1933C58.8467 33.1933 58.9334 33.1933 58.9334 33.1067V32.76C58.4134 32.8467 58.0667 32.8467 57.5467 32.8467C56.8533 32.8467 56.16 32.8467 55.8133 32.76H55.7267V33.1933C56.2467 33.28 56.42 33.3667 56.5067 33.6267C56.5934 33.8867 56.5934 34.1467 56.5934 36.14V36.3133C56.5934 37.0067 56.5933 37.44 57.1133 37.96C57.5467 38.48 58.24 38.6533 59.1934 38.6533C60.06 38.6533 60.6667 38.3933 61.1 37.8733C61.4467 37.5267 61.62 37.0933 61.62 36.4867C61.62 36.14 61.7067 34.1467 61.7067 34.06C61.7067 33.3667 61.7934 33.28 62.66 33.1067V33.02L62.5734 32.6733ZM68.7267 35.36C68.5534 35.2733 68.38 35.1867 68.12 35.1L67.9467 35.0133C67.5133 34.84 67.08 34.6667 67.08 34.06C67.08 33.54 67.5134 33.1067 68.12 33.1067C68.7267 33.1067 69.0733 33.4533 69.2467 34.1467H69.68V32.8467C69.16 32.5867 68.64 32.5 68.2067 32.5C66.9933 32.5 66.1267 33.1933 66.1267 34.1467C66.1267 34.7533 66.4733 35.1867 67.08 35.5333C67.2533 35.62 67.5134 35.7067 67.6867 35.7933C68.12 35.9667 68.4667 36.14 68.7267 36.3133C68.9 36.4867 68.9 36.66 68.9 36.8333C68.9 37.3533 68.38 37.7867 67.7733 37.7867C67.4267 37.7867 67.08 37.6133 66.82 37.44C66.56 37.18 66.4734 37.0067 66.3867 36.4867C66.3867 36.4867 66.3867 36.4 66.3 36.4H65.8667C65.8667 36.4 65.78 36.4 65.78 36.4867V37.8733C66.3867 38.22 66.9934 38.3067 67.6 38.3067C68.9 38.3067 69.8534 37.5267 69.8534 36.5733C69.8534 36.0533 69.42 35.7067 68.7267 35.36Z" fill="#333332"/>
<path d="M24.0065 57.98L23.5732 57.6333L23.4865 57.72L23.5732 57.8067V57.8933L23.1399 58.4133C23.1399 58.5 23.0532 58.5 23.0532 58.5H22.9665L22.8799 58.5867L23.6599 59.1933L23.9199 58.9333L23.8332 58.8467C23.7465 58.9333 23.7466 58.9333 23.6599 58.9333C23.5732 58.9333 23.5732 58.9333 23.4865 58.8467C23.3999 58.8467 23.3999 58.76 23.3999 58.76L23.4865 58.6733L23.8332 58.1533L23.9199 58.0667H24.0065V57.98C24.0932 57.98 24.0932 57.98 24.0065 57.98ZM25.0465 59.6267V59.4533L25.1332 58.5H25.0465L24.3532 59.1067C24.2665 59.1933 24.1799 59.1933 24.1799 59.1933V59.28L24.5266 59.4533V59.3667H24.4399L24.5266 59.28L24.7865 59.4533V59.6267H24.6999V59.7133L25.2199 59.9733L25.0465 59.6267C25.1332 59.7133 25.1332 59.7133 25.0465 59.6267ZM24.6999 59.1933L24.5266 59.1067L24.6999 58.9333V59.1933ZM26.2599 59.02L25.8266 58.8467V58.9333C25.9132 58.9333 25.9132 58.9333 25.9132 59.02V59.1067L25.7399 59.7133C25.7399 59.8 25.7399 59.8 25.6532 59.8H25.5665V59.8867L26.0865 60.06C26.1732 60.06 26.2599 60.1467 26.3465 60.1467H26.4332C26.5199 60.1467 26.6065 60.06 26.6065 59.9733V59.7133C26.6065 59.6267 26.5199 59.6267 26.4332 59.54H26.6065C26.6932 59.54 26.6932 59.4533 26.6932 59.3667V59.1067C26.5199 59.1067 26.4332 59.1067 26.2599 59.02ZM26.1732 59.8867C26.1732 59.9733 26.0865 59.9733 26.0865 60.06H25.9132V59.9733L25.9999 59.7133C26.0865 59.7133 26.0865 59.7133 26.0865 59.8V59.8867C26.1732 59.7133 26.1732 59.8 26.1732 59.8867ZM26.2599 59.3667C26.2599 59.4533 26.1732 59.4533 26.1732 59.4533H26.0865L26.1732 59.1067H26.2599V59.1933C26.3466 59.28 26.2599 59.28 26.2599 59.3667ZM27.7332 59.3667H27.3865C27.2999 59.3667 27.2132 59.4533 27.1266 59.54C27.0399 59.6267 27.0399 59.7133 26.9532 59.8V60.06C26.9532 60.1467 27.0399 60.2333 27.1266 60.32C27.2132 60.4067 27.2999 60.4067 27.4732 60.4933H27.6465C27.7332 60.4933 27.9066 60.4933 27.9932 60.4067C28.0799 60.32 28.1665 60.1467 28.2532 60.06C28.2532 59.8867 28.2532 59.7133 28.1665 59.6267C28.0799 59.54 27.9065 59.4533 27.7332 59.3667ZM27.9065 59.9733C27.9065 60.1467 27.8199 60.2333 27.8199 60.32C27.7332 60.4067 27.7332 60.4067 27.6465 60.4067C27.5599 60.4067 27.4732 60.32 27.4732 60.2333V59.8867C27.4732 59.7133 27.5599 59.6267 27.5599 59.54C27.5599 59.4533 27.6465 59.4533 27.7332 59.4533H27.8199C27.9065 59.4533 27.9932 59.54 27.9932 59.6267C27.9066 59.7133 27.9065 59.8867 27.9065 59.9733ZM29.7266 60.58C29.7266 60.58 29.6399 60.4933 29.6399 60.4067C29.5532 60.32 29.5532 60.2333 29.4665 60.1467C29.6399 60.06 29.6399 59.9733 29.6399 59.8867V59.7133C29.6399 59.6267 29.5532 59.6267 29.5532 59.6267C29.4665 59.6267 29.4665 59.54 29.3799 59.54H28.5999V59.6267H28.6865V60.4067H28.5999V60.4933H29.2065V60.4067H29.1199V60.06H29.2065C29.2065 60.06 29.2932 60.1467 29.2932 60.2333C29.3799 60.4067 29.4665 60.4933 29.4665 60.4933H29.8132V60.4067C29.8132 60.58 29.8132 60.58 29.7266 60.58C29.8132 60.58 29.8132 60.58 29.7266 60.58ZM29.2932 59.9733C29.2932 60.06 29.2932 60.06 29.2932 59.9733C29.2066 60.06 29.1199 60.06 29.0332 60.06V59.7133C29.1199 59.7133 29.2065 59.7133 29.2065 59.8V59.9733H29.2932ZM31.1999 60.2333H31.1132C31.1132 60.32 31.1132 60.32 31.0266 60.4067L30.9399 60.4933H30.6799V60.1467H30.8532V60.2333H30.9399V59.8867H30.8532V59.9733H30.6799V59.6267H30.9399L31.0266 59.7133C31.0266 59.7133 31.0265 59.8 31.1132 59.8H31.1999V59.54L30.2465 59.6267V59.7133H30.3332V60.4933H30.2465V60.58L31.1999 60.6667V60.2333ZM37.5266 59.1933H37.4399V59.3667C37.4399 59.3667 37.4399 59.4533 37.3532 59.4533C37.3532 59.4533 37.2665 59.4533 37.1799 59.54H37.0932V59.1933H37.2665V59.28H37.3532L37.2665 58.9333H37.1799V59.02H37.0065L36.9199 58.6733H37.2665L37.3532 58.76H37.4399L37.3532 58.5L36.3999 58.5867V58.6733H36.4866V58.76L36.5732 59.3667V59.4533H36.4866V59.54L37.4399 59.3667L37.5266 59.1933ZM37.9599 58.4133C37.8732 58.4133 37.8732 58.4133 37.9599 58.4133V58.76H38.0465V58.6733C38.0465 58.6733 38.0465 58.5867 38.1332 58.5867H38.3065V59.4533H38.2199V59.54H38.8266V59.4533H38.7399V58.5867H38.9999C38.9999 58.5867 39.0866 58.6733 39.0866 58.76H39.1732V58.4133H37.9599ZM41.2532 58.76C41.0799 58.76 40.9932 58.6733 40.9065 58.6733C40.7332 58.6733 40.5599 58.6733 40.4732 58.76C40.3865 58.8467 40.2999 59.02 40.2132 59.1067C40.2132 59.28 40.2132 59.3667 40.2999 59.54C40.3865 59.7133 40.4732 59.8 40.6465 59.8C40.8199 59.8 40.9066 59.8 40.9932 59.7133V59.8H41.0799L41.1665 59.3667H41.0799C41.0799 59.4533 40.9932 59.54 40.9065 59.6267C40.8199 59.6267 40.7332 59.7133 40.7332 59.6267C40.6465 59.6267 40.6466 59.6267 40.5599 59.54C40.5599 59.54 40.4732 59.4533 40.4732 59.3667V59.1067C40.4732 58.9333 40.5599 58.8467 40.5599 58.76C40.6466 58.6733 40.6465 58.6733 40.7332 58.6733C40.8199 58.6733 40.9065 58.76 40.9065 58.76C40.9932 58.8467 40.9932 58.9333 40.9932 59.02H41.0799L41.1665 58.5867C41.3399 58.76 41.3399 58.76 41.2532 58.76ZM42.3799 58.9333H42.0332C41.9465 58.9333 41.8599 59.02 41.7732 59.1067C41.6865 59.1933 41.6865 59.28 41.5999 59.3667V59.6267C41.5999 59.7133 41.6865 59.8 41.7732 59.8867C41.8599 59.9733 41.9466 59.9733 42.1199 60.06H42.2932C42.3799 60.06 42.5532 60.06 42.6399 59.9733C42.8132 59.8867 42.8999 59.8 42.8999 59.6267C42.8999 59.4533 42.8999 59.28 42.8132 59.1933C42.7265 59.1067 42.6399 59.02 42.3799 58.9333ZM42.5532 59.6267C42.5532 59.8 42.4665 59.8867 42.3799 59.9733C42.2932 60.06 42.2932 60.06 42.2065 60.06C42.1199 60.06 42.0332 59.9733 42.0332 59.8867V59.54C42.0332 59.3667 42.1199 59.28 42.1199 59.1933C42.1199 59.1933 42.2066 59.1067 42.2932 59.1067H42.3799C42.4665 59.1067 42.5532 59.1933 42.5532 59.28V59.6267ZM44.1999 59.3667V59.4533C44.1999 59.4533 44.2866 59.4533 44.2866 59.54V59.6267L44.1999 59.9733L43.7665 59.28L43.4199 59.1933V59.28C43.5066 59.28 43.5065 59.3667 43.5065 59.4533L43.4199 59.9733V60.06H43.2465V60.1467L43.6799 60.2333V60.1467C43.6799 60.1467 43.5932 60.1467 43.5932 60.06V59.8867L43.6799 59.4533L44.1999 60.32H44.2866L44.4599 59.4533V59.3667H44.6332V59.28L44.1999 59.3667ZM45.5866 60.06C45.5866 60.06 45.4999 59.9733 45.4132 59.9733C45.3265 59.8867 45.2399 59.8867 45.2399 59.8867L45.1532 59.8V59.6267H45.2399C45.3265 59.6267 45.3266 59.6267 45.3266 59.7133C45.3266 59.8 45.4132 59.8 45.4132 59.8867H45.4999V59.54H45.4132C45.4132 59.54 45.3266 59.54 45.3266 59.4533L45.2399 59.3667C45.1532 59.3667 45.0665 59.3667 44.9799 59.4533C44.8932 59.54 44.8932 59.6267 44.8065 59.7133V59.8867C44.8065 59.9733 44.8932 59.9733 44.8932 60.06C44.8932 60.06 44.9799 60.1467 45.1532 60.2333L45.2399 60.32V60.4933H45.1532C45.0666 60.4933 45.0665 60.4933 44.9799 60.4067C44.8932 60.32 44.8932 60.32 44.8932 60.1467H44.8065V60.4933H44.8932V60.4067L44.9799 60.4933C45.0665 60.4933 45.0666 60.58 45.1532 60.58H45.2399C45.3265 60.58 45.4132 60.58 45.4999 60.4933C45.5865 60.4067 45.5865 60.32 45.6732 60.2333V60.06C45.6732 60.1467 45.6732 60.06 45.5866 60.06ZM46.1065 59.54V59.8867H46.1932V59.8C46.1932 59.8 46.1932 59.7133 46.2799 59.7133H46.4532V60.58H46.3665V60.6667H46.9732V60.58H46.8866V59.7133H47.1465C47.1465 59.7133 47.2332 59.8 47.2332 59.8867H47.3199V59.54H46.1065ZM48.6199 60.4933C48.5332 60.4933 48.5332 60.4933 48.6199 60.4933C48.5332 60.4933 48.5332 60.4067 48.4465 60.32L48.0132 59.54H47.9266L47.6665 60.4067C47.6665 60.4933 47.5799 60.58 47.4932 60.58V60.6667H47.8399V60.58H47.7532V60.4933H48.0999V60.58H48.0132V60.6667H48.5332L48.6199 60.4933ZM47.8399 60.2333L47.9266 59.9733L48.0132 60.2333H47.8399ZM49.8332 59.4533L49.9199 59.3667V59.28L49.5732 59.3667V59.4533C49.6599 59.4533 49.7465 59.4533 49.7465 59.54L49.8332 59.8867L49.1399 59.3667L48.7932 59.4533V59.54C48.7932 59.54 48.8799 59.54 48.8799 59.6267L48.9665 60.1467V60.32H48.8799V60.4067L49.3132 60.32V60.2333H49.2266C49.2266 60.2333 49.1399 60.2333 49.1399 60.1467L49.0532 59.7133L49.8332 60.32H49.9199L49.7465 59.4533H49.8332ZM51.3932 59.8H51.3065L51.2199 59.7133L50.9599 59.02H51.2199L51.3065 59.1067H51.3932L51.3065 58.8467L50.2665 59.1933L50.3532 59.4533H50.4399V59.28C50.4399 59.28 50.5266 59.28 50.5266 59.1933H50.6132L50.8732 59.8867V59.9733L50.7866 60.06V60.1467L51.3932 59.9733V59.8ZM52.6065 59.28H52.4332L52.3465 59.1933L52.0866 58.5867V58.5L52.1732 58.4133V58.3267L51.6532 58.5867V58.6733H51.7399L51.8266 58.76L52.0866 59.3667V59.4533L51.9999 59.54V59.6267L52.5199 59.3667C52.6066 59.3667 52.6065 59.3667 52.6065 59.28ZM53.8199 58.4133H53.7332C53.7332 58.4133 53.6466 58.4133 53.5599 58.3267L52.7799 57.8933L52.6932 57.98L52.9532 58.8467V59.1067L53.0399 59.1933L53.2999 59.02L53.2132 58.9333H53.1266V58.8467L53.3866 58.6733L53.4732 58.76L53.3866 58.8467L53.4732 58.9333L53.9065 58.5867C53.9065 58.5 53.9066 58.5 53.8199 58.4133ZM53.0399 58.6733L52.9532 58.4133L53.2132 58.5867L53.0399 58.6733Z" fill="#333332"/>
<path d="M55.6401 56.68C55.2935 54.9467 53.9068 52.78 53.8201 52.6933C53.8201 52.6933 52.6068 51.22 50.3535 52.26C50.2668 52.26 48.6201 53.04 48.3601 54.34V54.5133L49.3135 56.7667C49.3135 56.8533 49.4001 56.8533 49.4868 56.94C49.5735 56.94 49.6601 56.94 49.6601 56.8533C49.6601 56.8533 50.4401 55.9867 51.6535 55.8133C52.0001 55.7267 52.3468 55.7267 52.6935 55.8133C51.0468 57.46 47.2335 58.5867 42.9001 57.6333L41.8601 55.38L42.0335 55.2933C42.1201 55.2933 42.1201 55.2067 42.1201 55.2067V55.0333L40.3001 50.96C40.4735 50.6133 40.6468 50.18 40.6468 49.7467C40.6468 48.4467 39.6068 47.32 38.2201 47.32C36.9201 47.32 35.7935 48.36 35.7935 49.7467C35.7935 50.18 35.8801 50.6133 36.1401 50.96L34.3201 55.0333V55.2067C34.3201 55.2933 34.4068 55.2933 34.4068 55.2933L34.5801 55.38L33.5401 57.72C29.2935 58.5867 25.6535 57.46 24.0935 55.8133H25.1335C26.3468 56.0733 27.1268 56.8533 27.1268 56.8533C27.2135 56.94 27.2135 56.94 27.3001 56.94C27.3868 56.94 27.4735 56.8533 27.4735 56.7667L28.4268 54.5133V54.34C28.1668 53.04 26.5201 52.26 26.4335 52.26C24.1801 51.22 22.9668 52.6933 22.9668 52.6933C22.8801 52.78 21.4935 54.9467 21.1468 56.68C20.7135 58.6733 22.1001 60.4067 24.7001 61.4467C26.2601 62.0533 27.7335 62.2267 29.1201 62.2267C29.9001 62.2267 30.6801 62.14 31.4601 62.0533L29.6401 66.2133C29.6401 66.3 28.7735 67.9467 28.7735 70.2867C28.7735 70.3733 28.8601 70.46 28.9468 70.46H29.0335C29.1201 70.46 29.1201 70.46 29.2068 70.3733C30.7668 68.8133 31.4601 66.9933 31.4601 66.9933L33.8868 61.5333L34.9268 61.2733C35.1868 61.1867 35.4468 61.1867 35.6201 61.1C36.5735 60.9267 37.4401 60.7533 38.2201 60.6667C39.0001 60.6667 39.8668 60.84 40.8201 61.1C41.0801 61.1867 41.3401 61.1867 41.5135 61.2733C41.7735 61.36 41.9468 61.36 42.2068 61.4467L44.6335 66.9933C44.6335 67.08 45.3268 68.9 46.8868 70.3733C46.8868 70.3733 46.9735 70.46 47.0601 70.46H47.1468C47.2335 70.46 47.3201 70.3733 47.3201 70.2867C47.4068 67.9467 46.4535 66.3 46.4535 66.2133L44.5468 61.9667C45.4135 62.14 46.2801 62.2267 47.2335 62.2267C48.7068 62.2267 50.1801 61.9667 51.6535 61.4467C54.7735 60.4067 56.0735 58.6733 55.6401 56.68ZM51.7401 55.2933C50.7868 55.4667 50.0935 55.9867 49.7468 56.2467L48.9668 54.34C49.2268 53.3 50.7001 52.6067 50.7001 52.6067C52.5201 51.8267 53.3868 52.6933 53.5601 52.8667C53.9935 53.82 53.6468 54.6 53.3001 55.2067C52.6935 55.2067 52.1735 55.2067 51.7401 55.2933ZM42.4668 57.3733C42.2935 57.2867 42.1201 57.2867 41.9468 57.2C41.6868 57.1133 41.4268 57.0267 41.1668 57.0267L40.6468 55.8133L41.6001 55.4667L42.4668 57.3733ZM41.6868 54.86L40.0401 55.64V55.5533L38.6535 52.3467L38.7401 52.0867C39.2601 52 39.7801 51.74 40.1268 51.3933L41.6868 54.86ZM40.5601 56.94C40.2135 56.8533 39.7801 56.8533 39.4335 56.7667H38.4801C37.7001 56.7667 37.0068 56.8533 36.2268 57.0267L36.6601 56.0733H36.8335C36.9201 56.0733 37.0068 55.9867 37.0068 55.9L38.3935 52.78L39.7801 55.9C39.7801 55.9867 39.8668 56.0733 39.9535 56.0733H40.1268L40.5601 56.94ZM38.3935 47.6667C39.4335 47.6667 40.3001 48.5333 40.3001 49.5733C40.3001 49.8333 40.3001 50.0067 40.2135 50.18C40.2135 50.2667 40.1268 50.3533 40.1268 50.44C40.0401 50.5267 40.0401 50.6133 39.9535 50.7C39.6935 51.0467 39.4335 51.22 39.0001 51.3933C38.9135 51.3933 38.8268 51.48 38.7401 51.48H38.0468C37.9601 51.48 37.8735 51.48 37.7868 51.3933C37.4401 51.3067 37.0935 51.0467 36.8335 50.7C36.7468 50.6133 36.7468 50.5267 36.6601 50.44C36.5735 50.3533 36.5735 50.2667 36.5735 50.18C36.4868 50.0067 36.4868 49.7467 36.4868 49.5733C36.4868 48.5333 37.3535 47.6667 38.3935 47.6667ZM35.1001 54.86L36.6601 51.3067C37.0068 51.6533 37.5268 51.9133 38.0468 52H38.3068L38.2201 52.26L36.8335 55.4667V55.5533L35.1001 54.86ZM23.6601 52.9533C23.8335 52.78 24.7001 51.9133 26.5201 52.6933C26.5201 52.6933 27.9935 53.3867 28.2535 54.4267L27.4735 56.3333C27.1268 55.9867 26.4335 55.5533 25.4801 55.38C24.9601 55.2933 24.5268 55.2933 24.0068 55.38C23.5735 54.6867 23.2268 53.9067 23.6601 52.9533ZM25.1335 61.0133C22.7068 60.06 21.5801 58.5 21.9268 56.7667C22.1001 55.9 22.6201 54.86 22.9668 54.08C22.9668 54.2533 22.9668 54.4267 23.0535 54.6C23.1401 54.86 23.2268 55.2067 23.4868 55.4667C23.4868 55.5533 23.5735 55.5533 23.6601 55.64C23.7468 55.7267 23.7468 55.8133 23.8335 55.8133L23.9201 55.9C25.4801 57.72 29.2935 58.9333 33.6268 58.1533L32.0668 61.62C29.9001 61.9667 27.5601 61.9667 25.1335 61.0133ZM33.8868 61.1867L33.8001 61.4467V61.5333L33.7135 61.7067V61.7933L31.4601 66.9933C31.4601 66.9933 30.9401 68.4667 29.7268 69.8533C29.8135 67.9467 30.5068 66.6467 30.5068 66.56L32.5001 62.0533L32.5868 61.7933L32.6735 61.5333L34.2335 58.0667L34.3201 57.8067L34.4068 57.5467L35.2735 55.4667L36.2268 55.9L35.7068 57.2L35.6201 57.46V57.5467L35.5335 57.8067L33.8868 61.1867ZM46.4535 66.56C46.4535 66.56 47.1468 67.86 47.2335 69.7667C46.0201 68.38 45.5001 66.9933 45.5001 66.9067L43.1601 61.7067L44.4601 61.9667L46.4535 66.56ZM52.0001 61.0133C49.4868 61.9667 47.0601 61.88 44.8068 61.5333C44.7201 61.5333 44.6335 61.5333 44.5468 61.4467C44.4601 61.4467 44.3735 61.4467 44.2868 61.36H44.1135C44.0268 61.36 43.9401 61.36 43.8535 61.2733C43.5935 61.1867 43.3335 61.1867 43.0735 61.1C42.9868 61.1 42.9001 61.1 42.8135 61.0133C42.7268 61.0133 42.6401 60.9267 42.5535 60.9267C42.4668 60.9267 42.2935 60.84 42.2068 60.84C41.9468 60.7533 41.6868 60.7533 41.4268 60.6667C40.4735 60.4067 39.6068 60.2333 38.8268 60.2333H38.7401C37.9601 60.2333 37.0935 60.4067 36.0535 60.6667C35.8801 60.6667 35.7935 60.7533 35.6201 60.7533C35.2735 60.84 34.9268 60.9267 34.6668 60.9267L36.2268 57.3733C37.0935 57.1133 37.8735 57.0267 38.8268 57.0267H38.9135C39.6068 57.0267 40.3001 57.1133 41.0801 57.2867C41.1668 57.2867 41.2535 57.2867 41.3401 57.3733C41.4268 57.3733 41.5135 57.46 41.6001 57.46C41.6868 57.46 41.8601 57.5467 41.9468 57.5467C42.2068 57.6333 42.5535 57.72 42.8135 57.8067C42.9001 57.8067 42.9868 57.8067 43.0735 57.8933C43.1601 57.8933 43.2468 57.8933 43.3335 57.98C47.8401 58.8467 51.8268 57.6333 53.3868 55.8133L53.4735 55.7267C53.5601 55.64 53.5601 55.5533 53.6468 55.5533L53.8201 55.38C53.9935 55.12 54.1668 54.7733 54.2535 54.5133C54.2535 54.34 54.3401 54.1667 54.3401 53.9933C54.7735 54.7733 55.2068 55.8133 55.3801 56.68C55.5535 58.5 54.3401 60.06 52.0001 61.0133Z" fill="#333332"/>
</g>
<defs>
<clipPath id="clip0_456_80">
<rect width="78" height="78" fill="white"/>
</clipPath>
</defs>
</svg>
