<svg width="68" height="63" viewBox="0 0 68 63" fill="none" xmlns="http://www.w3.org/2000/svg">
<g clip-path="url(#clip0_266_708)">
<path d="M22.5112 3.13889V0.833334C22.5112 0.741112 22.6034 0.741112 22.8801 0.64889H22.9723V0.372223H22.0501V0.464445C22.0501 0.464445 21.6812 1.29445 21.4045 1.84778C21.3123 2.03222 21.2201 2.30889 21.1279 2.49333C21.0356 2.58556 21.0357 2.77 20.9434 2.86222C20.8512 2.58556 20.6668 2.21667 20.4823 1.84778C20.2057 1.29445 19.8368 0.464445 19.8368 0.464445V0.372223H18.8223V0.64889H18.9145C19.099 0.64889 19.1912 0.741111 19.2834 0.741111C19.3756 0.741111 19.3756 0.833334 19.4679 1.01778V2.95444C19.4679 3.13889 19.4679 3.32333 19.099 3.32333H19.0068V3.69222H19.5601C19.8368 3.69222 20.1134 3.69222 20.2056 3.78445H20.2979V3.41556H20.2056C19.8368 3.32333 19.8368 3.32333 19.7445 3.13889V1.75556C19.8368 1.84778 19.8368 1.94 19.929 2.12444L20.0212 2.40111C20.0212 2.49333 20.1134 2.58556 20.1134 2.67778C20.2979 2.95445 20.4823 3.32333 20.6668 3.87667V3.96889H20.9434V3.87667C21.0357 3.6 21.2201 3.04667 21.4968 2.67778L21.589 2.49333C21.6812 2.30889 21.6812 2.21667 21.7734 2.03222C21.8656 1.94 21.8657 1.84778 21.9579 1.66333V3.32333C21.9579 3.41556 21.8656 3.50778 21.589 3.50778H21.4968V3.78445H21.589C21.589 3.78445 21.9579 3.69222 22.1423 3.69222C22.419 3.69222 22.6956 3.69222 22.9723 3.78445H23.0645V3.41556H22.9723C22.6034 3.32333 22.5112 3.23111 22.5112 3.13889ZM28.229 0.372223H27.399V0.741111H27.4912C27.7679 0.741111 27.8601 0.833334 27.8601 0.925557C27.9523 1.01778 27.9523 1.29445 27.9523 1.47889V2.30889C27.9523 3.23111 27.399 3.32333 27.0301 3.32333C26.6612 3.32333 26.1079 3.23111 26.1079 2.40111V1.11C26.1079 0.833334 26.2001 0.833334 26.569 0.741111H26.6612V0.464445H24.909V0.741111H25.0012C25.3701 0.833334 25.4623 0.833334 25.4623 1.20222V2.58556C25.4623 3.41556 26.0157 3.87667 26.9379 3.87667C27.5834 3.87667 28.3212 3.50778 28.3212 2.49333V1.57111C28.3212 1.38667 28.3212 1.11 28.4134 1.01778C28.4134 0.925556 28.5057 0.925557 28.7823 0.925557H28.8745V0.556667H28.7823C28.5057 0.372223 28.3212 0.372223 28.229 0.372223ZM32.1945 1.75556C31.7334 1.57111 31.6412 1.38667 31.6412 1.20222C31.6412 0.925556 31.8256 0.741111 32.1945 0.741111C32.4712 0.741111 32.6556 0.925556 32.6556 1.20222V1.29445H32.9323V0.556667H32.8401C32.5634 0.464445 32.379 0.372223 32.1023 0.372223C31.4568 0.372223 30.9956 0.741112 30.9956 1.29445C30.9956 1.75556 31.2723 2.03222 31.9179 2.30889C32.379 2.49333 32.4712 2.58556 32.4712 2.86222C32.4712 3.13889 32.1945 3.41556 31.9179 3.41556C31.549 3.41556 31.3645 3.23111 31.2723 2.86222V2.77H30.9956V3.6H31.0879C31.3645 3.69222 31.7334 3.78445 32.0101 3.78445C32.7479 3.78445 33.209 3.32333 33.209 2.77C33.1168 2.12445 32.6556 1.94 32.1945 1.75556ZM37.7279 2.77C37.6357 3.04667 37.6357 3.13889 37.5434 3.13889C37.4512 3.13889 37.1745 3.23111 36.8979 3.23111C36.7134 3.23111 36.6212 3.23111 36.529 3.13889C36.529 3.13889 36.4368 2.95444 36.4368 2.58556V2.12444H36.7134C36.8979 2.12444 37.0823 2.12445 37.0823 2.21667C37.1745 2.21667 37.1745 2.40111 37.2668 2.49333V2.67778L37.5434 2.58556V2.49333C37.4512 2.30889 37.4512 2.12445 37.4512 1.94V1.47889H37.2668V1.57111C37.1745 1.75556 37.1745 1.84778 37.0823 1.84778C36.9901 1.84778 36.8979 1.94 36.7134 1.94H36.4368V0.925557H36.8056C37.0823 0.925557 37.1745 0.925556 37.2668 1.01778C37.359 1.11 37.4512 1.20222 37.4512 1.38667V1.47889H37.7279V0.556667H35.2379V0.833334H35.4223C35.6068 0.833334 35.7912 0.925556 35.7912 1.01778V3.41556C35.7912 3.50778 35.6068 3.50778 35.4223 3.50778H35.3301V3.78445H37.9123V3.69222C37.9123 3.50778 37.9123 3.50778 38.0045 3.32333V2.86222L37.7279 2.77ZM43.4456 0.372223H42.7079V0.741111H42.8001C43.0768 0.741111 43.169 0.833334 43.169 0.925557C43.2612 1.01778 43.2612 1.29445 43.2612 1.47889V2.30889C43.2612 3.23111 42.7079 3.32333 42.339 3.32333C41.9701 3.32333 41.4168 3.23111 41.4168 2.40111V1.11C41.4168 0.833334 41.509 0.833334 41.8779 0.741111H41.9701V0.464445H40.2179V0.741111H40.3101C40.679 0.833334 40.7712 0.833334 40.7712 1.20222V2.58556C40.7712 3.41556 41.3245 3.87667 42.2468 3.87667C42.8923 3.87667 43.6301 3.50778 43.6301 2.49333V1.57111C43.6301 1.38667 43.6301 1.11 43.7223 1.01778C43.7223 0.925556 43.8145 0.925557 44.0912 0.925557H44.1834V0.556667H44.0912C43.7223 0.372223 43.6301 0.372223 43.4456 0.372223ZM50.1779 3.32333C49.9012 3.23111 49.809 3.23111 49.809 3.13889V0.833334C49.809 0.741112 49.9012 0.741112 50.1779 0.64889H50.2701V0.372223H49.2556V0.464445C49.2556 0.464445 48.8868 1.29445 48.6101 1.84778C48.5179 2.03222 48.4256 2.30889 48.3334 2.49333C48.2412 2.58556 48.2412 2.67778 48.149 2.77C48.0568 2.49333 47.8723 2.12445 47.6879 1.75556L47.0423 0.464445V0.372223H46.0279V0.64889H46.1201C46.3045 0.64889 46.3968 0.741111 46.489 0.741111C46.5812 0.741111 46.5812 0.833334 46.6734 1.01778V3.04667C46.6734 3.23111 46.6734 3.41556 46.3045 3.41556H46.2123V3.78445H46.7657C47.0423 3.78445 47.319 3.78444 47.4112 3.87667H47.5034V3.50778H47.4112C47.0423 3.41556 47.0423 3.41556 46.9501 3.23111V1.84778C47.0423 1.94 47.0423 2.03222 47.1345 2.21667L47.2268 2.49333C47.2268 2.58556 47.319 2.67778 47.319 2.77C47.5034 3.04667 47.6879 3.41556 47.8723 3.96889V4.06111H48.149V3.96889C48.2412 3.69222 48.5179 3.13889 48.7023 2.77L48.7945 2.58556C48.8868 2.40111 48.8868 2.30889 48.979 2.12444C49.0712 2.03222 49.0712 1.94 49.1634 1.75556V3.41556C49.1634 3.50778 49.0712 3.6 48.7945 3.6H48.7023V3.87667H48.7945C48.7945 3.87667 49.1634 3.78445 49.3479 3.78445C49.6245 3.78445 49.9012 3.78444 50.1779 3.87667H50.2701V3.50778L50.1779 3.32333ZM2.03787 11.4389C2.1301 11.7156 2.1301 12.1767 2.1301 13.3756C2.1301 14.7589 2.1301 15.3122 2.03787 15.5889C1.94565 15.8656 1.85343 16.05 1.11565 16.1422C1.11565 16.1422 1.02342 16.1422 1.02342 16.2344V16.6033C1.48454 16.5111 1.94565 16.5111 2.59121 16.5111C3.14454 16.5111 3.79009 16.5111 4.2512 16.6033V16.2344C4.2512 16.2344 4.2512 16.1422 4.15898 16.1422C3.51343 16.05 3.32898 15.9578 3.23676 15.7733C3.14454 15.5889 3.05232 14.8511 3.05232 12.8222V10.9778H3.32898C4.15898 10.9778 4.62009 11.5311 4.62009 12.2689C4.62009 13.0067 4.15899 13.56 3.42121 13.6522C3.42121 13.6522 3.32898 13.6522 3.32898 13.7444V14.0211C3.32898 14.0211 3.32899 14.1133 3.42121 14.1133C4.34343 14.1133 4.89676 14.0211 5.26565 13.6522C5.63454 13.3756 5.9112 12.9144 5.9112 12.3611C5.9112 11.2544 4.98898 10.6089 3.60565 10.6089H0.746762C0.746762 10.6089 0.654541 10.6089 0.654541 10.7011V10.9778C0.654541 10.9778 0.65454 11.07 0.746762 11.07C1.76121 10.9778 1.94565 11.07 2.03787 11.4389ZM14.3034 16.6956H15.3179C15.4101 16.5111 15.4101 16.4189 15.5023 16.1422C15.6868 15.6811 15.8712 15.3122 15.9634 15.1278V15.0356H15.4101C15.1334 15.4967 14.8568 15.7733 14.5801 15.9578C14.3034 16.1422 14.0268 16.1422 13.7501 16.1422C13.1968 16.1422 13.0123 16.05 12.8279 15.9578C12.5512 15.7733 12.459 15.5889 12.459 14.6667V13.0067C12.459 11.7156 12.459 11.4389 12.6434 11.2544C12.7357 11.1622 13.0123 10.9778 13.3812 10.9778C13.3812 10.9778 13.4734 10.9778 13.4734 10.8856V10.5167H11.9056C11.1679 10.5167 10.799 10.5167 10.5223 10.4244H10.3379V10.7933C10.3379 10.7933 10.3379 10.8856 10.4301 10.8856C10.8912 10.9778 11.0757 11.07 11.2601 11.1622C11.3523 11.3467 11.4445 11.5311 11.4445 11.9V14.39C11.4445 15.22 11.4445 15.6811 11.3523 15.8656C11.2601 15.9578 11.1679 16.05 10.6145 16.1422C10.6145 16.1422 10.5223 16.1422 10.5223 16.2344V16.5111C10.5223 16.5111 10.5223 16.6033 10.6145 16.6033H10.7068C10.8912 16.6033 11.3523 16.5111 11.8134 16.5111H13.1045C13.3812 16.6033 13.8423 16.6956 14.3034 16.6956ZM23.249 16.2344L23.1568 16.6033H26.2001V16.2344C26.2001 16.2344 26.2001 16.1422 26.1079 16.1422C25.739 16.1422 25.5545 16.05 25.4623 15.8656C25.2779 15.6811 25.2779 15.4967 24.7245 14.2978C24.5401 13.9289 24.3557 13.4678 24.1712 12.8222C23.6179 11.4389 23.1568 10.0556 23.1568 10.0556H22.9723C22.7879 10.4244 22.5112 10.8856 22.1423 10.8856V10.9778L22.2345 11.1622C22.1423 11.4389 21.2201 13.8367 20.759 15.22C20.4823 15.9578 20.2979 16.1422 19.6523 16.2344C19.6523 16.2344 19.5601 16.2344 19.5601 16.3267V16.6956H22.0501V16.3267C22.0501 16.3267 22.0501 16.2344 21.9579 16.2344C21.3123 16.2344 21.0357 16.05 21.0357 15.7733C21.0357 15.5889 21.4045 14.4822 21.4968 14.2978H23.3412C23.4334 14.4822 23.5256 14.6667 23.5256 14.8511C23.7101 15.3122 23.8023 15.5889 23.8023 15.7733C24.1712 15.9578 23.9868 16.1422 23.249 16.2344ZM23.4334 13.6522H22.1423L22.7879 11.9L23.4334 13.6522ZM32.1945 15.8656C32.1023 15.6811 32.1023 15.5889 32.1023 14.2056V12.0844C32.379 12.4533 33.3934 13.56 34.1312 14.2978L34.3157 14.5744C35.4223 15.7733 36.1601 16.6033 36.3445 16.9722L36.6212 16.7878V16.6956C36.6212 16.6956 36.7134 13.2833 36.7134 13.0989C36.7134 11.9922 36.7134 11.6233 36.8056 11.4389C36.8979 11.2544 37.1745 11.07 37.7279 11.07C37.7279 11.07 37.8201 11.07 37.8201 10.9778V10.5167H35.1456V10.9778C35.699 11.07 35.8834 11.1622 35.9757 11.3467C36.0679 11.5311 36.0679 11.7156 36.0679 13.0067V14.6667C35.8834 14.39 35.5145 14.0211 35.1456 13.6522L34.869 13.2833C33.0245 11.3467 32.5634 10.7011 32.4712 10.5167H30.0734C30.0734 10.5167 29.9812 10.5167 29.9812 10.6089V10.9778C29.9812 10.9778 29.9812 11.07 30.0734 11.07C30.6268 11.07 30.9034 11.2544 31.2723 11.5311V14.5744C31.2723 15.6811 31.2723 15.8656 31.1801 16.05C31.0879 16.2344 30.9034 16.3267 30.2579 16.4189C30.2579 16.4189 30.1657 16.4189 30.1657 16.5111V16.88C30.6268 16.88 31.0879 16.7878 31.6412 16.7878C32.2868 16.7878 32.6556 16.7878 33.0245 16.88V16.5111C33.0245 16.5111 33.0245 16.4189 32.9323 16.4189C32.6557 16.1422 32.2868 16.05 32.1945 15.8656ZM42.8001 11.3467H44.4601V14.5744C44.4601 15.0356 44.4601 15.6811 44.2757 15.8656C44.1834 16.05 43.999 16.05 43.7223 16.1422H43.5379V16.6033C43.9068 16.6033 44.5523 16.5111 45.0134 16.5111C45.4745 16.5111 46.0279 16.5111 46.5812 16.6033V16.2344C46.5812 16.2344 46.5812 16.1422 46.489 16.1422C45.9356 16.05 45.7512 15.9578 45.659 15.5889C45.5668 15.3122 45.5668 15.0356 45.5668 14.1133V11.2544H46.5812C47.1345 11.2544 47.2268 11.2544 47.319 11.3467C47.4112 11.4389 47.4112 11.5311 47.4112 11.9922C47.4112 11.9922 47.4112 12.0844 47.5034 12.0844H47.8723C47.8723 12.0844 47.9645 12.0844 47.9645 11.9922C48.0568 11.4389 48.149 10.9778 48.2412 10.5167V10.4244H47.7801C47.6879 10.6089 47.5956 10.6089 47.319 10.6089C46.8579 10.6089 45.4745 10.7011 44.4601 10.7011H42.5234C42.339 10.7011 42.2468 10.7011 42.2468 10.4244C42.2468 10.4244 42.2468 10.3322 42.1545 10.3322H41.7856C41.7856 10.3322 41.6934 10.3322 41.6934 10.4244C41.6934 10.7933 41.6012 11.3467 41.509 11.9V11.9922H41.9701V11.9C42.339 11.4389 42.4312 11.3467 42.8001 11.3467ZM53.4979 11.2544C53.5901 11.4389 53.6823 11.6233 53.6823 11.9922C53.6823 12.4533 53.7745 13.56 53.7745 14.4822C53.7745 15.4044 53.7745 15.8656 53.5901 16.05C53.4979 16.1422 53.3134 16.2344 52.8523 16.2344V16.6956C52.8523 16.6956 53.4979 16.6033 54.1434 16.6033C54.789 16.6033 55.4345 16.6033 55.8956 16.6956V16.3267C55.8956 16.3267 55.8957 16.2344 55.8034 16.2344C55.3423 16.1422 55.1579 16.05 55.0656 15.8656C54.9734 15.6811 54.8812 15.4967 54.8812 14.2056V12.6378C54.8812 11.5311 54.9734 11.3467 55.0656 11.2544C55.2501 11.07 55.2501 11.07 55.8956 10.9778V10.6089C55.8956 10.6089 55.8957 10.5167 55.8034 10.5167H54.3279C53.6823 10.5167 53.129 10.5167 52.6679 10.4244V10.7933C52.6679 10.7933 52.6679 10.8856 52.7601 10.8856C53.129 10.9778 53.4057 11.07 53.4979 11.2544ZM67.9768 10.5167H65.3023V10.8856C65.3023 10.8856 65.3023 10.9778 65.3945 10.9778C65.9479 11.07 66.1323 11.1622 66.2245 11.3467C66.3168 11.5311 66.3168 11.7156 66.3168 13.0067V14.6667C66.1323 14.39 65.7634 14.0211 65.3945 13.6522L65.0257 13.2833C63.5501 11.7156 62.8123 10.7933 62.6279 10.5167H60.2301C60.2301 10.5167 60.1379 10.5167 60.1379 10.6089V10.9778C60.1379 10.9778 60.1379 11.07 60.2301 11.07C60.7834 11.07 61.0601 11.2544 61.429 11.5311V14.5744C61.429 15.6811 61.429 15.8656 61.3368 16.05C61.2445 16.2344 61.0601 16.3267 60.4145 16.4189C60.4145 16.4189 60.3223 16.4189 60.3223 16.5111V16.88C60.7834 16.88 61.2445 16.7878 61.7979 16.7878C62.4434 16.7878 62.8123 16.7878 63.1812 16.88V16.5111C63.1812 16.5111 63.1812 16.4189 63.089 16.4189C62.4434 16.3267 62.1668 16.2344 62.0745 16.05C61.9823 15.8656 61.9823 15.7733 61.9823 14.39V12.2689C62.259 12.6378 63.2734 13.7444 64.0112 14.4822L64.1956 14.6667C65.3023 15.8656 66.0401 16.6956 66.3168 17.0644L66.5934 16.88V16.7878C66.5934 16.7878 66.6856 13.3756 66.6856 13.1911C66.6856 12.0844 66.6856 11.7156 66.7779 11.5311C66.8701 11.3467 67.1468 11.1622 67.7001 11.1622C67.7001 11.1622 67.7923 11.1622 67.7923 11.07L67.9768 10.5167C68.069 10.5167 68.069 10.5167 67.9768 10.5167ZM9.32342 21.6756C8.67787 21.7678 8.03232 21.7678 7.75565 21.7678H7.38676C7.38676 21.7678 6.83343 22.8744 6.28009 24.0733C6.00343 24.6267 5.72676 25.18 5.54231 25.6411C5.45009 25.9178 5.26565 26.1944 5.26565 26.2867C5.17343 26.01 4.98898 25.6411 4.71231 25.18C4.52787 24.9033 4.43565 24.6267 4.2512 24.2578C3.97454 23.7044 3.79009 23.3356 3.60565 23.0589C3.23676 22.4133 3.14454 22.1367 3.05232 21.86H2.49899C2.03787 21.86 1.02342 21.7678 1.02342 21.7678V22.1367C1.02342 22.1367 1.02343 22.2289 1.11565 22.2289C1.48454 22.3211 1.7612 22.3211 1.85343 22.4133C1.94565 22.5056 2.03787 22.5978 2.22232 22.9667V25.5489C2.22232 26.84 2.22232 27.0244 2.1301 27.2089C2.03787 27.3933 1.94565 27.4856 1.30009 27.5778V28.0389H1.39231C1.7612 27.9467 1.94565 27.9467 2.40676 27.9467C2.96009 27.9467 3.69787 28.0389 3.88232 28.0389V27.67C3.88232 27.67 3.88231 27.5778 3.79009 27.5778C3.14454 27.4856 3.05232 27.3933 2.9601 27.2089C2.86787 27.0244 2.86787 26.84 2.86787 26.7478V24.2578C3.05231 24.5344 3.32898 25.18 3.79009 26.01C4.34342 27.1167 4.71232 27.8544 4.89676 28.1311H5.45009C5.63454 27.5778 5.81898 27.2089 6.46454 25.8256L6.92565 24.9033C7.11009 24.4422 7.29454 24.1656 7.38676 23.9811V25.6411C7.38676 26.6556 7.38676 27.0244 7.29454 27.2089C7.20232 27.3933 7.11009 27.5778 6.55676 27.5778C6.55676 27.5778 6.46454 27.5778 6.46454 27.67V28.0389C6.92565 27.9467 7.38676 27.9467 7.84787 27.9467C8.21676 27.9467 9.41565 28.0389 9.41565 28.0389V27.67C9.41565 27.67 9.41565 27.5778 9.32342 27.5778C8.77009 27.4856 8.58565 27.3933 8.49343 27.1167C8.40121 26.84 8.4012 26.5633 8.4012 25.5489V23.9811C8.4012 23.0589 8.40121 22.7822 8.49343 22.69C8.58565 22.5056 8.77009 22.4133 9.32342 22.3211C9.32342 22.3211 9.41565 22.3211 9.41565 22.2289L9.32342 21.6756C9.41565 21.7678 9.41565 21.7678 9.32342 21.6756ZM16.2401 21.7678C14.3956 21.7678 12.9201 23.1511 12.9201 24.9033C12.9201 26.6556 14.3034 27.9467 16.2401 27.9467C18.0845 27.9467 19.5601 26.5633 19.5601 24.7189C19.5601 23.0589 18.1768 21.7678 16.2401 21.7678ZM16.3323 27.5778C15.2257 27.5778 14.3034 26.3789 14.3034 24.7189C14.3034 23.2433 15.0412 22.2289 16.2401 22.2289C17.3468 22.2289 18.1768 23.4278 18.1768 24.9956C18.1768 26.4711 17.3468 27.5778 16.3323 27.5778ZM28.7823 27.1167C28.3212 26.6556 28.0445 26.1944 27.4912 25.2722L27.2145 24.8111C27.9523 24.6267 28.4134 24.1656 28.4134 23.52C28.4134 22.4133 27.4912 21.7678 25.9234 21.7678H25.0012C23.9868 21.7678 23.3412 21.6756 23.249 21.6756V22.0444C23.249 22.0444 23.249 22.1367 23.3412 22.1367C23.7101 22.2289 23.8945 22.2289 24.079 22.3211C24.3556 22.5978 24.3556 22.9667 24.3556 25.4567C24.3556 26.5633 24.3556 26.9322 24.2634 27.1167C24.1712 27.3011 23.9868 27.3011 23.4334 27.3933C23.4334 27.3933 23.3412 27.3933 23.3412 27.4856V27.8544C23.8023 27.7622 24.3556 27.7622 24.909 27.7622C25.4623 27.7622 26.1079 27.7622 26.3845 27.8544H26.569C26.569 27.8544 26.6612 27.8544 26.6612 27.7622V27.3933C26.6612 27.3933 26.6612 27.3011 26.569 27.3011C25.739 27.2089 25.6468 27.0244 25.5545 26.6556C25.5545 26.3789 25.4623 25.9178 25.4623 25.18V24.9956H25.6468C26.0156 24.9956 26.1079 25.18 26.2923 25.5489C26.2923 25.6411 26.3845 25.6411 26.3845 25.7333C26.3845 25.8256 26.4768 25.8256 26.4768 25.9178C26.7534 26.3789 27.3068 27.3011 27.7679 27.5778C28.0445 27.7622 28.5056 27.8544 29.1512 27.8544H29.7968C29.7968 27.8544 29.889 27.8544 29.889 27.7622V27.5778C29.889 27.5778 29.889 27.4856 29.7968 27.4856C29.4279 27.5778 29.1512 27.3933 28.7823 27.1167ZM27.1223 23.52C27.1223 24.2578 26.6612 24.7189 25.8312 24.7189H25.4623V22.2289H25.739C26.569 22.2289 27.1223 22.7822 27.1223 23.52ZM38.6501 26.3789H38.2812C38.2812 26.4711 38.2812 26.4711 38.189 26.5633C38.0968 26.84 38.0045 27.0244 37.7279 27.2089C37.4512 27.3011 37.1745 27.3933 36.7134 27.3933C36.1601 27.3933 35.8834 27.3011 35.699 27.1167C35.5145 26.9322 35.5145 26.84 35.5145 25.9178V24.9956H36.0679C36.8056 24.9956 36.9901 25.0878 37.0823 25.2722C37.1745 25.4567 37.2668 25.4567 37.2668 25.8256L37.5434 25.6411V25.5489C37.4512 25.18 37.4512 24.9956 37.4512 24.5344V23.7967H36.9901C36.8979 24.0733 36.8056 24.2578 36.7134 24.2578C36.6212 24.35 36.2523 24.35 35.699 24.35H35.3301V22.2289H36.3445C37.359 22.2289 37.5434 22.4133 37.7279 23.1511H38.0968V21.7678H35.7912C34.2234 21.7678 33.8545 21.7678 33.4856 21.6756H33.3012V22.0444C33.3012 22.0444 33.3012 22.1367 33.3934 22.1367C33.7623 22.2289 33.9468 22.2289 34.1312 22.4133C34.3157 22.5978 34.3157 22.7822 34.3157 23.1511V26.4711C34.3157 26.9322 34.2234 27.1167 34.2234 27.2089C34.1312 27.3933 33.9468 27.3933 33.5779 27.4856V27.9467H33.6701C33.8545 27.9467 34.3156 27.8544 34.869 27.8544H38.4657C38.4657 27.8544 38.5579 27.8544 38.5579 27.7622C38.5579 27.5778 38.5579 27.4856 38.6501 27.1167V26.3789C38.7423 26.4711 38.7423 26.4711 38.6501 26.3789ZM48.979 21.7678H48.5179C48.4256 21.9522 48.3334 21.9522 48.0568 21.9522C47.5034 21.9522 46.1201 22.0444 45.1979 22.0444H43.2612C43.0768 22.0444 42.9845 22.0444 42.9845 21.7678C42.9845 21.7678 42.9845 21.6756 42.8923 21.6756H42.5234C42.5234 21.6756 42.4312 21.6756 42.4312 21.7678C42.4312 22.1367 42.339 22.69 42.2468 23.2433V23.3356H42.7079V23.2433C42.8923 22.7822 42.9845 22.69 43.3534 22.5978H45.0134V25.8256C45.0134 26.2867 45.0134 26.9322 44.829 27.1167C44.7368 27.3011 44.5523 27.3011 44.2757 27.3933H44.0912V27.8544C44.4601 27.8544 45.1056 27.7622 45.5668 27.7622C46.0279 27.7622 46.5812 27.7622 47.1345 27.8544V27.4856C47.1345 27.4856 47.1345 27.3933 47.0423 27.3933C46.489 27.3011 46.3045 27.2089 46.2123 26.84C46.1201 26.5633 46.1201 26.2867 46.1201 25.3644V22.5056H47.1345C47.6879 22.5056 47.7801 22.5056 47.8723 22.5978C47.9645 22.69 47.9645 22.7822 47.9645 23.2433C47.9645 23.2433 47.9645 23.3356 48.0568 23.3356H48.4257C48.4257 23.3356 48.5179 23.3356 48.5179 23.2433C48.7945 22.7822 48.8868 22.3211 48.979 21.7678ZM59.5845 21.7678C59.2156 21.7678 58.8468 21.86 58.2012 21.86H57.0023V22.2289C57.0023 22.2289 57.0023 22.3211 57.0945 22.3211C57.8323 22.4133 57.9245 22.5056 58.0168 22.8744C58.109 23.1511 58.109 24.2578 58.109 25.0878C58.109 26.1022 58.0168 26.4711 57.7401 26.84C57.4634 27.2089 56.9101 27.4856 56.2645 27.4856C55.7112 27.4856 55.3423 27.3011 54.9734 27.0244C54.6045 26.6556 54.5123 26.3789 54.5123 24.7189V23.3356C54.5123 22.5056 54.6968 22.4133 55.619 22.3211C55.619 22.3211 55.7112 22.3211 55.7112 22.2289V21.86C55.1579 21.9522 54.789 21.9522 54.2356 21.9522C53.4979 21.9522 52.7601 21.9522 52.3912 21.86H52.299V22.3211C52.8523 22.4133 53.0368 22.5056 53.129 22.7822C53.2212 23.0589 53.2212 23.3356 53.2212 25.4567V25.6411C53.2212 26.3789 53.2212 26.84 53.7745 27.3933C54.2356 27.9467 54.9734 28.1311 55.9879 28.1311C56.9101 28.1311 57.5556 27.8544 58.0168 27.3011C58.3857 26.9322 58.5701 26.4711 58.5701 25.8256C58.5701 25.4567 58.6623 23.3356 58.6623 23.2433C58.6623 22.5056 58.7545 22.4133 59.6768 22.2289V22.1367L59.5845 21.7678ZM66.1323 24.6267C65.9479 24.5344 65.7634 24.4422 65.4868 24.35L65.3023 24.2578C64.8412 24.0733 64.3801 23.8889 64.3801 23.2433C64.3801 22.69 64.8412 22.2289 65.4868 22.2289C66.1323 22.2289 66.5012 22.5978 66.6856 23.3356H67.1468V21.9522C66.5934 21.6756 66.0401 21.5833 65.579 21.5833C64.2879 21.5833 63.3657 22.3211 63.3657 23.3356C63.3657 23.9811 63.7345 24.4422 64.3801 24.8111C64.5645 24.9033 64.8412 24.9956 65.0257 25.0878C65.4868 25.2722 65.8557 25.4567 66.1323 25.6411C66.3168 25.8256 66.3168 26.01 66.3168 26.1944C66.3168 26.7478 65.7634 27.2089 65.1179 27.2089C64.749 27.2089 64.3801 27.0244 64.1034 26.84C63.8268 26.5633 63.7345 26.3789 63.6423 25.8256C63.6423 25.8256 63.6423 25.7333 63.5501 25.7333H63.089C63.089 25.7333 62.9967 25.7333 62.9967 25.8256V27.3011C63.6423 27.67 64.2879 27.7622 64.9334 27.7622C66.3168 27.7622 67.3312 26.9322 67.3312 25.9178C67.3312 25.3644 66.8701 24.9956 66.1323 24.6267Z" fill="#333332"/>
<path d="M18.5456 48.6967L18.0845 48.3278L17.9922 48.42L18.0845 48.5122V48.6044L17.6233 49.1578C17.6233 49.25 17.5311 49.25 17.5311 49.25H17.4389L17.3467 49.3422L18.1767 49.9878L18.4533 49.7111L18.3611 49.6189C18.2689 49.7111 18.2689 49.7111 18.1767 49.7111C18.0845 49.7111 18.0845 49.7111 17.9922 49.6189C17.9 49.6189 17.9 49.5267 17.9 49.5267L17.9922 49.4344L18.3611 48.8811L18.4533 48.7889H18.5456V48.6967C18.6378 48.6967 18.6378 48.6967 18.5456 48.6967ZM19.6522 50.4489V50.2644L19.7445 49.25H19.6522L18.9145 49.8955C18.8222 49.9878 18.73 49.9878 18.73 49.9878V50.08L19.0989 50.2644V50.1722H19.0067L19.0989 50.08L19.3756 50.2644V50.4489H19.2833V50.5411L19.8367 50.8178L19.6522 50.4489C19.7445 50.5411 19.7445 50.5411 19.6522 50.4489ZM19.2833 49.9878L19.0989 49.8955L19.2833 49.7111V49.9878ZM20.9433 49.8033L20.4822 49.6189V49.7111C20.5745 49.7111 20.5745 49.7111 20.5745 49.8033V49.8955L20.39 50.5411C20.39 50.6333 20.39 50.6333 20.2978 50.6333H20.2056V50.7256L20.7589 50.91C20.8511 50.91 20.9433 51.0022 21.0356 51.0022H21.1278C21.22 51.0022 21.3122 50.91 21.3122 50.8178V50.5411C21.3122 50.4489 21.22 50.4489 21.1278 50.3567H21.3122C21.4045 50.3567 21.4045 50.2644 21.4045 50.1722V49.8955C21.22 49.8955 21.1278 49.8956 20.9433 49.8033ZM20.8511 50.7256C20.8511 50.8178 20.7589 50.8178 20.7589 50.91H20.5745V50.8178L20.6667 50.5411C20.7589 50.5411 20.7589 50.5411 20.7589 50.6333V50.7256C20.8511 50.5411 20.8511 50.6333 20.8511 50.7256ZM20.9433 50.1722C20.9433 50.2644 20.8511 50.2644 20.8511 50.2644H20.7589L20.8511 49.8955H20.9433V49.9878C21.0356 50.08 20.9433 50.08 20.9433 50.1722ZM22.5111 50.1722H22.1422C22.05 50.1722 21.9578 50.2644 21.8656 50.3567C21.7733 50.4489 21.7733 50.5411 21.6811 50.6333V50.91C21.6811 51.0022 21.7733 51.0944 21.8656 51.1867C21.9578 51.2789 22.05 51.2789 22.2345 51.3711H22.4189C22.5111 51.3711 22.6956 51.3711 22.7878 51.2789C22.88 51.1867 22.9722 51.0022 23.0645 50.91C23.0645 50.7256 23.0645 50.5411 22.9722 50.4489C22.88 50.3567 22.6956 50.2644 22.5111 50.1722ZM22.6956 50.8178C22.6956 51.0022 22.6033 51.0944 22.6033 51.1867C22.5111 51.2789 22.5111 51.2789 22.4189 51.2789C22.3267 51.2789 22.2345 51.1867 22.2345 51.0944V50.7256C22.2345 50.5411 22.3267 50.4489 22.3267 50.3567C22.3267 50.2644 22.4189 50.2644 22.5111 50.2644H22.6033C22.6956 50.2644 22.7878 50.3567 22.7878 50.4489C22.6956 50.5411 22.6956 50.7255 22.6956 50.8178ZM24.6322 51.4633C24.6322 51.4633 24.54 51.3711 24.54 51.2789C24.4478 51.1867 24.4478 51.0944 24.3556 51.0022C24.54 50.91 24.54 50.8178 24.54 50.7256V50.5411C24.54 50.4489 24.4478 50.4489 24.4478 50.4489C24.3556 50.4489 24.3556 50.3567 24.2633 50.3567H23.4333V50.4489H23.5256V51.2789H23.4333V51.3711H24.0789V51.2789H23.9867V50.91H24.0789C24.0789 50.91 24.1711 51.0022 24.1711 51.0944C24.2633 51.2789 24.3556 51.3711 24.3556 51.3711H24.7245V51.2789C24.7245 51.4633 24.7245 51.4633 24.6322 51.4633C24.7245 51.4633 24.7245 51.4633 24.6322 51.4633ZM24.1711 50.8178C24.1711 50.91 24.1711 50.91 24.1711 50.8178C24.0789 50.91 23.9867 50.91 23.8945 50.91V50.5411C23.9867 50.5411 24.0789 50.5411 24.0789 50.6333V50.8178H24.1711ZM26.2 51.0944H26.1078C26.1078 51.1867 26.1078 51.1867 26.0156 51.2789L25.9233 51.3711H25.6467V51.0022H25.8311V51.0944H25.9233V50.7256H25.8311V50.8178H25.6467V50.4489H25.9233L26.0156 50.5411C26.0156 50.5411 26.0156 50.6333 26.1078 50.6333H26.2V50.3567L25.1856 50.4489V50.5411H25.2778V51.3711H25.1856V51.4633L26.2 51.5556V51.0944ZM32.9322 49.9878H32.84V50.1722C32.84 50.1722 32.84 50.2644 32.7478 50.2644C32.7478 50.2644 32.6556 50.2644 32.5633 50.3567H32.4711V49.9878H32.6556V50.08H32.7478L32.6556 49.7111H32.5633V49.8033H32.3789L32.2867 49.4344H32.6556L32.7478 49.5267H32.84L32.7478 49.25L31.7333 49.3422V49.4344H31.8256V49.5267L31.9178 50.1722V50.2644H31.8256V50.3567L32.84 50.1722L32.9322 49.9878ZM33.3933 49.1578C33.3011 49.1578 33.3011 49.1578 33.3933 49.1578V49.5267H33.4856V49.4344C33.4856 49.4344 33.4856 49.3422 33.5778 49.3422H33.7622V50.2644H33.67V50.3567H34.3156V50.2644H34.2233V49.3422H34.5C34.5 49.3422 34.5922 49.4344 34.5922 49.5267H34.6845V49.1578H33.3933ZM36.8978 49.5267C36.7134 49.5267 36.6211 49.4344 36.5289 49.4344C36.3445 49.4344 36.16 49.4344 36.0678 49.5267C35.9756 49.6189 35.8833 49.8033 35.7911 49.8955C35.7911 50.08 35.7911 50.1722 35.8833 50.3567C35.9756 50.5411 36.0678 50.6333 36.2522 50.6333C36.4367 50.6333 36.5289 50.6333 36.6211 50.5411V50.6333H36.7133L36.8056 50.1722H36.7133C36.7133 50.2644 36.6211 50.3567 36.5289 50.4489C36.4367 50.4489 36.3445 50.5411 36.3445 50.4489C36.2522 50.4489 36.2522 50.4489 36.16 50.3567C36.16 50.3567 36.0678 50.2644 36.0678 50.1722V49.8955C36.0678 49.7111 36.16 49.6189 36.16 49.5267C36.2522 49.4344 36.2522 49.4344 36.3445 49.4344C36.4367 49.4344 36.5289 49.5267 36.5289 49.5267C36.6211 49.6189 36.6211 49.7111 36.6211 49.8033H36.7133L36.8056 49.3422C36.99 49.5267 36.99 49.5267 36.8978 49.5267ZM38.0967 49.7111H37.7278C37.6356 49.7111 37.5433 49.8033 37.4511 49.8955C37.3589 49.9878 37.3589 50.08 37.2667 50.1722V50.4489C37.2667 50.5411 37.3589 50.6333 37.4511 50.7256C37.5433 50.8178 37.6356 50.8178 37.82 50.91H38.0045C38.0967 50.91 38.2811 50.91 38.3733 50.8178C38.5578 50.7255 38.65 50.6333 38.65 50.4489C38.65 50.2644 38.65 50.08 38.5578 49.9878C38.4656 49.8956 38.3733 49.8033 38.0967 49.7111ZM38.2811 50.4489C38.2811 50.6333 38.1889 50.7255 38.0967 50.8178C38.0045 50.91 38.0045 50.91 37.9122 50.91C37.82 50.91 37.7278 50.8178 37.7278 50.7256V50.3567C37.7278 50.1722 37.82 50.08 37.82 49.9878C37.82 49.9878 37.9122 49.8955 38.0045 49.8955H38.0967C38.1889 49.8955 38.2811 49.9878 38.2811 50.08V50.4489ZM40.0333 50.1722V50.2644C40.0333 50.2644 40.1256 50.2644 40.1256 50.3567V50.4489L40.0333 50.8178L39.5722 50.08L39.2034 49.9878V50.08C39.2956 50.08 39.2956 50.1722 39.2956 50.2644L39.2034 50.8178V50.91H39.0189V51.0022L39.48 51.0944V51.0022C39.48 51.0022 39.3878 51.0022 39.3878 50.91V50.7256L39.48 50.2644L40.0333 51.1867H40.1256L40.31 50.2644V50.1722H40.4945V50.08L40.0333 50.1722ZM41.5089 50.91C41.5089 50.91 41.4167 50.8178 41.3245 50.8178C41.2322 50.7255 41.14 50.7256 41.14 50.7256L41.0478 50.6333V50.4489H41.14C41.2322 50.4489 41.2322 50.4489 41.2322 50.5411C41.2322 50.6333 41.3245 50.6333 41.3245 50.7256H41.4167V50.3567H41.3245C41.3245 50.3567 41.2322 50.3567 41.2322 50.2644L41.14 50.1722C41.0478 50.1722 40.9556 50.1722 40.8633 50.2644C40.7711 50.3567 40.7711 50.4489 40.6789 50.5411V50.7256C40.6789 50.8178 40.7711 50.8178 40.7711 50.91C40.7711 50.91 40.8634 51.0022 41.0478 51.0944L41.14 51.1867V51.3711H41.0478C40.9556 51.3711 40.9556 51.3711 40.8633 51.2789C40.7711 51.1867 40.7711 51.1867 40.7711 51.0022H40.6789V51.3711H40.7711V51.2789L40.8633 51.3711C40.9556 51.3711 40.9556 51.4633 41.0478 51.4633H41.14C41.2322 51.4633 41.3245 51.4633 41.4167 51.3711C41.5089 51.2789 41.5089 51.1867 41.6011 51.0944V50.91C41.6011 51.0022 41.6011 50.91 41.5089 50.91ZM42.0622 50.3567V50.7256H42.1545V50.6333C42.1545 50.6333 42.1545 50.5411 42.2467 50.5411H42.4311V51.4633H42.3389V51.5556H42.9845V51.4633H42.8922V50.5411H43.1689C43.1689 50.5411 43.2611 50.6333 43.2611 50.7256H43.3534V50.3567H42.0622ZM44.7367 51.3711C44.6445 51.3711 44.6445 51.3711 44.7367 51.3711C44.6445 51.3711 44.6445 51.2789 44.5522 51.1867L44.0911 50.3567H43.9989L43.7222 51.2789C43.7222 51.3711 43.63 51.4633 43.5378 51.4633V51.5556H43.9067V51.4633H43.8145V51.3711H44.1833V51.4633H44.0911V51.5556H44.6445L44.7367 51.3711ZM43.9067 51.0944L43.9989 50.8178L44.0911 51.0944H43.9067ZM46.0278 50.2644L46.12 50.1722V50.08L45.7511 50.1722V50.2644C45.8433 50.2644 45.9356 50.2644 45.9356 50.3567L46.0278 50.7256L45.29 50.1722L44.9211 50.2644V50.3567C44.9211 50.3567 45.0133 50.3567 45.0133 50.4489L45.1056 51.0022V51.1867H45.0133V51.2789L45.4745 51.1867V51.0944H45.3822C45.3822 51.0944 45.29 51.0944 45.29 51.0022L45.1978 50.5411L46.0278 51.1867H46.12L45.9356 50.2644H46.0278ZM47.6878 50.6333H47.5956L47.5034 50.5411L47.2267 49.8033H47.5034L47.5956 49.8955H47.6878L47.5956 49.6189L46.4889 49.9878L46.5811 50.2644H46.6733V50.08C46.6733 50.08 46.7656 50.08 46.7656 49.9878H46.8578L47.1345 50.7256V50.8178L47.0422 50.91V51.0022L47.6878 50.8178V50.6333ZM48.9789 50.08H48.7945L48.7022 49.9878L48.4256 49.3422V49.25L48.5178 49.1578V49.0656L47.9645 49.3422V49.4344H48.0567L48.1489 49.5267L48.4256 50.1722V50.2644L48.3333 50.3567V50.4489L48.8867 50.1722C48.9789 50.1722 48.9789 50.1722 48.9789 50.08ZM50.27 49.1578H50.1778C50.1778 49.1578 50.0856 49.1578 49.9933 49.0656L49.1633 48.6044L49.0711 48.6967L49.3478 49.6189V49.8955L49.44 49.9878L49.7167 49.8033L49.6245 49.7111H49.5322V49.6189L49.8089 49.4344L49.9011 49.5267L49.8089 49.6189L49.9011 49.7111L50.3622 49.3422C50.3622 49.25 50.3622 49.25 50.27 49.1578ZM49.44 49.4344L49.3478 49.1578L49.6245 49.3422L49.44 49.4344Z" fill="#333332"/>
<path d="M52.2066 47.3133C51.8377 45.4689 50.3622 43.1633 50.2699 43.0711C50.2699 43.0711 48.9788 41.5033 46.5811 42.61C46.4888 42.61 44.7366 43.44 44.4599 44.8233V45.0078L45.4744 47.4056C45.4744 47.4978 45.5666 47.4978 45.6588 47.59C45.7511 47.59 45.8433 47.59 45.8433 47.4978C45.8433 47.4978 46.6733 46.5756 47.9644 46.3911C48.3333 46.2989 48.7022 46.2989 49.0711 46.3911C47.3188 48.1433 43.2611 49.3422 38.6499 48.3278L37.5433 45.93L37.7277 45.8378C37.8199 45.8378 37.8199 45.7456 37.8199 45.7456V45.5611L35.8833 41.2267C36.0677 40.8578 36.2522 40.3967 36.2522 39.9356C36.2522 38.5522 35.1455 37.3533 33.6699 37.3533C32.2866 37.3533 31.0877 38.46 31.0877 39.9356C31.0877 40.3967 31.1799 40.8578 31.4566 41.2267L29.5199 45.5611V45.7456C29.5199 45.8378 29.6122 45.8378 29.6122 45.8378L29.7966 45.93L28.6899 48.42C24.1711 49.3422 20.2977 48.1433 18.6377 46.3911H19.7444C21.0355 46.6678 21.8655 47.4978 21.8655 47.4978C21.9577 47.59 21.9577 47.59 22.0499 47.59C22.1422 47.59 22.2344 47.4978 22.2344 47.4056L23.2488 45.0078V44.8233C22.9722 43.44 21.2199 42.61 21.1277 42.61C18.7299 41.5033 17.4388 43.0711 17.4388 43.0711C17.3466 43.1633 15.8711 45.4689 15.5022 47.3133C15.0411 49.4344 16.5166 51.2789 19.2833 52.3856C20.9433 53.0311 22.5111 53.2156 23.9866 53.2156C24.8166 53.2156 25.6466 53.1233 26.4766 53.0311L24.5399 57.4578C24.5399 57.55 23.6177 59.3022 23.6177 61.7922C23.6177 61.8844 23.7099 61.9767 23.8022 61.9767H23.8944C23.9866 61.9767 23.9866 61.9767 24.0788 61.8844C25.7388 60.2244 26.4766 58.2878 26.4766 58.2878L29.0588 52.4778L30.1655 52.2011C30.4422 52.1089 30.7188 52.1089 30.9033 52.0167C31.9177 51.8322 32.8399 51.6478 33.6699 51.5556C34.4999 51.5556 35.4222 51.74 36.4366 52.0167C36.7133 52.1089 36.9899 52.1089 37.1744 52.2011C37.451 52.2933 37.6355 52.2933 37.9122 52.3856L40.4944 58.2878C40.4944 58.38 41.2322 60.3167 42.8922 61.8844C42.8922 61.8844 42.9844 61.9767 43.0766 61.9767H43.1688C43.261 61.9767 43.3533 61.8844 43.3533 61.7922C43.4455 59.3022 42.4311 57.55 42.4311 57.4578L40.4022 52.9389C41.3244 53.1233 42.2466 53.2156 43.2611 53.2156C44.8288 53.2156 46.3966 52.9389 47.9644 52.3856C51.2844 51.2789 52.6677 49.4344 52.2066 47.3133ZM48.0566 45.8378C47.0422 46.0222 46.3044 46.5756 45.9355 46.8522L45.1055 44.8233C45.3822 43.7167 46.9499 42.9789 46.9499 42.9789C48.8866 42.1489 49.8088 43.0711 49.9933 43.2556C50.4544 44.27 50.0855 45.1 49.7166 45.7456C49.0711 45.7456 48.5177 45.7456 48.0566 45.8378ZM38.1888 48.0511C38.0044 47.9589 37.8199 47.9589 37.6355 47.8667C37.3588 47.7744 37.0822 47.6822 36.8055 47.6822L36.2522 46.3911L37.2666 46.0222L38.1888 48.0511ZM37.3588 45.3767L35.6066 46.2067V46.1144L34.1311 42.7022L34.2233 42.4256C34.7766 42.3333 35.3299 42.0567 35.6988 41.6878L37.3588 45.3767ZM36.1599 47.59C35.7911 47.4978 35.3299 47.4978 34.9611 47.4056H33.9466C33.1166 47.4056 32.3788 47.4978 31.5488 47.6822L32.0099 46.6678H32.1944C32.2866 46.6678 32.3788 46.5756 32.3788 46.4833L33.8544 43.1633L35.3299 46.4833C35.3299 46.5756 35.4222 46.6678 35.5144 46.6678H35.6988L36.1599 47.59ZM33.8544 37.7222C34.9611 37.7222 35.8833 38.6444 35.8833 39.7511C35.8833 40.0278 35.8833 40.2122 35.791 40.3967C35.791 40.4889 35.6988 40.5811 35.6988 40.6733C35.6066 40.7656 35.6066 40.8578 35.5144 40.95C35.2377 41.3189 34.9611 41.5033 34.4999 41.6878C34.4077 41.6878 34.3155 41.78 34.2233 41.78H33.4855C33.3933 41.78 33.3011 41.78 33.2088 41.6878C32.8399 41.5956 32.4711 41.3189 32.1944 40.95C32.1022 40.8578 32.1022 40.7656 32.0099 40.6733C31.9177 40.5811 31.9177 40.4889 31.9177 40.3967C31.8255 40.2122 31.8255 39.9356 31.8255 39.7511C31.8255 38.6444 32.7477 37.7222 33.8544 37.7222ZM30.3499 45.3767L32.0099 41.5956C32.3788 41.9644 32.9322 42.2411 33.4855 42.3333H33.7622L33.6699 42.61L32.1944 46.0222V46.1144L30.3499 45.3767ZM18.1766 43.3478C18.3611 43.1633 19.2833 42.2411 21.2199 43.0711C21.2199 43.0711 22.7877 43.8089 23.0644 44.9156L22.2344 46.9444C21.8655 46.5756 21.1277 46.1144 20.1133 45.93C19.5599 45.8378 19.0988 45.8378 18.5455 45.93C18.0844 45.1922 17.7155 44.3622 18.1766 43.3478ZM19.7444 51.9244C17.1622 50.91 15.9633 49.25 16.3322 47.4056C16.5166 46.4833 17.0699 45.3767 17.4388 44.5467C17.4388 44.7311 17.4388 44.9156 17.5311 45.1C17.6233 45.3767 17.7155 45.7456 17.9922 46.0222C17.9922 46.1144 18.0844 46.1144 18.1766 46.2067C18.2688 46.2989 18.2688 46.3911 18.3611 46.3911L18.4533 46.4833C20.1133 48.42 24.1711 49.7111 28.7822 48.8811L27.1222 52.57C24.8166 52.9389 22.3266 52.9389 19.7444 51.9244ZM29.0588 52.1089L28.9666 52.3856V52.4778L28.8744 52.6622V52.7544L26.4766 58.2878C26.4766 58.2878 25.9233 59.8556 24.6322 61.3311C24.7244 59.3022 25.4622 57.9189 25.4622 57.8267L27.5833 53.0311L27.6755 52.7544L27.7677 52.4778L29.4277 48.7889L29.5199 48.5122L29.6122 48.2356L30.5344 46.0222L31.5488 46.4833L30.9955 47.8667L30.9033 48.1433V48.2356L30.8111 48.5122L29.0588 52.1089ZM42.4311 57.8267C42.4311 57.8267 43.1688 59.21 43.2611 61.2389C41.9699 59.7633 41.4166 58.2878 41.4166 58.1955L38.9266 52.6622L40.3099 52.9389L42.4311 57.8267ZM48.3333 51.9244C45.6588 52.9389 43.0766 52.8467 40.6788 52.4778C40.5866 52.4778 40.4944 52.4778 40.4022 52.3856C40.3099 52.3856 40.2177 52.3856 40.1255 52.2933H39.941C39.8488 52.2933 39.7566 52.2933 39.6644 52.2011C39.3877 52.1089 39.111 52.1089 38.8344 52.0167C38.7422 52.0167 38.6499 52.0167 38.5577 51.9244C38.4655 51.9244 38.3733 51.8322 38.2811 51.8322C38.1888 51.8322 38.0044 51.74 37.9122 51.74C37.6355 51.6478 37.3588 51.6478 37.0822 51.5556C36.0677 51.2789 35.1455 51.0944 34.3155 51.0944H34.2233C33.3933 51.0944 32.4711 51.2789 31.3644 51.5556C31.1799 51.5556 31.0877 51.6478 30.9033 51.6478C30.5344 51.74 30.1655 51.8322 29.8888 51.8322L31.5488 48.0511C32.4711 47.7744 33.3011 47.6822 34.3155 47.6822H34.4077C35.1455 47.6822 35.8833 47.7744 36.7133 47.9589C36.8055 47.9589 36.8977 47.9589 36.9899 48.0511C37.0822 48.0511 37.1744 48.1433 37.2666 48.1433C37.3588 48.1433 37.5433 48.2356 37.6355 48.2356C37.9122 48.3278 38.281 48.42 38.5577 48.5122C38.6499 48.5122 38.7422 48.5122 38.8344 48.6044C38.9266 48.6044 39.0188 48.6044 39.1111 48.6967C43.9066 49.6189 48.1488 48.3278 49.8088 46.3911L49.9011 46.2989C49.9933 46.2067 49.9933 46.1144 50.0855 46.1144L50.2699 45.93C50.4544 45.6533 50.6388 45.2844 50.7311 45.0078C50.7311 44.8233 50.8233 44.6389 50.8233 44.4544C51.2844 45.2844 51.7455 46.3911 51.9299 47.3133C52.1144 49.25 50.8233 50.91 48.3333 51.9244Z" fill="#333332"/>
</g>
<defs>
<clipPath id="clip0_266_708">
<rect width="68" height="63" fill="white"/>
</clipPath>
</defs>
</svg>
