<svg width="805" height="751" viewBox="0 0 805 751" fill="none" xmlns="http://www.w3.org/2000/svg">
<g clip-path="url(#clip0_519_2)">
<path d="M578.439 690.894C580.786 687.391 583.452 683.993 586.225 680.676C589.745 675.466 584.306 671.278 586.225 666.382C589.852 659.062 606.491 653.37 607.131 651.034C609.371 641.645 615.558 635.678 633.263 628.052C642.863 623.938 648.942 615.394 658.115 608.573C640.942 610.127 651.395 589.787 665.474 599.442C680.726 609.829 687.554 592.75 702.273 591.18C694.593 597.952 733.417 592.75 740.564 593.032C754.43 593.596 765.416 593.91 768.402 587.258C757.736 590.246 755.603 582.789 765.203 580.293C769.149 579.278 773.095 580.373 779.068 582.161C789.201 585.148 801.495 587.013 803.629 587.592C815.427 590.799 830.799 590.544 840.398 596.921C853.091 605.304 834.213 618.961 832.08 628.286C856.612 625.959 858.531 639.35 878.584 642.281C887.223 643.545 890.636 631.217 900.023 633.238C911.115 635.597 901.622 644.946 901.089 649.238C900.022 652.572 910.049 662.992 900.023 663.193C892.983 663.354 887.436 653.732 880.716 658.209C878.263 659.82 869.944 669.289 875.81 671.302C886.05 674.854 879.97 677.551 878.37 685.096C868.344 682.069 867.917 673.92 855.331 675.82C842.958 677.672 841.679 679.645 831.546 672.341C830.479 671.617 819.6 657.509 818.106 669.048C816.72 679.629 817.039 682.205 806.8 690.202C793.894 700.396 805.521 724.296 784.935 701.475C780.242 696.394 774.802 693.906 768.509 690.314C758.803 684.839 762.643 674.435 753.15 669.434C747.711 674.604 741.204 679.83 732.457 681.618C742.057 690.049 720.939 704.881 709.099 704.052C686.7 702.49 668.141 713.2 651.075 699.591C644.995 694.792 636.677 689.751 638.703 682.198C641.69 671.641 630.597 669.104 618.651 670.014C598.599 671.552 602.011 690.435 578.119 690.894" stroke="#333332" stroke-width="1.6"/>
<path d="M624.98 762.562C633.179 758.568 663.387 753.76 662.701 740.71C660.641 732.467 653.357 729.674 647.298 724.666C644.003 722.082 640.178 719.1 637.308 716.224C646.342 712.31 655.376 703.673 649.849 698.989C659.415 700.934 669.938 708.032 680.248 705.301C693.214 701.866 699.059 703.527 711.388 704.232C719.572 704.718 729.457 697.191 733.177 692.394C736.153 688.715 736.578 685.45 733.177 682.047C741.893 680.248 748.375 674.99 753.796 669.788C763.255 674.261 759.536 680.102 764.744 686.439C769.633 692.483 777.178 694.104 783.98 699.119C786.638 701.056 787.275 706.841 797.266 711.524C800.455 713.031 799.074 696.51 806.195 691.462C814.166 685.726 816.823 681.999 817.78 672.689C819.586 656.816 826.495 668.078 831.065 671.838C838.93 678.134 841.694 679.073 851.579 676.505C867.521 672.34 867.521 681.277 878.574 685.539C879.637 680.2 885.058 674.803 876.13 671.708C868.158 668.937 878.787 658.031 883.888 657.253C888.884 656.443 894.411 662.163 899.194 663.144C909.504 665.307 900.256 652.44 900.894 649.848C902.913 644.808 903.87 643.147 904.933 640.813C911.629 641.299 928.422 645.237 932.249 646.744C942.452 650.706 949.36 640.513 955.311 636.446C963.177 631.025 975.613 632.565 985.285 632.994C1000.8 633.723 1015.79 624.794 1030.88 627.193C1014.09 634.833 1048.1 654.741 1057.45 657.018C1085.72 663.857 1105.6 657.018 1133.87 663.209C1132.7 671.368 1121.22 676.959 1115.8 682.039C1122.07 684.77 1128.45 687.816 1135.68 689.039C1129.51 694.517 1120.16 702.417 1133.44 705.374C1125.58 713.177 1138.34 716.102 1142.59 716.75C1152.68 718.282 1155.55 730.97 1140.25 728.71C1150.88 711.881 1121.97 721.328 1116.55 722.876C1114.21 711.265 1095.71 721.839 1090.29 724.415C1084.45 727.243 1078.28 729.86 1072.01 732.242C1067.87 733.822 1032.9 742.444 1054.58 733.944C1048.74 734.86 1040.98 734.268 1036.2 737.452C1032.69 739.713 1034.39 749.039 1027.8 747.953C1027.8 750.652 1040.76 764.515 1042.04 764.782C1061.38 768.85 1049.16 790.346 1037.79 780.623C1015.58 810.489 1065.32 838.864 1092.21 851.917C1105.39 858.31 1126.64 862.807 1135.78 872.83C1149.28 887.423 1156.4 906.618 1164.27 923.269C1174.36 944.643 1211.14 966.512 1237.39 975.7C1256.84 982.506 1267.15 984.605 1288.73 982.401C1296.81 981.583 1332.41 977.588 1328.05 991.679C1325.93 998.404 1300.74 1004.66 1309.88 1012.88C1319.87 1021.76 1346.33 1026.8 1359.83 1030.48C1381.41 1036.36 1400.86 1042.17 1418.82 1053.14C1437.31 1064.33 1459.95 1067.65 1477.91 1080C1489.92 1088.31 1506.08 1097.01 1503 1110.85C1501.93 1113.99 1501.51 1128.14 1495.35 1128.61C1486.84 1129.26 1476.43 1125.43 1471.96 1119.84C1462.18 1107.63 1462.82 1093.5 1438.7 1095.36C1419.25 1096.85 1415.31 1087.18 1412.66 1081.65C1392.14 1084.28 1387.57 1084.13 1374.71 1098.65C1366.74 1107.65 1360.89 1118.95 1358.02 1129.6C1354.62 1141.81 1375.03 1144.78 1386.08 1148.66C1403.83 1154.87 1407.02 1164.54 1408.83 1178.22C1411.7 1201.31 1359.3 1184.71 1364.3 1212.59C1366.63 1226.22 1361.85 1227.29 1350.37 1236.55C1340.7 1244.4 1333.26 1254.07 1321.78 1260.51C1310.94 1266.56 1301.8 1263.15 1296.38 1254.33C1288.09 1240.9 1313.7 1234.67 1314.98 1222.45C1314.98 1218.3 1312.75 1213.3 1316.47 1209.6C1322.74 1203.41 1335.07 1208.03 1338.47 1200.07C1341.34 1193.13 1329.86 1185.26 1327.63 1178.93C1324.23 1169.08 1323.06 1160.43 1316.04 1151.44C1307.75 1140.66 1306.48 1124.51 1295.42 1115.4C1288.73 1109.98 1284.16 1111.27 1277.89 1115.24C1270.45 1119.98 1262.69 1110.36 1257.8 1107.36C1252.27 1103.97 1243.24 1104.86 1241.54 1098.05C1240.16 1092.43 1244.94 1090.76 1241.54 1083.85C1233.03 1068.95 1211.03 1068.6 1194.98 1076.4C1203.17 1066.85 1200.62 1057.88 1183.61 1059.19C1170.96 1060.15 1163.74 1045.9 1159.17 1039.24C1151.09 1027.4 1141.42 1034.29 1128.13 1031.31C1121.01 1029.72 1114.42 1027.18 1106.77 1028.56C1090.82 1031.45 1101.13 1029.85 1090.08 1023C1079.13 1016.22 1065.42 1014.36 1054.58 1006.87C1042.47 998.566 1035.45 986.282 1022.27 979.273C1010.79 973.18 1006.33 974.728 998.677 965.216C990.811 955.282 970.298 943.614 954.781 950.971C963.709 939.571 927.253 910.142 913.755 911.601C915.349 911.439 893.879 864.954 893.029 861.932C885.695 834.57 861.25 837.624 835.423 824.377C808.746 810.675 774.734 803.229 752.414 825.341C744.443 833.192 737.853 842.251 725.949 847.129C721.698 848.863 683.329 858.156 685.986 850.653C687.899 845.144 716.597 820.876 682.373 830.089C661.966 835.599 623.491 811.032 648.786 795.086C657.927 789.366 656.227 784.634 645.492 780.493C627.743 773.663 622.641 763.275 624.98 762.562Z" stroke="#333332" stroke-width="1.6"/>
<path d="M762.647 91.7979C755.419 94.0342 755.191 102.524 756.679 107.215C756.679 108.384 764.338 102.54 765.289 99.866C768.933 97.8649 768.167 93.7743 762.647 91.7979ZM772.211 98.3285C769.979 98.3285 769.896 98.6527 767.77 99.147C765.869 100.787 775.506 99.3901 778.694 99.147C776.569 98.4988 774.549 98.3366 772.211 98.3285ZM790.811 99.147C784.115 98.6608 786.454 98.6284 779.758 99.147C784.222 100.865 789.005 111.398 791.556 114.663C793.788 117.54 804.204 123.139 801.228 126.914C796.233 133.129 782.202 129.686 776.569 137.529C784.009 139.943 791.449 138.882 798.995 137.529C781.99 143.492 800.377 147.584 803.353 154.682C796.126 154.439 793.468 157.858 798.995 162.031C805.16 166.576 813.981 165.167 821.528 166.925C829.499 168.797 833.538 173.666 838.639 178.366C844.804 183.997 852.988 184.669 860.109 188.98C841.615 187.449 836.726 175.741 822.59 169.38C813.343 165.215 802.503 170.109 792.618 169.38C781.033 168.505 769.768 165.645 767.961 177.547C766.898 182.295 772.317 186.031 772.211 190.609C770.511 194.02 769.874 197.642 769.023 201.231C767.961 195.333 770.192 189.685 761.583 186.533C751.379 182.838 747.766 190.147 754.037 195.511C748.404 196.588 743.621 195.673 739.05 193.064C764.24 180.1 696.005 178.058 688.671 179.176C680.275 180.456 666.033 190.746 666.246 197.966C666.246 203.954 693.058 202.849 690.798 205.315C681.626 215.325 669.687 237.984 669.372 242.791C668.606 254.478 654.129 245.431 644.776 250.227C630.109 257.706 657.424 261.206 661.038 265.849C671.56 279.145 635.211 283.116 646.583 293.033C657.53 302.724 608.451 300.485 601.755 297.86C605.687 307.037 596.839 298.515 591.595 302.121C589.957 303.432 588.646 305.726 588.974 309.003C598.752 311.564 610.765 329.098 605.345 336.949C600.562 343.982 581.856 354.289 590.89 363.898C595.779 369.043 591.294 376.927 592.251 378.815C595.121 384.575 613.553 385.697 604.377 392.908C613.881 393.236 616.83 403.396 616.175 405.362C585.041 405.69 580.899 423.914 611.084 435.128C632.235 443.02 610.816 459.421 618.469 466.324C620.435 467.308 639.257 485.646 644.358 485.006C651.692 484.082 645.315 481.298 656.156 482.384C661.896 482.951 656.865 489.549 666.643 487.628C670.363 486.899 676.45 487.357 680.276 487.114C693.88 483.517 695.067 489.858 707.608 492.872C718.981 495.587 732.187 496.617 743.985 498.116C734.419 504.558 726.51 510.344 718.645 518.098C709.823 526.978 706.74 540.494 700.788 550.33C696.856 556.91 680.856 604.781 703.07 590.496C695.417 597.294 735.118 592.131 742.239 592.415C756.056 592.982 765.26 593.966 768.236 587.265C751.656 591.972 758.511 574.295 778.068 581.693C792.159 587.593 830.175 590.215 840.334 596.442C848.944 600.266 895.714 597.106 883.704 612.833C900.284 612.428 901.454 600.955 905.067 591.597C912.188 596.418 928.344 596.32 937.272 595.68C929.513 598.581 949.388 602.956 953.321 603.029C962.461 603.191 968.2 597.155 976.916 596.499C993.603 595.218 1009.76 585.358 1028.25 589.96C1028.25 587.78 1028.25 585.528 1027.19 583.429C1035.8 584.239 1044.19 587.513 1052.91 587.513C1057.16 586.411 1061.41 585.714 1065.77 585.066C1070.55 585.471 1072.57 592.552 1076.5 594.862C1088.41 601.838 1088.3 598.297 1091.49 589.96C1094.68 581.647 1081.07 584.855 1081.82 577.717C1082.88 569.006 1083.2 569.379 1074.38 562.192C1067.68 556.78 1072.25 552.583 1079.69 549.949C1106.03 539.786 1109.86 547.383 1114.46 533.358C1117.52 517.58 1126.71 531.605 1133.6 525.761C1133.6 512.32 1141.26 505.308 1116.75 497.711C1103.36 491.61 1092.55 480.681 1078.63 474.814C1061.2 467.433 1057.69 450.636 1041.11 443.773C1054.19 435.849 1048.13 429.335 1035.8 424.173C1026.23 420.179 1024.11 412.951 1019.75 407.028C1026.66 406.218 1032.08 408.365 1034.74 416.006C1037.39 394.494 1073.63 402.872 1088.3 393.959C1111.58 379.731 1150.48 371.879 1178.22 363.744C1175.78 361.946 1173.33 360.544 1170.78 358.842C1181.41 356.93 1183.38 355.707 1192.57 364.472C1218.82 382.004 1229.98 344.93 1218.82 334.3C1217.33 327.688 1203.52 327.356 1202.77 322.089C1201.71 314.934 1202.77 312.479 1195.44 306.573C1190.66 302.619 1197.78 299.434 1199.69 295.675C1210.74 274.081 1182.47 268.28 1189.91 261.798C1204.79 248.801 1162.98 245.79 1157.34 233.572C1152.83 228.069 1188.74 212.534 1174.19 197.925C1167.3 191.005 1167.27 179.451 1154.73 175.903C1146.97 173.723 1134.32 172.127 1133.26 164.47C1133.26 160.483 1130.39 148.135 1122.53 148.135C1117.85 148.135 1108.18 148.135 1110.73 152.219C1102.23 148.402 1083.63 131.549 1075.44 130.99C1058.22 129.815 1052.3 122.409 1032.98 135.85C1053.06 123.578 1055.96 128.366 1065 129.509C1047.46 124.518 1042.34 130.254 1031.55 136.702C1025.28 140.332 1011.78 144.375 1015.39 152.219C1017.09 138.979 982.656 150.777 974.684 154.674C990.308 148.881 972.983 158.595 970.433 164.47C964.056 159.916 926.856 153.588 935.04 164.47C933.552 160.281 929.726 158.02 924.412 157.121C934.721 149.018 944.074 143.63 946.838 131.8C932.808 133.931 924.411 138.234 910.488 133.437C901.772 130.447 887.955 126.396 883.704 135.884C882.535 131.671 882.323 131.427 885.83 127.717C878.709 125.294 870.313 125.529 863.298 127.717C868.612 125.804 880.835 113.586 867.55 113.837C888.807 106.488 816.818 102.623 819.688 103.831C813.311 101.149 800.158 100.121 793.143 99.5698L790.811 99.147Z" stroke="#333332" stroke-width="1.6"/>
<path d="M745.714 -11.7684C746.776 -13.713 747.733 -15.6495 748.796 -17.6022C753.26 -13.8589 766.545 -7.80619 773.347 -11.185C776.217 -1.37275 784.826 -4.93791 786.952 -12.0277C792.054 -29.116 823.62 -21.4266 806.934 -15.2606C813.842 -14.7744 824.364 -16.2491 823.833 -8.26803C826.277 -15.6089 826.384 -18.9715 816.18 -18.1856C816.18 -24.1652 813.524 -33.062 820.538 -37.5832C825.109 -39.8195 830.104 -40.7107 835.525 -40.2651C844.134 -39.86 849.023 -42.6797 856.569 -42.6797C865.71 -42.6797 871.449 -42.3555 880.058 -39.7546C890.58 -36.5622 887.392 -26.5879 892.706 -20.5272C881.972 -21.2564 871.874 -18.7934 862.096 -15.8602C871.981 -15.6982 878.888 -21.4834 889.092 -18.1613C895.044 -16.1924 883.034 -7.49836 882.715 -4.19251C885.372 -15.1634 923.635 -9.39437 931.181 -4.84073C937.558 -0.951503 924.803 14.1274 918.32 14.1112C911.73 14.1112 908.967 13.625 906.416 19.71C898.445 18.3326 896.957 14.2004 902.59 9.78446C887.923 6.08159 888.56 15.521 887.923 23.4129C886.86 36.1663 874.106 33.687 862.096 36.0448C866.56 36.3689 875.382 40.1447 870.174 44.593C863.691 50.2162 850.192 45.4358 842.115 46.5458C847.748 48.0853 853.38 49.6409 859.014 51.2128C845.622 61.6327 839.67 55.6207 848.704 71.2181C854.231 80.6657 831.804 80.3982 832.23 89.7162C842.752 88.8168 855.507 93.6379 852.849 103.142C845.091 102.737 845.94 96.7736 838.606 101.117C830.741 105.776 822.133 104.463 813.63 102.437C801.938 99.65 772.923 101.53 779.406 86.2159C773.242 87.9904 768.459 85.3732 766.44 80.9735C802.258 80.9735 758.574 58.3755 756.448 54.1297C754.748 66.9075 745.927 54.697 745.077 49.009C744.014 41.8382 746.14 34.4001 744.014 27.3022C745.077 32.658 757.617 42.3325 761.656 33.1361C763.569 28.7769 741.463 10.1977 744.757 25.552C738.274 15.9262 741.462 -1.87521 745.82 -11.7927" stroke="#333332" stroke-width="1.6"/>
<path d="M-205.427 427.552C-196.074 429.173 -182.681 415.261 -175.454 410.885C-162.274 402.831 -136.342 409.516 -127.414 397.216C-127.414 404.76 -107.645 412.06 -99.5675 412.538C-84.3687 413.438 -74.4832 390.597 -74.5895 382.04C-69.8067 388.846 -53.1203 382.04 -47.0621 380.331C-30.9068 375.996 -14.4321 381.643 -2.63449 390.216C-1.57164 382.68 8.41821 384.957 15.0079 385.873C22.2352 386.877 42.8549 382.016 23.4048 379.131C32.2264 379.131 87.9194 378.888 72.2955 367.464C81.6486 374.715 93.4465 369.044 104.5 370.972C107.37 371.377 108.645 372.617 108.326 374.635C108.326 378.094 126.82 374.31 126.713 374.31C142.975 372.738 158.492 372.171 174.435 375.761C187.827 378.775 206.64 370.932 219.819 368.298C231.404 365.973 233.955 363.056 241.714 357.619C250.111 351.769 266.371 353.066 271.367 344.25C276.894 334.47 217.056 333.117 210.785 332.461C215.036 331.594 219.182 330.419 223.114 328.952C215.356 327.583 207.171 326.132 200.156 330.127C207.065 324.512 216.418 326.748 225.133 325.468C239.694 323.305 239.163 312.083 224.071 310.875C229.704 311.767 233.318 308.177 237.782 306.516C246.603 303.218 253.299 309.952 263.078 303.283C260.633 299.281 256.594 296.947 250.854 296.283C256.913 295.416 271.579 296.121 255.424 291.624C277.744 296.728 280.933 285.725 290.392 273.612C302.827 257.909 300.595 242.733 276.681 233.707C262.864 228.472 231.192 221.164 217.587 230.117C212.804 233.188 211.21 239.84 204.939 241.445C195.373 243.883 189.634 232.167 179.643 233.86C192.078 219.559 217.693 218.668 196.224 197.772C178.474 180.473 158.918 181.486 133.835 179.014C150.522 173.513 180.069 178.285 193.46 186.606C190.378 178.463 156.261 156.133 180.494 151.012C164.764 147.949 161.788 135.909 151.372 128.26C141.594 121.113 126.607 121.34 114.384 119.882C93.8709 117.435 88.2383 80.1872 86.9629 68.1063C84.8372 48.0038 51.7832 30.5833 26.4875 27.0506C19.8978 26.1269 14.2639 19.0857 7.03649 24.0283C2.46624 27.2207 -1.89069 28.7521 -8.1615 28.6792C-24.6356 28.5171 -47.4867 29.2463 -59.8158 19.1667C-34.2011 33.6865 -16.7706 13.3248 9.05659 13.3248C23.7239 13.3248 18.515 4.67937 10.7562 0.0366035C-0.19114 -6.52648 -11.2441 3.90148 -23.148 2.82384C7.03685 -1.65688 31.6948 -12.3684 51.145 -30.6235C59.8603 -38.8314 62.5176 -48.5302 69.9576 -56.9326C75.0592 -62.7745 89.1945 -66.5746 85.262 -75.212C78.0346 -90.8013 37.647 -84.8459 20.854 -83.4199C3.42333 -81.9371 -13.3704 -87.1713 -30.376 -83.3388C-44.6181 -80.0734 -60.8793 -73.2916 -75.1214 -71.3064C-72.9958 -76.8486 -64.5996 -77.3429 -62.155 -82.9741C-70.5515 -83.5413 -78.0975 -80.5353 -85.8563 -78.8905C-76.6095 -86.1342 -53.3336 -81.1025 -49.0822 -92.3002C-60.1358 -94.2691 -73.3143 -92.3003 -82.7736 -98.1422C-64.5989 -92.8432 -68.1063 -96.3273 -56.2024 -102.404C-46.4242 -107.42 -34.6269 -109.534 -24.6362 -114.364C-20.5973 -116.349 31.3756 -142.196 4.273 -146.352C-12.2011 -148.889 -32.7141 -142.828 -48.8694 -140.438C-57.7973 -139.101 -67.3627 -137.423 -76.5032 -137.991C-78.8415 -138.153 -81.924 -138.477 -83.412 -139.96C-85.9628 -142.382 -96.6973 -136.257 -100.417 -134.887C-92.2334 -145.032 -99.354 -138.031 -105.306 -140.745C-107.644 -141.831 -111.683 -145.761 -114.978 -145.178C-121.674 -143.995 -119.124 -129.143 -128.689 -125.553C-125.713 -124.338 -119.548 -122.677 -119.548 -120.303C-142.718 -128.405 -135.704 -109.137 -147.076 -106.301C-141.231 -104.454 -136.448 -100.873 -134.11 -96.3759C-141.55 -94.1639 -168.226 -101.74 -166.207 -89.9667C-168.545 -100.784 -185.764 -82.4476 -167.271 -73.6239C-172.373 -74.11 -177.474 -74.353 -182.575 -74.191C-183.744 -62.896 -171.522 -62.8394 -160.362 -63.6901C-165.995 -62.337 -171.096 -60.1979 -175.666 -57.2728C-168.864 -59.2013 -161.318 -58.1155 -157.279 -53.181C-167.27 -61.9966 -180.662 -45.0299 -158.342 -46.1886C-160.68 -45.5403 -197.349 -44.325 -172.053 -37.4378C-183 -44.9002 -195.33 -30.9314 -180.45 -28.687C-186.615 -29.3352 -190.228 -26.9774 -190.44 -22.2698C-198.73 -25.284 -209.466 -24.5142 -216.481 -19.9362C-204.364 -17.7809 -187.57 -23.9631 -176.729 -18.186C-185.338 -21.2002 -190.972 -13.4218 -199.687 -16.436C-192.46 7.59626 -153.348 -21.5486 -140.7 -26.9368C-145.695 -22.7154 -148.67 -16.0308 -136.129 -19.9362C-142.293 -18.9882 -174.392 -7.84725 -153.666 -9.43535C-156.217 -7.51504 -158.874 -5.56232 -161.425 -3.6015C-155.898 -3.35842 -150.583 -3.76352 -145.269 -4.76824C-148.458 -3.46373 -162.912 -3.01001 -163.763 -2.13493C-166.42 0.344453 -170.353 2.45922 -173.86 4.15266C-177.899 6.13779 -175.029 11.7934 -175.56 14.9453C-175.56 18.3565 -197.03 40.6224 -178.962 24.401C-187.996 29.1978 -186.402 47.3394 -173.648 38.9857C-187.677 45.014 -188.102 56.6492 -197.243 65.481C-203.726 71.6632 -183.532 76.2412 -181.513 63.8929C-180.025 55.053 -164.614 44.8113 -168.546 36.3847C-174.073 24.401 -150.478 17.0681 -140.7 12.7414C-147.183 17.0681 -164.4 23.6475 -162.594 31.9607C-161.318 35.8905 -158.343 36.8708 -153.666 34.9019C-151.115 38.6534 -147.82 41.9674 -143.781 44.8276C-141.974 39.8607 -145.8 34.9101 -151.433 32.5766C-145.375 26.37 -142.188 30.4698 -140.7 35.4853C-129.965 28.2173 -137.405 14.2971 -124.651 16.2336C-129.965 19.6286 -130.708 23.5178 -126.882 27.9013C-128.476 16.8737 -119.655 28.5496 -110.833 31.4017C-116.785 31.1586 -130.495 27.2693 -133.046 33.9702C-137.935 46.7884 -126.669 46.5615 -121.355 55.6202C-112.427 71.0556 -158.023 80.0414 -149.095 98.4909C-150.158 97.1864 -160.149 90.129 -161.531 94.1398C-164.188 101.829 -147.82 112.346 -142.186 117.159C-148.138 103.733 -141.125 101.076 -124.651 106.772C-111.046 111.479 -108.388 111.139 -107.857 98.4989C-91.914 110.491 -82.0296 105.686 -64.1738 101.74C-58.647 100.517 -50.0382 99.1553 -51.2074 93.2485C-38.9846 94.391 -26.656 93.7346 -14.4332 94.4152C-28.144 101.383 -44.7242 102.291 -52.6955 114.842C-57.6909 122.782 -48.2316 149.343 -32.8203 142.844C-35.0523 147.228 -33.989 151.117 -29.7376 154.504C-26.4428 151.206 -23.679 147.714 -21.3407 144.011C-19.1087 151.19 -11.0317 147.641 -6.03634 145.178C-11.0317 150.38 -10.9255 157.016 -16.7712 162.679C-20.066 165.969 -33.6702 179.403 -15.1767 177.264C-33.7765 184.338 -27.9303 208.589 -5.29162 202.933C-15.6012 208.686 -46.9559 186.695 -31.2258 210.517C-52.3765 196.759 -82.5612 211.003 -105.519 210.517C-97.016 202.568 -130.909 192.971 -137.712 197.338C-151.422 206.17 -121.887 220.71 -108.601 211.692C-121.037 222.363 -138.786 228.602 -150.69 239.694C-135.172 240.618 -121.036 227.249 -105.519 233.277C-109.345 238.147 -105.519 242.935 -100.098 245.528C-109.239 248.753 -106.794 257.714 -96.272 256.612C-104.881 257.552 -105.519 263.832 -108.814 268.669C-113.172 275.013 -124.119 278.805 -132.409 281.155C-150.903 286.373 -177.58 289.946 -189.697 301.533C-183.107 303.543 -180.663 307.723 -185.871 312.034C-177.58 313.363 -169.289 312.601 -163.656 307.367C-167.589 312.99 -175.666 314.781 -183.531 314.368C-173.116 324.415 -141.337 312.982 -130.708 307.367C-130.708 315.818 -118.485 316.118 -110.833 314.368C-114.022 317.957 -118.379 318.929 -123.906 317.285C-121.78 327.421 -111.896 322.478 -104.031 319.675C-91.9141 315.372 -85.2181 329.576 -74.6959 333.101C-55.3521 339.518 -52.1638 326.214 -36.4336 324.471C-19.2155 322.567 -7.52405 315.737 6.18669 307.942C-6.88634 319.934 -25.3806 328.223 -39.7291 339.445C-43.449 342.37 -37.9218 345.895 -45.8931 346.672C-54.821 347.548 -63.962 347.969 -72.8899 346.592C-85.5378 344.598 -106.794 341.252 -118.911 346.835C-126.244 350.173 -126.67 356.793 -134.11 360.187C-144.313 364.855 -146.333 353.252 -149.946 367.083C-151.434 372.641 -169.396 393.675 -178.643 392.071C-184.382 391.083 -185.87 391.261 -187.996 396.122C-191.503 403.86 -205.852 407.377 -214.78 410.172C-222.007 412.4 -229.872 414.823 -236.037 418.567C-238.481 420.106 -234.973 425.446 -232.529 424.992C-222.963 423.396 -211.272 417.084 -206.489 427.585" stroke="#333332" stroke-width="1.6"/>
<path d="M77.7145 388.418C84.3042 387.931 90.0437 384.941 93.7637 380.825C81.2221 375.518 74.1015 377.203 62.4102 382.575C67.8307 383.977 72.9317 385.922 77.7145 388.418Z" stroke="#333332" stroke-width="1.6"/>
<path d="M347.111 355.192C366.043 347.69 388.365 340.026 409.105 335.837C394.775 343.922 422.572 343.696 430.549 345.187C438.207 347.525 442.25 349.056 449.695 347.525C458.948 345.629 468.676 331.655 471.867 342.706C471.971 343.067 469.634 337.691 468.784 335.115C475.803 336.29 484.311 335.998 483.354 328.706C488.885 331.914 498.031 333.843 502.498 328.139C506.22 335.131 519.622 332.87 524.621 328.139C530.47 344.562 562.058 344.513 580.564 350.298C570.673 359.13 556.914 372.653 577.905 376.55C583.967 378.835 587.796 377.741 591.944 377.117C588.859 382.999 615.032 384.963 604.397 393.106C615.213 392.729 616.681 405.453 615.884 405.378C612.086 405.023 601.226 406.433 593.675 411.222C590.59 413.158 587.158 414.939 580.245 423.235C574.395 430.252 569.716 433.695 571.205 439.829C573.013 446.067 585.717 453.448 571.465 460.894C567.896 460.894 556.789 459.562 550.021 460.31C548.851 458.803 543.552 452.249 537.596 449.584C530.109 443.947 518.621 441.61 511.729 440.441C504.836 438.103 507.071 421.331 506.646 416.818C499.52 418.957 497.499 423.478 492.501 427.221C483.248 434.1 468.677 431.062 457.616 429.652C459.955 422.53 464.21 411.317 456.446 407.492C447.193 402.939 432.441 402.77 425.953 405.962C427.123 394.976 419.061 396.028 407.416 394.545C395.078 390.567 401.581 388.245 391.49 382.003C387.661 378.497 366.217 379.081 360.856 377.328C343.242 372.653 359.325 358.628 347.837 354.905" stroke="#333332" stroke-width="1.6"/>
<path d="M-181.722 561.116C-172.263 557.696 -160.89 555.557 -150.368 557.032C-146.754 544.765 -168.118 553.2 -172.582 544.781C-162.804 542.294 -151.324 543.209 -141.121 543.606C-149.092 542.561 -159.933 544.724 -154.194 537.189C-160.358 536.946 -181.297 545.932 -183.848 538.064C-187.249 527.328 -165.779 520.846 -155.576 519.306C-141.865 517.232 -128.899 516.39 -114.975 516.681C-95.3126 517.086 -82.665 502.502 -60.7703 504.519C-63.3211 509.908 -37.0683 528.722 -29.7347 526.461C-24.7393 524.63 -20.0631 522.54 -15.4929 520.206C-5.5021 515.985 -6.13946 521.437 2.15075 522.653C10.3347 523.852 16.7122 518.91 17.2437 529.03C22.5579 526.218 14.692 522.856 19.0497 518.278C23.6199 513.602 25.9584 520.7 29.8909 521.494C39.244 523.374 51.3608 521.494 60.8202 520.279C40.7324 515.798 48.0656 494.197 49.7662 482.942C50.829 477.465 39.6686 471.971 35.9486 468.147C29.5715 461.56 35.9496 451.545 26.384 446.181C33.2925 447.105 39.6686 449.697 46.5771 450.791C54.1233 451.99 63.371 446.343 70.0669 448.887C80.3765 452.841 67.5158 464.72 81.758 470.959C85.9031 472.757 93.3429 469.557 97.5943 469.524C110.03 469.443 121.934 472.644 134.051 474.394C145.848 476.104 156.157 475.844 166.679 471.234C176.245 467.061 189.106 467.215 197.821 462.524C190.913 464.598 179.222 465.651 172.526 462.767C159.027 456.844 190.274 442.276 195.376 440.501C211.85 434.878 230.556 435.55 247.243 430.446C256.915 427.488 269.882 410.57 281.892 415.302C271.37 410.124 277.854 374.271 286.569 367.554C295.178 360.958 339.074 349.031 350.446 356.283C356.186 359.978 344.919 374.19 361.712 377.358C379.036 380.623 374.998 377.682 387.327 380.461C398.806 383.094 395.191 389.828 404.013 393.101C415.598 397.371 427.29 392.291 425.802 405.952C432.71 402.557 444.72 403.343 451.947 405.304C465.765 408.901 459.919 421.825 457.155 429.328C466.402 430.503 476.819 432.682 485.959 429.895C494.994 427.132 497.119 419.248 506.154 416.493C507.217 420.836 504.559 440.258 512.318 440.469C523.69 440.793 546.647 452.225 550.155 460.547C549.092 458.148 593.413 463.61 595.645 463.755C606.486 464.485 614.458 462.767 623.067 469.549C629.763 474.896 634.439 483.299 644.642 485.332C646.874 484.522 648.574 483.356 649.956 481.784C653.251 479.183 654.846 482.634 658.353 482.999C660.372 483.566 660.904 484.587 659.948 486.054C658.885 489.23 669.088 487.496 670.682 487.601C681.63 488.33 687.794 483.242 697.891 489.084C708.625 495.307 730.732 496.457 744.124 498.167C727.757 509.227 712.558 521.365 707.244 537.797C704.693 545.786 697.234 552.769 695.534 560.823C693.93 568.42 692.47 569.004 691.704 576.017C688.641 588.873 694.842 592.609 692.204 594.475C686.039 598.753 679.095 603.652 673.196 602.668C665.544 602.182 663.368 593.548 653.412 598.223C646.822 601.051 648.149 609.796 659.203 608.443C650.913 615.136 643.065 622.249 633.5 628.026C629.671 629.779 622.778 632.117 616.651 636.792C612.081 639.952 608.227 644.389 607.461 650.817C600.871 657.088 586.783 658.998 586.017 668.933C586.017 671.855 587.549 674.192 587.549 678.283C585.251 682.958 582.954 684.711 578.359 691.139C591.378 689.97 593.457 687.048 600.568 679.452C612.056 667.18 624.661 669.212 633.589 671.116C644.218 673.409 636.989 686.73 644.642 693.22C658.14 704.499 649.851 708.728 637.734 716.369C644.218 723.313 667.917 735.341 661.328 745.518C655.835 755.821 624.148 762.21 624.254 763.377C624.254 771.431 644.855 778.645 651.87 783.239C662.073 789.884 637.734 801.721 641.241 810.505C645.493 821.168 672.277 833.257 686.412 828.938C704.162 823.517 701.505 831.401 694.809 840.419C678.654 862.142 647.725 873.097 620.091 887.301C621.898 889.278 623.705 891.222 625.511 893.135C615.202 894.261 606.592 898.296 596.92 900.873C586.61 903.652 579.914 899.276 570.136 899.868C555.256 900.759 546.117 891.311 528.367 892.551C535.488 878.526 504.984 889.278 504.666 881.126C506.579 878.598 509.661 877.934 513.806 879.133C513.806 874.539 509.873 871.946 503.814 872.133C508.916 878.08 504.878 878.955 497.544 879.222C485.959 879.628 484.79 879.141 481.601 868.632C485.746 889.561 478.732 876.216 460.983 876.216C450.673 876.216 442.276 871.274 432.285 870.901C420.062 870.415 406.565 881.021 395.617 884.829C387.115 887.803 357.141 896.262 359.055 905.086C359.055 907.978 357.674 910.668 355.654 913.156C350.871 916.397 351.296 919.281 356.823 921.809C361.074 931.954 358.311 937.034 366.07 946.814C358.736 948.41 352.359 945.607 345.132 945.939C337.692 946.263 333.865 950.841 327.169 952.235C311.014 955.597 301.13 942.836 285.613 951.424C284.55 951.992 263.08 944.359 260.741 943.038C254.683 939.611 268.501 940.048 258.829 935.114C253.196 932.254 243.098 930.998 238.315 935.681C236.083 925.237 220.884 929.604 212.7 924.645C201.328 917.799 178.052 913.407 181.666 929.855C168.912 928.454 154.563 926.007 141.703 927.805C134.582 928.802 129.798 930.342 123.74 926.161C112.899 918.755 113.75 921.801 102.802 921.688C91.8548 921.607 39.3503 895.274 33.9298 905.937C23.939 902.809 31.0605 897.299 31.6982 891.992C32.7611 885.68 8.31512 888.557 3.31974 883.768C33.7172 875.187 36.268 843.069 41.7948 822.18C44.0268 813.981 45.9397 801.057 54.8676 795.207C67.9406 786.683 50.4033 785.484 49.2342 795.126C47.4274 775.388 52.6365 751.202 63.7964 733.287C74.5312 737.897 85.2655 743.367 89.8357 752.539C90.8986 756.623 91.8556 760.706 92.9184 764.79C95.363 769.984 102.165 770.697 102.059 777.041C105.141 768.882 94.2991 762.602 93.2363 754.872C91.7483 742.994 86.2219 734.948 72.4048 729.171C66.6655 726.756 60.1824 723.459 55.3995 719.918C47.5345 714.149 68.047 717.025 72.1921 719.918C62.5201 716.345 61.9894 685.126 67.6225 679.081C54.9747 685.847 25.1081 672.534 19.2625 663.565C14.0545 655.632 2.25745 651.508 -0.0808188 642.247C-2.20651 633.796 18.0932 624.543 -7.41513 623.668C-4.43916 620.969 -3.80068 616.067 0.0255742 614.009C9.80378 608.84 18.7317 617.534 27.8721 618.417C11.6106 610.242 5.2324 612.956 -11.7732 614.641C-20.276 615.492 -36.8564 605.89 -21.1263 604.416C-25.484 601.118 -23.6771 598.979 -15.8121 597.999C-27.8222 595.714 -45.0395 603.201 -54.8177 595.082C-49.3972 595.082 -44.2962 594.053 -39.5133 592.165C-49.079 587.271 -66.8279 589.256 -69.3787 599.165C-69.3787 592.683 -79.1567 586.623 -70.4413 581.089C-74.1613 588.186 -90.8487 587.725 -80.4327 578.755C-101.583 592.772 -130.067 560.856 -151.537 578.188C-160.146 569.137 -167.267 563.579 -182.04 561.237" stroke="#333332" stroke-width="1.6"/>
<path d="M54.7639 690.045C51.8943 685.41 43.7102 686.415 38.7148 687.128C44.2417 687.29 49.6623 688.246 54.7639 690.045Z" stroke="#333332" stroke-width="1.6"/>
<path d="M57.7379 713.964C62.9458 708.252 56.675 698.48 47.1094 702.297C51.8922 705.521 55.3996 709.411 57.7379 713.964Z" stroke="#333332" stroke-width="1.6"/>
<path d="M440.362 310.227C437.811 310.389 435.367 310.632 432.816 310.794C440.894 313.363 450.566 322.057 459.494 315.461C454.286 311.929 447.398 310.124 440.362 310.211" stroke="#333332" stroke-width="1.6"/>
<path d="M443.447 307.311C456.201 303.624 464.066 320.129 476.395 313.145C466.83 309.685 453.757 298.487 443.447 307.311Z" stroke="#333332" stroke-width="1.6"/>
<path d="M405.277 339.574C406.553 328.757 456.589 337.59 465.779 338.759C455.823 344.018 451.228 352.784 431.316 345.187C421.36 344.018 405.277 345.187 405.277 339.574Z" stroke="#333332" stroke-width="1.6"/>
<path d="M506.549 234.441C495.39 258.052 482.029 277.907 458.009 295.87C448.762 302.822 471.932 308.437 477.352 309.75C490.213 312.869 506.262 304.978 510.513 312.205C493.933 309.774 476.29 321.653 460.241 316.289C474.589 323.265 457.903 318.112 451.632 321.183C457.584 324.375 468.85 322.787 469.806 330.168C458.009 332.988 451.206 324.1 443.022 319.554C432.925 319.554 420.278 317.058 414.113 325.266C421.872 333.069 436.327 331.473 447.38 330.987C456.415 330.582 485.536 342.379 483.729 328.54C489.362 331.757 497.441 333.442 502.011 327.721C505.731 334.714 519.548 332.453 524.437 327.721C530.283 344.145 561.637 343.975 580.13 349.769C567.588 360.861 555.365 377.228 587.676 377.536C601.599 377.698 586.307 360.581 588.645 357.511C589.286 347.684 611.813 340.798 605.687 327.357C603.136 321.054 597.901 311.345 588.973 309.003C588.973 292.524 607.325 309.659 601.754 297.86C608.025 300.282 646.979 302.12 647.962 295.893C649.273 293.599 640.518 290.644 645.996 286.061C647.962 284.094 650.655 282.449 653.206 281.144C683.028 262.135 634.854 261.807 641.244 252.586C648.945 244.764 662.71 251.974 667.625 247.386C671.23 243.125 665.987 244.108 678.768 222.477C683.019 209.116 652.935 192.952 635.93 194.604C609.146 197.197 566.108 201.398 558.078 230.223C554.042 244.038 573.965 252.424 576.941 253.405C585.869 256.378 582.043 260.9 576.941 264.019C571.946 267.074 567.057 270.817 561.956 273.815C554.41 278.312 542.293 269.48 534.109 269.731C536.66 265.575 567.713 259.902 555.296 243.801C533.933 228.92 509.738 227.522 506.549 234.441Z" stroke="#333332" stroke-width="1.6"/>
<path d="M295.527 555.905C295.335 555.905 295.169 555.879 295.029 555.827C294.907 555.792 294.846 555.713 294.846 555.591C294.846 555.364 295.099 555.198 295.606 555.093C296.27 554.97 296.742 554.778 297.022 554.516C297.319 554.254 297.467 553.817 297.467 553.205V541.904C297.467 541.17 297.363 540.619 297.153 540.252C296.961 539.885 296.541 539.64 295.894 539.518C295.615 539.465 295.414 539.395 295.291 539.308C295.169 539.221 295.108 539.116 295.108 538.993C295.108 538.889 295.169 538.81 295.291 538.757C295.431 538.688 295.597 538.653 295.79 538.653C296.244 538.653 296.62 538.661 296.917 538.679C297.214 538.679 297.502 538.688 297.782 538.705C298.062 538.723 298.376 538.731 298.726 538.731C299.093 538.731 299.451 538.714 299.801 538.679C300.15 538.644 300.491 538.609 300.823 538.574C301.173 538.539 301.522 538.521 301.872 538.521C303.917 538.521 305.551 538.95 306.775 539.806C307.998 540.663 308.61 541.843 308.61 543.346C308.61 544.412 308.391 545.4 307.954 546.309C307.535 547.218 306.88 547.952 305.988 548.511C305.097 549.053 303.961 549.324 302.58 549.324C302.178 549.324 301.863 549.263 301.636 549.141C301.426 549.018 301.321 548.896 301.321 548.774C301.321 548.669 301.374 548.581 301.479 548.511C301.584 548.424 301.68 548.38 301.767 548.38C301.889 548.38 302.029 548.398 302.187 548.433C302.361 548.45 302.606 548.459 302.921 548.459C303.865 548.459 304.572 548.031 305.044 547.174C305.534 546.318 305.778 545.155 305.778 543.687C305.778 542.219 305.411 541.144 304.677 540.462C303.961 539.763 303.026 539.413 301.872 539.413C301.383 539.413 300.989 539.509 300.692 539.701C300.413 539.876 300.273 540.173 300.273 540.593L300.247 552.995C300.247 553.589 300.386 554.061 300.666 554.411C300.946 554.743 301.426 554.97 302.108 555.093C302.353 555.145 302.536 555.206 302.659 555.276C302.798 555.346 302.868 555.451 302.868 555.591C302.868 555.696 302.807 555.774 302.685 555.827C302.562 555.879 302.396 555.905 302.187 555.905C301.75 555.905 301.356 555.888 301.007 555.853C300.675 555.836 300.351 555.818 300.037 555.801C299.74 555.766 299.425 555.748 299.093 555.748C298.673 555.748 298.271 555.766 297.887 555.801C297.52 555.818 297.144 555.836 296.76 555.853C296.393 555.888 295.982 555.905 295.527 555.905Z" fill="#333332"/>
<path d="M311.37 556.168C311.003 556.168 310.645 556.045 310.295 555.801C309.945 555.573 309.657 555.285 309.43 554.935C309.203 554.568 309.089 554.21 309.089 553.86C309.089 553.283 309.246 552.82 309.561 552.471C309.893 552.121 310.4 551.806 311.082 551.527L313.625 550.452C313.974 550.312 314.184 550.189 314.254 550.085C314.324 549.962 314.367 549.726 314.385 549.377L314.437 547.777C314.455 547.305 314.341 546.912 314.097 546.597C313.852 546.283 313.494 546.125 313.022 546.125C312.777 546.125 312.523 546.178 312.261 546.283C312.017 546.37 311.816 546.475 311.658 546.597C311.571 546.667 311.51 546.763 311.475 546.886C311.457 547.008 311.449 547.139 311.449 547.279C311.449 547.366 311.449 547.471 311.449 547.594C311.466 547.699 311.475 547.786 311.475 547.856C311.475 547.961 311.352 548.092 311.108 548.249C310.881 548.389 310.61 548.52 310.295 548.642C309.998 548.765 309.744 548.826 309.535 548.826C309.43 548.826 309.342 548.8 309.273 548.747C309.22 548.677 309.194 548.59 309.194 548.485C309.194 548.205 309.281 547.917 309.456 547.62C309.648 547.305 309.928 546.991 310.295 546.676C310.714 546.309 311.169 545.985 311.658 545.706C312.165 545.409 312.655 545.181 313.126 545.024C313.616 544.867 314.044 544.788 314.411 544.788C315.145 544.788 315.74 545.042 316.194 545.548C316.666 546.038 316.884 546.676 316.849 547.463L316.718 553.388C316.701 553.773 316.779 554.088 316.954 554.332C317.129 554.577 317.348 554.699 317.61 554.699C318.012 554.699 318.326 554.594 318.554 554.385C318.623 554.315 318.685 554.28 318.737 554.28C318.824 554.28 318.894 554.306 318.947 554.358C319.017 554.411 319.052 554.481 319.052 554.568C319.052 554.778 318.929 554.996 318.685 555.224C318.387 555.521 318.064 555.748 317.715 555.905C317.382 556.08 317.059 556.168 316.745 556.168C315.871 556.168 315.171 555.696 314.647 554.752H314.568C313.992 555.241 313.45 555.6 312.943 555.827C312.436 556.054 311.912 556.168 311.37 556.168ZM312.733 554.752C313.03 554.752 313.275 554.708 313.467 554.621C313.677 554.516 313.861 554.376 314.018 554.201C314.105 554.114 314.166 554.009 314.201 553.887C314.254 553.747 314.289 553.537 314.306 553.257L314.359 551.763C314.376 551.588 314.367 551.466 314.332 551.396C314.298 551.308 314.228 551.264 314.123 551.264C314.088 551.264 314.035 551.273 313.965 551.291C313.896 551.308 313.799 551.343 313.677 551.396C312.891 551.693 312.34 552.007 312.025 552.34C311.711 552.654 311.553 553.004 311.553 553.388C311.553 553.86 311.676 554.21 311.92 554.437C312.183 554.647 312.454 554.752 312.733 554.752Z" fill="#333332"/>
<path d="M320.234 555.879C320.076 555.879 319.945 555.853 319.84 555.801C319.753 555.748 319.709 555.669 319.709 555.565C319.709 555.425 319.762 555.329 319.867 555.276C319.989 555.206 320.138 555.145 320.312 555.093C320.679 555.005 320.933 554.883 321.073 554.726C321.23 554.568 321.309 554.358 321.309 554.096V548.328C321.309 547.891 321.247 547.524 321.125 547.227C321.003 546.912 320.741 546.711 320.339 546.624C320.269 546.606 320.199 546.562 320.129 546.492C320.076 546.422 320.05 546.335 320.05 546.23C320.05 546.038 320.138 545.916 320.312 545.863C320.802 545.723 321.326 545.531 321.885 545.286C322.445 545.024 322.899 544.797 323.249 544.605C323.354 544.535 323.45 544.482 323.537 544.447C323.624 544.412 323.686 544.395 323.721 544.395C323.843 544.395 323.904 544.465 323.904 544.605C323.904 544.674 323.895 544.823 323.878 545.05C323.878 545.278 323.869 545.531 323.852 545.811C323.834 546.09 323.825 546.361 323.825 546.624C323.825 546.693 323.843 546.728 323.878 546.728C324.158 546.379 324.463 546.055 324.796 545.758C325.145 545.461 325.512 545.225 325.897 545.05C326.281 544.858 326.648 544.762 326.998 544.762C327.452 544.762 327.802 544.858 328.047 545.05C328.291 545.225 328.414 545.461 328.414 545.758C328.414 545.951 328.352 546.178 328.23 546.44C328.125 546.685 327.977 546.903 327.784 547.095C327.61 547.27 327.417 547.358 327.208 547.358C327.085 547.358 326.954 547.331 326.814 547.279C326.674 547.209 326.526 547.139 326.369 547.069C326.229 546.999 326.08 546.938 325.923 546.886C325.783 546.816 325.643 546.781 325.503 546.781C325.066 546.781 324.664 546.938 324.297 547.253C323.93 547.567 323.747 548.179 323.747 549.088V554.018C323.747 554.297 323.86 554.516 324.088 554.673C324.315 554.83 324.656 554.979 325.11 555.119C325.302 555.171 325.451 555.232 325.556 555.302C325.661 555.355 325.713 555.442 325.713 555.565C325.713 555.774 325.547 555.879 325.215 555.879C324.691 555.879 324.236 555.853 323.852 555.801C323.485 555.766 323.074 555.748 322.619 555.748C322.322 555.748 322.06 555.757 321.833 555.774C321.606 555.792 321.37 555.809 321.125 555.827C320.88 555.862 320.583 555.879 320.234 555.879Z" fill="#333332"/>
<path d="M329.628 555.879C329.488 555.879 329.365 555.853 329.261 555.801C329.173 555.748 329.129 555.669 329.129 555.565C329.129 555.425 329.182 555.329 329.287 555.276C329.409 555.206 329.54 555.154 329.68 555.119C330.082 555.014 330.379 554.9 330.571 554.778C330.764 554.656 330.86 554.437 330.86 554.122V548.459C330.86 547.935 330.772 547.515 330.598 547.2C330.423 546.868 330.117 546.667 329.68 546.597C329.593 546.58 329.523 546.545 329.47 546.492C329.435 546.422 329.418 546.326 329.418 546.204C329.418 545.994 329.496 545.881 329.654 545.863C330.423 545.688 331.078 545.461 331.62 545.181C332.179 544.884 332.599 544.648 332.879 544.473C333.071 544.351 333.211 544.29 333.298 544.29C333.438 544.29 333.508 544.36 333.508 544.5C333.508 544.692 333.482 544.998 333.429 545.417C333.394 545.837 333.35 546.291 333.298 546.781C333.263 547.27 333.246 547.725 333.246 548.144V554.122C333.246 554.402 333.342 554.612 333.534 554.752C333.726 554.892 334.023 555.014 334.425 555.119C334.565 555.154 334.688 555.206 334.792 555.276C334.915 555.329 334.976 555.425 334.976 555.565C334.976 555.774 334.819 555.879 334.504 555.879C334.172 555.879 333.875 555.862 333.613 555.827C333.35 555.809 333.097 555.792 332.852 555.774C332.625 555.757 332.354 555.748 332.04 555.748C331.742 555.748 331.472 555.757 331.227 555.774C330.982 555.792 330.737 555.809 330.493 555.827C330.266 555.862 329.977 555.879 329.628 555.879ZM331.987 542.481C331.55 542.481 331.174 542.332 330.86 542.035C330.563 541.72 330.414 541.345 330.414 540.908C330.414 540.453 330.563 540.077 330.86 539.78C331.174 539.465 331.55 539.308 331.987 539.308C332.442 539.308 332.826 539.465 333.141 539.78C333.455 540.077 333.613 540.453 333.613 540.908C333.613 541.345 333.455 541.72 333.141 542.035C332.826 542.332 332.442 542.481 331.987 542.481Z" fill="#333332"/>
<path d="M339.399 556.168C338.839 556.168 338.306 556.089 337.799 555.932C337.31 555.774 336.882 555.547 336.515 555.25C336.392 555.023 336.305 554.664 336.253 554.175C336.2 553.685 336.174 553.24 336.174 552.838C336.174 552.663 336.305 552.575 336.567 552.575C336.672 552.575 336.759 552.602 336.829 552.654C336.917 552.689 336.969 552.742 336.987 552.811C337.249 553.633 337.616 554.254 338.088 554.673C338.56 555.093 339.075 555.302 339.635 555.302C340.124 555.302 340.526 555.145 340.841 554.83C341.155 554.498 341.313 554.105 341.313 553.651C341.313 553.179 341.147 552.785 340.814 552.471C340.482 552.138 339.975 551.763 339.294 551.343C338.735 551.011 338.254 550.688 337.852 550.373C337.45 550.041 337.144 549.683 336.934 549.298C336.725 548.896 336.62 548.441 336.62 547.935C336.62 547.323 336.768 546.781 337.065 546.309C337.38 545.837 337.817 545.461 338.376 545.181C338.936 544.902 339.608 544.762 340.395 544.762C340.954 544.762 341.426 544.823 341.811 544.945C342.213 545.05 342.501 545.164 342.676 545.286C342.816 545.479 342.929 545.793 343.017 546.23C343.122 546.667 343.174 547.104 343.174 547.541C343.174 547.681 343.06 547.751 342.833 547.751C342.728 547.751 342.615 547.725 342.492 547.672C342.388 547.62 342.318 547.55 342.283 547.463C342.055 546.851 341.767 546.388 341.417 546.073C341.085 545.758 340.675 545.601 340.185 545.601C339.766 545.601 339.39 545.732 339.058 545.994C338.726 546.239 338.56 546.597 338.56 547.069C338.56 547.471 338.7 547.83 338.979 548.144C339.276 548.441 339.74 548.765 340.369 549.114C341.417 549.691 342.186 550.242 342.676 550.766C343.183 551.273 343.436 551.955 343.436 552.811C343.436 553.825 343.069 554.638 342.335 555.25C341.618 555.862 340.64 556.168 339.399 556.168Z" fill="#333332"/>
<path d="M322.191 524.009C322.191 525.81 320.731 527.27 318.93 527.27C317.13 527.27 315.67 525.81 315.67 524.009C315.67 522.208 317.13 520.748 318.93 520.748C320.731 520.748 322.191 522.208 322.191 524.009Z" stroke="#333332" stroke-width="2"/>
<path d="M485.394 352.266C485.394 354.067 483.934 355.526 482.133 355.526C480.333 355.526 478.873 354.067 478.873 352.266C478.873 350.465 480.333 349.005 482.133 349.005C483.934 349.005 485.394 350.465 485.394 352.266Z" stroke="#333332" stroke-width="2"/>
<path d="M436.558 382.221C436.349 382.221 436.174 382.187 436.034 382.117C435.894 382.064 435.824 381.977 435.824 381.854C435.824 381.715 435.894 381.601 436.034 381.514C436.174 381.426 436.366 381.339 436.611 381.251C437.083 381.111 437.511 380.902 437.895 380.622C438.28 380.342 438.595 379.914 438.839 379.337C439.311 378.271 439.748 377.257 440.15 376.296C440.552 375.317 440.937 374.355 441.304 373.411C441.671 372.468 442.047 371.497 442.431 370.501C442.816 369.487 443.209 368.412 443.611 367.276C443.768 366.874 443.882 366.542 443.952 366.28C444.022 366 444.065 365.755 444.083 365.545C444.31 365.493 444.52 365.441 444.712 365.388C444.904 365.318 445.114 365.222 445.341 365.1C445.551 364.995 445.708 364.846 445.813 364.654C445.935 364.444 446.032 364.296 446.101 364.208C446.136 364.191 446.171 364.182 446.206 364.182C446.259 364.165 446.302 364.191 446.337 364.261C446.39 364.348 446.425 364.444 446.442 364.549C446.477 364.654 446.512 364.768 446.547 364.89C446.949 366.166 447.36 367.468 447.779 368.797C448.216 370.108 448.645 371.393 449.064 372.651C449.484 373.91 449.877 375.081 450.244 376.165C450.611 377.231 450.926 378.166 451.188 378.97C451.38 379.547 451.607 379.993 451.869 380.307C452.132 380.605 452.411 380.832 452.708 380.989C453.005 381.129 453.329 381.234 453.678 381.304C453.941 381.356 454.133 381.435 454.255 381.54C454.395 381.645 454.465 381.767 454.465 381.907C454.465 382.012 454.395 382.082 454.255 382.117C454.133 382.169 453.975 382.195 453.783 382.195C453.504 382.195 453.137 382.178 452.682 382.143C452.228 382.125 451.756 382.108 451.266 382.09C450.777 382.073 450.331 382.064 449.929 382.064C449.597 382.064 449.23 382.064 448.828 382.064C448.426 382.064 448.042 382.073 447.675 382.09C447.325 382.108 447.019 382.117 446.757 382.117C446.547 382.117 446.372 382.09 446.233 382.038C446.11 381.968 446.049 381.881 446.049 381.776C446.049 381.636 446.128 381.522 446.285 381.435C446.442 381.347 446.626 381.286 446.836 381.251C447.43 381.146 447.858 380.989 448.12 380.779C448.4 380.57 448.514 380.29 448.461 379.94C448.444 379.643 448.382 379.276 448.278 378.839C448.173 378.385 448.05 377.913 447.91 377.423C447.771 376.916 447.64 376.453 447.517 376.034C447.482 375.894 447.421 375.806 447.334 375.771C447.246 375.736 447.098 375.719 446.888 375.719H442.038C441.95 375.719 441.872 375.754 441.802 375.824C441.732 375.876 441.662 375.99 441.592 376.165C441.54 376.374 441.452 376.645 441.33 376.977C441.225 377.292 441.12 377.633 441.015 378C440.91 378.35 440.814 378.682 440.727 378.996C440.657 379.294 440.613 379.512 440.596 379.652C440.543 380.089 440.648 380.439 440.91 380.701C441.19 380.945 441.601 381.138 442.143 381.278C442.667 381.417 442.929 381.592 442.929 381.802C442.929 381.924 442.859 382.012 442.719 382.064C442.597 382.099 442.431 382.117 442.221 382.117C441.889 382.117 441.505 382.108 441.068 382.09C440.631 382.073 440.168 382.064 439.678 382.064C439.119 382.064 438.577 382.09 438.053 382.143C437.528 382.195 437.03 382.221 436.558 382.221ZM442.772 374.644H446.6C446.844 374.644 446.967 374.6 446.967 374.513C446.967 374.46 446.958 374.417 446.94 374.382C446.94 374.347 446.932 374.294 446.914 374.224L444.974 368.01C444.887 367.73 444.817 367.591 444.764 367.591C444.729 367.591 444.668 367.722 444.581 367.984L442.3 374.224C442.265 374.329 442.248 374.399 442.248 374.434C442.248 374.521 442.291 374.583 442.379 374.618C442.483 374.635 442.615 374.644 442.772 374.644Z" fill="#333332"/>
<path d="M455.439 382.169C455.299 382.169 455.177 382.143 455.072 382.09C454.967 382.038 454.914 381.959 454.914 381.854C454.914 381.715 454.967 381.618 455.072 381.566C455.194 381.496 455.343 381.435 455.517 381.382C455.78 381.313 456.024 381.216 456.252 381.094C456.479 380.972 456.592 380.736 456.592 380.386V374.618C456.592 374.181 456.54 373.814 456.435 373.516C456.348 373.202 456.094 372.992 455.675 372.887C455.605 372.87 455.544 372.835 455.491 372.782C455.439 372.712 455.413 372.625 455.413 372.52C455.413 372.293 455.491 372.17 455.649 372.153C456.26 371.996 456.811 371.803 457.3 371.576C457.807 371.349 458.27 371.095 458.69 370.816C458.742 370.781 458.795 370.746 458.847 370.711C458.917 370.676 458.978 370.658 459.031 370.658C459.101 370.658 459.144 370.685 459.162 370.737C459.197 370.772 459.214 370.824 459.214 370.894C459.214 371.017 459.188 371.253 459.135 371.602C459.101 371.952 459.083 372.249 459.083 372.494C459.083 372.564 459.083 372.634 459.083 372.704C459.101 372.773 459.118 372.817 459.135 372.835C459.747 372.258 460.376 371.821 461.023 371.524C461.687 371.226 462.43 371.078 463.252 371.078C464.126 371.078 464.851 371.419 465.428 372.1C466.004 372.782 466.293 373.665 466.293 374.749V380.412C466.293 380.762 466.406 380.989 466.634 381.094C466.878 381.199 467.132 381.295 467.394 381.382C467.534 381.435 467.665 381.496 467.787 381.566C467.91 381.636 467.971 381.741 467.971 381.881C467.971 382.003 467.91 382.082 467.787 382.117C467.682 382.152 467.578 382.169 467.473 382.169C467.123 382.169 466.826 382.152 466.581 382.117C466.354 382.099 466.127 382.082 465.9 382.064C465.69 382.047 465.428 382.038 465.113 382.038C464.816 382.038 464.554 382.047 464.327 382.064C464.099 382.082 463.863 382.099 463.619 382.117C463.391 382.152 463.103 382.169 462.754 382.169C462.666 382.169 462.561 382.152 462.439 382.117C462.317 382.082 462.255 382.003 462.255 381.881C462.255 381.741 462.317 381.636 462.439 381.566C462.561 381.496 462.692 381.435 462.832 381.382C463.094 381.295 463.339 381.199 463.566 381.094C463.793 380.989 463.907 380.762 463.907 380.412V374.985C463.907 374.251 463.706 373.682 463.304 373.28C462.92 372.878 462.413 372.669 461.783 372.651C461.242 372.651 460.761 372.739 460.341 372.913C459.939 373.071 459.564 373.289 459.214 373.569C459.144 373.639 459.092 373.726 459.057 373.831C459.022 373.936 459.004 374.032 459.004 374.119V380.412C459.004 380.762 459.118 380.998 459.345 381.12C459.572 381.225 459.808 381.313 460.053 381.382C460.438 381.505 460.63 381.662 460.63 381.854C460.63 381.959 460.586 382.038 460.499 382.09C460.411 382.143 460.289 382.169 460.132 382.169C459.782 382.169 459.485 382.152 459.24 382.117C459.013 382.099 458.795 382.082 458.585 382.064C458.393 382.047 458.139 382.038 457.825 382.038C457.527 382.038 457.265 382.047 457.038 382.064C456.811 382.082 456.575 382.099 456.33 382.117C456.086 382.152 455.788 382.169 455.439 382.169Z" fill="#333332"/>
<path d="M473.585 382.457C472.624 382.457 471.881 382.187 471.357 381.645C470.85 381.103 470.597 380.307 470.597 379.259V373.176C470.597 373.036 470.535 372.94 470.413 372.887C470.308 372.817 470.09 372.782 469.758 372.782H469.548C469.443 372.782 469.356 372.712 469.286 372.572C469.216 372.415 469.181 372.267 469.181 372.127C469.181 372.092 469.198 372.048 469.233 371.996C469.286 371.926 469.329 371.882 469.364 371.865C469.731 371.637 470.09 371.393 470.439 371.13C470.806 370.851 471.138 370.571 471.436 370.291C471.75 370.012 472.012 369.767 472.222 369.557C472.327 369.47 472.414 369.391 472.484 369.321C472.554 369.251 472.642 369.216 472.746 369.216C472.851 369.216 472.939 369.242 473.009 369.295C473.096 369.347 473.131 369.452 473.114 369.61L472.956 370.894C472.939 371.104 472.982 371.244 473.087 371.314C473.21 371.384 473.376 371.419 473.585 371.419H476.627C476.679 371.419 476.732 371.48 476.784 371.602C476.836 371.725 476.863 371.847 476.863 371.969C476.863 372.162 476.836 372.345 476.784 372.52C476.732 372.695 476.67 372.782 476.6 372.782H474.057C473.62 372.782 473.332 372.826 473.192 372.913C473.07 373.001 473.009 373.202 473.009 373.516V378.603C473.009 379.337 473.157 379.905 473.454 380.307C473.751 380.692 474.171 380.884 474.713 380.884C475.22 380.884 475.604 380.841 475.866 380.753C476.129 380.666 476.365 380.561 476.574 380.439C476.627 380.404 476.67 380.386 476.705 380.386C476.793 380.386 476.845 380.43 476.863 380.517C476.898 380.605 476.915 380.701 476.915 380.806C476.915 380.91 476.758 381.094 476.443 381.356C476.129 381.618 475.718 381.863 475.211 382.09C474.704 382.335 474.162 382.457 473.585 382.457Z" fill="#333332"/>
<path d="M483.128 382.772C483.093 382.772 483.049 382.746 482.997 382.693C482.944 382.658 482.9 382.606 482.865 382.536L479.169 373.438C479.046 373.071 478.863 372.773 478.618 372.546C478.373 372.302 478.111 372.135 477.832 372.048C477.674 371.996 477.535 371.934 477.412 371.865C477.307 371.777 477.255 371.672 477.255 371.55C477.255 371.428 477.325 371.358 477.465 371.34C477.604 371.305 477.718 371.288 477.805 371.288C478.103 371.288 478.356 371.296 478.566 371.314C478.793 371.331 479.011 371.358 479.221 371.393C479.448 371.41 479.693 371.419 479.955 371.419C480.235 371.419 480.497 371.41 480.742 371.393C481.004 371.358 481.257 371.331 481.502 371.314C481.747 371.296 482.018 371.288 482.315 371.288C482.402 371.288 482.516 371.305 482.656 371.34C482.796 371.375 482.865 371.445 482.865 371.55C482.865 371.69 482.796 371.795 482.656 371.865C482.533 371.917 482.402 371.978 482.262 372.048C482.088 372.1 481.948 372.223 481.843 372.415C481.756 372.59 481.712 372.808 481.712 373.071C481.712 373.333 481.764 373.595 481.869 373.857L483.731 378.708C483.748 378.76 483.783 378.787 483.835 378.787C483.888 378.787 483.923 378.76 483.94 378.708L485.723 374.513C485.793 374.32 485.837 374.137 485.854 373.962C485.889 373.77 485.907 373.586 485.907 373.411C485.907 373.097 485.776 372.826 485.513 372.599C485.251 372.354 484.972 372.17 484.674 372.048C484.517 371.996 484.377 371.934 484.255 371.865C484.15 371.795 484.098 371.69 484.098 371.55C484.098 371.445 484.168 371.375 484.307 371.34C484.447 371.305 484.578 371.288 484.701 371.288C485.015 371.288 485.339 371.314 485.671 371.366C486.003 371.401 486.37 371.419 486.772 371.419C487.261 371.419 487.689 371.401 488.056 371.366C488.424 371.314 488.782 371.288 489.131 371.288C489.236 371.288 489.35 371.305 489.472 371.34C489.612 371.375 489.682 371.454 489.682 371.576C489.682 371.698 489.612 371.795 489.472 371.865C489.35 371.934 489.219 371.996 489.079 372.048C488.887 372.118 488.703 372.214 488.528 372.336C488.371 372.459 488.292 372.669 488.292 372.966C488.292 373.106 488.301 373.254 488.319 373.411C488.354 373.551 488.406 373.7 488.476 373.857L490.311 378.577C490.364 378.717 490.416 378.787 490.469 378.787C490.521 378.787 490.573 378.725 490.626 378.603L492.435 374.277C492.505 374.119 492.548 373.945 492.566 373.752C492.601 373.543 492.618 373.368 492.618 373.228C492.618 372.931 492.522 372.686 492.33 372.494C492.155 372.284 491.963 372.144 491.753 372.074C491.613 372.022 491.474 371.961 491.334 371.891C491.211 371.821 491.15 371.716 491.15 371.576C491.15 371.471 491.22 371.401 491.36 371.366C491.5 371.331 491.613 371.314 491.701 371.314C492.138 371.314 492.461 371.331 492.671 371.366C492.898 371.401 493.213 371.419 493.615 371.419C493.894 371.419 494.104 371.41 494.244 371.393C494.384 371.375 494.515 371.358 494.637 371.34C494.777 371.323 494.969 371.314 495.214 371.314C495.319 371.314 495.432 371.331 495.555 371.366C495.695 371.384 495.764 371.454 495.764 371.576C495.764 371.698 495.703 371.803 495.581 371.891C495.476 371.961 495.354 372.022 495.214 372.074C494.917 372.162 494.646 372.363 494.401 372.677C494.156 372.992 493.947 373.35 493.772 373.752L490.154 382.536C490.084 382.676 489.979 382.746 489.839 382.746C489.734 382.746 489.638 382.676 489.551 382.536L486.641 375.509C486.606 375.404 486.562 375.352 486.51 375.352C486.457 375.352 486.414 375.413 486.379 375.535L483.442 382.536C483.372 382.693 483.267 382.772 483.128 382.772Z" fill="#333332"/>
<path d="M500.681 382.484C499.737 382.484 498.898 382.248 498.164 381.776C497.447 381.286 496.879 380.613 496.46 379.757C496.04 378.883 495.831 377.878 495.831 376.741C495.831 375.71 496.067 374.766 496.538 373.91C497.028 373.053 497.675 372.371 498.479 371.865C499.283 371.34 500.165 371.078 501.127 371.078C501.843 371.078 502.481 371.226 503.04 371.524C503.617 371.803 504.063 372.205 504.378 372.73C504.71 373.237 504.876 373.822 504.876 374.487C504.876 375.063 504.605 375.352 504.063 375.352H498.636C498.391 375.352 498.216 375.422 498.112 375.562C498.007 375.701 497.954 375.955 497.954 376.322C497.954 377.091 498.129 377.799 498.479 378.446C498.828 379.075 499.291 379.582 499.868 379.967C500.445 380.351 501.083 380.543 501.782 380.543C502.306 380.543 502.778 380.447 503.198 380.255C503.635 380.045 504.037 379.757 504.404 379.39C504.456 379.32 504.5 379.267 504.535 379.232C504.587 379.197 504.64 379.18 504.692 379.18C504.849 379.18 504.928 379.276 504.928 379.468C504.928 379.748 504.806 380.08 504.561 380.465C504.316 380.832 504.002 381.173 503.617 381.487C503.25 381.784 502.813 382.02 502.306 382.195C501.817 382.388 501.275 382.484 500.681 382.484ZM498.662 374.46H500.76C501.214 374.46 501.572 374.452 501.834 374.434C502.097 374.417 502.341 374.382 502.569 374.329C502.656 374.294 502.717 374.224 502.752 374.119C502.787 373.997 502.804 373.849 502.804 373.674C502.804 373.184 502.603 372.773 502.201 372.441C501.799 372.092 501.319 371.917 500.76 371.917C500.375 371.917 499.99 372.031 499.606 372.258C499.239 372.485 498.933 372.773 498.688 373.123C498.444 373.455 498.33 373.796 498.347 374.146C498.347 374.355 498.452 374.46 498.662 374.46Z" fill="#333332"/>
<path d="M506.826 382.169C506.669 382.169 506.538 382.143 506.433 382.09C506.345 382.038 506.302 381.959 506.302 381.854C506.302 381.715 506.354 381.618 506.459 381.566C506.581 381.496 506.73 381.435 506.905 381.382C507.272 381.295 507.525 381.173 507.665 381.015C507.822 380.858 507.901 380.648 507.901 380.386V374.618C507.901 374.181 507.84 373.814 507.717 373.516C507.595 373.202 507.333 373.001 506.931 372.913C506.861 372.896 506.791 372.852 506.721 372.782C506.669 372.712 506.642 372.625 506.642 372.52C506.642 372.328 506.73 372.205 506.905 372.153C507.394 372.013 507.918 371.821 508.478 371.576C509.037 371.314 509.491 371.087 509.841 370.894C509.946 370.824 510.042 370.772 510.129 370.737C510.217 370.702 510.278 370.685 510.313 370.685C510.435 370.685 510.496 370.755 510.496 370.894C510.496 370.964 510.488 371.113 510.47 371.34C510.47 371.567 510.461 371.821 510.444 372.1C510.427 372.38 510.418 372.651 510.418 372.913C510.418 372.983 510.435 373.018 510.47 373.018C510.75 372.669 511.056 372.345 511.388 372.048C511.737 371.751 512.104 371.515 512.489 371.34C512.874 371.148 513.241 371.052 513.59 371.052C514.045 371.052 514.394 371.148 514.639 371.34C514.884 371.515 515.006 371.751 515.006 372.048C515.006 372.24 514.945 372.468 514.822 372.73C514.717 372.974 514.569 373.193 514.377 373.385C514.202 373.56 514.01 373.647 513.8 373.647C513.678 373.647 513.546 373.621 513.407 373.569C513.267 373.499 513.118 373.429 512.961 373.359C512.821 373.289 512.673 373.228 512.515 373.176C512.375 373.106 512.236 373.071 512.096 373.071C511.659 373.071 511.257 373.228 510.89 373.543C510.523 373.857 510.339 374.469 510.339 375.378V380.307C510.339 380.587 510.453 380.806 510.68 380.963C510.907 381.12 511.248 381.269 511.702 381.409C511.895 381.461 512.043 381.522 512.148 381.592C512.253 381.645 512.305 381.732 512.305 381.854C512.305 382.064 512.139 382.169 511.807 382.169C511.283 382.169 510.829 382.143 510.444 382.09C510.077 382.055 509.666 382.038 509.212 382.038C508.915 382.038 508.652 382.047 508.425 382.064C508.198 382.082 507.962 382.099 507.717 382.117C507.473 382.152 507.176 382.169 506.826 382.169Z" fill="#333332"/>
<path d="M516.141 389.353C516.036 389.353 515.914 389.327 515.774 389.275C515.652 389.24 515.591 389.17 515.591 389.065C515.591 388.925 515.652 388.82 515.774 388.75C515.897 388.68 516.036 388.619 516.194 388.567C516.491 388.479 516.744 388.374 516.954 388.252C517.164 388.13 517.269 387.903 517.269 387.57V374.539C517.269 374.382 517.225 374.172 517.137 373.91C517.068 373.647 516.945 373.403 516.77 373.176C516.596 372.948 516.377 372.817 516.115 372.782C516.028 372.747 515.958 372.704 515.905 372.651C515.87 372.581 515.853 372.494 515.853 372.389C515.853 372.284 515.87 372.205 515.905 372.153C515.958 372.083 516.019 372.039 516.089 372.022C516.718 371.865 517.312 371.69 517.872 371.497C518.431 371.305 518.929 371.104 519.366 370.894C519.418 370.894 519.453 370.886 519.471 370.868C519.506 370.833 519.541 370.816 519.576 370.816C519.628 370.816 519.672 370.851 519.707 370.921C519.742 370.973 519.759 371.025 519.759 371.078C519.759 371.235 519.733 371.48 519.681 371.812C519.646 372.144 519.628 372.424 519.628 372.651C519.628 372.791 519.637 372.87 519.654 372.887C519.829 372.712 520.144 372.494 520.598 372.232C521.053 371.952 521.577 371.698 522.171 371.471C522.766 371.244 523.334 371.13 523.875 371.13C524.784 371.13 525.562 371.375 526.209 371.865C526.855 372.354 527.354 372.983 527.703 373.752C528.053 374.521 528.227 375.317 528.227 376.138C528.227 376.942 528.07 377.72 527.756 378.472C527.458 379.224 527.03 379.905 526.471 380.517C525.929 381.111 525.3 381.592 524.583 381.959C523.867 382.309 523.089 382.484 522.25 382.484C522.023 382.484 521.752 382.449 521.437 382.379C521.123 382.326 520.808 382.239 520.493 382.117C520.196 382.012 519.96 381.889 519.785 381.75C519.768 381.75 519.75 381.828 519.733 381.985C519.716 382.125 519.698 382.274 519.681 382.431C519.681 382.606 519.681 382.728 519.681 382.798V387.492C519.681 387.719 519.759 387.903 519.917 388.042C520.074 388.182 520.257 388.287 520.467 388.357C520.694 388.444 520.922 388.523 521.149 388.593C521.306 388.645 521.446 388.698 521.568 388.75C521.691 388.82 521.752 388.925 521.752 389.065C521.752 389.17 521.691 389.24 521.568 389.275C521.446 389.327 521.324 389.353 521.201 389.353C520.694 389.353 520.231 389.327 519.812 389.275C519.392 389.24 518.955 389.222 518.501 389.222C518.204 389.222 517.941 389.231 517.714 389.248C517.487 389.266 517.251 389.283 517.006 389.301C516.779 389.336 516.491 389.353 516.141 389.353ZM522.486 381.54C522.731 381.54 523.019 381.47 523.351 381.33C523.683 381.173 524.015 380.919 524.347 380.57C524.697 380.22 524.985 379.757 525.212 379.18C525.44 378.603 525.553 377.886 525.553 377.03C525.553 376.034 525.431 375.238 525.186 374.644C524.959 374.05 524.671 373.604 524.321 373.307C523.972 372.992 523.613 372.782 523.246 372.677C522.897 372.572 522.599 372.52 522.355 372.52C521.97 372.52 521.568 372.607 521.149 372.782C520.747 372.94 520.406 373.123 520.126 373.333C519.864 373.543 519.733 373.709 519.733 373.831C519.733 374.146 519.724 374.504 519.707 374.906C519.707 375.291 519.698 375.693 519.681 376.112C519.681 376.514 519.681 376.881 519.681 377.213C519.681 377.546 519.681 377.782 519.681 377.921C519.681 378.516 519.812 379.093 520.074 379.652C520.353 380.211 520.703 380.666 521.123 381.015C521.559 381.365 522.014 381.54 522.486 381.54Z" fill="#333332"/>
</g>
<defs>
<clipPath id="clip0_519_2">
<rect width="805" height="751" fill="white"/>
</clipPath>
</defs>
</svg>
