<svg width="805" height="751" viewBox="0 0 805 751" fill="none" xmlns="http://www.w3.org/2000/svg">
<g clip-path="url(#clip0_566_3181)">
<path d="M506.309 722.943C508.655 719.44 511.321 716.042 514.095 712.724C517.614 707.514 512.175 703.327 514.095 698.431C517.721 691.111 534.36 685.418 535 683.083C537.24 673.694 543.427 667.727 561.132 660.101C570.732 655.986 576.811 647.443 585.984 640.622C568.812 642.176 579.264 621.836 593.343 631.49C608.596 641.878 615.423 624.799 630.142 623.229C622.462 630.001 661.287 624.799 668.433 625.081C682.299 625.644 693.285 625.958 696.271 619.307C685.605 622.295 683.473 614.838 693.072 612.342C697.019 611.327 700.964 612.422 706.937 614.21C717.07 617.197 729.365 619.061 731.498 619.641C743.296 622.848 758.668 622.593 768.267 628.97C780.96 637.353 762.082 651.01 759.949 660.335C784.481 658.007 786.401 671.399 806.453 674.33C815.092 675.594 818.506 663.266 827.892 665.287C838.985 667.646 829.491 676.995 828.958 681.287C827.892 684.621 837.918 695.041 827.892 695.242C820.852 695.403 815.305 685.781 808.586 690.258C806.132 691.868 797.813 701.338 803.68 703.351C813.919 706.902 807.839 709.6 806.239 717.145C796.213 714.117 795.786 705.968 783.2 707.869C770.827 709.721 769.548 711.694 759.415 704.39C758.348 703.665 747.469 689.557 745.976 701.097C744.589 711.678 744.908 714.254 734.669 722.25C721.763 732.445 733.39 756.345 712.804 733.524C708.111 728.443 702.671 725.955 696.378 722.363C686.672 716.888 690.512 706.484 681.019 701.483C675.58 706.653 669.073 711.879 660.326 713.666C669.926 722.097 648.808 736.93 636.968 736.101C614.57 734.539 596.01 745.249 578.944 731.64C575.869 728.049 567.869 723.549 568.369 713.549C567.869 701.549 558.466 701.153 546.52 702.063C526.468 703.601 529.88 722.484 505.988 722.943" stroke="#333332" stroke-width="1.6"/>
<path d="M552.849 794.612C561.048 790.618 591.257 785.81 590.57 772.759C588.51 764.517 581.226 761.724 575.167 756.716C571.873 754.132 568.047 751.15 565.177 748.273C574.211 744.36 583.245 735.722 577.718 731.039C587.869 738.549 597.369 739.566 608.369 738.049C622.869 736.049 626.928 735.577 639.257 736.282C647.441 736.768 657.326 729.24 661.046 724.444C664.022 720.765 664.448 717.5 661.046 714.097C669.762 712.298 676.245 707.04 681.665 701.838C691.124 706.31 687.405 712.152 692.613 718.488C697.502 724.533 705.047 726.153 711.85 731.169C714.507 733.105 715.144 738.891 725.135 743.574C728.324 745.081 726.943 728.56 734.064 723.512C742.035 717.775 744.692 714.048 745.649 704.738C747.456 688.866 754.364 700.128 758.934 703.888C766.799 710.183 769.563 711.123 779.448 708.555C795.391 704.39 795.39 713.327 806.443 717.589C807.506 712.25 812.927 706.853 803.999 703.758C796.028 700.987 806.656 690.081 811.758 689.303C816.753 688.493 822.28 694.213 827.063 695.194C837.373 697.357 828.125 684.49 828.763 681.897C830.782 676.858 831.739 675.196 832.802 672.863C839.498 673.349 856.291 677.287 860.118 678.794C870.321 682.756 877.229 672.563 883.181 668.496C891.046 663.075 903.482 664.614 913.154 665.044C928.671 665.773 943.658 656.844 958.75 659.242C941.957 666.883 975.968 686.791 985.322 689.068C1013.59 695.906 1033.47 689.068 1061.74 695.258C1060.57 703.418 1049.09 709.008 1043.67 714.089C1049.94 716.819 1056.32 719.866 1063.55 721.089C1057.38 726.567 1048.03 734.467 1061.31 737.424C1053.45 745.227 1066.2 748.152 1070.46 748.8C1080.55 750.332 1083.42 763.02 1068.12 760.76C1078.74 743.931 1049.84 753.378 1044.42 754.926C1042.08 743.315 1023.58 753.888 1018.16 756.465C1012.32 759.293 1006.15 761.91 999.882 764.292C995.737 765.872 960.769 774.493 982.452 765.994C976.606 766.909 968.847 766.318 964.064 769.502C960.557 771.763 962.257 781.089 955.668 780.003C955.668 782.701 968.634 796.565 969.909 796.832C989.253 800.9 977.03 822.396 965.658 812.673C943.444 842.539 993.185 870.914 1020.08 883.967C1033.25 890.36 1054.51 894.857 1063.65 904.88C1077.15 919.473 1084.27 938.668 1092.14 955.318C1102.23 976.693 1139.01 998.562 1165.26 1007.75C1184.71 1014.56 1195.02 1016.65 1216.6 1014.45C1224.67 1013.63 1260.28 1009.64 1255.92 1023.73C1253.8 1030.45 1228.61 1036.71 1237.75 1044.93C1247.74 1053.81 1274.2 1058.85 1287.7 1062.53C1309.28 1068.41 1328.73 1074.22 1346.69 1085.19C1365.18 1096.38 1387.82 1099.7 1405.78 1112.05C1417.79 1120.36 1433.95 1129.06 1430.87 1142.9C1429.8 1146.04 1429.38 1160.19 1423.21 1160.66C1414.71 1161.31 1404.3 1157.48 1399.83 1151.89C1390.05 1139.68 1390.69 1125.55 1366.57 1127.41C1347.11 1128.9 1343.18 1119.23 1340.52 1113.7C1320.01 1116.33 1315.44 1116.18 1302.58 1130.7C1294.61 1139.7 1288.76 1151 1285.89 1161.65C1282.49 1173.86 1302.9 1176.83 1313.95 1180.71C1331.7 1186.92 1334.89 1196.59 1336.7 1210.27C1339.57 1233.36 1287.17 1216.76 1292.17 1244.64C1294.5 1258.27 1289.72 1259.34 1278.24 1268.6C1268.57 1276.45 1261.13 1286.12 1249.65 1292.56C1238.81 1298.61 1229.67 1295.2 1224.25 1286.38C1215.96 1272.95 1241.57 1266.72 1242.85 1254.5C1242.85 1250.35 1240.62 1245.35 1244.34 1241.65C1250.61 1235.46 1262.94 1240.08 1266.34 1232.12C1269.21 1225.18 1257.73 1217.31 1255.5 1210.98C1252.1 1201.13 1250.93 1192.48 1243.91 1183.49C1235.62 1172.71 1234.35 1156.56 1223.29 1147.45C1216.6 1142.03 1212.03 1143.32 1205.76 1147.29C1198.32 1152.03 1190.56 1142.41 1185.67 1139.41C1180.14 1136.02 1171.11 1136.91 1169.41 1130.1C1168.02 1124.48 1172.81 1122.81 1169.41 1115.9C1160.9 1101 1138.9 1100.65 1122.85 1108.45C1131.04 1098.9 1128.49 1089.93 1111.48 1091.24C1098.83 1092.2 1091.61 1077.95 1087.04 1071.29C1078.96 1059.45 1069.29 1066.34 1056 1063.36C1048.88 1061.77 1042.29 1059.23 1034.64 1060.61C1018.69 1063.5 1029 1061.9 1017.95 1055.05C1007 1048.27 993.293 1046.41 982.452 1038.92C970.335 1030.62 963.32 1018.33 950.141 1011.32C938.662 1005.23 934.198 1006.78 926.546 997.265C918.681 987.332 898.168 975.664 882.65 983.021C891.578 971.621 855.122 942.192 841.624 943.651C843.218 943.489 821.748 897.004 820.898 893.982C813.564 866.62 789.12 869.674 763.292 856.426C736.615 842.725 702.603 835.279 680.283 857.391C672.312 865.242 665.722 874.301 653.818 879.179C649.567 880.913 611.198 890.206 613.855 882.703C615.768 877.193 644.466 852.926 610.242 862.139C589.835 867.649 551.36 843.082 576.656 827.136C585.796 821.415 584.096 816.683 573.361 812.543C555.612 805.713 550.511 795.325 552.849 794.612Z" stroke="#333332" stroke-width="1.6"/>
<path d="M767.154 647.5C774.709 637.484 773.129 638.518 769.512 629.473C781 632.5 824.183 627.95 810.458 645.975C827.056 645.57 829.276 633.344 833 624C840.022 628.814 855.039 629.268 863.87 628.629C856.635 631.453 876.639 636.267 879.086 635.644C884.299 637.529 892.066 632.1 899.301 630.239C913.771 623.573 938.03 618.711 954.522 622.812C954.522 620.636 954.522 618.355 953.245 616.259C961.438 617.068 974.737 622.246 982.93 619.301C999.954 613.136 998.039 627.537 1008.57 630.555C1017.08 633.03 1020.6 617.206 1013.25 616.437C1003.68 615.434 1009.53 607.117 1008.36 603.371C1006.87 598.331 1001.02 596.883 998.252 592.393C991.23 580.921 1030.17 576.981 1037.94 572.984C1044.64 569.529 1039.43 554.53 1051.98 558.13C1068.79 562.984 1059.01 549.7 1062.94 538.115C1074.96 540.526 1089.12 555.064 1102.73 556.415C1127.53 551.674 1129.76 556.172 1132.21 556.819C1132.21 551.189 1136.36 545.679 1143.7 543.867C1153.28 541.513 1152.1 536.424 1152.85 527.112C1168.7 526.06 1187.75 531.659 1202.64 535.421C1207.64 533.406 1231.9 547.839 1249.99 544.563C1264.14 542.006 1291.49 540.89 1293.61 553.624C1293.61 555.177 1293.61 561.261 1295.74 566.722C1297.66 572.725 1295.74 581.325 1300.32 585.734C1305.96 591.762 1313.83 592.838 1313.09 596.697C1312.02 600.564 1303.19 607.141 1299.36 614.714C1292.23 628.953 1283.51 610.822 1266.06 616.138C1258.5 618.443 1293.62 623.994 1272.76 632.051C1256.48 638.362 1260.74 655.036 1265.53 664.575C1253.82 662.689 1223.82 676.111 1233.39 687.875C1216.69 679.857 1208.92 689.04 1193.17 690.132C1181.79 690.941 1173.92 686.831 1163.17 688.482C1155.08 689.736 1137.53 702.623 1131.14 705.164C1119.12 709.929 1088.16 699.072 1076.14 697.753C1045.17 694.339 1017.94 697.268 986.122 689.663C976.44 687.357 939.839 667.762 958.352 659.324C947.819 657.649 939.201 663.482 929.199 664.566C914.623 666.16 902.174 664.647 887.491 667.819C878.766 669.696 871.744 681.702 862.7 679.696C853.55 677.665 845.757 675.239 836.5 673.5C832 673 834.5 665 827.5 665.643C822.5 664.5 817.693 669.089 814.182 672.39C807.691 678.433 789.285 669.85 784.178 665.643C778.539 661.08 770.346 660.4 767.154 660.359C770.24 655.028 771.091 652.722 767.154 648.483" stroke="#333332" stroke-width="1.6"/>
<path d="M690.516 123.847C683.288 126.083 683.06 134.572 684.548 139.264C684.548 140.433 692.207 134.589 693.158 131.915C696.802 129.914 696.036 125.823 690.516 123.847ZM700.08 130.377C697.848 130.377 697.765 130.702 695.64 131.196C693.738 132.836 703.375 131.439 706.564 131.196C704.438 130.548 702.419 130.385 700.08 130.377ZM718.68 131.196C711.984 130.71 714.323 130.677 707.627 131.196C712.091 132.914 716.874 143.447 719.425 146.712C721.657 149.589 732.073 155.187 729.097 158.963C724.102 165.178 710.071 161.734 704.438 169.578C711.878 171.992 719.318 170.931 726.864 169.578C709.859 175.541 728.246 179.633 731.222 186.731C723.995 186.488 721.338 189.907 726.864 194.08C733.029 198.625 741.85 197.215 749.397 198.974C757.368 200.845 761.407 205.715 766.508 210.415C772.673 216.046 780.857 216.718 787.978 221.029C769.485 219.497 764.595 207.789 750.459 201.429C741.212 197.264 730.372 202.158 720.487 201.429C708.902 200.554 697.637 197.694 695.83 209.596C694.767 214.344 700.187 218.08 700.08 222.658C698.38 226.069 697.743 229.691 696.893 233.28C695.83 227.381 698.061 221.734 689.452 218.582C679.249 214.887 675.635 222.196 681.906 227.56C676.273 228.637 671.49 227.722 666.92 225.113C692.109 212.148 623.874 210.107 616.541 211.225C608.144 212.505 593.902 222.795 594.115 230.015C594.115 236.002 620.927 234.898 618.667 237.364C609.495 247.374 597.556 270.033 597.241 274.84C596.476 286.527 581.998 277.479 572.645 282.276C557.978 289.755 585.293 293.255 588.907 297.898C599.429 311.194 563.08 315.164 574.452 325.082C585.4 334.773 536.32 332.534 529.624 329.909C533.556 339.086 524.708 330.564 519.464 334.169C517.826 335.48 516.515 337.775 516.843 341.052C526.621 343.613 538.634 361.146 533.214 368.998C528.431 376.031 509.725 386.338 518.759 395.947C523.648 401.092 519.164 408.975 520.12 410.863C522.99 416.624 541.422 417.746 532.246 424.957C541.75 425.284 544.699 435.445 544.044 437.411C512.91 437.739 508.769 455.963 538.954 467.177C560.104 475.069 538.685 491.47 546.338 498.373C548.304 499.356 567.126 517.695 572.228 517.055C579.561 516.131 573.184 513.347 584.025 514.433C589.765 515 584.734 521.597 594.512 519.677C598.232 518.948 604.319 519.406 608.145 519.163C621.749 515.565 622.936 521.907 635.477 524.921C646.85 527.635 660.057 528.666 671.854 530.165C662.289 536.607 654.379 542.393 646.514 550.147C637.692 559.027 634.609 572.543 628.657 582.379C624.725 588.958 608.725 636.83 630.939 622.545C623.286 629.343 662.987 624.18 670.109 624.464C683.926 625.031 693.129 626.014 696.105 619.314C679.525 624.021 686.381 606.344 705.937 613.742C720.029 619.641 758.044 622.263 768.204 628.491C776.813 632.315 823.583 629.155 811.573 644.882C828.153 644.477 829.323 633.004 832.936 623.645C840.057 628.466 856.213 628.369 865.141 627.729C857.382 630.63 877.258 635.005 881.19 635.078C890.331 635.24 896.07 629.204 904.785 628.548C921.472 627.267 937.628 617.406 956.121 622.009C956.121 619.829 956.12 617.577 955.057 615.478C963.667 616.288 972.064 619.562 980.779 619.562C985.03 618.46 989.281 617.763 993.639 617.115C998.422 617.52 1000.44 624.601 1004.37 626.911C1016.28 633.887 1016.17 630.346 1019.36 622.009C1022.55 613.695 1008.94 616.904 1009.69 609.766C1010.75 601.055 1011.07 601.428 1002.25 594.241C995.553 588.829 1000.12 584.631 1007.56 581.998C1033.9 571.835 1037.73 579.432 1042.32 565.407C1045.39 549.628 1054.58 563.654 1061.47 557.81C1061.47 544.369 1069.13 537.357 1044.62 529.76C1031.23 523.658 1020.42 512.729 1006.5 506.863C989.07 499.482 985.562 482.685 968.981 475.822C982.054 467.898 975.996 461.383 963.667 456.222C954.102 452.228 951.976 445 947.618 439.077C954.527 438.267 959.947 440.414 962.605 448.055C965.262 426.542 1001.5 434.92 1016.17 426.008C1039.45 411.779 1078.35 403.928 1106.09 395.793C1103.64 393.994 1101.2 392.593 1098.65 390.891C1109.28 388.979 1111.25 387.756 1120.44 396.521C1146.69 414.053 1157.85 376.979 1146.69 366.348C1145.2 359.737 1131.38 359.405 1130.64 354.138C1129.58 346.983 1130.64 344.528 1123.31 338.621C1118.52 334.667 1125.65 331.483 1127.56 327.723C1138.61 306.13 1110.34 300.329 1117.78 293.847C1132.66 280.85 1090.84 277.839 1085.21 265.62C1080.7 260.118 1116.61 244.583 1102.06 229.973C1095.17 223.053 1095.14 211.5 1082.6 207.951C1074.84 205.772 1062.19 204.176 1061.13 196.519C1061.13 192.532 1058.26 180.184 1050.4 180.184C1045.72 180.184 1036.05 180.184 1038.6 184.268C1030.1 180.451 1011.5 163.598 1003.31 163.039C986.093 161.864 980.166 154.458 960.853 167.898C980.932 155.626 983.832 160.415 992.866 161.558C975.329 156.567 970.21 162.302 959.416 168.751C953.145 172.381 939.646 176.424 943.26 184.268C944.961 171.028 910.525 182.825 902.553 186.723C918.177 180.929 900.853 190.644 898.302 196.519C891.925 191.965 854.725 185.637 862.909 196.519C861.421 192.33 857.595 190.069 852.281 189.17C862.591 181.067 871.943 175.679 874.707 163.849C860.677 165.98 852.28 170.283 838.357 165.486C829.642 162.496 815.824 158.445 811.573 167.933C810.404 163.719 810.192 163.476 813.699 159.765C806.578 157.343 798.182 157.578 791.167 159.765C796.481 157.853 808.704 145.634 795.419 145.886C816.676 138.537 744.688 134.672 747.557 135.879C741.18 133.197 728.027 132.17 721.012 131.619L718.68 131.196Z" stroke="#333332" stroke-width="1.6"/>
<path d="M673.583 20.2814C674.646 18.3368 675.603 16.4003 676.665 14.4476C681.129 18.1909 694.414 24.2436 701.217 20.8648C704.086 30.6771 712.696 27.1119 714.821 20.0222C719.923 2.93385 751.49 10.6232 734.803 16.7892C741.711 17.2754 752.233 15.8008 751.702 23.7818C754.146 16.4409 754.253 13.0783 744.05 13.8642C744.05 7.88456 741.393 -1.01216 748.408 -5.53339C752.978 -7.7697 757.974 -8.66093 763.394 -8.21529C772.003 -7.81016 776.892 -10.6299 784.438 -10.6299C793.579 -10.6299 799.318 -10.3057 807.927 -7.7048C818.449 -4.51239 815.261 5.46188 820.575 11.5226C809.841 10.7934 799.744 13.2565 789.965 16.1896C799.85 16.3516 806.757 10.5664 816.961 13.8885C822.913 15.8574 810.903 24.5514 810.584 27.8573C813.241 16.8864 851.504 22.6554 859.05 27.2091C865.428 31.0983 852.673 46.1772 846.189 46.161C839.599 46.161 836.836 45.6748 834.285 51.7598C826.314 50.3824 824.826 46.2502 830.459 41.8343C815.792 38.1314 816.43 47.5708 815.792 55.4627C814.729 68.2161 801.976 65.7368 789.965 68.0946C794.429 68.4187 803.251 72.1945 798.043 76.6428C791.56 82.266 778.061 77.4856 769.984 78.5956C775.617 80.1351 781.25 81.6907 786.883 83.2626C773.491 93.6825 767.539 87.6705 776.573 103.268C782.1 112.715 759.674 112.448 760.099 121.766C770.621 120.867 783.376 125.688 780.719 135.192C772.96 134.787 773.809 128.823 766.476 133.166C758.61 137.825 750.002 136.513 741.499 134.487C729.808 131.7 700.792 133.58 707.275 118.266C701.111 120.04 696.328 117.423 694.309 113.023C730.127 113.023 686.443 90.4253 684.318 86.1795C682.617 98.9573 673.796 86.7468 672.946 81.0588C671.883 73.888 674.009 66.4499 671.883 59.352C672.946 64.7078 685.487 74.3823 689.525 65.1859C691.439 60.8267 669.332 42.2475 672.627 57.6018C666.143 47.976 669.331 30.1746 673.689 20.2571" stroke="#333332" stroke-width="1.6"/>
<path d="M777.637 121.806C782.951 124.464 788.052 138.773 798.362 133.466C809.097 127.964 785.183 118.468 777.637 121.806Z" stroke="#333332" stroke-width="1.6"/>
<path d="M708.019 14.4476C718.754 12.5516 725.876 4.0196 723.325 -4.2207C719.286 -2.01681 714.822 -0.412537 709.933 0.575976C705.15 1.67792 706.319 8.18429 700.367 9.7805C702.705 11.5631 705.256 13.1188 708.019 14.4476Z" stroke="#333332" stroke-width="1.6"/>
<path d="M778.484 90.8554C778.484 100.676 795.702 106.866 798.36 116.524C798.36 108.025 805.693 112.262 807.606 117.351C809.201 121.572 832.371 122.099 836.198 121.572C856.179 118.85 859.154 97.2322 838.11 93.7724C840.661 92.6542 843.213 91.4955 845.764 90.272C843.957 87.8169 841.725 85.686 838.961 83.8467C838.961 89.6886 834.179 95.2227 825.888 94.3557C840.981 81.5617 784.649 90.58 778.484 90.8554Z" stroke="#333332" stroke-width="1.6"/>
<path d="M691.971 14.4482C676.454 7.03434 689.739 -6.01893 699.943 -11.6988C714.291 -19.6718 737.993 -15.6043 754.573 -16.8683C769.453 -17.9945 777.106 -29.97 785.609 -37.6674C795.068 -46.24 822.915 -51.9361 837.37 -55.5498C820.151 -43.874 840.451 -35.9822 831.523 -22.6292C821.533 -7.86631 810.905 -7.21806 791.242 -11.796C781.889 -13.9918 773.492 -12.4442 764.033 -10.532C753.511 -8.4334 745.008 -11.7069 734.911 -10.2079C725.983 -8.86289 713.548 -6.82102 707.383 -1.24646C703.345 2.34298 699.836 13.5326 691.971 13.2733C698.561 12.4306 702.281 15.2018 701.218 20.274C697.923 18.5157 694.841 16.5711 691.971 14.432" stroke="#333332" stroke-width="1.6"/>
<path d="M-277.558 459.602C-268.205 461.223 -254.812 447.311 -247.585 442.935C-234.405 434.881 -208.473 441.566 -199.545 429.266C-199.545 436.81 -179.776 444.11 -171.698 444.588C-156.5 445.487 -146.614 422.646 -146.72 414.09C-141.938 420.896 -125.251 414.09 -119.193 412.381C-103.038 408.046 -86.563 413.693 -74.7653 422.266C-73.7025 414.73 -63.7127 417.007 -57.123 417.923C-49.8956 418.927 -29.276 414.066 -48.7261 411.181C-39.9044 411.181 15.7885 410.938 0.164659 399.514C9.51772 406.765 21.3156 401.094 32.3693 403.022C35.239 403.427 36.5142 404.667 36.1954 406.684C36.1954 410.144 54.6887 406.36 54.5824 406.36C70.844 404.788 86.3615 404.221 102.304 407.81C115.696 410.825 134.509 402.981 147.688 400.348C159.273 398.023 161.825 395.106 169.583 389.669C177.98 383.819 194.24 385.115 199.236 376.3C204.763 366.52 144.925 365.167 138.654 364.51C142.905 363.643 147.051 362.469 150.983 361.002C143.225 359.633 135.04 358.182 128.026 362.177C134.934 356.562 144.287 358.798 153.002 357.518C167.563 355.355 167.032 344.133 151.94 342.925C157.573 343.817 161.187 340.227 165.651 338.566C174.472 335.268 181.168 342.001 190.947 335.333C188.502 331.33 184.463 328.997 178.724 328.332C184.782 327.465 199.448 328.17 183.293 323.673C205.613 328.778 208.802 317.775 218.261 305.661C230.697 289.959 228.464 274.783 204.55 265.756C190.733 260.522 159.061 253.214 145.456 262.167C140.674 265.238 139.079 271.89 132.808 273.494C123.242 275.933 117.503 264.217 107.512 265.91C119.947 251.609 145.563 250.718 124.093 229.822C106.344 212.523 86.7872 213.535 61.704 211.064C78.3907 205.562 107.938 210.335 121.33 218.656C118.247 210.513 84.1302 188.182 108.363 183.061C92.633 179.999 89.6571 167.958 79.2412 160.31C69.463 153.163 54.4758 153.39 42.253 151.931C21.7401 149.485 16.1074 112.237 14.832 100.156C12.7063 80.0536 -20.3476 62.6331 -45.6434 59.1004C-52.2331 58.1767 -57.867 51.1355 -65.0944 56.0781C-69.6646 59.2705 -74.0216 60.8019 -80.2924 60.729C-96.7665 60.567 -119.618 61.2961 -131.947 51.2165C-106.332 65.7363 -88.9015 45.3746 -63.0743 45.3746C-48.407 45.3746 -53.6159 36.7292 -61.3747 32.0864C-72.322 25.5233 -83.375 35.9513 -95.2789 34.8736C-65.094 30.3929 -40.436 19.6814 -20.9859 1.42632C-12.2706 -6.78158 -9.61324 -16.4804 -2.1733 -24.8828C2.92837 -30.7247 17.0636 -34.5248 13.1311 -43.1622C5.90373 -58.7515 -34.4838 -52.7961 -51.2768 -51.3701C-68.7075 -49.8873 -85.5012 -55.1215 -102.507 -51.2889C-116.749 -48.0236 -133.01 -41.2418 -147.252 -39.2566C-145.127 -44.7988 -136.73 -45.2931 -134.286 -50.9243C-142.682 -51.4915 -150.228 -48.4855 -157.987 -46.8407C-148.74 -54.0844 -125.464 -49.0527 -121.213 -60.2504C-132.267 -62.2193 -145.445 -60.2505 -154.905 -66.0924C-136.73 -60.7933 -140.237 -64.2775 -128.333 -70.3544C-118.555 -75.3699 -106.758 -77.4846 -96.767 -82.3138C-92.7282 -84.2989 -40.7552 -110.146 -67.8579 -114.303C-84.332 -116.839 -104.845 -110.778 -121 -108.388C-129.928 -107.051 -139.494 -105.374 -148.634 -105.941C-150.972 -106.103 -154.055 -106.427 -155.543 -107.91C-158.094 -110.332 -168.828 -104.207 -172.548 -102.837C-164.364 -112.982 -171.485 -105.981 -177.437 -108.696C-179.775 -109.781 -183.814 -113.711 -187.109 -113.128C-193.805 -111.945 -191.255 -97.0928 -200.82 -93.5034C-197.844 -92.288 -191.679 -90.627 -191.679 -88.253C-214.849 -96.3555 -207.835 -77.0875 -219.207 -74.2516C-213.362 -72.4042 -208.579 -68.823 -206.241 -64.326C-213.681 -62.114 -240.357 -69.6899 -238.338 -57.9169C-240.676 -68.7338 -257.895 -50.3978 -239.402 -41.5741C-244.503 -42.0602 -249.604 -42.3032 -254.706 -42.1412C-255.875 -30.8462 -243.653 -30.7896 -232.493 -31.6403C-238.126 -30.2872 -243.227 -28.1481 -247.797 -25.223C-240.995 -27.1514 -233.449 -26.0657 -229.41 -21.1312C-239.401 -29.9468 -252.793 -12.9801 -230.473 -14.1388C-232.811 -13.4905 -269.48 -12.2752 -244.184 -5.38797C-255.131 -12.8504 -267.461 1.11841 -252.581 3.36282C-258.745 2.71462 -262.358 5.0724 -262.571 9.77999C-270.861 6.76584 -281.597 7.53565 -288.612 12.1136C-276.495 14.2689 -259.701 8.08666 -248.86 13.8638C-257.469 10.8496 -263.102 18.628 -271.818 15.6138C-264.59 39.6461 -225.478 10.5012 -212.83 5.11301C-217.826 9.33444 -220.801 16.019 -208.26 12.1136C-214.424 13.0616 -246.522 24.2026 -225.797 22.6145C-228.348 24.5348 -231.005 26.4875 -233.556 28.4483C-228.029 28.6914 -222.714 28.2863 -217.4 27.2816C-220.589 28.5861 -235.043 29.0398 -235.893 29.9149C-238.551 32.3943 -242.484 34.509 -245.991 36.2025C-250.03 38.1876 -247.159 43.8432 -247.691 46.9951C-247.691 50.4063 -269.161 72.6722 -251.093 56.4508C-260.127 61.2476 -258.533 79.3892 -245.779 71.0355C-259.808 77.0638 -260.233 88.699 -269.373 97.5308C-275.857 103.713 -255.663 108.291 -253.643 95.9427C-252.156 87.1028 -236.745 76.8611 -240.677 68.4345C-246.204 56.4508 -222.609 49.118 -212.83 44.7912C-219.314 49.118 -236.531 55.6973 -234.724 64.0105C-233.449 67.9403 -230.473 68.9206 -225.797 66.9517C-223.246 70.7032 -219.951 74.0172 -215.912 76.8774C-214.105 71.9105 -217.931 66.9599 -223.564 64.6264C-217.506 58.4198 -214.318 62.5197 -212.83 67.5351C-202.096 60.2671 -209.536 46.3469 -196.781 48.2834C-202.096 51.6784 -202.839 55.5676 -199.013 59.9511C-200.607 48.9235 -191.785 60.5994 -182.964 63.4515C-188.916 63.2084 -202.626 59.3192 -205.177 66.02C-210.066 78.8382 -198.8 78.6113 -193.486 87.67C-184.558 103.105 -230.154 112.091 -221.226 130.541C-222.289 129.236 -232.28 122.179 -233.662 126.19C-236.319 133.879 -219.95 144.396 -214.317 149.209C-220.269 135.783 -213.256 133.125 -196.781 138.822C-183.177 143.529 -180.519 143.189 -179.988 130.549C-164.045 142.541 -154.161 137.736 -136.305 133.79C-130.778 132.566 -122.169 131.205 -123.338 125.298C-111.115 126.441 -98.7869 125.784 -86.5641 126.465C-100.275 133.433 -116.855 134.341 -124.826 146.892C-129.822 154.832 -120.362 181.392 -104.951 174.894C-107.183 179.278 -106.12 183.167 -101.868 186.554C-98.5736 183.256 -95.8098 179.764 -93.4716 176.061C-91.2396 183.24 -83.1626 179.691 -78.1672 177.228C-83.1626 182.429 -83.0564 189.066 -88.9021 194.729C-92.1969 198.019 -105.801 211.453 -87.3075 209.314C-105.907 216.387 -100.061 240.638 -77.4225 234.983C-87.7321 240.736 -119.087 218.745 -103.357 242.567C-124.507 228.809 -154.692 243.053 -177.65 242.567C-169.147 234.618 -203.04 225.021 -209.842 229.388C-223.553 238.22 -194.018 252.76 -180.732 243.742C-193.168 254.413 -210.917 260.652 -222.821 271.744C-207.303 272.668 -193.167 259.299 -177.65 265.327C-181.476 270.196 -177.65 274.985 -172.229 277.578C-181.369 280.803 -178.925 289.764 -168.403 288.662C-177.012 289.602 -177.65 295.882 -180.945 300.719C-185.303 307.063 -196.25 310.855 -204.54 313.205C-223.034 318.423 -249.711 321.996 -261.828 333.583C-255.238 335.592 -252.794 339.773 -258.002 344.084C-249.711 345.413 -241.42 344.651 -235.787 339.417C-239.72 345.04 -247.797 346.831 -255.662 346.417C-245.246 356.465 -213.468 345.032 -202.839 339.417C-202.839 347.868 -190.616 348.168 -182.964 346.417C-186.152 350.007 -190.51 350.979 -196.037 349.334C-193.911 359.471 -184.027 354.528 -176.161 351.725C-164.045 347.422 -157.349 361.626 -146.827 365.151C-127.483 371.568 -124.295 358.263 -108.564 356.521C-91.3463 354.617 -79.6549 347.787 -65.9442 339.992C-79.0172 351.984 -97.5115 360.273 -111.86 371.495C-115.58 374.42 -110.053 377.944 -118.024 378.722C-126.952 379.597 -136.093 380.019 -145.021 378.641C-157.669 376.648 -178.925 373.302 -191.042 378.884C-198.375 382.223 -198.801 388.842 -206.241 392.237C-216.444 396.904 -218.464 385.302 -222.077 399.133C-223.565 404.691 -241.527 425.725 -250.774 424.121C-256.513 423.132 -258.001 423.311 -260.127 428.172C-263.634 435.91 -277.983 439.427 -286.911 442.222C-294.138 444.45 -302.003 446.873 -308.168 450.616C-310.612 452.156 -307.104 457.496 -304.659 457.042C-295.094 455.446 -283.403 449.134 -278.62 459.635" stroke="#333332" stroke-width="1.6"/>
<path d="M5.58369 420.467C12.1733 419.981 17.9128 416.991 21.6328 412.875C9.09119 407.568 1.97063 409.253 -9.7207 414.625C-4.30018 416.027 0.800872 417.972 5.58369 420.467Z" stroke="#333332" stroke-width="1.6"/>
<path d="M274.98 387.241C293.912 379.738 316.234 372.075 336.974 367.886C322.645 375.971 350.441 375.745 358.418 377.236C366.076 379.573 370.119 381.105 377.564 379.573C386.817 377.677 396.545 363.704 399.736 374.755C399.84 375.115 397.503 369.74 396.653 367.164C403.672 368.338 412.181 368.047 411.223 360.755C416.754 363.963 425.9 365.892 430.367 360.188C434.089 367.18 447.491 364.919 452.49 360.188C458.339 376.611 489.927 376.562 508.433 382.347C498.542 391.179 484.783 404.702 505.774 408.599C511.837 410.883 515.665 409.79 519.813 409.166C516.728 415.048 542.901 417.012 532.266 425.155C543.082 424.778 544.55 437.501 543.753 437.427C539.955 437.072 529.095 438.482 521.544 443.271C518.459 445.207 515.027 446.987 508.114 455.284C502.264 462.301 497.585 465.744 499.074 471.877C500.882 478.116 513.586 485.497 499.334 492.943C495.765 492.943 484.658 491.611 477.89 492.359C476.72 490.851 471.421 484.298 465.465 481.633C457.978 475.996 446.49 473.658 439.598 472.49C432.705 470.152 434.94 453.38 434.515 448.867C427.389 451.006 425.369 455.527 420.37 459.27C411.117 466.149 396.546 463.111 385.485 461.701C387.825 454.579 392.079 443.365 384.315 439.541C375.062 434.988 360.31 434.819 353.823 438.011C354.993 427.025 346.93 428.077 335.285 426.594C322.948 422.616 329.45 420.294 319.359 414.052C315.53 410.545 294.086 411.13 288.725 409.377C271.111 404.702 287.194 390.677 275.706 386.954" stroke="#333332" stroke-width="1.6"/>
<path d="M-253.853 593.165C-244.394 589.745 -233.021 587.606 -222.499 589.081C-218.885 576.814 -240.249 585.248 -244.713 576.83C-234.935 574.342 -223.455 575.258 -213.252 575.655C-221.223 574.61 -232.064 576.773 -226.325 569.238C-232.489 568.995 -253.428 577.98 -255.979 570.113C-259.38 559.377 -237.91 552.895 -227.706 551.355C-213.996 549.281 -201.029 548.438 -187.106 548.73C-167.443 549.135 -154.796 534.551 -132.901 536.568C-135.452 541.956 -109.199 560.77 -101.866 558.51C-96.8702 556.679 -92.194 554.588 -87.6237 552.255C-77.633 548.033 -78.2703 553.486 -69.9801 554.702C-61.7962 555.901 -55.4186 550.958 -54.8872 561.078C-49.573 558.267 -57.4389 554.904 -53.0812 550.326C-48.5109 545.651 -46.1725 552.749 -42.2399 553.543C-32.8869 555.423 -20.77 553.543 -11.3107 552.328C-31.3985 547.847 -24.0653 526.246 -22.3647 514.991C-21.3019 509.514 -32.4623 504.02 -36.1823 500.196C-42.5594 493.608 -36.1812 483.594 -45.7469 478.23C-38.8384 479.153 -32.4623 481.746 -25.5538 482.84C-18.0076 484.039 -8.75992 478.392 -2.06398 480.936C8.24565 484.89 -4.61507 496.768 9.62709 503.007C13.7722 504.806 21.212 501.606 25.4634 501.573C37.8987 501.492 49.8032 504.693 61.9197 506.443C73.7173 508.152 84.0263 507.893 94.5485 503.283C104.114 499.11 116.975 499.264 125.691 494.573C118.782 496.647 107.091 497.7 100.395 494.816C86.8966 488.893 118.143 474.324 123.245 472.55C139.719 466.927 158.425 467.599 175.112 462.495C184.784 459.537 197.751 442.619 209.761 447.351C199.239 442.173 205.723 406.319 214.438 399.602C223.047 393.007 266.943 381.08 278.315 388.332C284.055 392.027 272.788 406.239 289.581 409.407C306.905 412.672 302.867 409.731 315.196 412.51C326.675 415.143 323.06 421.876 331.882 425.15C343.467 429.42 355.159 424.34 353.671 438.001C360.579 434.606 372.589 435.392 379.817 437.352C393.634 440.95 387.788 453.874 385.024 461.376C394.271 462.551 404.688 464.731 413.829 461.943C422.863 459.18 424.989 451.297 434.023 448.542C435.086 452.885 432.428 472.307 440.187 472.518C451.559 472.842 474.516 484.274 478.024 492.596C476.961 490.197 521.282 495.658 523.514 495.804C534.355 496.533 542.327 494.816 550.936 501.598C557.632 506.945 562.308 515.348 572.511 517.381C574.743 516.571 575.488 516.621 576.869 515.049C580.369 513.049 584.869 514.549 585.869 515.049C587.889 515.616 586.869 516.549 587.817 518.102C586.754 521.279 596.775 518.943 598.369 519.049C609.317 519.778 615.663 515.291 625.76 521.133C636.495 527.356 658.602 528.506 671.993 530.216C655.626 541.276 640.427 553.413 635.113 569.845C632.562 577.835 625.103 584.818 623.403 592.872C621.799 600.469 620.339 601.053 619.573 608.065C616.51 620.922 622.711 624.657 620.073 626.523C613.908 630.802 606.964 635.7 601.065 634.717C593.413 634.231 591.237 625.597 581.281 630.272C574.691 633.1 576.018 641.845 587.072 640.492C578.782 647.184 570.935 654.298 561.369 660.075C557.54 661.828 550.647 664.166 544.52 668.841C539.95 672.001 536.096 676.438 535.33 682.866C528.74 689.137 514.652 691.047 513.886 700.982C513.886 703.903 515.418 706.241 515.418 710.332C513.12 715.007 510.823 716.76 506.228 723.188C519.247 722.019 521.326 719.097 528.437 711.5C539.925 699.228 552.53 701.261 561.458 703.165C572.087 705.458 564.858 718.779 572.511 725.269C586.009 736.548 577.72 740.777 565.603 748.418C572.087 755.362 595.787 767.39 589.197 777.567C583.704 787.87 552.017 794.259 552.123 795.426C552.123 803.48 572.724 810.694 579.739 815.288C589.942 821.932 565.603 833.77 569.11 842.553C573.362 853.216 600.146 865.306 614.282 860.987C632.031 855.566 629.374 863.45 622.678 872.468C606.523 894.191 575.594 905.146 547.96 919.35C549.767 921.327 551.574 923.271 553.381 925.183C543.071 926.31 534.461 930.345 524.789 932.921C514.48 935.701 507.783 931.325 498.005 931.917C483.125 932.808 473.986 923.36 456.236 924.6C463.357 910.574 432.854 921.326 432.535 913.175C434.448 910.647 437.53 909.983 441.675 911.182C441.675 906.588 437.742 903.995 431.684 904.182C436.785 910.129 432.747 911.004 425.413 911.271C413.828 911.676 412.659 911.19 409.47 900.681C413.616 921.61 406.601 908.265 388.852 908.265C378.542 908.265 370.145 903.323 360.154 902.95C347.931 902.464 334.434 913.07 323.486 916.878C314.984 919.852 285.011 928.311 286.924 937.135C286.924 940.027 285.543 942.717 283.523 945.205C278.74 948.446 279.165 951.33 284.692 953.858C288.944 964.003 286.18 969.083 293.939 978.863C286.605 980.459 280.228 977.656 273.001 977.988C265.561 978.312 261.734 982.89 255.038 984.283C238.883 987.646 228.999 974.885 213.482 983.473C212.419 984.041 190.949 976.408 188.61 975.087C182.552 971.66 196.37 972.097 186.698 967.163C181.065 964.303 170.967 963.047 166.184 967.73C163.952 957.286 148.753 961.653 140.569 956.694C129.197 949.847 105.921 945.456 109.535 961.904C96.7809 960.502 82.4323 958.056 69.5719 959.854C62.4508 960.851 57.6673 962.39 51.6091 958.209C40.768 950.804 41.6186 953.85 30.6713 953.737C19.7239 953.656 -32.7805 927.322 -38.2011 937.985C-48.1918 934.858 -41.0704 929.348 -40.4326 924.041C-39.3698 917.729 -63.8158 920.606 -68.8111 915.817C-38.4137 907.236 -35.8629 875.118 -30.3361 854.229C-28.1041 846.029 -26.1912 833.106 -17.2633 827.256C-4.19026 818.732 -21.7275 817.533 -22.8967 827.175C-24.7035 807.437 -19.4943 783.251 -8.33444 765.336C2.40032 769.946 13.1346 775.416 17.7048 784.588C18.7677 788.671 19.7247 792.755 20.7875 796.839C23.2321 802.032 30.0341 802.746 29.9278 809.09C33.0101 800.931 22.1682 794.651 21.1054 786.921C19.6174 775.043 14.091 766.997 0.273972 761.22C-5.46541 758.805 -11.9485 755.508 -16.7313 751.967C-24.5964 746.198 -4.08393 749.074 0.0611725 751.967C-9.61074 748.394 -10.1414 717.174 -4.50833 711.13C-17.1562 717.896 -47.0228 704.583 -52.8684 695.613C-58.0764 687.681 -69.8734 683.557 -72.2117 674.296C-74.3374 665.845 -54.0376 656.591 -79.546 655.716C-76.57 653.018 -75.9315 648.116 -72.1053 646.058C-62.3271 640.889 -53.3992 649.583 -44.2587 650.466C-60.5203 642.29 -66.8985 645.005 -83.904 646.69C-92.4068 647.541 -108.987 637.939 -93.2572 636.465C-97.6148 633.167 -95.808 631.028 -87.9429 630.047C-99.9531 627.763 -117.17 635.249 -126.949 627.131C-121.528 627.131 -116.427 626.101 -111.644 624.214C-121.21 619.32 -138.959 621.305 -141.51 631.214C-141.51 624.732 -151.288 618.671 -142.572 613.137C-146.292 620.235 -162.98 619.773 -152.564 610.804C-173.714 624.821 -202.198 592.905 -223.668 610.237C-232.277 601.186 -239.398 595.628 -254.171 593.286" stroke="#333332" stroke-width="1.6"/>
<path d="M368.231 342.276C365.681 342.438 363.236 342.681 360.686 342.843C368.763 345.412 378.435 354.106 387.363 347.51C382.155 343.978 375.267 342.172 368.231 342.26" stroke="#333332" stroke-width="1.6"/>
<path d="M371.316 339.36C384.071 335.673 391.935 352.178 404.264 345.194C394.699 341.734 381.626 330.536 371.316 339.36Z" stroke="#333332" stroke-width="1.6"/>
<path d="M333.146 371.623C334.422 360.806 384.458 369.639 393.649 370.808C383.693 376.067 379.097 384.833 359.185 377.236C349.229 376.067 333.146 377.236 333.146 371.623Z" stroke="#333332" stroke-width="1.6"/>
<path d="M434.419 266.49C423.259 290.101 409.898 309.956 385.878 327.919C376.631 334.871 399.801 340.486 405.221 341.799C418.082 344.918 434.131 337.026 438.382 344.254C421.802 341.823 404.159 353.702 388.11 348.338C402.458 355.314 385.772 350.161 379.501 353.232C385.453 356.424 396.719 354.836 397.676 362.217C385.878 365.037 379.076 356.149 370.892 351.603C360.795 351.603 348.147 349.107 341.982 357.315C349.741 365.118 364.196 363.522 375.25 363.036C384.284 362.631 413.405 374.428 411.598 360.589C417.231 363.805 425.31 365.491 429.88 359.77C433.6 366.763 447.417 364.502 452.306 359.77C458.152 376.194 489.506 376.024 507.999 381.817C495.458 392.91 483.234 409.277 515.545 409.585C529.468 409.747 514.176 392.63 516.514 389.559C517.155 379.732 539.682 372.847 533.556 359.406C531.005 353.102 525.77 343.394 516.842 341.052C516.842 324.573 535.194 341.708 529.623 329.909C535.894 332.331 574.848 334.169 575.831 327.942C577.142 325.648 568.387 322.692 573.865 318.109C575.831 316.143 578.524 314.498 581.075 313.193C610.897 294.184 562.723 293.856 569.113 284.635C576.815 276.813 590.579 284.023 595.495 279.435C599.099 275.174 593.856 276.157 606.637 254.525C610.888 241.164 580.804 225 563.799 226.653C537.015 229.246 493.977 233.447 485.947 262.272C481.911 276.086 501.834 284.473 504.81 285.454C513.738 288.427 509.912 292.948 504.81 296.068C499.815 299.123 494.927 302.866 489.825 305.864C482.279 310.361 470.162 301.529 461.978 301.78C464.529 297.624 495.583 291.95 483.165 275.85C461.802 260.969 437.607 259.57 434.419 266.49Z" stroke="#333332" stroke-width="1.6"/>
</g>
<defs>
<clipPath id="clip0_566_3181">
<rect width="805" height="751" fill="white"/>
</clipPath>
</defs>
</svg>
