<svg width="807" height="751" viewBox="0 0 807 751" fill="none" xmlns="http://www.w3.org/2000/svg">
<g clip-path="url(#clip0_573_1552)">
<path d="M894.283 -7.69922C881.874 -3.80816 881.482 10.963 884.037 19.1257C884.037 21.1593 897.187 10.9914 898.82 6.33887C905.076 2.85715 903.762 -4.26036 894.283 -7.69922ZM910.706 3.66378C906.873 3.66378 906.731 4.22789 903.081 5.08787C899.817 7.94108 916.363 5.51081 921.837 5.08787C918.188 3.96003 914.72 3.67788 910.706 3.66378ZM942.642 5.08787C931.145 4.24199 935.161 4.1856 923.664 5.08787C931.329 8.07665 939.541 26.404 943.921 32.0855C947.753 37.0903 965.638 46.8319 960.528 53.4016C951.951 64.2148 927.861 58.2233 918.189 71.8702C930.963 76.0714 943.737 74.2246 956.694 71.8702C927.495 82.2463 959.067 89.3657 964.177 101.716C951.768 101.293 947.205 107.242 956.694 114.502C967.279 122.411 982.426 119.958 995.383 123.018C1009.07 126.274 1016 134.747 1024.76 142.924C1035.35 152.722 1049.4 153.892 1061.63 161.393C1029.87 158.728 1021.48 138.356 997.207 127.29C981.33 120.043 962.717 128.558 945.745 127.29C925.853 125.767 906.51 120.79 903.408 141.5C901.583 149.762 910.888 156.261 910.706 164.226C907.786 170.162 906.692 176.463 905.232 182.709C903.407 172.445 907.238 162.619 892.456 157.135C874.937 150.706 868.733 163.423 879.5 172.756C869.828 174.631 861.615 173.037 853.768 168.498C897.019 145.941 779.858 142.388 767.266 144.334C752.849 146.562 728.395 164.466 728.76 177.027C728.76 187.446 774.797 185.523 770.917 189.814C755.169 207.231 734.67 246.656 734.129 255.02C732.814 275.356 707.956 259.613 691.896 267.96C666.712 280.972 713.614 287.062 719.818 295.14C737.885 318.275 675.473 325.183 695 342.439C713.796 359.3 629.525 355.405 618.028 350.837C624.781 366.805 609.588 351.978 600.584 358.251C597.771 360.532 595.52 364.524 596.083 370.226C612.872 374.681 633.499 405.19 624.192 418.85C615.98 431.088 583.861 449.021 599.373 465.741C607.768 474.693 600.068 488.409 601.71 491.694C606.638 501.718 638.286 503.67 622.53 516.216C638.849 516.786 643.913 534.464 642.787 537.886C589.331 538.456 582.219 570.165 634.047 589.676C670.364 603.408 633.587 631.945 646.726 643.956C650.103 645.667 682.42 677.576 691.18 676.462C703.772 674.855 692.823 670.011 711.437 671.9C721.292 672.887 712.654 684.365 729.443 681.024C735.831 679.755 746.281 680.552 752.851 680.129C776.21 673.87 778.247 684.904 799.781 690.148C819.308 694.871 841.984 696.665 862.241 699.273C845.816 710.481 832.235 720.548 818.731 734.04C803.584 749.491 798.29 773.007 788.071 790.122C781.318 801.57 753.847 884.863 791.988 860.009C778.849 871.837 847.016 862.854 859.244 863.347C882.968 864.334 898.771 866.045 903.881 854.386C875.412 862.577 887.183 831.82 920.762 844.692C944.957 854.957 1010.23 859.519 1027.67 870.354C1042.46 877.008 1122.76 871.51 1102.14 898.874C1130.61 898.169 1132.62 878.206 1138.82 861.923C1151.05 870.312 1178.79 870.142 1194.12 869.029C1180.8 874.076 1214.92 881.689 1221.67 881.816C1237.37 882.098 1247.22 871.595 1262.19 870.453C1290.84 868.225 1318.58 851.068 1350.33 859.075C1350.33 855.283 1350.33 851.364 1348.51 847.712C1363.29 849.122 1377.71 854.818 1392.67 854.818C1399.97 852.901 1407.27 851.688 1414.75 850.56C1422.96 851.265 1426.43 863.587 1433.18 867.604C1453.62 879.743 1453.44 873.582 1458.92 859.075C1464.39 844.611 1441.03 850.194 1442.31 837.773C1444.13 822.618 1444.68 823.267 1429.54 810.762C1418.04 801.344 1425.89 794.041 1438.66 789.459C1483.88 771.776 1490.46 784.994 1498.35 760.591C1503.61 733.138 1519.39 757.541 1531.22 747.373C1531.22 723.987 1544.37 711.785 1502.29 698.567C1479.3 687.951 1460.74 668.935 1436.84 658.729C1406.91 645.885 1400.88 616.66 1372.41 604.719C1394.86 590.931 1384.46 579.596 1363.29 570.616C1346.87 563.666 1343.22 551.09 1335.73 540.785C1347.6 539.375 1356.9 543.111 1361.47 556.405C1366.03 518.975 1428.26 533.552 1453.44 518.044C1493.41 493.288 1560.2 479.627 1607.83 465.473C1603.63 462.343 1599.44 459.904 1595.06 456.943C1613.3 453.616 1616.69 451.488 1632.47 466.74C1677.54 497.243 1696.7 432.737 1677.54 414.24C1674.99 402.736 1651.26 402.159 1649.99 392.995C1648.16 380.546 1649.99 376.275 1637.4 365.997C1629.18 359.117 1641.41 353.577 1644.7 347.035C1663.67 309.464 1615.13 299.37 1627.91 288.091C1653.45 265.478 1581.66 260.239 1571.98 238.979C1564.24 229.406 1625.9 202.375 1600.91 176.955C1589.08 164.915 1589.03 144.813 1567.5 138.638C1554.18 134.846 1532.46 132.069 1530.64 118.746C1530.64 111.81 1525.71 90.3244 1512.21 90.3244C1504.18 90.3244 1487.57 90.3243 1491.95 97.4297C1477.35 90.7896 1445.41 61.4658 1431.36 60.493C1401.8 58.4488 1391.62 45.5622 1358.46 68.9483C1392.93 47.5958 1397.91 55.9281 1413.43 57.9159C1383.31 49.2315 1374.52 59.2116 1355.99 70.4321C1345.22 76.748 1322.05 83.7829 1328.25 97.4297C1331.17 74.3936 1272.04 94.9204 1258.36 101.702C1285.18 91.6215 1255.44 108.525 1251.06 118.746C1240.11 110.823 1176.23 99.8124 1190.29 118.746C1187.73 111.457 1181.16 107.524 1172.04 105.959C1189.74 91.8612 1205.8 82.486 1210.54 61.9029C1186.45 65.6107 1172.04 73.0967 1148.13 64.7506C1133.17 59.5485 1109.44 52.4995 1102.14 69.0083C1100.13 61.6773 1099.77 61.2542 1105.79 54.7973C1093.57 50.582 1079.15 50.9908 1067.1 54.7973C1076.23 51.4702 1097.22 30.2104 1074.4 30.6474C1110.9 17.8605 987.297 11.1365 992.225 13.2371C981.275 8.57062 958.69 6.78221 946.646 5.82355L942.642 5.08787Z" stroke="#333332" stroke-width="1.6"/>
<path d="M-767.916 576.497C-751.856 579.316 -728.861 555.11 -716.452 547.497C-693.822 533.484 -649.296 545.114 -633.966 523.714C-633.966 536.839 -600.023 549.541 -586.153 550.373C-560.057 551.938 -543.083 512.196 -543.266 497.308C-535.053 509.151 -506.403 497.308 -496 494.334C-468.261 486.791 -439.974 496.618 -419.717 511.533C-417.892 498.422 -400.74 502.383 -389.425 503.977C-377.015 505.725 -341.611 497.266 -375.007 492.247C-359.86 492.247 -264.234 491.824 -291.061 471.946C-275.001 484.564 -254.744 474.695 -235.765 478.05C-230.838 478.755 -228.648 480.912 -229.195 484.423C-229.195 490.443 -197.442 483.859 -197.624 483.859C-169.703 481.124 -143.059 480.137 -115.685 486.382C-92.691 491.626 -60.3893 477.98 -37.7601 473.398C-17.8684 469.352 -13.4875 464.277 -0.165443 454.817C14.2515 444.638 42.1714 446.894 50.7486 431.555C60.2383 414.539 -42.5046 412.184 -53.2717 411.042C-45.9719 409.534 -38.854 407.49 -32.1018 404.938C-45.4238 402.555 -59.4764 400.032 -71.5209 406.982C-59.6589 397.212 -43.5999 401.103 -28.6354 398.876C-3.63386 395.112 -4.54595 375.586 -30.46 373.485C-20.7878 375.036 -14.5824 368.791 -6.91764 365.9C8.2293 360.163 19.7265 371.878 36.5159 360.275C32.3185 353.311 25.3833 349.251 15.5287 348.095C25.9308 346.586 51.1136 347.813 23.3747 339.988C61.6982 348.87 67.1738 329.725 83.4157 308.648C104.767 281.326 100.934 254.921 59.8733 239.216C36.1492 230.108 -18.2327 217.392 -41.5918 232.97C-49.804 238.313 -52.5425 249.888 -63.3096 252.679C-79.734 256.923 -89.5888 236.537 -106.743 239.483C-85.3914 214.6 -41.4095 213.05 -78.2731 176.691C-108.75 146.592 -142.328 148.354 -185.397 144.054C-156.745 134.481 -106.012 142.785 -83.0181 157.264C-88.3104 143.095 -146.89 104.241 -105.282 95.3311C-132.291 90.0021 -137.4 69.0524 -155.285 55.7439C-172.074 43.3094 -197.808 43.7042 -218.794 41.1666C-254.015 36.909 -263.687 -27.8996 -265.877 -48.9198C-269.527 -83.897 -326.281 -114.208 -369.714 -120.354C-381.029 -121.962 -390.702 -134.213 -403.112 -125.613C-410.959 -120.058 -418.44 -117.394 -429.207 -117.521C-457.494 -117.803 -496.73 -116.534 -517.899 -134.072C-473.918 -108.808 -443.989 -144.237 -399.643 -144.237C-374.459 -144.237 -383.403 -159.279 -396.725 -167.357C-415.522 -178.777 -434.5 -160.633 -454.939 -162.508C-403.111 -170.304 -360.773 -188.941 -327.377 -220.704C-312.412 -234.985 -307.85 -251.861 -295.075 -266.481C-286.316 -276.645 -262.045 -283.257 -268.797 -298.286C-281.207 -325.41 -350.553 -315.048 -379.387 -312.567C-409.316 -309.987 -438.151 -319.094 -467.35 -312.426C-491.804 -306.744 -519.725 -294.944 -544.179 -291.49C-540.529 -301.133 -526.113 -301.993 -521.915 -311.791C-536.332 -312.778 -549.289 -307.548 -562.611 -304.686C-546.734 -317.29 -506.769 -308.535 -499.469 -328.018C-518.448 -331.444 -541.076 -328.018 -557.318 -338.183C-526.112 -328.963 -532.134 -335.025 -511.695 -345.599C-494.905 -354.325 -474.649 -358.005 -457.495 -366.407C-450.56 -369.861 -361.321 -414.834 -407.857 -422.066C-436.143 -426.479 -471.365 -415.934 -499.104 -411.775C-514.433 -409.449 -530.857 -406.53 -546.551 -407.517C-550.566 -407.799 -555.859 -408.363 -558.414 -410.943C-562.794 -415.158 -581.225 -404.5 -587.612 -402.117C-573.56 -419.768 -585.787 -407.588 -596.006 -412.31C-600.021 -414.2 -606.957 -421.037 -612.614 -420.022C-624.111 -417.964 -619.732 -392.122 -636.156 -385.877C-631.046 -383.762 -620.46 -380.872 -620.46 -376.741C-660.243 -390.839 -648.2 -357.314 -667.727 -352.38C-657.69 -349.165 -649.478 -342.934 -645.464 -335.11C-658.238 -331.261 -704.042 -344.443 -700.575 -323.958C-704.59 -342.779 -734.155 -310.875 -702.401 -295.522C-711.161 -296.368 -719.92 -296.791 -728.679 -296.509C-730.687 -276.857 -709.701 -276.758 -690.539 -278.238C-700.211 -275.884 -708.97 -272.162 -716.817 -267.073C-705.137 -270.428 -692.181 -268.539 -685.246 -259.953C-702.4 -275.292 -725.394 -245.771 -687.07 -247.787C-691.085 -246.659 -754.046 -244.544 -710.613 -232.561C-729.41 -245.545 -750.579 -221.24 -725.03 -217.335C-735.615 -218.463 -741.819 -214.36 -742.184 -206.169C-756.418 -211.414 -774.851 -210.074 -786.896 -202.109C-766.092 -198.359 -737.256 -209.116 -718.641 -199.064C-733.423 -204.308 -743.096 -190.774 -758.061 -196.019C-745.651 -154.204 -678.495 -204.914 -656.778 -214.29C-665.355 -206.944 -670.464 -195.314 -648.93 -202.109C-659.515 -200.459 -714.628 -181.075 -679.042 -183.838C-683.422 -180.497 -687.984 -177.099 -692.363 -173.687C-682.874 -173.264 -673.749 -173.969 -664.624 -175.717C-670.099 -173.448 -694.918 -172.658 -696.378 -171.136C-700.94 -166.822 -707.694 -163.142 -713.716 -160.196C-720.651 -156.742 -715.722 -146.901 -716.634 -141.417C-716.634 -135.482 -753.499 -96.7403 -722.475 -124.965C-737.987 -116.618 -735.25 -85.053 -713.351 -99.588C-737.44 -89.0991 -738.169 -68.8545 -753.864 -53.4876C-764.996 -42.7309 -730.322 -34.7654 -726.855 -56.2508C-724.3 -71.6318 -697.839 -89.4517 -704.591 -104.114C-714.081 -124.965 -673.567 -137.723 -656.778 -145.252C-667.91 -137.723 -697.473 -126.276 -694.371 -111.811C-692.181 -104.974 -687.071 -103.268 -679.042 -106.694C-674.662 -100.166 -669.004 -94.4 -662.069 -89.4234C-658.967 -98.0655 -665.536 -106.679 -675.208 -110.74C-664.806 -121.539 -659.333 -114.405 -656.778 -105.678C-638.346 -118.324 -651.121 -142.545 -629.221 -139.175C-638.346 -133.268 -639.623 -126.501 -633.053 -118.874C-635.79 -138.062 -620.643 -117.746 -605.496 -112.784C-615.716 -113.207 -639.257 -119.974 -643.637 -108.315C-652.032 -86.0117 -632.688 -86.4065 -623.563 -70.6449C-608.234 -43.7881 -686.523 -28.1534 -671.194 3.9478C-673.018 1.67802 -690.174 -10.6014 -692.546 -3.6229C-697.108 9.75612 -669.003 28.0554 -659.331 36.4297C-669.551 13.0692 -657.508 8.44509 -629.221 18.356C-605.862 26.5469 -601.299 25.9547 -600.386 3.96176C-573.012 24.8268 -556.04 16.4668 -525.382 9.6011C-515.892 7.4723 -501.111 5.10377 -503.118 -5.17368C-482.131 -3.18586 -460.963 -4.32785 -439.976 -3.14362C-463.518 8.98068 -491.986 10.5599 -505.673 32.3977C-514.25 46.2138 -498.009 92.427 -471.547 81.1204C-475.379 88.7474 -473.554 95.5144 -466.254 101.407C-460.597 95.6695 -455.851 89.5933 -451.836 83.1505C-448.004 95.6413 -434.136 89.4663 -425.558 85.1805C-434.136 94.2315 -433.953 105.778 -443.99 115.632C-449.648 121.356 -473.006 144.731 -441.252 141.009C-473.189 153.316 -463.151 195.512 -424.28 185.671C-441.981 195.681 -495.818 157.419 -468.809 198.867C-505.125 174.929 -556.953 199.713 -596.372 198.867C-581.772 185.037 -639.968 168.338 -651.648 175.937C-675.189 191.304 -624.476 216.602 -601.665 200.911C-623.016 219.478 -653.492 230.334 -673.931 249.634C-647.287 251.241 -623.016 227.979 -596.372 238.468C-602.942 246.941 -596.372 255.273 -587.064 259.785C-602.759 265.396 -598.562 280.988 -580.495 279.071C-595.277 280.706 -596.373 291.632 -602.03 300.049C-609.512 311.087 -628.309 317.685 -642.543 321.774C-674.297 330.853 -720.103 337.07 -740.907 357.23C-729.593 360.727 -725.396 368.001 -734.338 375.501C-720.103 377.813 -705.867 376.488 -696.195 367.381C-702.947 377.165 -716.817 380.281 -730.321 379.562C-712.437 397.043 -657.872 377.151 -639.623 367.381C-639.623 382.085 -618.636 382.607 -605.496 379.562C-610.971 385.807 -618.453 387.499 -627.943 384.637C-624.293 402.273 -607.321 393.674 -593.817 388.796C-573.012 381.31 -561.515 406.023 -543.448 412.156C-510.234 423.322 -504.76 400.173 -477.751 397.142C-448.187 393.829 -428.113 381.944 -404.571 368.382C-427.018 389.247 -458.773 403.669 -483.409 423.195C-489.797 428.284 -480.306 434.417 -493.993 435.77C-509.323 437.293 -525.018 438.026 -540.347 435.629C-562.064 432.161 -598.562 426.339 -619.366 436.052C-631.958 441.861 -632.689 453.379 -645.464 459.286C-662.983 467.406 -666.45 447.218 -672.655 471.283C-675.21 480.954 -706.05 517.553 -721.927 514.761C-731.782 513.041 -734.337 513.351 -737.987 521.81C-744.009 535.274 -768.646 541.393 -783.975 546.256C-796.385 550.133 -809.889 554.349 -820.474 560.862C-824.671 563.541 -818.648 572.831 -814.45 572.042C-798.026 569.265 -777.953 558.282 -769.74 576.553" stroke="#333332" stroke-width="1.6"/>
<path d="M180.801 450.592C213.306 437.538 251.635 424.204 287.245 416.915C262.641 430.983 310.368 430.59 324.064 433.184C337.214 437.251 344.156 439.915 356.939 437.251C372.826 433.952 389.53 409.639 395.009 428.868C395.187 429.494 391.175 420.142 389.714 415.659C401.767 417.703 416.376 417.195 414.733 404.507C424.229 410.09 439.932 413.445 447.602 403.521C453.994 415.687 477.005 411.753 485.588 403.521C495.632 432.096 549.869 432.012 581.644 442.077C564.661 457.444 541.036 480.973 577.079 487.753C587.488 491.729 594.061 489.826 601.183 488.74C595.887 498.975 640.826 502.392 622.565 516.56C641.137 515.904 643.658 538.043 642.29 537.913C635.768 537.295 617.121 539.749 604.155 548.081C598.859 551.45 592.966 554.548 581.096 568.983C571.052 581.192 563.017 587.183 565.574 597.855C568.678 608.71 590.491 621.552 566.021 634.508C559.893 634.508 540.821 632.19 529.201 633.491C527.192 630.869 518.093 619.466 507.866 614.828C495.012 605.021 475.287 600.954 463.452 598.92C451.617 594.853 455.455 565.67 454.725 557.818C442.489 561.54 439.02 569.406 430.437 575.919C414.55 587.888 389.531 582.601 370.539 580.149C374.556 567.757 381.861 548.246 368.53 541.592C352.643 533.669 327.314 533.375 316.174 538.93C318.183 519.813 304.34 521.644 284.345 519.064C263.161 512.142 274.326 508.102 257 497.241C250.425 491.141 213.606 492.157 204.401 489.107C174.157 480.973 201.771 456.57 182.046 450.093" stroke="#333332" stroke-width="1.6"/>
<path d="M-727.219 808.889C-710.977 802.94 -691.449 799.218 -673.382 801.784C-667.177 780.439 -703.86 795.115 -711.525 780.468C-694.735 776.14 -675.025 777.733 -657.505 778.424C-671.192 776.605 -689.806 780.369 -679.952 767.258C-690.536 766.835 -726.488 782.469 -730.868 768.78C-736.708 750.1 -699.843 738.822 -682.324 736.143C-658.782 732.534 -636.519 731.068 -612.613 731.575C-578.851 732.28 -557.135 706.904 -519.541 710.415C-523.921 719.79 -478.845 752.525 -466.253 748.592C-457.675 745.406 -449.646 741.769 -441.799 737.708C-424.645 730.363 -425.739 739.851 -411.505 741.966C-397.453 744.052 -386.502 735.453 -385.59 753.061C-376.465 748.169 -389.971 742.318 -382.489 734.353C-374.642 726.219 -370.626 738.568 -363.874 739.95C-347.815 743.221 -327.01 739.95 -310.768 737.835C-345.259 730.039 -332.668 692.454 -329.748 672.872C-327.923 663.341 -347.086 653.783 -353.473 647.128C-364.423 635.667 -353.471 618.242 -369.896 608.909C-358.034 610.516 -347.086 615.027 -335.224 616.931C-322.267 619.017 -306.388 609.191 -294.891 613.618C-277.189 620.498 -299.272 641.165 -274.817 652.021C-267.7 655.15 -254.926 649.582 -247.626 649.525C-226.274 649.384 -205.834 654.953 -185.03 657.998C-164.773 660.973 -147.072 660.522 -129.005 652.5C-112.581 645.239 -90.4984 645.507 -75.534 637.344C-87.396 640.953 -107.47 642.786 -118.967 637.767C-142.144 627.462 -88.4928 602.114 -79.7331 599.026C-51.4466 589.242 -19.3279 590.412 9.32354 581.531C25.9304 576.385 48.1948 546.948 68.8166 555.181C50.7497 546.172 61.883 483.789 76.8474 472.101C91.6294 460.626 166.999 439.873 186.526 452.491C196.381 458.92 177.035 483.648 205.869 489.16C235.616 494.842 228.681 489.724 249.851 494.56C269.56 499.142 263.354 510.857 278.501 516.553C298.393 523.982 318.468 515.143 315.913 538.912C327.775 533.005 348.396 534.373 360.806 537.784C384.53 544.044 374.493 566.53 369.748 579.585C385.625 581.629 403.511 585.421 419.205 580.572C434.717 575.764 438.367 562.047 453.879 557.254C455.704 564.81 451.141 598.603 464.463 598.97C483.99 599.534 523.407 619.426 529.429 633.905C527.604 629.732 603.705 639.234 607.537 639.487C626.151 640.756 639.84 637.767 654.622 649.567C666.119 658.872 674.147 673.492 691.666 677.03C695.498 675.621 696.777 675.707 699.149 672.972C705.159 669.492 712.885 672.102 714.603 672.972C718.07 673.959 716.32 675.582 717.946 678.285C716.121 683.811 733.328 679.748 736.065 679.932C754.862 681.201 765.759 673.393 783.095 683.558C801.527 694.385 839.486 696.387 862.48 699.362C834.376 718.606 808.28 739.724 799.155 768.315C794.775 782.216 781.968 794.366 779.048 808.379C776.294 821.598 773.788 822.614 772.473 834.816C767.213 857.185 777.86 863.685 773.331 866.932C762.746 874.375 750.823 882.899 740.694 881.188C727.555 880.343 723.819 865.319 706.724 873.454C695.41 878.374 697.688 893.59 716.668 891.236C702.433 902.881 688.959 915.258 672.535 925.31C665.96 928.36 654.125 932.427 643.605 940.562C635.758 946.06 629.141 953.78 627.826 964.964C616.511 975.876 592.321 979.199 591.006 996.485C591.006 1001.57 593.636 1005.64 593.636 1012.75C589.691 1020.89 585.746 1023.94 577.856 1035.12C600.211 1033.09 603.78 1028.01 615.991 1014.79C635.715 993.434 657.359 996.971 672.688 1000.28C690.938 1004.27 678.527 1027.45 691.666 1038.74C714.843 1058.37 700.61 1065.73 679.806 1079.02C690.938 1091.1 731.631 1112.03 720.316 1129.74C710.886 1147.67 656.478 1158.78 656.66 1160.81C656.66 1174.83 692.032 1187.38 704.077 1195.37C721.596 1206.93 679.805 1227.53 685.827 1242.81C693.127 1261.37 739.115 1282.4 763.387 1274.89C793.863 1265.45 789.302 1279.17 777.805 1294.86C750.066 1332.66 696.96 1351.72 649.511 1376.43C652.614 1379.87 655.716 1383.26 658.819 1386.58C641.117 1388.54 626.334 1395.56 609.727 1400.05C592.025 1404.88 580.528 1397.27 563.738 1398.3C538.189 1399.85 522.496 1383.41 492.02 1385.57C504.247 1361.16 451.871 1379.87 451.324 1365.69C454.609 1361.29 459.901 1360.14 467.018 1362.22C467.018 1354.23 460.265 1349.72 449.862 1350.04C458.622 1360.39 451.688 1361.91 439.096 1362.38C419.204 1363.08 417.197 1362.24 411.722 1343.95C418.839 1380.37 406.796 1357.15 376.32 1357.15C358.618 1357.15 344.199 1348.55 327.045 1347.9C306.058 1347.05 282.883 1365.51 264.086 1372.13C249.486 1377.31 198.022 1392.03 201.307 1407.38C201.307 1412.41 198.935 1417.09 195.468 1421.42C187.256 1427.06 187.986 1432.08 197.475 1436.48C204.775 1454.13 200.03 1462.97 213.352 1479.98C200.76 1482.76 189.811 1477.88 177.401 1478.46C164.627 1479.02 158.056 1486.99 146.559 1489.41C118.82 1495.27 101.85 1473.06 75.2056 1488.01C73.3807 1488.99 36.5155 1475.71 32.5006 1473.41C22.0985 1467.45 45.8239 1468.21 29.217 1459.63C19.5449 1454.65 2.20699 1452.46 -6.00521 1460.61C-9.83756 1442.44 -35.9348 1450.04 -49.9867 1441.41C-69.5135 1429.5 -109.478 1421.86 -103.273 1450.48C-125.172 1448.04 -149.809 1443.78 -171.891 1446.91C-184.118 1448.64 -192.331 1451.32 -202.733 1444.05C-221.348 1431.16 -219.887 1436.46 -238.684 1436.27C-257.481 1436.12 -347.632 1390.31 -356.939 1408.86C-374.094 1403.42 -361.866 1393.83 -360.771 1384.6C-358.946 1373.61 -400.92 1378.62 -409.498 1370.29C-357.304 1355.36 -352.925 1299.47 -343.435 1263.13C-339.603 1248.86 -336.318 1226.37 -320.989 1216.19C-298.542 1201.36 -328.654 1199.28 -330.661 1216.05C-333.764 1181.71 -324.82 1139.63 -305.658 1108.46C-287.226 1116.48 -268.795 1126 -260.948 1141.95C-259.123 1149.06 -257.48 1156.17 -255.655 1163.27C-251.457 1172.31 -239.778 1173.55 -239.961 1184.59C-234.668 1170.39 -253.284 1159.46 -255.109 1146.01C-257.664 1125.35 -267.153 1111.35 -290.877 1101.3C-300.732 1097.09 -311.863 1091.36 -320.075 1085.2C-333.58 1075.16 -298.36 1080.16 -291.242 1085.2C-307.849 1078.98 -308.76 1024.66 -299.088 1014.14C-320.805 1025.91 -372.086 1002.75 -382.124 987.145C-391.066 973.343 -411.321 966.167 -415.336 950.053C-418.986 935.348 -384.131 919.248 -427.93 917.726C-422.82 913.031 -421.723 904.502 -415.154 900.921C-398.364 891.927 -383.035 907.053 -367.341 908.59C-395.262 894.365 -406.213 899.089 -435.412 902.021C-450.012 903.501 -478.481 886.795 -451.472 884.229C-458.954 878.491 -455.852 874.769 -442.347 873.063C-462.969 869.088 -492.531 882.114 -509.321 867.988C-500.014 867.988 -491.255 866.198 -483.043 862.913C-499.467 854.398 -529.942 857.852 -534.322 875.094C-534.322 863.815 -551.111 853.27 -536.147 843.641C-542.534 855.991 -571.187 855.187 -553.302 839.581C-589.618 863.97 -638.526 808.438 -675.389 838.594C-690.171 822.846 -702.398 813.175 -727.765 809.101" stroke="#333332" stroke-width="1.6"/>
<path d="M340.913 372.356C336.534 372.638 332.337 373.061 327.957 373.342C341.827 377.812 358.434 392.939 373.763 381.463C364.821 375.316 352.994 372.175 340.913 372.328" stroke="#333332" stroke-width="1.6"/>
<path d="M346.211 367.283C368.11 360.868 381.614 389.586 402.783 377.433C386.359 371.413 363.913 351.93 346.211 367.283Z" stroke="#333332" stroke-width="1.6"/>
<path d="M280.672 423.418C282.862 404.597 368.776 419.966 384.555 421.999C367.461 431.15 359.571 446.402 325.381 433.184C308.286 431.15 280.672 433.184 280.672 423.418Z" stroke="#333332" stroke-width="1.6"/>
<path d="M454.559 240.492C435.397 281.574 412.457 316.12 371.214 347.376C355.337 359.472 395.119 369.242 404.426 371.525C426.508 376.953 454.064 363.222 461.364 375.797C432.895 371.568 402.602 392.235 375.045 382.903C399.682 395.041 371.032 386.074 360.264 391.418C370.484 396.972 389.828 394.209 391.47 407.052C371.213 411.959 359.533 396.493 345.481 388.584C328.145 388.584 306.428 384.242 295.844 398.523C309.166 412.099 333.985 409.322 352.964 408.476C368.476 407.771 418.478 428.298 415.376 404.219C425.048 409.816 438.919 412.748 446.766 402.795C453.153 414.961 476.877 411.028 485.272 402.795C495.309 431.372 549.144 431.076 580.898 441.156C559.364 460.456 538.377 488.934 593.854 489.47C617.761 489.752 591.504 459.969 595.519 454.626C596.618 437.528 635.299 425.547 624.779 402.161C620.399 391.193 611.411 374.3 596.081 370.226C596.081 341.554 627.593 371.367 618.027 350.837C628.794 355.052 695.679 358.25 697.368 347.415C699.618 343.423 684.586 338.281 693.991 330.307C697.368 326.886 701.991 324.023 706.371 321.753C757.576 288.677 674.859 288.107 685.832 272.064C699.056 258.453 722.689 270.999 731.13 263.015C737.319 255.602 728.316 257.312 750.261 219.675C757.561 196.427 705.906 168.302 676.707 171.178C630.719 175.69 556.821 182.999 543.034 233.153C536.105 257.189 570.313 271.782 575.422 273.488C590.752 278.662 584.182 286.528 575.422 291.956C566.845 297.271 558.452 303.784 549.693 309.001C536.736 316.825 515.931 301.458 501.879 301.895C506.259 294.663 559.578 284.792 538.258 256.777C501.577 230.886 460.033 228.453 454.559 240.492Z" stroke="#333332" stroke-width="1.6"/>
</g>
<defs>
<clipPath id="clip0_573_1552">
<rect width="807" height="751" fill="white"/>
</clipPath>
</defs>
</svg>
