<svg width="807" height="751" viewBox="0 0 807 751" fill="none" xmlns="http://www.w3.org/2000/svg">
<g clip-path="url(#clip0_573_1552)">
<path d="M880.283 -7.69922C867.874 -3.80816 867.482 10.963 870.037 19.1257C870.037 21.1593 883.187 10.9914 884.82 6.33887C891.076 2.85715 889.762 -4.26036 880.283 -7.69922ZM896.706 3.66378C892.873 3.66378 892.731 4.22789 889.081 5.08787C885.817 7.94108 902.363 5.51081 907.837 5.08787C904.188 3.96003 900.72 3.67788 896.706 3.66378ZM928.642 5.08787C917.145 4.24199 921.161 4.1856 909.664 5.08787C917.329 8.07665 925.541 26.404 929.921 32.0855C933.753 37.0903 951.638 46.8319 946.528 53.4016C937.951 64.2148 913.861 58.2233 904.189 71.8702C916.963 76.0714 929.737 74.2246 942.694 71.8702C913.495 82.2463 945.067 89.3657 950.177 101.716C937.768 101.293 933.205 107.242 942.694 114.502C953.279 122.411 968.426 119.958 981.383 123.018C995.07 126.274 1002 134.747 1010.76 142.924C1021.35 152.722 1035.4 153.892 1047.63 161.393C1015.87 158.728 1007.48 138.356 983.207 127.29C967.33 120.043 948.717 128.558 931.745 127.29C911.853 125.767 892.51 120.79 889.408 141.5C887.583 149.762 896.888 156.261 896.706 164.226C893.786 170.162 892.692 176.463 891.232 182.709C889.407 172.445 893.238 162.619 878.456 157.135C860.937 150.706 854.733 163.423 865.5 172.756C855.828 174.631 847.615 173.037 839.768 168.498C883.019 145.941 765.858 142.388 753.266 144.334C738.849 146.562 714.395 164.466 714.76 177.027C714.76 187.446 760.797 185.523 756.917 189.814C741.169 207.231 720.67 246.656 720.129 255.02C718.814 275.356 693.956 259.613 677.896 267.96C652.712 280.972 699.614 287.062 705.818 295.14C723.885 318.275 661.473 325.183 681 342.439C699.796 359.3 615.525 355.405 604.028 350.837C610.781 366.805 595.588 351.978 586.584 358.251C583.771 360.532 581.52 364.524 582.083 370.226C598.872 374.681 619.499 405.19 610.192 418.85C601.98 431.088 569.861 449.021 585.373 465.741C593.768 474.693 586.068 488.409 587.71 491.694C592.638 501.718 624.286 503.67 608.53 516.216C624.849 516.786 629.913 534.464 628.787 537.886C575.331 538.456 568.219 570.165 620.047 589.676C656.364 603.408 619.587 631.945 632.726 643.956C636.103 645.667 668.42 677.576 677.18 676.462C689.772 674.855 678.823 670.011 697.437 671.9C707.292 672.887 698.654 684.365 715.443 681.024C721.831 679.755 732.281 680.552 738.851 680.129C762.21 673.87 764.247 684.904 785.781 690.148C805.308 694.871 827.984 696.665 848.241 699.273C831.816 710.481 818.235 720.548 804.731 734.04C789.584 749.491 784.29 773.007 774.071 790.122C767.318 801.57 739.847 884.863 777.988 860.009C764.849 871.837 833.016 862.854 845.244 863.347C868.968 864.334 884.771 866.045 889.881 854.386C861.412 862.577 873.183 831.82 906.762 844.692C930.957 854.957 996.231 859.519 1013.67 870.354C1028.46 877.008 1108.76 871.51 1088.14 898.874C1116.61 898.169 1118.62 878.206 1124.82 861.923C1137.05 870.312 1164.79 870.142 1180.12 869.029C1166.8 874.076 1200.92 881.689 1207.67 881.816C1223.37 882.098 1233.22 871.595 1248.19 870.453C1276.84 868.225 1304.58 851.068 1336.33 859.075C1336.33 855.283 1336.33 851.364 1334.51 847.712C1349.29 849.122 1363.71 854.818 1378.67 854.818C1385.97 852.901 1393.27 851.688 1400.75 850.56C1408.96 851.265 1412.43 863.587 1419.18 867.604C1439.62 879.743 1439.44 873.582 1444.92 859.075C1450.39 844.611 1427.03 850.194 1428.31 837.773C1430.13 822.618 1430.68 823.267 1415.54 810.762C1404.04 801.344 1411.89 794.041 1424.66 789.459C1469.88 771.776 1476.46 784.994 1484.35 760.591C1489.61 733.138 1505.39 757.541 1517.22 747.373C1517.22 723.987 1530.37 711.785 1488.29 698.567C1465.3 687.951 1446.74 668.935 1422.84 658.729C1392.91 645.885 1386.88 616.66 1358.41 604.719C1380.86 590.931 1370.46 579.596 1349.29 570.616C1332.87 563.666 1329.22 551.09 1321.73 540.785C1333.6 539.375 1342.9 543.111 1347.47 556.405C1352.03 518.975 1414.26 533.552 1439.44 518.044C1479.41 493.288 1546.2 479.627 1593.83 465.473C1589.63 462.343 1585.44 459.904 1581.06 456.943C1599.3 453.616 1602.69 451.488 1618.47 466.74C1663.54 497.243 1682.7 432.737 1663.54 414.24C1660.99 402.736 1637.26 402.159 1635.99 392.995C1634.16 380.546 1635.99 376.275 1623.4 365.997C1615.18 359.117 1627.41 353.577 1630.7 347.035C1649.67 309.464 1601.13 299.37 1613.91 288.091C1639.45 265.478 1567.66 260.239 1557.98 238.979C1550.24 229.406 1611.9 202.375 1586.91 176.955C1575.08 164.915 1575.03 144.813 1553.5 138.638C1540.18 134.846 1518.46 132.069 1516.64 118.746C1516.64 111.81 1511.71 90.3244 1498.21 90.3244C1490.18 90.3244 1473.57 90.3243 1477.95 97.4297C1463.35 90.7896 1431.41 61.4658 1417.36 60.493C1387.8 58.4488 1377.62 45.5622 1344.46 68.9483C1378.93 47.5958 1383.91 55.9281 1399.43 57.9159C1369.31 49.2315 1360.52 59.2116 1341.99 70.4321C1331.22 76.748 1308.05 83.7829 1314.25 97.4297C1317.17 74.3936 1258.04 94.9204 1244.36 101.702C1271.18 91.6215 1241.44 108.525 1237.06 118.746C1226.11 110.823 1162.23 99.8124 1176.29 118.746C1173.73 111.457 1167.16 107.524 1158.04 105.959C1175.74 91.8612 1191.8 82.486 1196.54 61.9029C1172.45 65.6107 1158.04 73.0967 1134.13 64.7506C1119.17 59.5485 1095.44 52.4995 1088.14 69.0083C1086.13 61.6773 1085.77 61.2542 1091.79 54.7973C1079.57 50.582 1065.15 50.9908 1053.1 54.7973C1062.23 51.4702 1083.22 30.2104 1060.4 30.6474C1096.9 17.8605 973.297 11.1365 978.225 13.2371C967.275 8.57062 944.69 6.78221 932.646 5.82355L928.642 5.08787Z" stroke="#333332" stroke-width="1.6"/>
<path d="M-781.916 576.497C-765.856 579.316 -742.861 555.11 -730.452 547.497C-707.822 533.484 -663.296 545.114 -647.966 523.714C-647.966 536.839 -614.023 549.541 -600.153 550.373C-574.057 551.938 -557.083 512.196 -557.266 497.308C-549.053 509.151 -520.403 497.308 -510 494.334C-482.261 486.791 -453.974 496.618 -433.717 511.533C-431.892 498.422 -414.74 502.383 -403.425 503.977C-391.015 505.725 -355.611 497.266 -389.007 492.247C-373.86 492.247 -278.234 491.824 -305.061 471.946C-289.001 484.564 -268.744 474.695 -249.765 478.05C-244.838 478.755 -242.648 480.912 -243.195 484.423C-243.195 490.443 -211.442 483.859 -211.624 483.859C-183.703 481.124 -157.059 480.137 -129.685 486.382C-106.691 491.626 -74.3893 477.98 -51.7601 473.398C-31.8684 469.352 -27.4875 464.277 -14.1654 454.817C0.251525 444.638 28.1714 446.894 36.7486 431.555C46.2383 414.539 -56.5046 412.184 -67.2717 411.042C-59.9719 409.534 -52.854 407.49 -46.1018 404.938C-59.4238 402.555 -73.4764 400.032 -85.5209 406.982C-73.6589 397.212 -57.5999 401.103 -42.6354 398.876C-17.6339 395.112 -18.5459 375.586 -44.46 373.485C-34.7878 375.036 -28.5824 368.791 -20.9176 365.9C-5.7707 360.163 5.7265 371.878 22.5159 360.275C18.3185 353.311 11.3833 349.251 1.52868 348.095C11.9308 346.586 37.1136 347.813 9.37466 339.988C47.6982 348.87 53.1738 329.725 69.4157 308.648C90.7674 281.326 86.9343 254.921 45.8733 239.216C22.1492 230.108 -32.2327 217.392 -55.5918 232.97C-63.804 238.313 -66.5425 249.888 -77.3096 252.679C-93.734 256.923 -103.589 236.537 -120.743 239.483C-99.3914 214.6 -55.4095 213.05 -92.2731 176.691C-122.75 146.592 -156.328 148.354 -199.397 144.054C-170.745 134.481 -120.012 142.785 -97.0181 157.264C-102.31 143.095 -160.89 104.241 -119.282 95.3311C-146.291 90.0021 -151.4 69.0524 -169.285 55.7439C-186.074 43.3094 -211.808 43.7042 -232.794 41.1666C-268.015 36.909 -277.687 -27.8996 -279.877 -48.9198C-283.527 -83.897 -340.281 -114.208 -383.714 -120.354C-395.029 -121.962 -404.702 -134.213 -417.112 -125.613C-424.959 -120.058 -432.44 -117.394 -443.207 -117.521C-471.494 -117.803 -510.73 -116.534 -531.899 -134.072C-487.918 -108.808 -457.989 -144.237 -413.643 -144.237C-388.459 -144.237 -397.403 -159.279 -410.725 -167.357C-429.522 -178.777 -448.5 -160.633 -468.939 -162.508C-417.111 -170.304 -374.773 -188.941 -341.377 -220.704C-326.412 -234.985 -321.85 -251.861 -309.075 -266.481C-300.316 -276.645 -276.045 -283.257 -282.797 -298.286C-295.207 -325.41 -364.553 -315.048 -393.387 -312.567C-423.316 -309.987 -452.151 -319.094 -481.35 -312.426C-505.804 -306.744 -533.725 -294.944 -558.179 -291.49C-554.529 -301.133 -540.113 -301.993 -535.915 -311.791C-550.332 -312.778 -563.289 -307.548 -576.611 -304.686C-560.734 -317.29 -520.769 -308.535 -513.469 -328.018C-532.448 -331.444 -555.076 -328.018 -571.318 -338.183C-540.112 -328.963 -546.134 -335.025 -525.695 -345.599C-508.905 -354.325 -488.649 -358.005 -471.495 -366.407C-464.56 -369.861 -375.321 -414.834 -421.857 -422.066C-450.143 -426.479 -485.365 -415.934 -513.104 -411.775C-528.433 -409.449 -544.857 -406.53 -560.551 -407.517C-564.566 -407.799 -569.859 -408.363 -572.414 -410.943C-576.794 -415.158 -595.225 -404.5 -601.612 -402.117C-587.56 -419.768 -599.787 -407.588 -610.006 -412.31C-614.021 -414.2 -620.957 -421.037 -626.614 -420.022C-638.111 -417.964 -633.732 -392.122 -650.156 -385.877C-645.046 -383.762 -634.46 -380.872 -634.46 -376.741C-674.243 -390.839 -662.2 -357.314 -681.727 -352.38C-671.69 -349.165 -663.478 -342.934 -659.464 -335.11C-672.238 -331.261 -718.042 -344.443 -714.575 -323.958C-718.59 -342.779 -748.155 -310.875 -716.401 -295.522C-725.161 -296.368 -733.92 -296.791 -742.679 -296.509C-744.687 -276.857 -723.701 -276.758 -704.539 -278.238C-714.211 -275.884 -722.97 -272.162 -730.817 -267.073C-719.137 -270.428 -706.181 -268.539 -699.246 -259.953C-716.4 -275.292 -739.394 -245.771 -701.07 -247.787C-705.085 -246.659 -768.046 -244.544 -724.613 -232.561C-743.41 -245.545 -764.579 -221.24 -739.03 -217.335C-749.615 -218.463 -755.819 -214.36 -756.184 -206.169C-770.418 -211.414 -788.851 -210.074 -800.896 -202.109C-780.092 -198.359 -751.256 -209.116 -732.641 -199.064C-747.423 -204.308 -757.096 -190.774 -772.061 -196.019C-759.651 -154.204 -692.495 -204.914 -670.778 -214.29C-679.355 -206.944 -684.464 -195.314 -662.93 -202.109C-673.515 -200.459 -728.628 -181.075 -693.042 -183.838C-697.422 -180.497 -701.984 -177.099 -706.363 -173.687C-696.874 -173.264 -687.749 -173.969 -678.624 -175.717C-684.099 -173.448 -708.918 -172.658 -710.378 -171.136C-714.94 -166.822 -721.694 -163.142 -727.716 -160.196C-734.651 -156.742 -729.722 -146.901 -730.634 -141.417C-730.634 -135.482 -767.499 -96.7403 -736.475 -124.965C-751.987 -116.618 -749.25 -85.053 -727.351 -99.588C-751.44 -89.0991 -752.169 -68.8545 -767.864 -53.4876C-778.996 -42.7309 -744.322 -34.7654 -740.855 -56.2508C-738.3 -71.6318 -711.839 -89.4517 -718.591 -104.114C-728.081 -124.965 -687.567 -137.723 -670.778 -145.252C-681.91 -137.723 -711.473 -126.276 -708.371 -111.811C-706.181 -104.974 -701.071 -103.268 -693.042 -106.694C-688.662 -100.166 -683.004 -94.4 -676.069 -89.4234C-672.967 -98.0655 -679.536 -106.679 -689.208 -110.74C-678.806 -121.539 -673.333 -114.405 -670.778 -105.678C-652.346 -118.324 -665.121 -142.545 -643.221 -139.175C-652.346 -133.268 -653.623 -126.501 -647.053 -118.874C-649.79 -138.062 -634.643 -117.746 -619.496 -112.784C-629.716 -113.207 -653.257 -119.974 -657.637 -108.315C-666.032 -86.0117 -646.688 -86.4065 -637.563 -70.6449C-622.234 -43.7881 -700.523 -28.1534 -685.194 3.9478C-687.018 1.67802 -704.174 -10.6014 -706.546 -3.6229C-711.108 9.75612 -683.003 28.0554 -673.331 36.4297C-683.551 13.0692 -671.508 8.44509 -643.221 18.356C-619.862 26.5469 -615.299 25.9547 -614.386 3.96176C-587.012 24.8268 -570.04 16.4668 -539.382 9.6011C-529.892 7.4723 -515.111 5.10377 -517.118 -5.17368C-496.131 -3.18586 -474.963 -4.32785 -453.976 -3.14362C-477.518 8.98068 -505.986 10.5599 -519.673 32.3977C-528.25 46.2138 -512.009 92.427 -485.547 81.1204C-489.379 88.7474 -487.554 95.5144 -480.254 101.407C-474.597 95.6695 -469.851 89.5933 -465.836 83.1505C-462.004 95.6413 -448.136 89.4663 -439.558 85.1805C-448.136 94.2315 -447.953 105.778 -457.99 115.632C-463.648 121.356 -487.006 144.731 -455.252 141.009C-487.189 153.316 -477.151 195.512 -438.28 185.671C-455.981 195.681 -509.818 157.419 -482.809 198.867C-519.125 174.929 -570.953 199.713 -610.372 198.867C-595.772 185.037 -653.968 168.338 -665.648 175.937C-689.189 191.304 -638.476 216.602 -615.665 200.911C-637.016 219.478 -667.492 230.334 -687.931 249.634C-661.287 251.241 -637.016 227.979 -610.372 238.468C-616.942 246.941 -610.372 255.273 -601.064 259.785C-616.759 265.396 -612.562 280.988 -594.495 279.071C-609.277 280.706 -610.373 291.632 -616.03 300.049C-623.512 311.087 -642.309 317.685 -656.543 321.774C-688.297 330.853 -734.103 337.07 -754.907 357.23C-743.593 360.727 -739.396 368.001 -748.338 375.501C-734.103 377.813 -719.867 376.488 -710.195 367.381C-716.947 377.165 -730.817 380.281 -744.321 379.562C-726.437 397.043 -671.872 377.151 -653.623 367.381C-653.623 382.085 -632.636 382.607 -619.496 379.562C-624.971 385.807 -632.453 387.499 -641.943 384.637C-638.293 402.273 -621.321 393.674 -607.817 388.796C-587.012 381.31 -575.515 406.023 -557.448 412.156C-524.234 423.322 -518.76 400.173 -491.751 397.142C-462.187 393.829 -442.113 381.944 -418.571 368.382C-441.018 389.247 -472.773 403.669 -497.409 423.195C-503.797 428.284 -494.306 434.417 -507.993 435.77C-523.323 437.293 -539.018 438.026 -554.347 435.629C-576.064 432.161 -612.562 426.339 -633.366 436.052C-645.958 441.861 -646.689 453.379 -659.464 459.286C-676.983 467.406 -680.45 447.218 -686.655 471.283C-689.21 480.954 -720.05 517.553 -735.927 514.761C-745.782 513.041 -748.337 513.351 -751.987 521.81C-758.009 535.274 -782.646 541.393 -797.975 546.256C-810.385 550.133 -823.889 554.349 -834.474 560.862C-838.671 563.541 -832.648 572.831 -828.45 572.042C-812.026 569.265 -791.953 558.282 -783.74 576.553" stroke="#333332" stroke-width="1.6"/>
<path d="M166.801 450.592C199.306 437.538 237.635 424.204 273.245 416.915C248.641 430.983 296.368 430.59 310.064 433.184C323.214 437.251 330.156 439.915 342.939 437.251C358.826 433.952 375.53 409.639 381.009 428.868C381.187 429.494 377.175 420.142 375.714 415.659C387.767 417.703 402.376 417.195 400.733 404.507C410.229 410.09 425.932 413.445 433.602 403.521C439.994 415.687 463.005 411.753 471.588 403.521C481.632 432.096 535.869 432.012 567.644 442.077C550.661 457.444 527.036 480.973 563.079 487.753C573.488 491.729 580.061 489.826 587.183 488.74C581.887 498.975 626.826 502.392 608.565 516.56C627.137 515.904 629.658 538.043 628.29 537.913C621.768 537.295 603.121 539.749 590.155 548.081C584.859 551.45 578.966 554.548 567.096 568.983C557.052 581.192 549.017 587.183 551.574 597.855C554.678 608.71 576.491 621.552 552.021 634.508C545.893 634.508 526.821 632.19 515.201 633.491C513.192 630.869 504.093 619.466 493.866 614.828C481.012 605.021 461.287 600.954 449.452 598.92C437.617 594.853 441.455 565.67 440.725 557.818C428.489 561.54 425.02 569.406 416.437 575.919C400.55 587.888 375.531 582.601 356.539 580.149C360.556 567.757 367.861 548.246 354.53 541.592C338.643 533.669 313.314 533.375 302.174 538.93C304.183 519.813 290.34 521.644 270.345 519.064C249.161 512.142 260.326 508.102 243 497.241C236.425 491.141 199.606 492.157 190.401 489.107C160.157 480.973 187.771 456.57 168.046 450.093" stroke="#333332" stroke-width="1.6"/>
<path d="M-741.219 808.889C-724.977 802.94 -705.449 799.218 -687.382 801.784C-681.177 780.439 -717.86 795.115 -725.525 780.468C-708.735 776.14 -689.025 777.733 -671.505 778.424C-685.192 776.605 -703.806 780.369 -693.952 767.258C-704.536 766.835 -740.488 782.469 -744.868 768.78C-750.708 750.1 -713.843 738.822 -696.324 736.143C-672.782 732.534 -650.519 731.068 -626.613 731.575C-592.851 732.28 -571.135 706.904 -533.541 710.415C-537.921 719.79 -492.845 752.525 -480.253 748.592C-471.675 745.406 -463.646 741.769 -455.799 737.708C-438.645 730.363 -439.739 739.851 -425.505 741.966C-411.453 744.052 -400.502 735.453 -399.59 753.061C-390.465 748.169 -403.971 742.318 -396.489 734.353C-388.642 726.219 -384.626 738.568 -377.874 739.95C-361.815 743.221 -341.01 739.95 -324.768 737.835C-359.259 730.039 -346.668 692.454 -343.748 672.872C-341.923 663.341 -361.086 653.783 -367.473 647.128C-378.423 635.667 -367.471 618.242 -383.896 608.909C-372.034 610.516 -361.086 615.027 -349.224 616.931C-336.267 619.017 -320.388 609.191 -308.891 613.618C-291.189 620.498 -313.272 641.165 -288.817 652.021C-281.7 655.15 -268.926 649.582 -261.626 649.525C-240.274 649.384 -219.834 654.953 -199.03 657.998C-178.773 660.973 -161.072 660.522 -143.005 652.5C-126.581 645.239 -104.498 645.507 -89.534 637.344C-101.396 640.953 -121.47 642.786 -132.967 637.767C-156.144 627.462 -102.493 602.114 -93.7331 599.026C-65.4466 589.242 -33.3279 590.412 -4.67646 581.531C11.9304 576.385 34.1948 546.948 54.8166 555.181C36.7497 546.172 47.883 483.789 62.8474 472.101C77.6294 460.626 152.999 439.873 172.526 452.491C182.381 458.92 163.035 483.648 191.869 489.16C221.616 494.842 214.681 489.724 235.851 494.56C255.56 499.142 249.354 510.857 264.501 516.553C284.393 523.982 304.468 515.143 301.913 538.912C313.775 533.005 334.396 534.373 346.806 537.784C370.53 544.044 360.493 566.53 355.748 579.585C371.625 581.629 389.511 585.421 405.205 580.572C420.717 575.764 424.367 562.047 439.879 557.254C441.704 564.81 437.141 598.603 450.463 598.97C469.99 599.534 509.407 619.426 515.429 633.905C513.604 629.732 589.705 639.234 593.537 639.487C612.151 640.756 625.84 637.767 640.622 649.567C652.119 658.872 660.147 673.492 677.666 677.03C681.498 675.621 682.777 675.707 685.149 672.972C691.159 669.492 698.885 672.102 700.603 672.972C704.07 673.959 702.32 675.582 703.946 678.285C702.121 683.811 719.328 679.748 722.065 679.932C740.862 681.201 751.759 673.393 769.095 683.558C787.527 694.385 825.486 696.387 848.48 699.362C820.376 718.606 794.28 739.724 785.155 768.315C780.775 782.216 767.968 794.366 765.048 808.379C762.294 821.598 759.788 822.614 758.473 834.816C753.213 857.185 763.86 863.685 759.331 866.932C748.746 874.375 736.823 882.899 726.694 881.188C713.555 880.343 709.819 865.319 692.724 873.454C681.41 878.374 683.688 893.59 702.668 891.236C688.433 902.881 674.959 915.258 658.535 925.31C651.96 928.36 640.125 932.427 629.605 940.562C621.758 946.06 615.141 953.78 613.826 964.964C602.511 975.876 578.321 979.199 577.006 996.485C577.006 1001.57 579.636 1005.64 579.636 1012.75C575.691 1020.89 571.746 1023.94 563.856 1035.12C586.211 1033.09 589.78 1028.01 601.991 1014.79C621.715 993.434 643.359 996.971 658.688 1000.28C676.938 1004.27 664.527 1027.45 677.666 1038.74C700.843 1058.37 686.61 1065.73 665.806 1079.02C676.938 1091.1 717.631 1112.03 706.316 1129.74C696.886 1147.67 642.478 1158.78 642.66 1160.81C642.66 1174.83 678.032 1187.38 690.077 1195.37C707.596 1206.93 665.805 1227.53 671.827 1242.81C679.127 1261.37 725.115 1282.4 749.387 1274.89C779.863 1265.45 775.302 1279.17 763.805 1294.86C736.066 1332.66 682.96 1351.72 635.511 1376.43C638.614 1379.87 641.716 1383.26 644.819 1386.58C627.117 1388.54 612.334 1395.56 595.727 1400.05C578.025 1404.88 566.528 1397.27 549.738 1398.3C524.189 1399.85 508.496 1383.41 478.02 1385.57C490.247 1361.16 437.871 1379.87 437.324 1365.69C440.609 1361.29 445.901 1360.14 453.018 1362.22C453.018 1354.23 446.265 1349.72 435.862 1350.04C444.622 1360.39 437.688 1361.91 425.096 1362.38C405.204 1363.08 403.197 1362.24 397.722 1343.95C404.839 1380.37 392.796 1357.15 362.32 1357.15C344.618 1357.15 330.199 1348.55 313.045 1347.9C292.058 1347.05 268.883 1365.51 250.086 1372.13C235.486 1377.31 184.022 1392.03 187.307 1407.38C187.307 1412.41 184.935 1417.09 181.468 1421.42C173.256 1427.06 173.986 1432.08 183.475 1436.48C190.775 1454.13 186.03 1462.97 199.352 1479.98C186.76 1482.76 175.811 1477.88 163.401 1478.46C150.627 1479.02 144.056 1486.99 132.559 1489.41C104.82 1495.27 87.8496 1473.06 61.2056 1488.01C59.3807 1488.99 22.5155 1475.71 18.5006 1473.41C8.09853 1467.45 31.8239 1468.21 15.217 1459.63C5.5449 1454.65 -11.793 1452.46 -20.0052 1460.61C-23.8376 1442.44 -49.9348 1450.04 -63.9867 1441.41C-83.5135 1429.5 -123.478 1421.86 -117.273 1450.48C-139.172 1448.04 -163.809 1443.78 -185.891 1446.91C-198.118 1448.64 -206.331 1451.32 -216.733 1444.05C-235.348 1431.16 -233.887 1436.46 -252.684 1436.27C-271.481 1436.12 -361.632 1390.31 -370.939 1408.86C-388.094 1403.42 -375.866 1393.83 -374.771 1384.6C-372.946 1373.61 -414.92 1378.62 -423.498 1370.29C-371.304 1355.36 -366.925 1299.47 -357.435 1263.13C-353.603 1248.86 -350.318 1226.37 -334.989 1216.19C-312.542 1201.36 -342.654 1199.28 -344.661 1216.05C-347.764 1181.71 -338.82 1139.63 -319.658 1108.46C-301.226 1116.48 -282.795 1126 -274.948 1141.95C-273.123 1149.06 -271.48 1156.17 -269.655 1163.27C-265.457 1172.31 -253.778 1173.55 -253.961 1184.59C-248.668 1170.39 -267.284 1159.46 -269.109 1146.01C-271.664 1125.35 -281.153 1111.35 -304.877 1101.3C-314.732 1097.09 -325.863 1091.36 -334.075 1085.2C-347.58 1075.16 -312.36 1080.16 -305.242 1085.2C-321.849 1078.98 -322.76 1024.66 -313.088 1014.14C-334.805 1025.91 -386.086 1002.75 -396.124 987.145C-405.066 973.343 -425.321 966.167 -429.336 950.053C-432.986 935.348 -398.131 919.248 -441.93 917.726C-436.82 913.031 -435.723 904.502 -429.154 900.921C-412.364 891.927 -397.035 907.053 -381.341 908.59C-409.262 894.365 -420.213 899.089 -449.412 902.021C-464.012 903.501 -492.481 886.795 -465.472 884.229C-472.954 878.491 -469.852 874.769 -456.347 873.063C-476.969 869.088 -506.531 882.114 -523.321 867.988C-514.014 867.988 -505.255 866.198 -497.043 862.913C-513.467 854.398 -543.942 857.852 -548.322 875.094C-548.322 863.815 -565.111 853.27 -550.147 843.641C-556.534 855.991 -585.187 855.187 -567.302 839.581C-603.618 863.97 -652.526 808.438 -689.389 838.594C-704.171 822.846 -716.398 813.175 -741.765 809.101" stroke="#333332" stroke-width="1.6"/>
<path d="M326.913 372.356C322.534 372.638 318.337 373.061 313.957 373.342C327.827 377.812 344.434 392.939 359.763 381.463C350.821 375.316 338.994 372.175 326.913 372.328" stroke="#333332" stroke-width="1.6"/>
<path d="M332.211 367.283C354.11 360.868 367.614 389.586 388.783 377.433C372.359 371.413 349.913 351.93 332.211 367.283Z" stroke="#333332" stroke-width="1.6"/>
<path d="M266.672 423.418C268.862 404.597 354.776 419.966 370.555 421.999C353.461 431.15 345.571 446.402 311.381 433.184C294.286 431.15 266.672 433.184 266.672 423.418Z" stroke="#333332" stroke-width="1.6"/>
<path d="M440.559 240.492C421.397 281.574 398.457 316.12 357.214 347.376C341.337 359.472 381.119 369.242 390.426 371.525C412.508 376.953 440.064 363.222 447.364 375.797C418.895 371.568 388.602 392.235 361.045 382.903C385.682 395.041 357.032 386.074 346.264 391.418C356.484 396.972 375.828 394.209 377.47 407.052C357.213 411.959 345.533 396.493 331.481 388.584C314.145 388.584 292.428 384.242 281.844 398.523C295.166 412.099 319.985 409.322 338.964 408.476C354.476 407.771 404.478 428.298 401.376 404.219C411.048 409.816 424.919 412.748 432.766 402.795C439.153 414.961 462.877 411.028 471.272 402.795C481.309 431.372 535.144 431.076 566.898 441.156C545.364 460.456 524.377 488.934 579.854 489.47C603.761 489.752 577.504 459.969 581.519 454.626C582.618 437.528 621.299 425.547 610.779 402.161C606.399 391.193 597.411 374.3 582.081 370.226C582.081 341.554 613.593 371.367 604.027 350.837C614.794 355.052 681.679 358.25 683.368 347.415C685.618 343.423 670.586 338.281 679.991 330.307C683.368 326.886 687.991 324.023 692.371 321.753C743.576 288.677 660.859 288.107 671.832 272.064C685.056 258.453 708.689 270.999 717.13 263.015C723.319 255.602 714.316 257.312 736.261 219.675C743.561 196.427 691.906 168.302 662.707 171.178C616.719 175.69 542.821 182.999 529.034 233.153C522.105 257.189 556.313 271.782 561.422 273.488C576.752 278.662 570.182 286.528 561.422 291.956C552.845 297.271 544.452 303.784 535.693 309.001C522.736 316.825 501.931 301.458 487.879 301.895C492.259 294.663 545.578 284.792 524.258 256.777C487.577 230.886 446.033 228.453 440.559 240.492Z" stroke="#333332" stroke-width="1.6"/>
</g>
<defs>
<clipPath id="clip0_573_1552">
<rect width="807" height="751" fill="white"/>
</clipPath>
</defs>
</svg>
