<svg viewBox="0 0 805 751" fill="none" xmlns="http://www.w3.org/2000/svg">
<g clip-path="url(#clip0_519_2)">
<path d="M578.439 740.894C580.786 737.391 583.452 733.993 586.225 730.676C589.745 725.466 584.306 721.278 586.225 716.382C589.852 709.062 606.491 703.37 607.131 701.034C609.371 691.645 615.558 685.678 633.263 678.052C642.863 673.938 648.942 665.394 658.115 658.573C640.942 660.127 651.395 639.787 665.474 649.442C680.726 659.829 687.554 642.75 702.273 641.18C694.593 647.952 733.417 642.75 740.564 643.032C754.43 643.596 765.416 643.91 768.402 637.258C757.736 640.246 755.603 632.789 765.203 630.293C769.149 629.278 773.095 630.373 779.068 632.161C789.201 635.148 801.495 637.013 803.629 637.592C815.427 640.799 830.799 640.544 840.398 646.921C853.091 655.304 834.213 668.961 832.08 678.286C856.612 675.959 858.531 689.35 878.584 692.281C887.223 693.545 890.636 681.217 900.023 683.238C911.115 685.597 901.622 694.946 901.089 699.238C900.022 702.572 910.049 712.992 900.023 713.193C892.983 713.354 887.436 703.732 880.716 708.209C878.263 709.82 869.944 719.289 875.81 721.302C886.05 724.854 879.97 727.551 878.37 735.096C868.344 732.069 867.917 723.92 855.331 725.82C842.958 727.672 841.679 729.645 831.546 722.341C830.479 721.617 819.6 707.509 818.106 719.048C816.72 729.629 817.039 732.205 806.8 740.202C793.894 750.396 805.521 774.296 784.935 751.475C780.242 746.394 774.802 743.906 768.509 740.314C758.803 734.839 762.643 724.435 753.15 719.434C747.711 724.604 741.204 729.83 732.457 731.618C742.057 740.049 720.939 754.881 709.099 754.052C686.7 752.49 668.141 763.2 651.075 749.591C644.995 744.792 636.677 739.751 638.703 732.198C641.69 721.641 630.597 719.104 618.651 720.014C598.599 721.552 602.011 740.435 578.119 740.894" stroke="#333332" stroke-width="1.6"/>
<path d="M624.98 812.562C633.179 808.568 663.387 803.76 662.701 790.71C660.641 782.467 653.357 779.674 647.298 774.666C644.003 772.082 640.178 769.1 637.308 766.224C646.342 762.31 655.376 753.673 649.849 748.989C659.415 750.934 669.938 758.032 680.248 755.301C693.214 751.866 699.059 753.527 711.388 754.232C719.572 754.718 729.457 747.191 733.177 742.394C736.153 738.715 736.578 735.45 733.177 732.047C741.893 730.248 748.375 724.99 753.796 719.788C763.255 724.261 759.536 730.102 764.744 736.439C769.633 742.483 777.178 744.104 783.98 749.119C786.638 751.056 787.275 756.841 797.266 761.524C800.455 763.031 799.074 746.51 806.195 741.462C814.166 735.726 816.823 731.999 817.78 722.689C819.586 706.816 826.495 718.078 831.065 721.838C838.93 728.134 841.694 729.073 851.579 726.505C867.521 722.34 867.521 731.277 878.574 735.539C879.637 730.2 885.058 724.803 876.13 721.708C868.158 718.937 878.787 708.031 883.888 707.253C888.884 706.443 894.411 712.163 899.194 713.144C909.504 715.307 900.256 702.44 900.894 699.848C902.913 694.808 903.87 693.147 904.933 690.813C911.629 691.299 928.422 695.237 932.249 696.744C942.452 700.706 949.36 690.513 955.311 686.446C963.177 681.025 975.613 682.565 985.285 682.994C1000.8 683.723 1015.79 674.794 1030.88 677.193C1014.09 684.833 1048.1 704.741 1057.45 707.018C1085.72 713.857 1105.6 707.018 1133.87 713.209C1132.7 721.368 1121.22 726.959 1115.8 732.039C1122.07 734.77 1128.45 737.816 1135.68 739.039C1129.51 744.517 1120.16 752.417 1133.44 755.374C1125.58 763.177 1138.34 766.102 1142.59 766.75C1152.68 768.282 1155.55 780.97 1140.25 778.71C1150.88 761.881 1121.97 771.328 1116.55 772.876C1114.21 761.265 1095.71 771.839 1090.29 774.415C1084.45 777.243 1078.28 779.86 1072.01 782.242C1067.87 783.822 1032.9 792.444 1054.58 783.944C1048.74 784.86 1040.98 784.268 1036.2 787.452C1032.69 789.713 1034.39 799.039 1027.8 797.953C1027.8 800.652 1040.76 814.515 1042.04 814.782C1061.38 818.85 1049.16 840.346 1037.79 830.623C1015.58 860.489 1065.32 888.864 1092.21 901.917C1105.39 908.31 1126.64 912.807 1135.78 922.83C1149.28 937.423 1156.4 956.618 1164.27 973.269C1174.36 994.643 1211.14 1016.51 1237.39 1025.7C1256.84 1032.51 1267.15 1034.61 1288.73 1032.4C1296.81 1031.58 1332.41 1027.59 1328.05 1041.68C1325.93 1048.4 1300.74 1054.66 1309.88 1062.88C1319.87 1071.76 1346.33 1076.8 1359.83 1080.48C1381.41 1086.36 1400.86 1092.17 1418.82 1103.14C1437.31 1114.33 1459.95 1117.65 1477.91 1130C1489.92 1138.31 1506.08 1147.01 1503 1160.85C1501.93 1163.99 1501.51 1178.14 1495.35 1178.61C1486.84 1179.26 1476.43 1175.43 1471.96 1169.84C1462.18 1157.63 1462.82 1143.5 1438.7 1145.36C1419.25 1146.85 1415.31 1137.18 1412.66 1131.65C1392.14 1134.28 1387.57 1134.13 1374.71 1148.65C1366.74 1157.65 1360.89 1168.95 1358.02 1179.6C1354.62 1191.81 1375.03 1194.78 1386.08 1198.66C1403.83 1204.87 1407.02 1214.54 1408.83 1228.22C1411.7 1251.31 1359.3 1234.71 1364.3 1262.59C1366.63 1276.22 1361.85 1277.29 1350.37 1286.55C1340.7 1294.4 1333.26 1304.07 1321.78 1310.51C1310.94 1316.56 1301.8 1313.15 1296.38 1304.33C1288.09 1290.9 1313.7 1284.67 1314.98 1272.45C1314.98 1268.3 1312.75 1263.3 1316.47 1259.6C1322.74 1253.41 1335.07 1258.03 1338.47 1250.07C1341.34 1243.13 1329.86 1235.26 1327.63 1228.93C1324.23 1219.08 1323.06 1210.43 1316.04 1201.44C1307.75 1190.66 1306.48 1174.51 1295.42 1165.4C1288.73 1159.98 1284.16 1161.27 1277.89 1165.24C1270.45 1169.98 1262.69 1160.36 1257.8 1157.36C1252.27 1153.97 1243.24 1154.86 1241.54 1148.05C1240.16 1142.43 1244.94 1140.76 1241.54 1133.85C1233.03 1118.95 1211.03 1118.6 1194.98 1126.4C1203.17 1116.85 1200.62 1107.88 1183.61 1109.19C1170.96 1110.15 1163.74 1095.9 1159.17 1089.24C1151.09 1077.4 1141.42 1084.29 1128.13 1081.31C1121.01 1079.72 1114.42 1077.18 1106.77 1078.56C1090.82 1081.45 1101.13 1079.85 1090.08 1073C1079.13 1066.22 1065.42 1064.36 1054.58 1056.87C1042.47 1048.57 1035.45 1036.28 1022.27 1029.27C1010.79 1023.18 1006.33 1024.73 998.677 1015.22C990.811 1005.28 970.298 993.614 954.781 1000.97C963.709 989.571 927.253 960.142 913.755 961.601C915.349 961.439 893.879 914.954 893.029 911.932C885.695 884.57 861.25 887.624 835.423 874.377C808.746 860.675 774.734 853.229 752.414 875.341C744.443 883.192 737.853 892.251 725.949 897.129C721.698 898.863 683.329 908.156 685.986 900.653C687.899 895.144 716.597 870.876 682.373 880.089C661.966 885.599 623.491 861.032 648.786 845.086C657.927 839.366 656.227 834.634 645.492 830.493C627.743 823.663 622.641 813.275 624.98 812.562Z" stroke="#333332" stroke-width="1.6"/>
<path d="M762.647 141.798C755.419 144.034 755.191 152.524 756.679 157.215C756.679 158.384 764.338 152.54 765.289 149.866C768.933 147.865 768.167 143.774 762.647 141.798ZM772.211 148.329C769.979 148.329 769.896 148.653 767.77 149.147C765.869 150.787 775.506 149.39 778.694 149.147C776.569 148.499 774.549 148.337 772.211 148.329ZM790.811 149.147C784.115 148.661 786.454 148.628 779.758 149.147C784.222 150.865 789.005 161.398 791.556 164.663C793.788 167.54 804.204 173.139 801.228 176.914C796.233 183.129 782.202 179.686 776.569 187.529C784.009 189.943 791.449 188.882 798.995 187.529C781.99 193.492 800.377 197.584 803.353 204.682C796.126 204.439 793.468 207.858 798.995 212.031C805.16 216.576 813.981 215.167 821.528 216.925C829.499 218.797 833.538 223.666 838.639 228.366C844.804 233.997 852.988 234.669 860.109 238.98C841.615 237.449 836.726 225.741 822.59 219.38C813.343 215.215 802.503 220.109 792.618 219.38C781.033 218.505 769.768 215.645 767.961 227.547C766.898 232.295 772.317 236.031 772.211 240.609C770.511 244.02 769.874 247.642 769.023 251.231C767.961 245.333 770.192 239.685 761.583 236.533C751.379 232.838 747.766 240.147 754.037 245.511C748.404 246.588 743.621 245.673 739.05 243.064C764.24 230.1 696.005 228.058 688.671 229.176C680.275 230.456 666.033 240.746 666.246 247.966C666.246 253.954 693.058 252.849 690.798 255.315C681.626 265.325 669.687 287.984 669.372 292.791C668.606 304.478 654.129 295.431 644.776 300.227C630.109 307.706 657.424 311.206 661.038 315.849C671.56 329.145 635.211 333.116 646.583 343.033C657.53 352.724 608.451 350.485 601.755 347.86C605.687 357.037 596.839 348.515 591.595 352.121C589.957 353.432 588.646 355.726 588.974 359.003C598.752 361.564 610.765 379.098 605.345 386.949C600.562 393.982 581.856 404.289 590.89 413.898C595.779 419.043 591.294 426.927 592.251 428.815C595.121 434.575 613.553 435.697 604.377 442.908C613.881 443.236 616.83 453.396 616.175 455.362C585.041 455.69 580.899 473.914 611.084 485.128C632.235 493.02 610.816 509.421 618.469 516.324C620.435 517.308 639.257 535.646 644.358 535.006C651.692 534.082 645.315 531.298 656.156 532.384C661.896 532.951 656.865 539.549 666.643 537.628C670.363 536.899 676.45 537.357 680.276 537.114C693.88 533.517 695.067 539.858 707.608 542.872C718.981 545.587 732.187 546.617 743.985 548.116C734.419 554.558 726.51 560.344 718.645 568.098C709.823 576.978 706.74 590.494 700.788 600.33C696.856 606.91 680.856 654.781 703.07 640.496C695.417 647.294 735.118 642.131 742.239 642.415C756.056 642.982 765.26 643.966 768.236 637.265C751.656 641.972 758.511 624.295 778.068 631.693C792.159 637.593 830.175 640.215 840.334 646.442C848.944 650.266 895.714 647.106 883.704 662.833C900.284 662.428 901.454 650.955 905.067 641.597C912.188 646.418 928.344 646.32 937.272 645.68C929.513 648.581 949.388 652.956 953.321 653.029C962.461 653.191 968.2 647.155 976.916 646.499C993.603 645.218 1009.76 635.358 1028.25 639.96C1028.25 637.78 1028.25 635.528 1027.19 633.429C1035.8 634.239 1044.19 637.513 1052.91 637.513C1057.16 636.411 1061.41 635.714 1065.77 635.066C1070.55 635.471 1072.57 642.552 1076.5 644.862C1088.41 651.838 1088.3 648.297 1091.49 639.96C1094.68 631.647 1081.07 634.855 1081.82 627.717C1082.88 619.006 1083.2 619.379 1074.38 612.192C1067.68 606.78 1072.25 602.583 1079.69 599.949C1106.03 589.786 1109.86 597.383 1114.46 583.358C1117.52 567.58 1126.71 581.605 1133.6 575.761C1133.6 562.32 1141.26 555.308 1116.75 547.711C1103.36 541.61 1092.55 530.681 1078.63 524.814C1061.2 517.433 1057.69 500.636 1041.11 493.773C1054.19 485.849 1048.13 479.335 1035.8 474.173C1026.23 470.179 1024.11 462.951 1019.75 457.028C1026.66 456.218 1032.08 458.365 1034.74 466.006C1037.39 444.494 1073.63 452.872 1088.3 443.959C1111.58 429.731 1150.48 421.879 1178.22 413.744C1175.78 411.946 1173.33 410.544 1170.78 408.842C1181.41 406.93 1183.38 405.707 1192.57 414.472C1218.82 432.004 1229.98 394.93 1218.82 384.3C1217.33 377.688 1203.52 377.356 1202.77 372.089C1201.71 364.934 1202.77 362.479 1195.44 356.573C1190.66 352.619 1197.78 349.434 1199.69 345.675C1210.74 324.081 1182.47 318.28 1189.91 311.798C1204.79 298.801 1162.98 295.79 1157.34 283.572C1152.83 278.069 1188.74 262.534 1174.19 247.925C1167.3 241.005 1167.27 229.451 1154.73 225.903C1146.97 223.723 1134.32 222.127 1133.26 214.47C1133.26 210.483 1130.39 198.135 1122.53 198.135C1117.85 198.135 1108.18 198.135 1110.73 202.219C1102.23 198.402 1083.63 181.549 1075.44 180.99C1058.22 179.815 1052.3 172.409 1032.98 185.85C1053.06 173.578 1055.96 178.366 1065 179.509C1047.46 174.518 1042.34 180.254 1031.55 186.702C1025.28 190.332 1011.78 194.375 1015.39 202.219C1017.09 188.979 982.656 200.777 974.684 204.674C990.308 198.881 972.983 208.595 970.433 214.47C964.056 209.916 926.856 203.588 935.04 214.47C933.552 210.281 929.726 208.02 924.412 207.121C934.721 199.018 944.074 193.63 946.838 181.8C932.808 183.931 924.411 188.234 910.488 183.437C901.772 180.447 887.955 176.396 883.704 185.884C882.535 181.671 882.323 181.427 885.83 177.717C878.709 175.294 870.313 175.529 863.298 177.717C868.612 175.804 880.835 163.586 867.55 163.837C888.807 156.488 816.818 152.623 819.688 153.831C813.311 151.149 800.158 150.121 793.143 149.57L790.811 149.147Z" stroke="#333332" stroke-width="1.6"/>
<path d="M745.714 38.2316C746.776 36.287 747.733 34.3505 748.796 32.3978C753.26 36.1411 766.545 42.1938 773.347 38.815C776.217 48.6272 784.826 45.0621 786.952 37.9723C792.054 20.884 823.62 28.5734 806.934 34.7394C813.842 35.2256 824.364 33.7509 823.833 41.732C826.277 34.3911 826.384 31.0285 816.18 31.8144C816.18 25.8348 813.524 16.938 820.538 12.4168C825.109 10.1805 830.104 9.28927 835.525 9.73491C844.134 10.14 849.023 7.32031 856.569 7.32031C865.71 7.32031 871.449 7.64448 880.058 10.2454C890.58 13.4378 887.392 23.4121 892.706 29.4728C881.972 28.7436 871.874 31.2066 862.096 34.1398C871.981 34.3018 878.888 28.5166 889.092 31.8387C895.044 33.8076 883.034 42.5016 882.715 45.8075C885.372 34.8366 923.635 40.6056 931.181 45.1593C937.558 49.0485 924.803 64.1274 918.32 64.1112C911.73 64.1112 908.967 63.625 906.416 69.71C898.445 68.3326 896.957 64.2004 902.59 59.7845C887.923 56.0816 888.56 65.521 887.923 73.4129C886.86 86.1663 874.106 83.687 862.096 86.0448C866.56 86.3689 875.382 90.1447 870.174 94.593C863.691 100.216 850.192 95.4358 842.115 96.5458C847.748 98.0853 853.38 99.6409 859.014 101.213C845.622 111.633 839.67 105.621 848.704 121.218C854.231 130.666 831.804 130.398 832.23 139.716C842.752 138.817 855.507 143.638 852.849 153.142C845.091 152.737 845.94 146.774 838.606 151.117C830.741 155.776 822.133 154.463 813.63 152.437C801.938 149.65 772.923 151.53 779.406 136.216C773.242 137.99 768.459 135.373 766.44 130.974C802.258 130.974 758.574 108.375 756.448 104.13C754.748 116.907 745.927 104.697 745.077 99.009C744.014 91.8382 746.14 84.4001 744.014 77.3022C745.077 82.658 757.617 92.3325 761.656 83.1361C763.569 78.7769 741.463 60.1977 744.757 75.552C738.274 65.9262 741.462 48.1248 745.82 38.2073" stroke="#333332" stroke-width="1.6"/>
<path d="M780.15 32.3978C790.885 30.5018 798.007 21.9698 795.456 13.7295C791.417 15.9334 786.953 17.5377 782.064 18.5262C777.281 19.6281 778.45 26.1345 772.498 27.7307C774.836 29.5133 777.387 31.069 780.15 32.3978Z" stroke="#333332" stroke-width="1.6"/>
<path d="M764.102 32.3984C748.585 24.9845 761.87 11.9313 772.074 6.25136C786.422 -1.72156 810.124 2.34592 826.704 1.08192C841.584 -0.0443327 849.237 -12.0198 857.74 -19.7172C867.199 -28.2898 895.046 -33.9859 909.5 -37.5996C892.282 -25.9238 912.582 -18.032 903.654 -4.67899C893.663 10.0839 883.036 10.7321 863.373 6.15419C854.02 3.95839 845.623 5.50603 836.164 7.41823C825.641 9.5168 817.139 6.24331 807.042 7.74228C798.114 9.08731 785.679 11.1292 779.514 16.7037C775.475 20.2932 771.967 31.4828 764.102 31.2235C770.692 30.3808 774.412 33.152 773.349 38.2242C770.054 36.4659 766.972 34.5213 764.102 32.3822" stroke="#333332" stroke-width="1.6"/>
<path d="M-205.427 477.552C-196.074 479.173 -182.681 465.261 -175.454 460.885C-162.274 452.831 -136.342 459.516 -127.414 447.216C-127.414 454.76 -107.645 462.06 -99.5675 462.538C-84.3687 463.438 -74.4832 440.597 -74.5895 432.04C-69.8067 438.846 -53.1203 432.04 -47.0621 430.331C-30.9068 425.996 -14.4321 431.643 -2.63449 440.216C-1.57164 432.68 8.41821 434.957 15.0079 435.873C22.2352 436.877 42.8549 432.016 23.4048 429.131C32.2264 429.131 87.9194 428.888 72.2955 417.464C81.6486 424.715 93.4465 419.044 104.5 420.972C107.37 421.377 108.645 422.617 108.326 424.635C108.326 428.094 126.82 424.31 126.713 424.31C142.975 422.738 158.492 422.171 174.435 425.761C187.827 428.775 206.64 420.932 219.819 418.298C231.404 415.973 233.955 413.056 241.714 407.619C250.111 401.769 266.371 403.066 271.367 394.25C276.894 384.47 217.056 383.117 210.785 382.461C215.036 381.594 219.182 380.419 223.114 378.952C215.356 377.583 207.171 376.132 200.156 380.127C207.065 374.512 216.418 376.748 225.133 375.468C239.694 373.305 239.163 362.083 224.071 360.875C229.704 361.767 233.318 358.177 237.782 356.516C246.603 353.218 253.299 359.952 263.078 353.283C260.633 349.281 256.594 346.947 250.854 346.283C256.913 345.416 271.579 346.121 255.424 341.624C277.744 346.728 280.933 335.725 290.392 323.612C302.827 307.909 300.595 292.733 276.681 283.707C262.864 278.472 231.192 271.164 217.587 280.117C212.804 283.188 211.21 289.84 204.939 291.445C195.373 293.883 189.634 282.167 179.643 283.86C192.078 269.559 217.693 268.668 196.224 247.772C178.474 230.473 158.918 231.486 133.835 229.014C150.522 223.513 180.069 228.285 193.46 236.606C190.378 228.463 156.261 206.133 180.494 201.012C164.764 197.949 161.788 185.909 151.372 178.26C141.594 171.113 126.607 171.34 114.384 169.882C93.8709 167.435 88.2383 130.187 86.9629 118.106C84.8372 98.0038 51.7832 80.5833 26.4875 77.0506C19.8978 76.1269 14.2639 69.0857 7.03649 74.0283C2.46624 77.2207 -1.89069 78.7521 -8.1615 78.6792C-24.6356 78.5171 -47.4867 79.2463 -59.8158 69.1667C-34.2011 83.6865 -16.7706 63.3248 9.05659 63.3248C23.7239 63.3248 18.515 54.6794 10.7562 50.0366C-0.19114 43.4735 -11.2441 53.9015 -23.148 52.8238C7.03685 48.3431 31.6948 37.6316 51.145 19.3765C59.8603 11.1686 62.5176 1.46976 69.9576 -6.9326C75.0592 -12.7745 89.1945 -16.5746 85.262 -25.212C78.0346 -40.8013 37.647 -34.8459 20.854 -33.4199C3.42333 -31.9371 -13.3704 -37.1713 -30.376 -33.3388C-44.6181 -30.0734 -60.8793 -23.2916 -75.1214 -21.3064C-72.9958 -26.8486 -64.5996 -27.3429 -62.155 -32.9741C-70.5515 -33.5413 -78.0975 -30.5353 -85.8563 -28.8905C-76.6095 -36.1342 -53.3336 -31.1025 -49.0822 -42.3002C-60.1358 -44.2691 -73.3143 -42.3003 -82.7736 -48.1422C-64.5989 -42.8432 -68.1063 -46.3273 -56.2024 -52.4042C-46.4242 -57.4197 -34.6269 -59.5344 -24.6362 -64.3636C-20.5973 -66.3487 31.3756 -92.1959 4.273 -96.3525C-12.2011 -98.8886 -32.7141 -92.8279 -48.8694 -90.4376C-57.7973 -89.1007 -67.3627 -87.4235 -76.5032 -87.9906C-78.8415 -88.1527 -81.924 -88.4768 -83.412 -89.9595C-85.9628 -92.3822 -96.6973 -86.2566 -100.417 -84.8873C-92.2334 -95.0317 -99.354 -88.0311 -105.306 -90.7455C-107.644 -91.8312 -111.683 -95.761 -114.978 -95.1776C-121.674 -93.9946 -119.124 -79.1426 -128.689 -75.5532C-125.713 -74.3378 -119.548 -72.6768 -119.548 -70.3028C-142.718 -78.4053 -135.704 -59.1373 -147.076 -56.3014C-141.231 -54.454 -136.448 -50.8728 -134.11 -46.3759C-141.55 -44.1639 -168.226 -51.7397 -166.207 -39.9667C-168.545 -50.7836 -185.764 -32.4476 -167.271 -23.6239C-172.373 -24.11 -177.474 -24.353 -182.575 -24.191C-183.744 -12.896 -171.522 -12.8394 -160.362 -13.6901C-165.995 -12.337 -171.096 -10.1979 -175.666 -7.27284C-168.864 -9.20125 -161.318 -8.11547 -157.279 -3.181C-167.27 -11.9966 -180.662 4.97011 -158.342 3.81144C-160.68 4.45965 -197.349 5.67504 -172.053 12.5622C-183 5.09976 -195.33 19.0686 -180.45 21.313C-186.615 20.6648 -190.228 23.0226 -190.44 27.7302C-198.73 24.716 -209.466 25.4858 -216.481 30.0638C-204.364 32.2191 -187.57 26.0369 -176.729 31.814C-185.338 28.7998 -190.972 36.5782 -199.687 33.564C-192.46 57.5963 -153.348 28.4514 -140.7 23.0632C-145.695 27.2846 -148.67 33.9692 -136.129 30.0638C-142.293 31.0118 -174.392 42.1528 -153.666 40.5646C-156.217 42.485 -158.874 44.4377 -161.425 46.3985C-155.898 46.6416 -150.583 46.2365 -145.269 45.2318C-148.458 46.5363 -162.912 46.99 -163.763 47.8651C-166.42 50.3445 -170.353 52.4592 -173.86 54.1527C-177.899 56.1378 -175.029 61.7934 -175.56 64.9453C-175.56 68.3565 -197.03 90.6224 -178.962 74.401C-187.996 79.1978 -186.402 97.3394 -173.648 88.9857C-187.677 95.014 -188.102 106.649 -197.243 115.481C-203.726 121.663 -183.532 126.241 -181.513 113.893C-180.025 105.053 -164.614 94.8113 -168.546 86.3847C-174.073 74.401 -150.478 67.0681 -140.7 62.7414C-147.183 67.0681 -164.4 73.6475 -162.594 81.9607C-161.318 85.8905 -158.343 86.8708 -153.666 84.9019C-151.115 88.6534 -147.82 91.9674 -143.781 94.8276C-141.974 89.8607 -145.8 84.9101 -151.433 82.5766C-145.375 76.37 -142.188 80.4698 -140.7 85.4853C-129.965 78.2173 -137.405 64.2971 -124.651 66.2336C-129.965 69.6286 -130.708 73.5178 -126.882 77.9013C-128.476 66.8737 -119.655 78.5496 -110.833 81.4017C-116.785 81.1586 -130.495 77.2693 -133.046 83.9702C-137.935 96.7884 -126.669 96.5615 -121.355 105.62C-112.427 121.056 -158.023 130.041 -149.095 148.491C-150.158 147.186 -160.149 140.129 -161.531 144.14C-164.188 151.829 -147.82 162.346 -142.186 167.159C-148.138 153.733 -141.125 151.076 -124.651 156.772C-111.046 161.479 -108.388 161.139 -107.857 148.499C-91.914 160.491 -82.0296 155.686 -64.1738 151.74C-58.647 150.517 -50.0382 149.155 -51.2074 143.249C-38.9846 144.391 -26.656 143.735 -14.4332 144.415C-28.144 151.383 -44.7242 152.291 -52.6955 164.842C-57.6909 172.782 -48.2316 199.343 -32.8203 192.844C-35.0523 197.228 -33.989 201.117 -29.7376 204.504C-26.4428 201.206 -23.679 197.714 -21.3407 194.011C-19.1087 201.19 -11.0317 197.641 -6.03634 195.178C-11.0317 200.38 -10.9255 207.016 -16.7712 212.679C-20.066 215.969 -33.6702 229.403 -15.1767 227.264C-33.7765 234.338 -27.9303 258.589 -5.29162 252.933C-15.6012 258.686 -46.9559 236.695 -31.2258 260.517C-52.3765 246.759 -82.5612 261.003 -105.519 260.517C-97.016 252.568 -130.909 242.971 -137.712 247.338C-151.422 256.17 -121.887 270.71 -108.601 261.692C-121.037 272.363 -138.786 278.602 -150.69 289.694C-135.172 290.618 -121.036 277.249 -105.519 283.277C-109.345 288.147 -105.519 292.935 -100.098 295.528C-109.239 298.753 -106.794 307.714 -96.272 306.612C-104.881 307.552 -105.519 313.832 -108.814 318.669C-113.172 325.013 -124.119 328.805 -132.409 331.155C-150.903 336.373 -177.58 339.946 -189.697 351.533C-183.107 353.543 -180.663 357.723 -185.871 362.034C-177.58 363.363 -169.289 362.601 -163.656 357.367C-167.589 362.99 -175.666 364.781 -183.531 364.368C-173.116 374.415 -141.337 362.982 -130.708 357.367C-130.708 365.818 -118.485 366.118 -110.833 364.368C-114.022 367.957 -118.379 368.929 -123.906 367.285C-121.78 377.421 -111.896 372.478 -104.031 369.675C-91.9141 365.372 -85.2181 379.576 -74.6959 383.101C-55.3521 389.518 -52.1638 376.214 -36.4336 374.471C-19.2155 372.567 -7.52405 365.737 6.18669 357.942C-6.88634 369.934 -25.3806 378.223 -39.7291 389.445C-43.449 392.37 -37.9218 395.895 -45.8931 396.672C-54.821 397.548 -63.962 397.969 -72.8899 396.592C-85.5378 394.598 -106.794 391.252 -118.911 396.835C-126.244 400.173 -126.67 406.793 -134.11 410.187C-144.313 414.855 -146.333 403.252 -149.946 417.083C-151.434 422.641 -169.396 443.675 -178.643 442.071C-184.382 441.083 -185.87 441.261 -187.996 446.122C-191.503 453.86 -205.852 457.377 -214.78 460.172C-222.007 462.4 -229.872 464.823 -236.037 468.567C-238.481 470.106 -234.973 475.446 -232.529 474.992C-222.963 473.396 -211.272 467.084 -206.489 477.585" stroke="#333332" stroke-width="1.6"/>
<path d="M77.7145 438.418C84.3042 437.931 90.0437 434.941 93.7637 430.825C81.2221 425.518 74.1015 427.203 62.4102 432.575C67.8307 433.977 72.9317 435.922 77.7145 438.418Z" stroke="#333332" stroke-width="1.6"/>
<path d="M347.111 405.192C366.043 397.69 388.365 390.026 409.105 385.837C394.775 393.922 422.572 393.696 430.549 395.187C438.207 397.525 442.25 399.056 449.695 397.525C458.948 395.629 468.676 381.655 471.867 392.706C471.971 393.067 469.634 387.691 468.784 385.115C475.803 386.29 484.311 385.998 483.354 378.706C488.885 381.914 498.031 383.843 502.498 378.139C506.22 385.131 519.622 382.87 524.621 378.139C530.47 394.562 562.058 394.513 580.564 400.298C570.673 409.13 556.914 422.653 577.905 426.55C583.967 428.835 587.796 427.741 591.944 427.117C588.859 432.999 615.032 434.963 604.397 443.106C615.213 442.729 616.681 455.453 615.884 455.378C612.086 455.023 601.226 456.433 593.675 461.222C590.59 463.158 587.158 464.939 580.245 473.235C574.395 480.252 569.716 483.695 571.205 489.829C573.013 496.067 585.717 503.448 571.465 510.894C567.896 510.894 556.789 509.562 550.021 510.31C548.851 508.803 543.552 502.249 537.596 499.584C530.109 493.947 518.621 491.61 511.729 490.441C504.836 488.103 507.071 471.331 506.646 466.818C499.52 468.957 497.499 473.478 492.501 477.221C483.248 484.1 468.677 481.062 457.616 479.652C459.955 472.53 464.21 461.317 456.446 457.492C447.193 452.939 432.441 452.77 425.953 455.962C427.123 444.976 419.061 446.028 407.416 444.545C395.078 440.567 401.581 438.245 391.49 432.003C387.661 428.497 366.217 429.081 360.856 427.328C343.242 422.653 359.325 408.628 347.837 404.905" stroke="#333332" stroke-width="1.6"/>
<path d="M-181.722 611.116C-172.263 607.696 -160.89 605.557 -150.368 607.032C-146.754 594.765 -168.118 603.2 -172.582 594.781C-162.804 592.294 -151.324 593.209 -141.121 593.606C-149.092 592.561 -159.933 594.724 -154.194 587.189C-160.358 586.946 -181.297 595.932 -183.848 588.064C-187.249 577.328 -165.779 570.846 -155.576 569.306C-141.865 567.232 -128.899 566.39 -114.975 566.681C-95.3126 567.086 -82.665 552.502 -60.7703 554.519C-63.3211 559.908 -37.0683 578.722 -29.7347 576.461C-24.7393 574.63 -20.0631 572.54 -15.4929 570.206C-5.5021 565.985 -6.13946 571.437 2.15075 572.653C10.3347 573.852 16.7122 568.91 17.2437 579.03C22.5579 576.218 14.692 572.856 19.0497 568.278C23.6199 563.602 25.9584 570.7 29.8909 571.494C39.244 573.374 51.3608 571.494 60.8202 570.279C40.7324 565.798 48.0656 544.197 49.7662 532.942C50.829 527.465 39.6686 521.971 35.9486 518.147C29.5715 511.56 35.9496 501.545 26.384 496.181C33.2925 497.105 39.6686 499.697 46.5771 500.791C54.1233 501.99 63.371 496.343 70.0669 498.887C80.3765 502.841 67.5158 514.72 81.758 520.959C85.9031 522.757 93.3429 519.557 97.5943 519.524C110.03 519.443 121.934 522.644 134.051 524.394C145.848 526.104 156.157 525.844 166.679 521.234C176.245 517.061 189.106 517.215 197.821 512.524C190.913 514.598 179.222 515.651 172.526 512.767C159.027 506.844 190.274 492.276 195.376 490.501C211.85 484.878 230.556 485.55 247.243 480.446C256.915 477.488 269.882 460.57 281.892 465.302C271.37 460.124 277.854 424.271 286.569 417.554C295.178 410.958 339.074 399.031 350.446 406.283C356.186 409.978 344.919 424.19 361.712 427.358C379.036 430.623 374.998 427.682 387.327 430.461C398.806 433.094 395.191 439.828 404.013 443.101C415.598 447.371 427.29 442.291 425.802 455.952C432.71 452.557 444.72 453.343 451.947 455.304C465.765 458.901 459.919 471.825 457.155 479.328C466.402 480.503 476.819 482.682 485.959 479.895C494.994 477.132 497.119 469.248 506.154 466.493C507.217 470.836 504.559 490.258 512.318 490.469C523.69 490.793 546.647 502.225 550.155 510.547C549.092 508.148 593.413 513.61 595.645 513.755C606.486 514.485 614.458 512.767 623.067 519.549C629.763 524.896 634.439 533.299 644.642 535.332C646.874 534.522 648.574 533.356 649.956 531.784C653.251 529.183 654.846 532.634 658.353 532.999C660.372 533.566 660.904 534.587 659.948 536.054C658.885 539.23 669.088 537.496 670.682 537.601C681.63 538.33 687.794 533.242 697.891 539.084C708.625 545.307 730.732 546.457 744.124 548.167C727.757 559.227 712.558 571.365 707.244 587.797C704.693 595.786 697.234 602.769 695.534 610.823C693.93 618.42 692.47 619.004 691.704 626.017C688.641 638.873 694.842 642.609 692.204 644.475C686.039 648.753 679.095 653.652 673.196 652.668C665.544 652.182 663.368 643.548 653.412 648.223C646.822 651.051 648.149 659.796 659.203 658.443C650.913 665.136 643.065 672.249 633.5 678.026C629.671 679.779 622.778 682.117 616.651 686.792C612.081 689.952 608.227 694.389 607.461 700.817C600.871 707.088 586.783 708.998 586.017 718.933C586.017 721.855 587.549 724.192 587.549 728.283C585.251 732.958 582.954 734.711 578.359 741.139C591.378 739.97 593.457 737.048 600.568 729.452C612.056 717.18 624.661 719.212 633.589 721.116C644.218 723.409 636.989 736.73 644.642 743.22C658.14 754.499 649.851 758.728 637.734 766.369C644.218 773.313 667.917 785.341 661.328 795.518C655.835 805.821 624.148 812.21 624.254 813.377C624.254 821.431 644.855 828.645 651.87 833.239C662.073 839.884 637.734 851.721 641.241 860.505C645.493 871.168 672.277 883.257 686.412 878.938C704.162 873.517 701.505 881.401 694.809 890.419C678.654 912.142 647.725 923.097 620.091 937.301C621.898 939.278 623.705 941.222 625.511 943.135C615.202 944.261 606.592 948.296 596.92 950.873C586.61 953.652 579.914 949.276 570.136 949.868C555.256 950.759 546.117 941.311 528.367 942.551C535.488 928.526 504.984 939.278 504.666 931.126C506.579 928.598 509.661 927.934 513.806 929.133C513.806 924.539 509.873 921.946 503.814 922.133C508.916 928.08 504.878 928.955 497.544 929.222C485.959 929.628 484.79 929.141 481.601 918.632C485.746 939.561 478.732 926.216 460.983 926.216C450.673 926.216 442.276 921.274 432.285 920.901C420.062 920.415 406.565 931.021 395.617 934.829C387.115 937.803 357.141 946.262 359.055 955.086C359.055 957.978 357.674 960.668 355.654 963.156C350.871 966.397 351.296 969.281 356.823 971.809C361.074 981.954 358.311 987.034 366.07 996.814C358.736 998.41 352.359 995.607 345.132 995.939C337.692 996.263 333.865 1000.84 327.169 1002.23C311.014 1005.6 301.13 992.836 285.613 1001.42C284.55 1001.99 263.08 994.359 260.741 993.038C254.683 989.611 268.501 990.048 258.829 985.114C253.196 982.254 243.098 980.998 238.315 985.681C236.083 975.237 220.884 979.604 212.7 974.645C201.328 967.799 178.052 963.407 181.666 979.855C168.912 978.454 154.563 976.007 141.703 977.805C134.582 978.802 129.798 980.342 123.74 976.161C112.899 968.755 113.75 971.801 102.802 971.688C91.8548 971.607 39.3503 945.274 33.9298 955.937C23.939 952.809 31.0605 947.299 31.6982 941.992C32.7611 935.68 8.31512 938.557 3.31974 933.768C33.7172 925.187 36.268 893.069 41.7948 872.18C44.0268 863.981 45.9397 851.057 54.8676 845.207C67.9406 836.683 50.4033 835.484 49.2342 845.126C47.4274 825.388 52.6365 801.202 63.7964 783.287C74.5312 787.897 85.2655 793.367 89.8357 802.539C90.8986 806.623 91.8556 810.706 92.9184 814.79C95.363 819.984 102.165 820.697 102.059 827.041C105.141 818.882 94.2991 812.602 93.2363 804.872C91.7483 792.994 86.2219 784.948 72.4048 779.171C66.6655 776.756 60.1824 773.459 55.3995 769.918C47.5345 764.149 68.047 767.025 72.1921 769.918C62.5201 766.345 61.9894 735.126 67.6225 729.081C54.9747 735.847 25.1081 722.534 19.2625 713.565C14.0545 705.632 2.25745 701.508 -0.0808188 692.247C-2.20651 683.796 18.0932 674.543 -7.41513 673.668C-4.43916 670.969 -3.80068 666.067 0.0255742 664.009C9.80378 658.84 18.7317 667.534 27.8721 668.417C11.6106 660.242 5.2324 662.956 -11.7732 664.641C-20.276 665.492 -36.8564 655.89 -21.1263 654.416C-25.484 651.118 -23.6771 648.979 -15.8121 647.999C-27.8222 645.714 -45.0395 653.201 -54.8177 645.082C-49.3972 645.082 -44.2962 644.053 -39.5133 642.165C-49.079 637.271 -66.8279 639.256 -69.3787 649.165C-69.3787 642.683 -79.1567 636.623 -70.4413 631.089C-74.1613 638.186 -90.8487 637.725 -80.4327 628.755C-101.583 642.772 -130.067 610.856 -151.537 628.188C-160.146 619.137 -167.267 613.579 -182.04 611.237" stroke="#333332" stroke-width="1.6"/>
<path d="M54.7639 740.045C51.8943 735.41 43.7102 736.415 38.7148 737.128C44.2417 737.29 49.6623 738.246 54.7639 740.045Z" stroke="#333332" stroke-width="1.6"/>
<path d="M57.7379 763.964C62.9458 758.252 56.675 748.48 47.1094 752.297C51.8922 755.521 55.3996 759.411 57.7379 763.964Z" stroke="#333332" stroke-width="1.6"/>
<path d="M440.362 360.227C437.811 360.389 435.367 360.632 432.816 360.794C440.894 363.363 450.566 372.057 459.494 365.461C454.286 361.929 447.398 360.124 440.362 360.211" stroke="#333332" stroke-width="1.6"/>
<path d="M443.447 357.311C456.201 353.624 464.066 370.129 476.395 363.145C466.83 359.685 453.757 348.487 443.447 357.311Z" stroke="#333332" stroke-width="1.6"/>
<path d="M405.277 389.574C406.553 378.757 456.589 387.59 465.779 388.759C455.823 394.018 451.228 402.784 431.316 395.187C421.36 394.018 405.277 395.187 405.277 389.574Z" stroke="#333332" stroke-width="1.6"/>
<path d="M506.549 284.441C495.39 308.052 482.029 327.907 458.009 345.87C448.762 352.822 471.932 358.437 477.352 359.75C490.213 362.869 506.262 354.978 510.513 362.205C493.933 359.774 476.29 371.653 460.241 366.289C474.589 373.265 457.903 368.112 451.632 371.183C457.584 374.375 468.85 372.787 469.806 380.168C458.009 382.988 451.206 374.1 443.022 369.554C432.925 369.554 420.278 367.058 414.113 375.266C421.872 383.069 436.327 381.473 447.38 380.987C456.415 380.582 485.536 392.379 483.729 378.54C489.362 381.757 497.441 383.442 502.011 377.721C505.731 384.714 519.548 382.453 524.437 377.721C530.283 394.145 561.637 393.975 580.13 399.769C567.588 410.861 555.365 427.228 587.676 427.536C601.599 427.698 586.307 410.581 588.645 407.511C589.286 397.684 611.813 390.798 605.687 377.357C603.136 371.054 597.901 361.345 588.973 359.003C588.973 342.524 607.325 359.659 601.754 347.86C608.025 350.282 646.979 352.12 647.962 345.893C649.273 343.599 640.518 340.644 645.996 336.061C647.962 334.094 650.655 332.449 653.206 331.144C683.028 312.135 634.854 311.807 641.244 302.586C648.945 294.764 662.71 301.974 667.625 297.386C671.23 293.125 665.987 294.108 678.768 272.477C683.019 259.116 652.935 242.952 635.93 244.604C609.146 247.197 566.108 251.398 558.078 280.223C554.042 294.038 573.965 302.424 576.941 303.405C585.869 306.378 582.043 310.9 576.941 314.019C571.946 317.074 567.057 320.817 561.956 323.815C554.41 328.312 542.293 319.48 534.109 319.731C536.66 315.575 567.713 309.902 555.296 293.801C533.933 278.92 509.738 277.522 506.549 284.441Z" stroke="#333332" stroke-width="1.6"/>
<path d="M295.527 605.905C295.335 605.905 295.169 605.879 295.029 605.827C294.907 605.792 294.846 605.713 294.846 605.591C294.846 605.364 295.099 605.198 295.606 605.093C296.27 604.97 296.742 604.778 297.022 604.516C297.319 604.254 297.467 603.817 297.467 603.205V591.904C297.467 591.17 297.363 590.619 297.153 590.252C296.961 589.885 296.541 589.64 295.894 589.518C295.615 589.465 295.414 589.395 295.291 589.308C295.169 589.221 295.108 589.116 295.108 588.993C295.108 588.889 295.169 588.81 295.291 588.757C295.431 588.688 295.597 588.653 295.79 588.653C296.244 588.653 296.62 588.661 296.917 588.679C297.214 588.679 297.502 588.688 297.782 588.705C298.062 588.723 298.376 588.731 298.726 588.731C299.093 588.731 299.451 588.714 299.801 588.679C300.15 588.644 300.491 588.609 300.823 588.574C301.173 588.539 301.522 588.521 301.872 588.521C303.917 588.521 305.551 588.95 306.775 589.806C307.998 590.663 308.61 591.843 308.61 593.346C308.61 594.412 308.391 595.4 307.954 596.309C307.535 597.218 306.88 597.952 305.988 598.511C305.097 599.053 303.961 599.324 302.58 599.324C302.178 599.324 301.863 599.263 301.636 599.141C301.426 599.018 301.321 598.896 301.321 598.774C301.321 598.669 301.374 598.581 301.479 598.511C301.584 598.424 301.68 598.38 301.767 598.38C301.889 598.38 302.029 598.398 302.187 598.433C302.361 598.45 302.606 598.459 302.921 598.459C303.865 598.459 304.572 598.031 305.044 597.174C305.534 596.318 305.778 595.155 305.778 593.687C305.778 592.219 305.411 591.144 304.677 590.462C303.961 589.763 303.026 589.413 301.872 589.413C301.383 589.413 300.989 589.509 300.692 589.701C300.413 589.876 300.273 590.173 300.273 590.593L300.247 602.995C300.247 603.589 300.386 604.061 300.666 604.411C300.946 604.743 301.426 604.97 302.108 605.093C302.353 605.145 302.536 605.206 302.659 605.276C302.798 605.346 302.868 605.451 302.868 605.591C302.868 605.696 302.807 605.774 302.685 605.827C302.562 605.879 302.396 605.905 302.187 605.905C301.75 605.905 301.356 605.888 301.007 605.853C300.675 605.836 300.351 605.818 300.037 605.801C299.74 605.766 299.425 605.748 299.093 605.748C298.673 605.748 298.271 605.766 297.887 605.801C297.52 605.818 297.144 605.836 296.76 605.853C296.393 605.888 295.982 605.905 295.527 605.905Z" fill="#333332"/>
<path d="M311.37 606.168C311.003 606.168 310.645 606.045 310.295 605.801C309.945 605.573 309.657 605.285 309.43 604.935C309.203 604.568 309.089 604.21 309.089 603.86C309.089 603.283 309.246 602.82 309.561 602.471C309.893 602.121 310.4 601.806 311.082 601.527L313.625 600.452C313.974 600.312 314.184 600.189 314.254 600.085C314.324 599.962 314.367 599.726 314.385 599.377L314.437 597.777C314.455 597.305 314.341 596.912 314.097 596.597C313.852 596.283 313.494 596.125 313.022 596.125C312.777 596.125 312.523 596.178 312.261 596.283C312.017 596.37 311.816 596.475 311.658 596.597C311.571 596.667 311.51 596.763 311.475 596.886C311.457 597.008 311.449 597.139 311.449 597.279C311.449 597.366 311.449 597.471 311.449 597.594C311.466 597.699 311.475 597.786 311.475 597.856C311.475 597.961 311.352 598.092 311.108 598.249C310.881 598.389 310.61 598.52 310.295 598.642C309.998 598.765 309.744 598.826 309.535 598.826C309.43 598.826 309.342 598.8 309.273 598.747C309.22 598.677 309.194 598.59 309.194 598.485C309.194 598.205 309.281 597.917 309.456 597.62C309.648 597.305 309.928 596.991 310.295 596.676C310.714 596.309 311.169 595.985 311.658 595.706C312.165 595.409 312.655 595.181 313.126 595.024C313.616 594.867 314.044 594.788 314.411 594.788C315.145 594.788 315.74 595.042 316.194 595.548C316.666 596.038 316.884 596.676 316.849 597.463L316.718 603.388C316.701 603.773 316.779 604.088 316.954 604.332C317.129 604.577 317.348 604.699 317.61 604.699C318.012 604.699 318.326 604.594 318.554 604.385C318.623 604.315 318.685 604.28 318.737 604.28C318.824 604.28 318.894 604.306 318.947 604.358C319.017 604.411 319.052 604.481 319.052 604.568C319.052 604.778 318.929 604.996 318.685 605.224C318.387 605.521 318.064 605.748 317.715 605.905C317.382 606.08 317.059 606.168 316.745 606.168C315.871 606.168 315.171 605.696 314.647 604.752H314.568C313.992 605.241 313.45 605.6 312.943 605.827C312.436 606.054 311.912 606.168 311.37 606.168ZM312.733 604.752C313.03 604.752 313.275 604.708 313.467 604.621C313.677 604.516 313.861 604.376 314.018 604.201C314.105 604.114 314.166 604.009 314.201 603.887C314.254 603.747 314.289 603.537 314.306 603.257L314.359 601.763C314.376 601.588 314.367 601.466 314.332 601.396C314.298 601.308 314.228 601.264 314.123 601.264C314.088 601.264 314.035 601.273 313.965 601.291C313.896 601.308 313.799 601.343 313.677 601.396C312.891 601.693 312.34 602.007 312.025 602.34C311.711 602.654 311.553 603.004 311.553 603.388C311.553 603.86 311.676 604.21 311.92 604.437C312.183 604.647 312.454 604.752 312.733 604.752Z" fill="#333332"/>
<path d="M320.234 605.879C320.076 605.879 319.945 605.853 319.84 605.801C319.753 605.748 319.709 605.669 319.709 605.565C319.709 605.425 319.762 605.329 319.867 605.276C319.989 605.206 320.138 605.145 320.312 605.093C320.679 605.005 320.933 604.883 321.073 604.726C321.23 604.568 321.309 604.358 321.309 604.096V598.328C321.309 597.891 321.247 597.524 321.125 597.227C321.003 596.912 320.741 596.711 320.339 596.624C320.269 596.606 320.199 596.562 320.129 596.492C320.076 596.422 320.05 596.335 320.05 596.23C320.05 596.038 320.138 595.916 320.312 595.863C320.802 595.723 321.326 595.531 321.885 595.286C322.445 595.024 322.899 594.797 323.249 594.605C323.354 594.535 323.45 594.482 323.537 594.447C323.624 594.412 323.686 594.395 323.721 594.395C323.843 594.395 323.904 594.465 323.904 594.605C323.904 594.674 323.895 594.823 323.878 595.05C323.878 595.278 323.869 595.531 323.852 595.811C323.834 596.09 323.825 596.361 323.825 596.624C323.825 596.693 323.843 596.728 323.878 596.728C324.158 596.379 324.463 596.055 324.796 595.758C325.145 595.461 325.512 595.225 325.897 595.05C326.281 594.858 326.648 594.762 326.998 594.762C327.452 594.762 327.802 594.858 328.047 595.05C328.291 595.225 328.414 595.461 328.414 595.758C328.414 595.951 328.352 596.178 328.23 596.44C328.125 596.685 327.977 596.903 327.784 597.095C327.61 597.27 327.417 597.358 327.208 597.358C327.085 597.358 326.954 597.331 326.814 597.279C326.674 597.209 326.526 597.139 326.369 597.069C326.229 596.999 326.08 596.938 325.923 596.886C325.783 596.816 325.643 596.781 325.503 596.781C325.066 596.781 324.664 596.938 324.297 597.253C323.93 597.567 323.747 598.179 323.747 599.088V604.018C323.747 604.297 323.86 604.516 324.088 604.673C324.315 604.83 324.656 604.979 325.11 605.119C325.302 605.171 325.451 605.232 325.556 605.302C325.661 605.355 325.713 605.442 325.713 605.565C325.713 605.774 325.547 605.879 325.215 605.879C324.691 605.879 324.236 605.853 323.852 605.801C323.485 605.766 323.074 605.748 322.619 605.748C322.322 605.748 322.06 605.757 321.833 605.774C321.606 605.792 321.37 605.809 321.125 605.827C320.88 605.862 320.583 605.879 320.234 605.879Z" fill="#333332"/>
<path d="M329.628 605.879C329.488 605.879 329.365 605.853 329.261 605.801C329.173 605.748 329.129 605.669 329.129 605.565C329.129 605.425 329.182 605.329 329.287 605.276C329.409 605.206 329.54 605.154 329.68 605.119C330.082 605.014 330.379 604.9 330.571 604.778C330.764 604.656 330.86 604.437 330.86 604.122V598.459C330.86 597.935 330.772 597.515 330.598 597.2C330.423 596.868 330.117 596.667 329.68 596.597C329.593 596.58 329.523 596.545 329.47 596.492C329.435 596.422 329.418 596.326 329.418 596.204C329.418 595.994 329.496 595.881 329.654 595.863C330.423 595.688 331.078 595.461 331.62 595.181C332.179 594.884 332.599 594.648 332.879 594.473C333.071 594.351 333.211 594.29 333.298 594.29C333.438 594.29 333.508 594.36 333.508 594.5C333.508 594.692 333.482 594.998 333.429 595.417C333.394 595.837 333.35 596.291 333.298 596.781C333.263 597.27 333.246 597.725 333.246 598.144V604.122C333.246 604.402 333.342 604.612 333.534 604.752C333.726 604.892 334.023 605.014 334.425 605.119C334.565 605.154 334.688 605.206 334.792 605.276C334.915 605.329 334.976 605.425 334.976 605.565C334.976 605.774 334.819 605.879 334.504 605.879C334.172 605.879 333.875 605.862 333.613 605.827C333.35 605.809 333.097 605.792 332.852 605.774C332.625 605.757 332.354 605.748 332.04 605.748C331.742 605.748 331.472 605.757 331.227 605.774C330.982 605.792 330.737 605.809 330.493 605.827C330.266 605.862 329.977 605.879 329.628 605.879ZM331.987 592.481C331.55 592.481 331.174 592.332 330.86 592.035C330.563 591.72 330.414 591.345 330.414 590.908C330.414 590.453 330.563 590.077 330.86 589.78C331.174 589.465 331.55 589.308 331.987 589.308C332.442 589.308 332.826 589.465 333.141 589.78C333.455 590.077 333.613 590.453 333.613 590.908C333.613 591.345 333.455 591.72 333.141 592.035C332.826 592.332 332.442 592.481 331.987 592.481Z" fill="#333332"/>
<path d="M339.399 606.168C338.839 606.168 338.306 606.089 337.799 605.932C337.31 605.774 336.882 605.547 336.515 605.25C336.392 605.023 336.305 604.664 336.253 604.175C336.2 603.685 336.174 603.24 336.174 602.838C336.174 602.663 336.305 602.575 336.567 602.575C336.672 602.575 336.759 602.602 336.829 602.654C336.917 602.689 336.969 602.742 336.987 602.811C337.249 603.633 337.616 604.254 338.088 604.673C338.56 605.093 339.075 605.302 339.635 605.302C340.124 605.302 340.526 605.145 340.841 604.83C341.155 604.498 341.313 604.105 341.313 603.651C341.313 603.179 341.147 602.785 340.814 602.471C340.482 602.138 339.975 601.763 339.294 601.343C338.735 601.011 338.254 600.688 337.852 600.373C337.45 600.041 337.144 599.683 336.934 599.298C336.725 598.896 336.62 598.441 336.62 597.935C336.62 597.323 336.768 596.781 337.065 596.309C337.38 595.837 337.817 595.461 338.376 595.181C338.936 594.902 339.608 594.762 340.395 594.762C340.954 594.762 341.426 594.823 341.811 594.945C342.213 595.05 342.501 595.164 342.676 595.286C342.816 595.479 342.929 595.793 343.017 596.23C343.122 596.667 343.174 597.104 343.174 597.541C343.174 597.681 343.06 597.751 342.833 597.751C342.728 597.751 342.615 597.725 342.492 597.672C342.388 597.62 342.318 597.55 342.283 597.463C342.055 596.851 341.767 596.388 341.417 596.073C341.085 595.758 340.675 595.601 340.185 595.601C339.766 595.601 339.39 595.732 339.058 595.994C338.726 596.239 338.56 596.597 338.56 597.069C338.56 597.471 338.7 597.83 338.979 598.144C339.276 598.441 339.74 598.765 340.369 599.114C341.417 599.691 342.186 600.242 342.676 600.766C343.183 601.273 343.436 601.955 343.436 602.811C343.436 603.825 343.069 604.638 342.335 605.25C341.618 605.862 340.64 606.168 339.399 606.168Z" fill="#333332"/>
<path d="M322.191 574.009C322.191 575.81 320.731 577.27 318.93 577.27C317.13 577.27 315.67 575.81 315.67 574.009C315.67 572.208 317.13 570.748 318.93 570.748C320.731 570.748 322.191 572.208 322.191 574.009Z" stroke="#333332" stroke-width="2"/>
<path d="M485.394 402.266C485.394 404.067 483.934 405.526 482.133 405.526C480.333 405.526 478.873 404.067 478.873 402.266C478.873 400.465 480.333 399.005 482.133 399.005C483.934 399.005 485.394 400.465 485.394 402.266Z" stroke="#333332" stroke-width="2"/>
<path d="M436.558 432.221C436.349 432.221 436.174 432.187 436.034 432.117C435.894 432.064 435.824 431.977 435.824 431.854C435.824 431.715 435.894 431.601 436.034 431.514C436.174 431.426 436.366 431.339 436.611 431.251C437.083 431.111 437.511 430.902 437.895 430.622C438.28 430.342 438.595 429.914 438.839 429.337C439.311 428.271 439.748 427.257 440.15 426.296C440.552 425.317 440.937 424.355 441.304 423.411C441.671 422.468 442.047 421.497 442.431 420.501C442.816 419.487 443.209 418.412 443.611 417.276C443.768 416.874 443.882 416.542 443.952 416.28C444.022 416 444.065 415.755 444.083 415.545C444.31 415.493 444.52 415.441 444.712 415.388C444.904 415.318 445.114 415.222 445.341 415.1C445.551 414.995 445.708 414.846 445.813 414.654C445.935 414.444 446.032 414.296 446.101 414.208C446.136 414.191 446.171 414.182 446.206 414.182C446.259 414.165 446.302 414.191 446.337 414.261C446.39 414.348 446.425 414.444 446.442 414.549C446.477 414.654 446.512 414.768 446.547 414.89C446.949 416.166 447.36 417.468 447.779 418.797C448.216 420.108 448.645 421.393 449.064 422.651C449.484 423.91 449.877 425.081 450.244 426.165C450.611 427.231 450.926 428.166 451.188 428.97C451.38 429.547 451.607 429.993 451.869 430.307C452.132 430.605 452.411 430.832 452.708 430.989C453.005 431.129 453.329 431.234 453.678 431.304C453.941 431.356 454.133 431.435 454.255 431.54C454.395 431.645 454.465 431.767 454.465 431.907C454.465 432.012 454.395 432.082 454.255 432.117C454.133 432.169 453.975 432.195 453.783 432.195C453.504 432.195 453.137 432.178 452.682 432.143C452.228 432.125 451.756 432.108 451.266 432.09C450.777 432.073 450.331 432.064 449.929 432.064C449.597 432.064 449.23 432.064 448.828 432.064C448.426 432.064 448.042 432.073 447.675 432.09C447.325 432.108 447.019 432.117 446.757 432.117C446.547 432.117 446.372 432.09 446.233 432.038C446.11 431.968 446.049 431.881 446.049 431.776C446.049 431.636 446.128 431.522 446.285 431.435C446.442 431.347 446.626 431.286 446.836 431.251C447.43 431.146 447.858 430.989 448.12 430.779C448.4 430.57 448.514 430.29 448.461 429.94C448.444 429.643 448.382 429.276 448.278 428.839C448.173 428.385 448.05 427.913 447.91 427.423C447.771 426.916 447.64 426.453 447.517 426.034C447.482 425.894 447.421 425.806 447.334 425.771C447.246 425.736 447.098 425.719 446.888 425.719H442.038C441.95 425.719 441.872 425.754 441.802 425.824C441.732 425.876 441.662 425.99 441.592 426.165C441.54 426.374 441.452 426.645 441.33 426.977C441.225 427.292 441.12 427.633 441.015 428C440.91 428.35 440.814 428.682 440.727 428.996C440.657 429.294 440.613 429.512 440.596 429.652C440.543 430.089 440.648 430.439 440.91 430.701C441.19 430.945 441.601 431.138 442.143 431.278C442.667 431.417 442.929 431.592 442.929 431.802C442.929 431.924 442.859 432.012 442.719 432.064C442.597 432.099 442.431 432.117 442.221 432.117C441.889 432.117 441.505 432.108 441.068 432.09C440.631 432.073 440.168 432.064 439.678 432.064C439.119 432.064 438.577 432.09 438.053 432.143C437.528 432.195 437.03 432.221 436.558 432.221ZM442.772 424.644H446.6C446.844 424.644 446.967 424.6 446.967 424.513C446.967 424.46 446.958 424.417 446.94 424.382C446.94 424.347 446.932 424.294 446.914 424.224L444.974 418.01C444.887 417.73 444.817 417.591 444.764 417.591C444.729 417.591 444.668 417.722 444.581 417.984L442.3 424.224C442.265 424.329 442.248 424.399 442.248 424.434C442.248 424.521 442.291 424.583 442.379 424.618C442.483 424.635 442.615 424.644 442.772 424.644Z" fill="#333332"/>
<path d="M455.439 432.169C455.299 432.169 455.177 432.143 455.072 432.09C454.967 432.038 454.914 431.959 454.914 431.854C454.914 431.715 454.967 431.618 455.072 431.566C455.194 431.496 455.343 431.435 455.517 431.382C455.78 431.313 456.024 431.216 456.252 431.094C456.479 430.972 456.592 430.736 456.592 430.386V424.618C456.592 424.181 456.54 423.814 456.435 423.516C456.348 423.202 456.094 422.992 455.675 422.887C455.605 422.87 455.544 422.835 455.491 422.782C455.439 422.712 455.413 422.625 455.413 422.52C455.413 422.293 455.491 422.17 455.649 422.153C456.26 421.996 456.811 421.803 457.3 421.576C457.807 421.349 458.27 421.095 458.69 420.816C458.742 420.781 458.795 420.746 458.847 420.711C458.917 420.676 458.978 420.658 459.031 420.658C459.101 420.658 459.144 420.685 459.162 420.737C459.197 420.772 459.214 420.824 459.214 420.894C459.214 421.017 459.188 421.253 459.135 421.602C459.101 421.952 459.083 422.249 459.083 422.494C459.083 422.564 459.083 422.634 459.083 422.704C459.101 422.773 459.118 422.817 459.135 422.835C459.747 422.258 460.376 421.821 461.023 421.524C461.687 421.226 462.43 421.078 463.252 421.078C464.126 421.078 464.851 421.419 465.428 422.1C466.004 422.782 466.293 423.665 466.293 424.749V430.412C466.293 430.762 466.406 430.989 466.634 431.094C466.878 431.199 467.132 431.295 467.394 431.382C467.534 431.435 467.665 431.496 467.787 431.566C467.91 431.636 467.971 431.741 467.971 431.881C467.971 432.003 467.91 432.082 467.787 432.117C467.682 432.152 467.578 432.169 467.473 432.169C467.123 432.169 466.826 432.152 466.581 432.117C466.354 432.099 466.127 432.082 465.9 432.064C465.69 432.047 465.428 432.038 465.113 432.038C464.816 432.038 464.554 432.047 464.327 432.064C464.099 432.082 463.863 432.099 463.619 432.117C463.391 432.152 463.103 432.169 462.754 432.169C462.666 432.169 462.561 432.152 462.439 432.117C462.317 432.082 462.255 432.003 462.255 431.881C462.255 431.741 462.317 431.636 462.439 431.566C462.561 431.496 462.692 431.435 462.832 431.382C463.094 431.295 463.339 431.199 463.566 431.094C463.793 430.989 463.907 430.762 463.907 430.412V424.985C463.907 424.251 463.706 423.682 463.304 423.28C462.92 422.878 462.413 422.669 461.783 422.651C461.242 422.651 460.761 422.739 460.341 422.913C459.939 423.071 459.564 423.289 459.214 423.569C459.144 423.639 459.092 423.726 459.057 423.831C459.022 423.936 459.004 424.032 459.004 424.119V430.412C459.004 430.762 459.118 430.998 459.345 431.12C459.572 431.225 459.808 431.313 460.053 431.382C460.438 431.505 460.63 431.662 460.63 431.854C460.63 431.959 460.586 432.038 460.499 432.09C460.411 432.143 460.289 432.169 460.132 432.169C459.782 432.169 459.485 432.152 459.24 432.117C459.013 432.099 458.795 432.082 458.585 432.064C458.393 432.047 458.139 432.038 457.825 432.038C457.527 432.038 457.265 432.047 457.038 432.064C456.811 432.082 456.575 432.099 456.33 432.117C456.086 432.152 455.788 432.169 455.439 432.169Z" fill="#333332"/>
<path d="M473.585 432.457C472.624 432.457 471.881 432.187 471.357 431.645C470.85 431.103 470.597 430.307 470.597 429.259V423.176C470.597 423.036 470.535 422.94 470.413 422.887C470.308 422.817 470.09 422.782 469.758 422.782H469.548C469.443 422.782 469.356 422.712 469.286 422.572C469.216 422.415 469.181 422.267 469.181 422.127C469.181 422.092 469.198 422.048 469.233 421.996C469.286 421.926 469.329 421.882 469.364 421.865C469.731 421.637 470.09 421.393 470.439 421.13C470.806 420.851 471.138 420.571 471.436 420.291C471.75 420.012 472.012 419.767 472.222 419.557C472.327 419.47 472.414 419.391 472.484 419.321C472.554 419.251 472.642 419.216 472.746 419.216C472.851 419.216 472.939 419.242 473.009 419.295C473.096 419.347 473.131 419.452 473.114 419.61L472.956 420.894C472.939 421.104 472.982 421.244 473.087 421.314C473.21 421.384 473.376 421.419 473.585 421.419H476.627C476.679 421.419 476.732 421.48 476.784 421.602C476.836 421.725 476.863 421.847 476.863 421.969C476.863 422.162 476.836 422.345 476.784 422.52C476.732 422.695 476.67 422.782 476.6 422.782H474.057C473.62 422.782 473.332 422.826 473.192 422.913C473.07 423.001 473.009 423.202 473.009 423.516V428.603C473.009 429.337 473.157 429.905 473.454 430.307C473.751 430.692 474.171 430.884 474.713 430.884C475.22 430.884 475.604 430.841 475.866 430.753C476.129 430.666 476.365 430.561 476.574 430.439C476.627 430.404 476.67 430.386 476.705 430.386C476.793 430.386 476.845 430.43 476.863 430.517C476.898 430.605 476.915 430.701 476.915 430.806C476.915 430.91 476.758 431.094 476.443 431.356C476.129 431.618 475.718 431.863 475.211 432.09C474.704 432.335 474.162 432.457 473.585 432.457Z" fill="#333332"/>
<path d="M483.128 432.772C483.093 432.772 483.049 432.746 482.997 432.693C482.944 432.658 482.9 432.606 482.865 432.536L479.169 423.438C479.046 423.071 478.863 422.773 478.618 422.546C478.373 422.302 478.111 422.135 477.832 422.048C477.674 421.996 477.535 421.934 477.412 421.865C477.307 421.777 477.255 421.672 477.255 421.55C477.255 421.428 477.325 421.358 477.465 421.34C477.604 421.305 477.718 421.288 477.805 421.288C478.103 421.288 478.356 421.296 478.566 421.314C478.793 421.331 479.011 421.358 479.221 421.393C479.448 421.41 479.693 421.419 479.955 421.419C480.235 421.419 480.497 421.41 480.742 421.393C481.004 421.358 481.257 421.331 481.502 421.314C481.747 421.296 482.018 421.288 482.315 421.288C482.402 421.288 482.516 421.305 482.656 421.34C482.796 421.375 482.865 421.445 482.865 421.55C482.865 421.69 482.796 421.795 482.656 421.865C482.533 421.917 482.402 421.978 482.262 422.048C482.088 422.1 481.948 422.223 481.843 422.415C481.756 422.59 481.712 422.808 481.712 423.071C481.712 423.333 481.764 423.595 481.869 423.857L483.731 428.708C483.748 428.76 483.783 428.787 483.835 428.787C483.888 428.787 483.923 428.76 483.94 428.708L485.723 424.513C485.793 424.32 485.837 424.137 485.854 423.962C485.889 423.77 485.907 423.586 485.907 423.411C485.907 423.097 485.776 422.826 485.513 422.599C485.251 422.354 484.972 422.17 484.674 422.048C484.517 421.996 484.377 421.934 484.255 421.865C484.15 421.795 484.098 421.69 484.098 421.55C484.098 421.445 484.168 421.375 484.307 421.34C484.447 421.305 484.578 421.288 484.701 421.288C485.015 421.288 485.339 421.314 485.671 421.366C486.003 421.401 486.37 421.419 486.772 421.419C487.261 421.419 487.689 421.401 488.056 421.366C488.424 421.314 488.782 421.288 489.131 421.288C489.236 421.288 489.35 421.305 489.472 421.34C489.612 421.375 489.682 421.454 489.682 421.576C489.682 421.698 489.612 421.795 489.472 421.865C489.35 421.934 489.219 421.996 489.079 422.048C488.887 422.118 488.703 422.214 488.528 422.336C488.371 422.459 488.292 422.669 488.292 422.966C488.292 423.106 488.301 423.254 488.319 423.411C488.354 423.551 488.406 423.7 488.476 423.857L490.311 428.577C490.364 428.717 490.416 428.787 490.469 428.787C490.521 428.787 490.573 428.725 490.626 428.603L492.435 424.277C492.505 424.119 492.548 423.945 492.566 423.752C492.601 423.543 492.618 423.368 492.618 423.228C492.618 422.931 492.522 422.686 492.33 422.494C492.155 422.284 491.963 422.144 491.753 422.074C491.613 422.022 491.474 421.961 491.334 421.891C491.211 421.821 491.15 421.716 491.15 421.576C491.15 421.471 491.22 421.401 491.36 421.366C491.5 421.331 491.613 421.314 491.701 421.314C492.138 421.314 492.461 421.331 492.671 421.366C492.898 421.401 493.213 421.419 493.615 421.419C493.894 421.419 494.104 421.41 494.244 421.393C494.384 421.375 494.515 421.358 494.637 421.34C494.777 421.323 494.969 421.314 495.214 421.314C495.319 421.314 495.432 421.331 495.555 421.366C495.695 421.384 495.764 421.454 495.764 421.576C495.764 421.698 495.703 421.803 495.581 421.891C495.476 421.961 495.354 422.022 495.214 422.074C494.917 422.162 494.646 422.363 494.401 422.677C494.156 422.992 493.947 423.35 493.772 423.752L490.154 432.536C490.084 432.676 489.979 432.746 489.839 432.746C489.734 432.746 489.638 432.676 489.551 432.536L486.641 425.509C486.606 425.404 486.562 425.352 486.51 425.352C486.457 425.352 486.414 425.413 486.379 425.535L483.442 432.536C483.372 432.693 483.267 432.772 483.128 432.772Z" fill="#333332"/>
<path d="M500.681 432.484C499.737 432.484 498.898 432.248 498.164 431.776C497.447 431.286 496.879 430.613 496.46 429.757C496.04 428.883 495.831 427.878 495.831 426.741C495.831 425.71 496.067 424.766 496.538 423.91C497.028 423.053 497.675 422.371 498.479 421.865C499.283 421.34 500.165 421.078 501.127 421.078C501.843 421.078 502.481 421.226 503.04 421.524C503.617 421.803 504.063 422.205 504.378 422.73C504.71 423.237 504.876 423.822 504.876 424.487C504.876 425.063 504.605 425.352 504.063 425.352H498.636C498.391 425.352 498.216 425.422 498.112 425.562C498.007 425.701 497.954 425.955 497.954 426.322C497.954 427.091 498.129 427.799 498.479 428.446C498.828 429.075 499.291 429.582 499.868 429.967C500.445 430.351 501.083 430.543 501.782 430.543C502.306 430.543 502.778 430.447 503.198 430.255C503.635 430.045 504.037 429.757 504.404 429.39C504.456 429.32 504.5 429.267 504.535 429.232C504.587 429.197 504.64 429.18 504.692 429.18C504.849 429.18 504.928 429.276 504.928 429.468C504.928 429.748 504.806 430.08 504.561 430.465C504.316 430.832 504.002 431.173 503.617 431.487C503.25 431.784 502.813 432.02 502.306 432.195C501.817 432.388 501.275 432.484 500.681 432.484ZM498.662 424.46H500.76C501.214 424.46 501.572 424.452 501.834 424.434C502.097 424.417 502.341 424.382 502.569 424.329C502.656 424.294 502.717 424.224 502.752 424.119C502.787 423.997 502.804 423.849 502.804 423.674C502.804 423.184 502.603 422.773 502.201 422.441C501.799 422.092 501.319 421.917 500.76 421.917C500.375 421.917 499.99 422.031 499.606 422.258C499.239 422.485 498.933 422.773 498.688 423.123C498.444 423.455 498.33 423.796 498.347 424.146C498.347 424.355 498.452 424.46 498.662 424.46Z" fill="#333332"/>
<path d="M506.826 432.169C506.669 432.169 506.538 432.143 506.433 432.09C506.345 432.038 506.302 431.959 506.302 431.854C506.302 431.715 506.354 431.618 506.459 431.566C506.581 431.496 506.73 431.435 506.905 431.382C507.272 431.295 507.525 431.173 507.665 431.015C507.822 430.858 507.901 430.648 507.901 430.386V424.618C507.901 424.181 507.84 423.814 507.717 423.516C507.595 423.202 507.333 423.001 506.931 422.913C506.861 422.896 506.791 422.852 506.721 422.782C506.669 422.712 506.642 422.625 506.642 422.52C506.642 422.328 506.73 422.205 506.905 422.153C507.394 422.013 507.918 421.821 508.478 421.576C509.037 421.314 509.491 421.087 509.841 420.894C509.946 420.824 510.042 420.772 510.129 420.737C510.217 420.702 510.278 420.685 510.313 420.685C510.435 420.685 510.496 420.755 510.496 420.894C510.496 420.964 510.488 421.113 510.47 421.34C510.47 421.567 510.461 421.821 510.444 422.1C510.427 422.38 510.418 422.651 510.418 422.913C510.418 422.983 510.435 423.018 510.47 423.018C510.75 422.669 511.056 422.345 511.388 422.048C511.737 421.751 512.104 421.515 512.489 421.34C512.874 421.148 513.241 421.052 513.59 421.052C514.045 421.052 514.394 421.148 514.639 421.34C514.884 421.515 515.006 421.751 515.006 422.048C515.006 422.24 514.945 422.468 514.822 422.73C514.717 422.974 514.569 423.193 514.377 423.385C514.202 423.56 514.01 423.647 513.8 423.647C513.678 423.647 513.546 423.621 513.407 423.569C513.267 423.499 513.118 423.429 512.961 423.359C512.821 423.289 512.673 423.228 512.515 423.176C512.375 423.106 512.236 423.071 512.096 423.071C511.659 423.071 511.257 423.228 510.89 423.543C510.523 423.857 510.339 424.469 510.339 425.378V430.307C510.339 430.587 510.453 430.806 510.68 430.963C510.907 431.12 511.248 431.269 511.702 431.409C511.895 431.461 512.043 431.522 512.148 431.592C512.253 431.645 512.305 431.732 512.305 431.854C512.305 432.064 512.139 432.169 511.807 432.169C511.283 432.169 510.829 432.143 510.444 432.09C510.077 432.055 509.666 432.038 509.212 432.038C508.915 432.038 508.652 432.047 508.425 432.064C508.198 432.082 507.962 432.099 507.717 432.117C507.473 432.152 507.176 432.169 506.826 432.169Z" fill="#333332"/>
<path d="M516.141 439.353C516.036 439.353 515.914 439.327 515.774 439.275C515.652 439.24 515.591 439.17 515.591 439.065C515.591 438.925 515.652 438.82 515.774 438.75C515.897 438.68 516.036 438.619 516.194 438.567C516.491 438.479 516.744 438.374 516.954 438.252C517.164 438.13 517.269 437.903 517.269 437.57V424.539C517.269 424.382 517.225 424.172 517.137 423.91C517.068 423.647 516.945 423.403 516.77 423.176C516.596 422.948 516.377 422.817 516.115 422.782C516.028 422.747 515.958 422.704 515.905 422.651C515.87 422.581 515.853 422.494 515.853 422.389C515.853 422.284 515.87 422.205 515.905 422.153C515.958 422.083 516.019 422.039 516.089 422.022C516.718 421.865 517.312 421.69 517.872 421.497C518.431 421.305 518.929 421.104 519.366 420.894C519.418 420.894 519.453 420.886 519.471 420.868C519.506 420.833 519.541 420.816 519.576 420.816C519.628 420.816 519.672 420.851 519.707 420.921C519.742 420.973 519.759 421.025 519.759 421.078C519.759 421.235 519.733 421.48 519.681 421.812C519.646 422.144 519.628 422.424 519.628 422.651C519.628 422.791 519.637 422.87 519.654 422.887C519.829 422.712 520.144 422.494 520.598 422.232C521.053 421.952 521.577 421.698 522.171 421.471C522.766 421.244 523.334 421.13 523.875 421.13C524.784 421.13 525.562 421.375 526.209 421.865C526.855 422.354 527.354 422.983 527.703 423.752C528.053 424.521 528.227 425.317 528.227 426.138C528.227 426.942 528.07 427.72 527.756 428.472C527.458 429.224 527.03 429.905 526.471 430.517C525.929 431.111 525.3 431.592 524.583 431.959C523.867 432.309 523.089 432.484 522.25 432.484C522.023 432.484 521.752 432.449 521.437 432.379C521.123 432.326 520.808 432.239 520.493 432.117C520.196 432.012 519.96 431.889 519.785 431.75C519.768 431.75 519.75 431.828 519.733 431.985C519.716 432.125 519.698 432.274 519.681 432.431C519.681 432.606 519.681 432.728 519.681 432.798V437.492C519.681 437.719 519.759 437.903 519.917 438.042C520.074 438.182 520.257 438.287 520.467 438.357C520.694 438.444 520.922 438.523 521.149 438.593C521.306 438.645 521.446 438.698 521.568 438.75C521.691 438.82 521.752 438.925 521.752 439.065C521.752 439.17 521.691 439.24 521.568 439.275C521.446 439.327 521.324 439.353 521.201 439.353C520.694 439.353 520.231 439.327 519.812 439.275C519.392 439.24 518.955 439.222 518.501 439.222C518.204 439.222 517.941 439.231 517.714 439.248C517.487 439.266 517.251 439.283 517.006 439.301C516.779 439.336 516.491 439.353 516.141 439.353ZM522.486 431.54C522.731 431.54 523.019 431.47 523.351 431.33C523.683 431.173 524.015 430.919 524.347 430.57C524.697 430.22 524.985 429.757 525.212 429.18C525.44 428.603 525.553 427.886 525.553 427.03C525.553 426.034 525.431 425.238 525.186 424.644C524.959 424.05 524.671 423.604 524.321 423.307C523.972 422.992 523.613 422.782 523.246 422.677C522.897 422.572 522.599 422.52 522.355 422.52C521.97 422.52 521.568 422.607 521.149 422.782C520.747 422.94 520.406 423.123 520.126 423.333C519.864 423.543 519.733 423.709 519.733 423.831C519.733 424.146 519.724 424.504 519.707 424.906C519.707 425.291 519.698 425.693 519.681 426.112C519.681 426.514 519.681 426.881 519.681 427.213C519.681 427.546 519.681 427.782 519.681 427.921C519.681 428.516 519.812 429.093 520.074 429.652C520.353 430.211 520.703 430.666 521.123 431.015C521.559 431.365 522.014 431.54 522.486 431.54Z" fill="#333332"/>
</g>
<defs>
<clipPath id="clip0_519_2">
<rect width="805" height="751" fill="white"/>
</clipPath>
</defs>
</svg>
