<svg width="807" height="751" viewBox="0 0 807 751" fill="none" xmlns="http://www.w3.org/2000/svg">
<g clip-path="url(#clip0_566_3181)">
<path d="M437.309 722.943C439.655 719.44 442.321 716.042 445.095 712.724C448.614 707.514 443.175 703.327 445.095 698.431C448.721 691.111 465.36 685.418 466 683.083C468.24 673.694 474.427 667.727 492.132 660.101C501.732 655.986 507.811 647.443 516.984 640.622C499.812 642.176 510.264 621.836 524.343 631.49C539.596 641.878 546.423 624.799 561.142 623.229C553.462 630.001 592.287 624.799 599.433 625.081C613.299 625.644 624.285 625.958 627.271 619.307C616.605 622.295 614.473 614.838 624.072 612.342C628.019 611.327 631.964 612.422 637.937 614.21C648.07 617.197 660.365 619.061 662.498 619.641C674.296 622.848 689.668 622.593 699.267 628.97C711.96 637.353 693.082 651.01 690.949 660.335C715.481 658.007 717.401 671.399 737.453 674.33C746.092 675.594 749.506 663.266 758.892 665.287C769.985 667.646 760.491 676.995 759.958 681.287C758.892 684.621 768.918 695.041 758.892 695.242C751.852 695.403 746.305 685.781 739.586 690.258C737.132 691.868 728.813 701.338 734.68 703.351C744.919 706.902 738.839 709.6 737.239 717.145C727.213 714.117 726.786 705.968 714.2 707.869C701.827 709.721 700.548 711.694 690.415 704.39C689.348 703.665 678.469 689.557 676.976 701.097C675.589 711.678 675.908 714.254 665.669 722.25C652.763 732.445 664.39 756.345 643.804 733.524C639.111 728.443 633.671 725.955 627.378 722.363C617.672 716.888 621.512 706.484 612.019 701.483C606.58 706.653 600.073 711.879 591.326 713.666C600.926 722.097 579.808 736.93 567.968 736.101C545.57 734.539 527.01 745.249 509.944 731.64C506.869 728.049 498.869 723.549 499.369 713.549C498.869 701.549 489.466 701.153 477.52 702.063C457.468 703.601 460.88 722.484 436.988 722.943" stroke="#333332" stroke-width="1.6"/>
<path d="M483.849 794.612C492.048 790.618 522.257 785.81 521.57 772.759C519.51 764.517 512.226 761.724 506.167 756.716C502.873 754.132 499.047 751.15 496.177 748.273C505.211 744.36 514.245 735.722 508.718 731.039C518.869 738.549 528.369 739.566 539.369 738.049C553.869 736.049 557.928 735.577 570.257 736.282C578.441 736.768 588.326 729.24 592.046 724.444C595.022 720.765 595.448 717.5 592.046 714.097C600.762 712.298 607.245 707.04 612.665 701.838C622.124 706.31 618.405 712.152 623.613 718.488C628.502 724.533 636.047 726.153 642.85 731.169C645.507 733.105 646.144 738.891 656.135 743.574C659.324 745.081 657.943 728.56 665.064 723.512C673.035 717.775 675.692 714.048 676.649 704.738C678.456 688.866 685.364 700.128 689.934 703.888C697.799 710.183 700.563 711.123 710.448 708.555C726.391 704.39 726.39 713.327 737.443 717.589C738.506 712.25 743.927 706.853 734.999 703.758C727.028 700.987 737.656 690.081 742.758 689.303C747.753 688.493 753.28 694.213 758.063 695.194C768.373 697.357 759.125 684.49 759.763 681.897C761.782 676.858 762.739 675.196 763.802 672.863C770.498 673.349 787.291 677.287 791.118 678.794C801.321 682.756 808.229 672.563 814.181 668.496C822.046 663.075 834.482 664.614 844.154 665.044C859.671 665.773 874.658 656.844 889.75 659.242C872.957 666.883 906.968 686.791 916.322 689.068C944.593 695.906 964.468 689.068 992.74 695.258C991.57 703.418 980.092 709.008 974.672 714.089C980.943 716.819 987.32 719.866 994.547 721.089C988.382 726.567 979.028 734.467 992.314 737.424C984.449 745.227 997.204 748.152 1001.46 748.8C1011.55 750.332 1014.42 763.02 999.116 760.76C1009.74 743.931 980.836 753.378 975.415 754.926C973.077 743.315 954.584 753.888 949.163 756.465C943.317 759.293 937.153 761.91 930.882 764.292C926.737 765.872 891.769 774.493 913.452 765.994C907.606 766.909 899.847 766.318 895.064 769.502C891.557 771.763 893.257 781.089 886.668 780.003C886.668 782.701 899.634 796.565 900.909 796.832C920.253 800.9 908.03 822.396 896.658 812.673C874.444 842.539 924.185 870.914 951.076 883.967C964.255 890.36 985.513 894.857 994.653 904.88C1008.15 919.473 1015.27 938.668 1023.14 955.318C1033.23 976.693 1070.01 998.562 1096.26 1007.75C1115.71 1014.56 1126.02 1016.65 1147.6 1014.45C1155.67 1013.63 1191.28 1009.64 1186.92 1023.73C1184.8 1030.45 1159.61 1036.71 1168.75 1044.93C1178.74 1053.81 1205.2 1058.85 1218.7 1062.53C1240.28 1068.41 1259.73 1074.22 1277.69 1085.19C1296.18 1096.38 1318.82 1099.7 1336.78 1112.05C1348.79 1120.36 1364.95 1129.06 1361.87 1142.9C1360.8 1146.04 1360.38 1160.19 1354.21 1160.66C1345.71 1161.31 1335.3 1157.48 1330.83 1151.89C1321.05 1139.68 1321.69 1125.55 1297.57 1127.41C1278.11 1128.9 1274.18 1119.23 1271.52 1113.7C1251.01 1116.33 1246.44 1116.18 1233.58 1130.7C1225.61 1139.7 1219.76 1151 1216.89 1161.65C1213.49 1173.86 1233.9 1176.83 1244.95 1180.71C1262.7 1186.92 1265.89 1196.59 1267.7 1210.27C1270.57 1233.36 1218.17 1216.76 1223.17 1244.64C1225.5 1258.27 1220.72 1259.34 1209.24 1268.6C1199.57 1276.45 1192.13 1286.12 1180.65 1292.56C1169.81 1298.61 1160.67 1295.2 1155.25 1286.38C1146.96 1272.95 1172.57 1266.72 1173.85 1254.5C1173.85 1250.35 1171.62 1245.35 1175.34 1241.65C1181.61 1235.46 1193.94 1240.08 1197.34 1232.12C1200.21 1225.18 1188.73 1217.31 1186.5 1210.98C1183.1 1201.13 1181.93 1192.48 1174.91 1183.49C1166.62 1172.71 1165.35 1156.56 1154.29 1147.45C1147.6 1142.03 1143.03 1143.32 1136.76 1147.29C1129.32 1152.03 1121.56 1142.41 1116.67 1139.41C1111.14 1136.02 1102.11 1136.91 1100.41 1130.1C1099.02 1124.48 1103.81 1122.81 1100.41 1115.9C1091.9 1101 1069.9 1100.65 1053.85 1108.45C1062.04 1098.9 1059.49 1089.93 1042.48 1091.24C1029.83 1092.2 1022.61 1077.95 1018.04 1071.29C1009.96 1059.45 1000.29 1066.34 987 1063.36C979.879 1061.77 973.289 1059.23 965.637 1060.61C949.694 1063.5 960.004 1061.9 948.95 1055.05C938.003 1048.27 924.293 1046.41 913.452 1038.92C901.335 1030.62 894.32 1018.33 881.141 1011.32C869.662 1005.23 865.198 1006.78 857.546 997.265C849.681 987.332 829.168 975.664 813.65 983.021C822.578 971.621 786.122 942.192 772.624 943.651C774.218 943.489 752.748 897.004 751.898 893.982C744.564 866.62 720.12 869.674 694.292 856.426C667.615 842.725 633.603 835.279 611.283 857.391C603.312 865.242 596.722 874.301 584.818 879.179C580.567 880.913 542.198 890.206 544.855 882.703C546.768 877.193 575.466 852.926 541.242 862.139C520.835 867.649 482.36 843.082 507.656 827.136C516.796 821.415 515.096 816.683 504.361 812.543C486.612 805.713 481.511 795.325 483.849 794.612Z" stroke="#333332" stroke-width="1.6"/>
<path d="M698.154 647.5C705.709 637.484 704.129 638.518 700.512 629.473C712 632.5 755.183 627.95 741.458 645.975C758.056 645.57 760.276 633.344 764 624C771.022 628.814 786.039 629.268 794.87 628.629C787.635 631.453 807.639 636.267 810.086 635.644C815.299 637.529 823.066 632.1 830.301 630.239C844.771 623.573 869.03 618.711 885.522 622.812C885.522 620.636 885.522 618.355 884.245 616.259C892.438 617.068 905.737 622.246 913.93 619.301C930.954 613.136 929.039 627.537 939.572 630.555C948.084 633.03 951.596 617.206 944.255 616.437C934.679 615.434 940.53 607.117 939.359 603.371C937.87 598.331 932.018 596.883 929.252 592.393C922.23 580.921 961.171 576.981 968.938 572.984C975.642 569.529 970.429 554.53 982.984 558.13C999.795 562.984 990.005 549.7 993.942 538.115C1005.96 540.526 1020.12 555.064 1033.73 556.415C1058.53 551.674 1060.76 556.172 1063.21 556.819C1063.21 551.189 1067.36 545.679 1074.7 543.867C1084.28 541.513 1083.1 536.424 1083.85 527.112C1099.7 526.06 1118.75 531.659 1133.64 535.421C1138.64 533.406 1162.9 547.839 1180.99 544.563C1195.14 542.006 1222.49 540.89 1224.61 553.624C1224.61 555.177 1224.61 561.261 1226.74 566.722C1228.66 572.725 1226.74 581.325 1231.32 585.734C1236.96 591.762 1244.83 592.838 1244.09 596.697C1243.02 600.564 1234.19 607.141 1230.36 614.714C1223.23 628.953 1214.51 610.822 1197.06 616.138C1189.5 618.443 1224.62 623.994 1203.76 632.051C1187.48 638.362 1191.74 655.036 1196.53 664.575C1184.82 662.689 1154.82 676.111 1164.39 687.875C1147.69 679.857 1139.92 689.04 1124.17 690.132C1112.79 690.941 1104.92 686.831 1094.17 688.482C1086.08 689.736 1068.53 702.623 1062.14 705.164C1050.12 709.929 1019.16 699.072 1007.14 697.753C976.173 694.339 948.936 697.268 917.122 689.663C907.44 687.357 870.839 667.762 889.352 659.324C878.819 657.649 870.201 663.482 860.199 664.566C845.623 666.16 833.174 664.647 818.491 667.819C809.766 669.696 802.744 681.702 793.7 679.696C784.55 677.665 776.757 675.239 767.5 673.5C763 673 765.5 665 758.5 665.643C753.5 664.5 748.693 669.089 745.182 672.39C738.691 678.433 720.285 669.85 715.178 665.643C709.539 661.08 701.346 660.4 698.154 660.359C701.24 655.028 702.091 652.722 698.154 648.483" stroke="#333332" stroke-width="1.6"/>
<path d="M810.459 -143.633C821.725 -145.132 825.232 -129 833.31 -130.661C846.064 -133.303 849.465 -155.625 845.108 -162.845C837.455 -175.711 855.311 -178.596 852.76 -189.551C849.04 -205.27 886.134 -194.89 891.023 -211.217C894.531 -223.225 899.632 -231.546 889.216 -242.404C883.477 -248.4 869.128 -263.389 884.964 -268.542C900.907 -273.679 905.903 -268.299 911.642 -284.861C915.574 -296.067 898.675 -298.117 888.79 -300.912C870.722 -306.106 865.833 -316.502 870.403 -329.296C875.93 -344.617 872.849 -352.655 865.94 -366.77C863.283 -372.32 858.925 -381.022 863.07 -386.613C866.365 -391.142 870.617 -390.259 868.597 -394.78C866.046 -400.355 860.413 -403.612 859.138 -409.803C857.65 -417.289 866.79 -421.138 866.471 -426.867C865.408 -437.408 888.897 -446.588 895.486 -450.68C915.043 -462.753 933.43 -461.059 953.73 -458.839C967.228 -457.365 991.143 -456.862 987.529 -471.188C983.809 -485.408 964.041 -486.842 955.857 -491.331C963.19 -498.226 971.481 -504.473 979.771 -510.744C987.317 -516.481 997.095 -531.203 1005.7 -534.76C1016.65 -539.249 1009.42 -580.094 1007.09 -586.422C1023.77 -585.936 1045.99 -586.908 1060.55 -593.958C1067.46 -597.32 1060.55 -602.311 1060.55 -606.12C1059.48 -610.284 1070.11 -611.8 1073.09 -614.222C1086.69 -625.242 1100.4 -632.631 1115.5 -642.063C1127.93 -649.784 1104.12 -660.966 1098.7 -664.588C1123.25 -673.176 1130.16 -691.124 1153.87 -699.591C1169.06 -705.02 1178.52 -703.529 1194.04 -700.863C1201.91 -699.518 1219.34 -703.788 1218.27 -711.72C1217.21 -717.011 1211.36 -724.579 1214.34 -729.911C1218.06 -736.644 1245.91 -728.412 1252.29 -729.343C1268.23 -731.701 1315.31 -715.391 1339.01 -727.601C1333.8 -729.376 1328.49 -730.737 1322.96 -731.685C1336.04 -737.811 1354.11 -751.447 1331.36 -758.529C1366.12 -770.399 1404.8 -744.058 1434.67 -734.027C1454.97 -727.172 1480.37 -727.01 1500.46 -720.123C1507.05 -717.87 1542.34 -701.649 1546.16 -695.783C1549.35 -690.735 1539.78 -690.913 1538.3 -687.907C1537.23 -686.773 1539.36 -685.282 1539.78 -671.337C1539.78 -667.861 1548.61 -667.01 1552.65 -666.192C1568.06 -663.016 1557 -657.725 1551.58 -652.588C1545.74 -646.94 1564.12 -638.133 1568.59 -635.402C1578.69 -629.285 1575.71 -617.269 1567.31 -610.122C1549.99 -595.505 1592.61 -580.986 1598.03 -566.968C1580.92 -565.186 1551.16 -558.144 1536.49 -568.362C1538.94 -566.522 1541.17 -564.578 1543.29 -562.52C1530.96 -562.52 1520.87 -564.545 1510.45 -569.52C1508.43 -553.55 1489.41 -576.813 1485.15 -565.51C1483.13 -560.138 1491.74 -554.693 1492.81 -549.685C1485.05 -549.847 1477.71 -551.97 1470.7 -554.352C1473.36 -553.08 1476.23 -551.914 1479.1 -550.852C1473.57 -547.951 1467.72 -547.368 1461.45 -549.094C1486.22 -543.519 1442.53 -540.821 1437.75 -540.343C1442.85 -533.756 1455.4 -531.171 1444.66 -520.516C1440.94 -516.829 1420.43 -505.875 1414.05 -508.265C1418.3 -504.546 1423.72 -502.212 1430.1 -501.264C1408.31 -497.772 1448.06 -487.336 1452.31 -482.013C1437.33 -476.511 1416.28 -470.142 1410.33 -457.065C1406.82 -449.554 1379.72 -440.835 1381.85 -434.175C1380.25 -436.387 1378.44 -438.526 1376.53 -440.592C1372.6 -433.016 1358.89 -430.505 1349.64 -429.224C1339.76 -427.879 1336.67 -412.647 1327.53 -426.016C1329.98 -416.179 1327.53 -421.486 1318.29 -421.252C1313.29 -421.089 1309.15 -412.323 1304.68 -409.957C1288.53 -401.408 1267.91 -402.486 1251.01 -392.755C1256.32 -392.269 1261.64 -392.026 1267.06 -392.188C1267.06 -385.673 1260.26 -381.363 1252.18 -384.425C1247.82 -386.103 1245.38 -376.914 1237.3 -379.928C1256.75 -381.46 1232.83 -382.862 1229.65 -382.262C1231.45 -388.866 1220.4 -391.742 1219.65 -398.013C1216.89 -388.655 1231.03 -383.259 1232.83 -374.719C1235.6 -361.536 1212 -352.517 1200.52 -363.01C1194.57 -352.574 1202.33 -345.063 1216.57 -344.342C1207.22 -343.386 1202.33 -332.01 1200.52 -326.257C1197.76 -317.433 1212.75 -312.912 1208.92 -305.255C1202.76 -309.987 1194.15 -313.52 1185.22 -311.672C1214.23 -306.673 1168.75 -308.439 1193.62 -304.672C1172.25 -306.195 1186.92 -302.743 1192.55 -301.172C1170.23 -304.242 1205.63 -294.082 1184.16 -292.421C1195.1 -289.52 1188.94 -278.29 1189.68 -272.091C1190.75 -262.96 1198.19 -257.879 1204.03 -250.417C1201.27 -249.372 1198.4 -248.399 1195.63 -247.5C1199.57 -245.726 1218.06 -244.875 1219.55 -242.339C1226.03 -231.417 1235.6 -239.495 1246.12 -241.083C1240.27 -225.032 1276.84 -227.317 1285.13 -218.331C1265.78 -215.39 1291.93 -209.929 1298.09 -208.997C1302.56 -208.349 1326.05 -184.778 1307.34 -196.162C1312.65 -192.775 1317.12 -188.586 1320.31 -183.911C1308.51 -183.587 1299.69 -178.669 1290.65 -173.499C1282.68 -168.913 1259.51 -166.248 1274.39 -162.326C1268.55 -161.143 1263.45 -162.083 1259.09 -165.243C1257.81 -158.072 1287.04 -153.802 1283.64 -164.676C1288.95 -162.439 1299.9 -148.843 1284.7 -155.342C1304.9 -150.043 1276.31 -155.585 1272.48 -156.5C1273.65 -151.703 1278.43 -148.13 1284.7 -147.182C1278.32 -144.606 1271.1 -144.225 1264.51 -142.353C1255.26 -139.752 1254.2 -132.711 1246.65 -129.13C1241.55 -126.731 1237.94 -142.256 1229.65 -141.924C1234.54 -138.918 1236.55 -135.028 1235.7 -130.264C1233.15 -131.625 1230.6 -132.987 1228.05 -134.348C1230.39 -128.952 1230.39 -125.014 1220.4 -128.506C1221.78 -126.594 1223.06 -124.649 1224.23 -122.672C1214.23 -118.451 1203.71 -118.929 1192.87 -119.763C1195.53 -118.297 1198.08 -116.741 1200.52 -115.096C1183.52 -108.209 1162.05 -120.59 1146.21 -111.588C1159.07 -114.027 1177.57 -112.933 1184.48 -102.837C1174.17 -98.5344 1163.75 -102.432 1153.12 -102.837C1169.28 -98.5425 1197.23 -78.7642 1169.17 -70.7588C1175.97 -71.9661 1178.42 -69.2356 1176.82 -64.3335C1171.51 -66.5779 1165.87 -67.1695 1159.92 -66.0918C1163.54 -62.5186 1182.67 -54.3593 1169.49 -50.3566C1157.9 -46.8077 1179.59 -41.5572 1172.89 -34.8645C1157.58 -19.5345 1171.83 -3.55617 1155.25 12.4302C1144.51 22.7367 1138.98 52.5702 1114.43 46.9633C1099.77 43.6088 1084.46 48.8592 1069.58 48.13C1061.29 47.7249 1040.03 46.3475 1051.3 57.0105C1036.85 61.3049 1024.3 54.6445 1015.91 68.8645C1011.02 76.9914 1022.6 83.2871 1023.67 91.0574C1025.58 105.666 999.221 96 991.462 96.5267C967.016 98.2039 947.141 98.844 922.696 97.8474C930.561 97.6043 936.087 79.0737 928.754 73.1345C920.57 66.5795 900.482 48.8107 901.333 39.5089C927.479 46.4933 912.28 39.509 910.473 28.4246C946.078 23.9358 911.536 14.9258 902.502 5.65646C894.105 -3.27257 882.094 -10.5487 876.78 -20.9929C873.379 -27.6775 869.554 -36.4446 857.65 -33.4223C857.65 -37.8868 858.713 -42.5215 857.65 -46.9536C855.418 -54.6105 838.836 -55.6557 854.035 -59.6745C839.368 -55.6881 854.036 -90.3914 855.099 -94.6695C845.321 -96.2333 840.325 -87.8796 830.547 -88.8357C834.904 -92.7654 838.943 -96.8492 842.77 -101.087C828.527 -102.189 839.9 -94.8884 826.72 -91.7608C825.339 -97.2381 820.237 -98.4696 814.497 -95.261C820.556 -106.232 798.343 -136.803 811.416 -143.65" stroke="#333332" stroke-width="1.6"/>
<path d="M621.516 123.847C614.288 126.083 614.06 134.572 615.548 139.264C615.548 140.433 623.207 134.589 624.158 131.915C627.802 129.914 627.036 125.823 621.516 123.847ZM631.08 130.377C628.848 130.377 628.765 130.702 626.64 131.196C624.738 132.836 634.375 131.439 637.564 131.196C635.438 130.548 633.419 130.385 631.08 130.377ZM649.68 131.196C642.984 130.71 645.323 130.677 638.627 131.196C643.091 132.914 647.874 143.447 650.425 146.712C652.657 149.589 663.073 155.187 660.097 158.963C655.102 165.178 641.071 161.734 635.438 169.578C642.878 171.992 650.318 170.931 657.864 169.578C640.859 175.541 659.246 179.633 662.222 186.731C654.995 186.488 652.338 189.907 657.864 194.08C664.029 198.625 672.85 197.215 680.397 198.974C688.368 200.845 692.407 205.715 697.508 210.415C703.673 216.046 711.857 216.718 718.978 221.029C700.485 219.497 695.595 207.789 681.459 201.429C672.212 197.264 661.372 202.158 651.487 201.429C639.902 200.554 628.637 197.694 626.83 209.596C625.767 214.344 631.187 218.08 631.08 222.658C629.38 226.069 628.743 229.691 627.893 233.28C626.83 227.381 629.061 221.734 620.452 218.582C610.249 214.887 606.635 222.196 612.906 227.56C607.273 228.637 602.49 227.722 597.92 225.113C623.109 212.148 554.874 210.107 547.541 211.225C539.144 212.505 524.902 222.795 525.115 230.015C525.115 236.002 551.927 234.898 549.667 237.364C540.495 247.374 528.556 270.033 528.241 274.84C527.476 286.527 512.998 277.479 503.645 282.276C488.978 289.755 516.293 293.255 519.907 297.898C530.429 311.194 494.08 315.164 505.452 325.082C516.4 334.773 467.32 332.534 460.624 329.909C464.556 339.086 455.708 330.564 450.464 334.169C448.826 335.48 447.515 337.775 447.843 341.052C457.621 343.613 469.634 361.146 464.214 368.998C459.431 376.031 440.725 386.338 449.759 395.947C454.648 401.092 450.164 408.975 451.12 410.863C453.99 416.624 472.422 417.746 463.246 424.957C472.75 425.284 475.699 435.445 475.044 437.411C443.91 437.739 439.769 455.963 469.954 467.177C491.104 475.069 469.685 491.47 477.338 498.373C479.304 499.356 498.126 517.695 503.228 517.055C510.561 516.131 504.184 513.347 515.025 514.433C520.765 515 515.734 521.597 525.512 519.677C529.232 518.948 535.319 519.406 539.145 519.163C552.749 515.565 553.936 521.907 566.477 524.921C577.85 527.635 591.057 528.666 602.854 530.165C593.289 536.607 585.379 542.393 577.514 550.147C568.692 559.027 565.609 572.543 559.657 582.379C555.725 588.958 539.725 636.83 561.939 622.545C554.286 629.343 593.987 624.18 601.109 624.464C614.926 625.031 624.129 626.014 627.105 619.314C610.525 624.021 617.381 606.344 636.937 613.742C651.029 619.641 689.044 622.263 699.204 628.491C707.813 632.315 754.583 629.155 742.573 644.882C759.153 644.477 760.323 633.004 763.936 623.645C771.057 628.466 787.213 628.369 796.141 627.729C788.382 630.63 808.258 635.005 812.19 635.078C821.331 635.24 827.07 629.204 835.785 628.548C852.472 627.267 868.628 617.406 887.121 622.009C887.121 619.829 887.12 617.577 886.057 615.478C894.667 616.288 903.064 619.562 911.779 619.562C916.03 618.46 920.281 617.763 924.639 617.115C929.422 617.52 931.441 624.601 935.374 626.911C947.278 633.887 947.172 630.346 950.36 622.009C953.549 613.695 939.944 616.904 940.688 609.766C941.751 601.055 942.07 601.428 933.249 594.241C926.553 588.829 931.123 584.631 938.563 581.998C964.9 571.835 968.729 579.432 973.324 565.407C976.388 549.628 985.578 563.654 992.47 557.81C992.47 544.369 1000.13 537.357 975.622 529.76C962.23 523.658 951.424 512.729 937.5 506.863C920.07 499.482 916.562 482.685 899.981 475.822C913.054 467.898 906.996 461.383 894.667 456.222C885.102 452.228 882.976 445 878.618 439.077C885.527 438.267 890.947 440.414 893.605 448.055C896.262 426.542 932.504 434.92 947.171 426.008C970.448 411.779 1009.35 403.928 1037.09 395.793C1034.64 393.994 1032.2 392.593 1029.65 390.891C1040.28 388.979 1042.25 387.756 1051.44 396.521C1077.69 414.053 1088.85 376.979 1077.69 366.348C1076.2 359.737 1062.38 359.405 1061.64 354.138C1060.58 346.983 1061.64 344.528 1054.31 338.621C1049.52 334.667 1056.65 331.483 1058.56 327.723C1069.61 306.13 1041.34 300.329 1048.78 293.847C1063.66 280.85 1021.84 277.839 1016.21 265.62C1011.7 260.118 1047.61 244.583 1033.06 229.973C1026.17 223.053 1026.14 211.5 1013.6 207.951C1005.84 205.772 993.194 204.176 992.131 196.519C992.131 192.532 989.261 180.184 981.396 180.184C976.719 180.184 967.048 180.184 969.598 184.268C961.096 180.451 942.495 163.598 934.311 163.039C917.093 161.864 911.166 154.458 891.853 167.898C911.932 155.626 914.832 160.415 923.866 161.558C906.329 156.567 901.21 162.302 890.416 168.751C884.145 172.381 870.646 176.424 874.26 184.268C875.961 171.028 841.525 182.825 833.553 186.723C849.177 180.929 831.853 190.644 829.302 196.519C822.925 191.965 785.725 185.637 793.909 196.519C792.421 192.33 788.595 190.069 783.281 189.17C793.591 181.067 802.943 175.679 805.707 163.849C791.677 165.98 783.28 170.283 769.357 165.486C760.642 162.496 746.824 158.445 742.573 167.933C741.404 163.719 741.192 163.476 744.699 159.765C737.578 157.343 729.182 157.578 722.167 159.765C727.481 157.853 739.704 145.634 726.419 145.886C747.676 138.537 675.688 134.672 678.557 135.879C672.18 133.197 659.027 132.17 652.012 131.619L649.68 131.196Z" stroke="#333332" stroke-width="1.6"/>
<path d="M604.583 20.2814C605.646 18.3368 606.603 16.4003 607.665 14.4476C612.129 18.1909 625.414 24.2436 632.217 20.8648C635.086 30.6771 643.696 27.1119 645.821 20.0222C650.923 2.93385 682.49 10.6232 665.803 16.7892C672.711 17.2754 683.233 15.8008 682.702 23.7818C685.146 16.4409 685.253 13.0783 675.05 13.8642C675.05 7.88456 672.393 -1.01216 679.408 -5.53339C683.978 -7.7697 688.974 -8.66093 694.394 -8.21529C703.003 -7.81016 707.892 -10.6299 715.438 -10.6299C724.579 -10.6299 730.318 -10.3057 738.927 -7.7048C749.449 -4.51239 746.261 5.46188 751.575 11.5226C740.841 10.7934 730.744 13.2565 720.965 16.1896C730.85 16.3516 737.757 10.5664 747.961 13.8885C753.913 15.8574 741.903 24.5514 741.584 27.8573C744.241 16.8864 782.504 22.6554 790.05 27.2091C796.428 31.0983 783.673 46.1772 777.189 46.161C770.599 46.161 767.836 45.6748 765.285 51.7598C757.314 50.3824 755.826 46.2502 761.459 41.8343C746.792 38.1314 747.43 47.5708 746.792 55.4627C745.729 68.2161 732.976 65.7368 720.965 68.0946C725.429 68.4187 734.251 72.1945 729.043 76.6428C722.56 82.266 709.061 77.4856 700.984 78.5956C706.617 80.1351 712.25 81.6907 717.883 83.2626C704.491 93.6825 698.539 87.6705 707.573 103.268C713.1 112.715 690.674 112.448 691.099 121.766C701.621 120.867 714.376 125.688 711.719 135.192C703.96 134.787 704.809 128.823 697.476 133.166C689.61 137.825 681.002 136.513 672.499 134.487C660.808 131.7 631.792 133.58 638.275 118.266C632.111 120.04 627.328 117.423 625.309 113.023C661.127 113.023 617.443 90.4253 615.318 86.1795C613.617 98.9573 604.796 86.7468 603.946 81.0588C602.883 73.888 605.009 66.4499 602.883 59.352C603.946 64.7078 616.487 74.3823 620.525 65.1859C622.439 60.8267 600.332 42.2475 603.627 57.6018C597.143 47.976 600.331 30.1746 604.689 20.2571" stroke="#333332" stroke-width="1.6"/>
<path d="M708.637 121.806C713.951 124.464 719.052 138.773 729.362 133.466C740.097 127.964 716.183 118.468 708.637 121.806Z" stroke="#333332" stroke-width="1.6"/>
<path d="M639.019 14.4476C649.754 12.5516 656.876 4.0196 654.325 -4.2207C650.286 -2.01681 645.822 -0.412537 640.933 0.575976C636.15 1.67792 637.319 8.18429 631.367 9.7805C633.705 11.5631 636.256 13.1188 639.019 14.4476Z" stroke="#333332" stroke-width="1.6"/>
<path d="M709.484 90.8554C709.484 100.676 726.702 106.866 729.36 116.524C729.36 108.025 736.693 112.262 738.606 117.351C740.201 121.572 763.371 122.099 767.198 121.572C787.179 118.85 790.154 97.2322 769.11 93.7724C771.661 92.6542 774.213 91.4955 776.764 90.272C774.957 87.8169 772.725 85.686 769.961 83.8467C769.961 89.6886 765.179 95.2227 756.888 94.3557C771.981 81.5617 715.649 90.58 709.484 90.8554Z" stroke="#333332" stroke-width="1.6"/>
<path d="M773.79 65.8192C769.22 65.252 766.137 63.2993 764.543 59.9854C769.007 64.0447 768.688 67.926 763.48 71.645C769.539 72.8037 773.152 70.5592 773.471 65.8192" stroke="#333332" stroke-width="1.6"/>
<path d="M802.802 101.387C809.817 103.291 810.774 108.963 816.194 111.07C821.083 112.99 829.586 111.394 834.9 111.07C849.993 110.13 853.394 122.989 840.321 119.496C843.616 119.983 854.563 122.511 854.988 125.881C853.075 127.648 850.525 128.045 847.23 127.072C847.23 131.845 856.901 148.836 860.196 152.741C862.322 148.325 872.95 139.72 872.844 135.629C872.844 130.581 861.046 129.211 858.708 124.747C864.554 126.554 870.4 126.554 876.245 124.747C867.211 115.081 877.521 111.41 888.362 108.388C901.541 104.725 886.979 99.4911 882.197 95.8693C871.781 87.9126 891.869 84.226 897.609 81.1794C910.894 74.1707 892.506 63.1592 904.623 56.4908C889.955 45.3984 873.376 54.1168 857.965 58.8244C869.231 62.2842 875.608 80.9687 859.027 81.5845C863.385 76.7634 867.636 71.1889 863.597 65.2416C860.408 66.854 851.905 82.0301 847.548 79.9316C840.533 76.5042 842.659 64.5286 846.485 64.0748C840.214 60.1937 829.374 61.0931 822.04 61.7414C825.973 61.0121 828.523 61.9034 829.693 64.2531C826.398 74.6811 800.676 76.7311 790.686 76.326C795.575 80.5474 824.484 100.366 802.909 101.403" stroke="#333332" stroke-width="1.6"/>
<path d="M622.971 14.4482C607.454 7.03434 620.739 -6.01893 630.943 -11.6988C645.291 -19.6718 668.993 -15.6043 685.573 -16.8683C700.453 -17.9945 708.106 -29.97 716.609 -37.6674C726.068 -46.24 753.915 -51.9361 768.37 -55.5498C751.151 -43.874 771.451 -35.9822 762.523 -22.6292C752.533 -7.86631 741.905 -7.21806 722.242 -11.796C712.889 -13.9918 704.492 -12.4442 695.033 -10.532C684.511 -8.4334 676.008 -11.7069 665.911 -10.2079C656.983 -8.86289 644.548 -6.82102 638.383 -1.24646C634.345 2.34298 630.836 13.5326 622.971 13.2733C629.561 12.4306 633.281 15.2018 632.218 20.274C628.923 18.5157 625.841 16.5711 622.971 14.432" stroke="#333332" stroke-width="1.6"/>
<path d="M-346.558 459.602C-337.205 461.223 -323.812 447.311 -316.585 442.935C-303.405 434.881 -277.473 441.566 -268.545 429.266C-268.545 436.81 -248.776 444.11 -240.698 444.588C-225.5 445.487 -215.614 422.646 -215.72 414.09C-210.938 420.896 -194.251 414.09 -188.193 412.381C-172.038 408.046 -155.563 413.693 -143.765 422.266C-142.703 414.73 -132.713 417.007 -126.123 417.923C-118.896 418.927 -98.276 414.066 -117.726 411.181C-108.904 411.181 -53.2115 410.938 -68.8353 399.514C-59.4823 406.765 -47.6844 401.094 -36.6307 403.022C-33.761 403.427 -32.4858 404.667 -32.8046 406.684C-32.8046 410.144 -14.3113 406.36 -14.4176 406.36C1.84401 404.788 17.3615 404.221 33.3042 407.81C46.6961 410.825 65.5087 402.981 78.688 400.348C90.2731 398.023 92.8245 395.106 100.583 389.669C108.98 383.819 125.24 385.115 130.236 376.3C135.763 366.52 75.9248 365.167 69.654 364.51C73.9054 363.643 78.0509 362.469 81.9835 361.002C74.2247 359.633 66.0404 358.182 59.0256 362.177C65.9341 356.562 75.2869 358.798 84.0023 357.518C98.5633 355.355 98.0321 344.133 82.9397 342.925C88.5727 343.817 92.1868 340.227 96.6508 338.566C105.472 335.268 112.168 342.001 121.947 335.333C119.502 331.33 115.463 328.997 109.724 328.332C115.782 327.465 130.448 328.17 114.293 323.673C136.613 328.778 139.802 317.775 149.261 305.661C161.697 289.959 159.464 274.783 135.55 265.756C121.733 260.522 90.0609 253.214 76.4564 262.167C71.6736 265.238 70.0787 271.89 63.8079 273.494C54.2423 275.933 48.5028 264.217 38.512 265.91C50.9474 251.609 76.5626 250.718 55.0931 229.822C37.3435 212.523 17.7872 213.535 -7.29602 211.064C9.3907 205.562 38.9377 210.335 52.3296 218.656C49.2473 210.513 15.1302 188.182 39.3632 183.061C23.633 179.999 20.6571 167.958 10.2412 160.31C0.463034 153.163 -14.5242 153.39 -26.747 151.931C-47.2599 149.485 -52.8926 112.237 -54.168 100.156C-56.2937 80.0536 -89.3476 62.6331 -114.643 59.1004C-121.233 58.1767 -126.867 51.1355 -134.094 56.0781C-138.665 59.2705 -143.022 60.8019 -149.292 60.729C-165.766 60.567 -188.618 61.2961 -200.947 51.2165C-175.332 65.7363 -157.901 45.3746 -132.074 45.3746C-117.407 45.3746 -122.616 36.7292 -130.375 32.0864C-141.322 25.5233 -152.375 35.9513 -164.279 34.8736C-134.094 30.3929 -109.436 19.6814 -89.9859 1.42632C-81.2706 -6.78158 -78.6132 -16.4804 -71.1733 -24.8828C-66.0716 -30.7247 -51.9364 -34.5248 -55.8689 -43.1622C-63.0963 -58.7515 -103.484 -52.7961 -120.277 -51.3701C-137.708 -49.8873 -154.501 -55.1215 -171.507 -51.2889C-185.749 -48.0236 -202.01 -41.2418 -216.252 -39.2566C-214.127 -44.7988 -205.73 -45.2931 -203.286 -50.9243C-211.682 -51.4915 -219.228 -48.4855 -226.987 -46.8407C-217.74 -54.0844 -194.464 -49.0527 -190.213 -60.2504C-201.267 -62.2193 -214.445 -60.2505 -223.905 -66.0924C-205.73 -60.7933 -209.237 -64.2775 -197.333 -70.3544C-187.555 -75.3699 -175.758 -77.4846 -165.767 -82.3138C-161.728 -84.2989 -109.755 -110.146 -136.858 -114.303C-153.332 -116.839 -173.845 -110.778 -190 -108.388C-198.928 -107.051 -208.494 -105.374 -217.634 -105.941C-219.972 -106.103 -223.055 -106.427 -224.543 -107.91C-227.094 -110.332 -237.828 -104.207 -241.548 -102.837C-233.364 -112.982 -240.485 -105.981 -246.437 -108.696C-248.775 -109.781 -252.814 -113.711 -256.109 -113.128C-262.805 -111.945 -260.255 -97.0928 -269.82 -93.5034C-266.844 -92.288 -260.679 -90.627 -260.679 -88.253C-283.849 -96.3555 -276.835 -77.0875 -288.207 -74.2516C-282.362 -72.4042 -277.579 -68.823 -275.241 -64.326C-282.681 -62.114 -309.357 -69.6899 -307.338 -57.9169C-309.676 -68.7338 -326.895 -50.3978 -308.402 -41.5741C-313.503 -42.0602 -318.604 -42.3032 -323.706 -42.1412C-324.875 -30.8462 -312.653 -30.7896 -301.493 -31.6403C-307.126 -30.2872 -312.227 -28.1481 -316.797 -25.223C-309.995 -27.1514 -302.449 -26.0657 -298.41 -21.1312C-308.401 -29.9468 -321.793 -12.9801 -299.473 -14.1388C-301.811 -13.4905 -338.48 -12.2752 -313.184 -5.38797C-324.131 -12.8504 -336.461 1.11841 -321.581 3.36282C-327.745 2.71462 -331.358 5.0724 -331.571 9.77999C-339.861 6.76584 -350.597 7.53565 -357.612 12.1136C-345.495 14.2689 -328.701 8.08666 -317.86 13.8638C-326.469 10.8496 -332.102 18.628 -340.818 15.6138C-333.59 39.6461 -294.478 10.5012 -281.83 5.11301C-286.826 9.33444 -289.801 16.019 -277.26 12.1136C-283.424 13.0616 -315.522 24.2026 -294.797 22.6145C-297.348 24.5348 -300.005 26.4875 -302.556 28.4483C-297.029 28.6914 -291.714 28.2863 -286.4 27.2816C-289.589 28.5861 -304.043 29.0398 -304.893 29.9149C-307.551 32.3943 -311.484 34.509 -314.991 36.2025C-319.03 38.1876 -316.159 43.8432 -316.691 46.9951C-316.691 50.4063 -338.161 72.6722 -320.093 56.4508C-329.127 61.2476 -327.533 79.3892 -314.779 71.0355C-328.808 77.0638 -329.233 88.699 -338.373 97.5308C-344.857 103.713 -324.663 108.291 -322.643 95.9427C-321.156 87.1028 -305.745 76.8611 -309.677 68.4345C-315.204 56.4508 -291.609 49.118 -281.83 44.7912C-288.314 49.118 -305.531 55.6973 -303.724 64.0105C-302.449 67.9403 -299.473 68.9206 -294.797 66.9517C-292.246 70.7032 -288.951 74.0172 -284.912 76.8774C-283.105 71.9105 -286.931 66.9599 -292.564 64.6264C-286.506 58.4198 -283.318 62.5197 -281.83 67.5351C-271.096 60.2671 -278.536 46.3469 -265.781 48.2834C-271.096 51.6784 -271.839 55.5676 -268.013 59.9511C-269.607 48.9235 -260.785 60.5994 -251.964 63.4515C-257.916 63.2084 -271.626 59.3192 -274.177 66.02C-279.066 78.8382 -267.8 78.6113 -262.486 87.67C-253.558 103.105 -299.154 112.091 -290.226 130.541C-291.289 129.236 -301.28 122.179 -302.662 126.19C-305.319 133.879 -288.95 144.396 -283.317 149.209C-289.269 135.783 -282.256 133.125 -265.781 138.822C-252.177 143.529 -249.519 143.189 -248.988 130.549C-233.045 142.541 -223.161 137.736 -205.305 133.79C-199.778 132.566 -191.169 131.205 -192.338 125.298C-180.115 126.441 -167.787 125.784 -155.564 126.465C-169.275 133.433 -185.855 134.341 -193.826 146.892C-198.822 154.832 -189.362 181.392 -173.951 174.894C-176.183 179.278 -175.12 183.167 -170.868 186.554C-167.574 183.256 -164.81 179.764 -162.472 176.061C-160.24 183.24 -152.163 179.691 -147.167 177.228C-152.163 182.429 -152.056 189.066 -157.902 194.729C-161.197 198.019 -174.801 211.453 -156.308 209.314C-174.907 216.387 -169.061 240.638 -146.422 234.983C-156.732 240.736 -188.087 218.745 -172.357 242.567C-193.507 228.809 -223.692 243.053 -246.65 242.567C-238.147 234.618 -272.04 225.021 -278.842 229.388C-292.553 238.22 -263.018 252.76 -249.732 243.742C-262.168 254.413 -279.917 260.652 -291.821 271.744C-276.303 272.668 -262.167 259.299 -246.65 265.327C-250.476 270.196 -246.65 274.985 -241.229 277.578C-250.369 280.803 -247.925 289.764 -237.403 288.662C-246.012 289.602 -246.65 295.882 -249.945 300.719C-254.303 307.063 -265.25 310.855 -273.54 313.205C-292.034 318.423 -318.711 321.996 -330.828 333.583C-324.238 335.592 -321.794 339.773 -327.002 344.084C-318.711 345.413 -310.42 344.651 -304.787 339.417C-308.72 345.04 -316.797 346.831 -324.662 346.417C-314.246 356.465 -282.468 345.032 -271.839 339.417C-271.839 347.868 -259.616 348.168 -251.964 346.417C-255.152 350.007 -259.51 350.979 -265.037 349.334C-262.911 359.471 -253.027 354.528 -245.161 351.725C-233.045 347.422 -226.349 361.626 -215.827 365.151C-196.483 371.568 -193.295 358.263 -177.564 356.521C-160.346 354.617 -148.655 347.787 -134.944 339.992C-148.017 351.984 -166.511 360.273 -180.86 371.495C-184.58 374.42 -179.053 377.944 -187.024 378.722C-195.952 379.597 -205.093 380.019 -214.021 378.641C-226.669 376.648 -247.925 373.302 -260.042 378.884C-267.375 382.223 -267.801 388.842 -275.241 392.237C-285.444 396.904 -287.464 385.302 -291.077 399.133C-292.565 404.691 -310.527 425.725 -319.774 424.121C-325.513 423.132 -327.001 423.311 -329.127 428.172C-332.634 435.91 -346.983 439.427 -355.911 442.222C-363.138 444.45 -371.003 446.873 -377.168 450.616C-379.612 452.156 -376.104 457.496 -373.659 457.042C-364.094 455.446 -352.403 449.134 -347.62 459.635" stroke="#333332" stroke-width="1.6"/>
<path d="M205.98 387.241C224.912 379.738 247.234 372.075 267.974 367.886C253.645 375.971 281.441 375.745 289.418 377.236C297.076 379.573 301.119 381.105 308.564 379.573C317.817 377.677 327.545 363.704 330.736 374.755C330.84 375.115 328.503 369.74 327.653 367.164C334.672 368.338 343.181 368.047 342.223 360.755C347.754 363.963 356.9 365.892 361.367 360.188C365.089 367.18 378.491 364.919 383.49 360.188C389.339 376.611 420.927 376.562 439.433 382.347C429.542 391.179 415.783 404.702 436.774 408.599C442.837 410.883 446.665 409.79 450.813 409.166C447.728 415.048 473.901 417.012 463.266 425.155C474.082 424.778 475.55 437.501 474.753 437.427C470.955 437.072 460.095 438.482 452.544 443.271C449.459 445.207 446.027 446.987 439.114 455.284C433.264 462.301 428.585 465.744 430.074 471.877C431.882 478.116 444.586 485.497 430.334 492.943C426.765 492.943 415.658 491.611 408.89 492.359C407.72 490.851 402.421 484.298 396.465 481.633C388.978 475.996 377.49 473.658 370.598 472.49C363.705 470.152 365.94 453.38 365.515 448.867C358.389 451.006 356.369 455.527 351.37 459.27C342.117 466.149 327.546 463.111 316.485 461.701C318.825 454.579 323.079 443.365 315.315 439.541C306.062 434.988 291.31 434.819 284.823 438.011C285.993 427.025 277.93 428.077 266.285 426.594C253.948 422.616 260.45 420.294 250.359 414.052C246.53 410.545 225.086 411.13 219.725 409.377C202.111 404.702 218.194 390.677 206.706 386.954" stroke="#333332" stroke-width="1.6"/>
<path d="M-322.853 593.165C-313.394 589.745 -302.021 587.606 -291.499 589.081C-287.885 576.814 -309.249 585.248 -313.713 576.83C-303.935 574.342 -292.455 575.258 -282.252 575.655C-290.223 574.61 -301.064 576.773 -295.325 569.238C-301.489 568.995 -322.428 577.98 -324.979 570.113C-328.38 559.377 -306.91 552.895 -296.706 551.355C-282.996 549.281 -270.029 548.438 -256.106 548.73C-236.443 549.135 -223.796 534.551 -201.901 536.568C-204.452 541.956 -178.199 560.77 -170.866 558.51C-165.87 556.679 -161.194 554.588 -156.624 552.255C-146.633 548.033 -147.27 553.486 -138.98 554.702C-130.796 555.901 -124.419 550.958 -123.887 561.078C-118.573 558.267 -126.439 554.904 -122.081 550.326C-117.511 545.651 -115.172 552.749 -111.24 553.543C-101.887 555.423 -89.77 553.543 -80.3107 552.328C-100.399 547.847 -93.0653 526.246 -91.3647 514.991C-90.3019 509.514 -101.462 504.02 -105.182 500.196C-111.559 493.608 -105.181 483.594 -114.747 478.23C-107.838 479.153 -101.462 481.746 -94.5538 482.84C-87.0076 484.039 -77.7599 478.392 -71.064 480.936C-60.7544 484.89 -73.6151 496.768 -59.3729 503.007C-55.2278 504.806 -47.788 501.606 -43.5366 501.573C-31.1013 501.492 -19.1968 504.693 -7.08031 506.443C4.7173 508.152 15.0263 507.893 25.5485 503.283C35.1142 499.11 47.9752 499.264 56.6906 494.573C49.782 496.647 38.0907 497.7 31.3948 494.816C17.8966 488.893 49.1433 474.324 54.245 472.55C70.7191 466.927 89.4252 467.599 106.112 462.495C115.784 459.537 128.751 442.619 140.761 447.351C130.239 442.173 136.723 406.319 145.438 399.602C154.047 393.007 197.943 381.08 209.315 388.332C215.055 392.027 203.788 406.239 220.581 409.407C237.905 412.672 233.867 409.731 246.196 412.51C257.675 415.143 254.06 421.876 262.882 425.15C274.467 429.42 286.159 424.34 284.671 438.001C291.579 434.606 303.589 435.392 310.817 437.352C324.634 440.95 318.788 453.874 316.024 461.376C325.271 462.551 335.688 464.731 344.829 461.943C353.863 459.18 355.989 451.297 365.023 448.542C366.086 452.885 363.428 472.307 371.187 472.518C382.559 472.842 405.516 484.274 409.024 492.596C407.961 490.197 452.282 495.658 454.514 495.804C465.355 496.533 473.327 494.816 481.936 501.598C488.632 506.945 493.308 515.348 503.511 517.381C505.743 516.571 506.488 516.621 507.869 515.049C511.369 513.049 515.869 514.549 516.869 515.049C518.889 515.616 517.869 516.549 518.817 518.102C517.754 521.279 527.775 518.943 529.369 519.049C540.317 519.778 546.663 515.291 556.76 521.133C567.495 527.356 589.602 528.506 602.993 530.216C586.626 541.276 571.427 553.413 566.113 569.845C563.562 577.835 556.103 584.818 554.403 592.872C552.799 600.469 551.339 601.053 550.573 608.065C547.51 620.922 553.711 624.657 551.073 626.523C544.908 630.802 537.964 635.7 532.065 634.717C524.413 634.231 522.237 625.597 512.281 630.272C505.691 633.1 507.018 641.845 518.072 640.492C509.782 647.184 501.935 654.298 492.369 660.075C488.54 661.828 481.647 664.166 475.52 668.841C470.95 672.001 467.096 676.438 466.33 682.866C459.74 689.137 445.652 691.047 444.886 700.982C444.886 703.903 446.418 706.241 446.418 710.332C444.12 715.007 441.823 716.76 437.228 723.188C450.247 722.019 452.326 719.097 459.437 711.5C470.925 699.228 483.53 701.261 492.458 703.165C503.087 705.458 495.858 718.779 503.511 725.269C517.009 736.548 508.72 740.777 496.603 748.418C503.087 755.362 526.787 767.39 520.197 777.567C514.704 787.87 483.017 794.259 483.123 795.426C483.123 803.48 503.724 810.694 510.739 815.288C520.942 821.932 496.603 833.77 500.11 842.553C504.362 853.216 531.146 865.306 545.282 860.987C563.031 855.566 560.374 863.45 553.678 872.468C537.523 894.191 506.594 905.146 478.96 919.35C480.767 921.327 482.574 923.271 484.381 925.183C474.071 926.31 465.461 930.345 455.789 932.921C445.48 935.701 438.783 931.325 429.005 931.917C414.125 932.808 404.986 923.36 387.236 924.6C394.357 910.574 363.854 921.326 363.535 913.175C365.448 910.647 368.53 909.983 372.675 911.182C372.675 906.588 368.742 903.995 362.684 904.182C367.785 910.129 363.747 911.004 356.413 911.271C344.828 911.676 343.659 911.19 340.47 900.681C344.616 921.61 337.601 908.265 319.852 908.265C309.542 908.265 301.145 903.323 291.154 902.95C278.931 902.464 265.434 913.07 254.486 916.878C245.984 919.852 216.011 928.311 217.924 937.135C217.924 940.027 216.543 942.717 214.523 945.205C209.74 948.446 210.165 951.33 215.692 953.858C219.944 964.003 217.18 969.083 224.939 978.863C217.605 980.459 211.228 977.656 204.001 977.988C196.561 978.312 192.734 982.89 186.038 984.283C169.883 987.646 159.999 974.885 144.482 983.473C143.419 984.041 121.949 976.408 119.61 975.087C113.552 971.66 127.37 972.097 117.698 967.163C112.065 964.303 101.967 963.047 97.1844 967.73C94.9524 957.286 79.7533 961.653 71.5694 956.694C60.1969 949.847 36.9214 945.456 40.5351 961.904C27.7809 960.502 13.4323 958.056 0.57188 959.854C-6.5492 960.851 -11.3327 962.39 -17.3909 958.209C-28.232 950.804 -27.3814 953.85 -38.3287 953.737C-49.2761 953.656 -101.781 927.322 -107.201 937.985C-117.192 934.858 -110.07 929.348 -109.433 924.041C-108.37 917.729 -132.816 920.606 -137.811 915.817C-107.414 907.236 -104.863 875.118 -99.3361 854.229C-97.1041 846.029 -95.1912 833.106 -86.2633 827.256C-73.1903 818.732 -90.7275 817.533 -91.8967 827.175C-93.7035 807.437 -88.4943 783.251 -77.3344 765.336C-66.5997 769.946 -55.8654 775.416 -51.2952 784.588C-50.2323 788.671 -49.2753 792.755 -48.2125 796.839C-45.7679 802.032 -38.9659 802.746 -39.0722 809.09C-35.9899 800.931 -46.8318 794.651 -47.8946 786.921C-49.3826 775.043 -54.909 766.997 -68.726 761.22C-74.4654 758.805 -80.9485 755.508 -85.7313 751.967C-93.5964 746.198 -73.0839 749.074 -68.9388 751.967C-78.6107 748.394 -79.1414 717.174 -73.5083 711.13C-86.1562 717.896 -116.023 704.583 -121.868 695.613C-127.076 687.681 -138.873 683.557 -141.212 674.296C-143.337 665.845 -123.038 656.591 -148.546 655.716C-145.57 653.018 -144.932 648.116 -141.105 646.058C-131.327 640.889 -122.399 649.583 -113.259 650.466C-129.52 642.29 -135.898 645.005 -152.904 646.69C-161.407 647.541 -177.987 637.939 -162.257 636.465C-166.615 633.167 -164.808 631.028 -156.943 630.047C-168.953 627.763 -186.17 635.249 -195.949 627.131C-190.528 627.131 -185.427 626.101 -180.644 624.214C-190.21 619.32 -207.959 621.305 -210.51 631.214C-210.51 624.732 -220.288 618.671 -211.572 613.137C-215.292 620.235 -231.98 619.773 -221.564 610.804C-242.714 624.821 -271.198 592.905 -292.668 610.237C-301.277 601.186 -308.398 595.628 -323.171 593.286" stroke="#333332" stroke-width="1.6"/>
<path d="M299.231 342.276C296.681 342.438 294.236 342.681 291.686 342.843C299.763 345.412 309.435 354.106 318.363 347.51C313.155 343.978 306.267 342.172 299.231 342.26" stroke="#333332" stroke-width="1.6"/>
<path d="M302.316 339.36C315.071 335.673 322.935 352.178 335.264 345.194C325.699 341.734 312.626 330.536 302.316 339.36Z" stroke="#333332" stroke-width="1.6"/>
<path d="M264.146 371.623C265.422 360.806 315.458 369.639 324.649 370.808C314.693 376.067 310.097 384.833 290.185 377.236C280.229 376.067 264.146 377.236 264.146 371.623Z" stroke="#333332" stroke-width="1.6"/>
<path d="M365.419 266.49C354.259 290.101 340.898 309.956 316.878 327.919C307.631 334.871 330.801 340.486 336.221 341.799C349.082 344.918 365.131 337.026 369.382 344.254C352.802 341.823 335.159 353.702 319.11 348.338C333.458 355.314 316.772 350.161 310.501 353.232C316.453 356.424 327.719 354.836 328.676 362.217C316.878 365.037 310.076 356.149 301.892 351.603C291.795 351.603 279.147 349.107 272.982 357.315C280.741 365.118 295.196 363.522 306.25 363.036C315.284 362.631 344.405 374.428 342.598 360.589C348.231 363.805 356.31 365.491 360.88 359.77C364.6 366.763 378.417 364.502 383.306 359.77C389.152 376.194 420.506 376.024 438.999 381.817C426.458 392.91 414.234 409.277 446.545 409.585C460.468 409.747 445.176 392.63 447.514 389.559C448.155 379.732 470.682 372.847 464.556 359.406C462.005 353.102 456.77 343.394 447.842 341.052C447.842 324.573 466.194 341.708 460.623 329.909C466.894 332.331 505.848 334.169 506.831 327.942C508.142 325.648 499.387 322.692 504.865 318.109C506.831 316.143 509.524 314.498 512.075 313.193C541.897 294.184 493.723 293.856 500.113 284.635C507.815 276.813 521.579 284.023 526.495 279.435C530.099 275.174 524.856 276.157 537.637 254.525C541.888 241.164 511.804 225 494.799 226.653C468.015 229.246 424.977 233.447 416.947 262.272C412.911 276.086 432.834 284.473 435.81 285.454C444.738 288.427 440.912 292.948 435.81 296.068C430.815 299.123 425.927 302.866 420.825 305.864C413.279 310.361 401.162 301.529 392.978 301.78C395.529 297.624 426.583 291.95 414.165 275.85C392.802 260.969 368.607 259.57 365.419 266.49Z" stroke="#333332" stroke-width="1.6"/>
</g>
<defs>
<clipPath id="clip0_566_3181">
<rect width="807" height="751" fill="white"/>
</clipPath>
</defs>
</svg>
