<svg width="27" height="27" viewBox="0 0 27 27" fill="none" xmlns="http://www.w3.org/2000/svg">
<mask id="path-1-inside-1_607_2" fill="white">
<path fill-rule="evenodd" clip-rule="evenodd" d="M23.2723 19.4152C22.8673 19.9955 22.3893 20.4953 21.6969 21.0371C21.6967 21.0369 21.6965 21.0368 21.6963 21.0366L19.2285 22.3838C18.251 22.9175 17.0533 22.8656 16.1306 22.2419C15.8697 22.0655 15.6183 21.8943 15.3757 21.7277C15.3471 21.7107 15.3187 21.6933 15.2906 21.6753C8.873 17.5705 8.2187 16.5719 4.75115 11.2796L4.45424 10.8265C3.86068 9.92131 3.7927 8.76338 4.28496 7.79933L5.69517 5.03756L5.69499 5.03726L5.69559 5.03659L5.69603 5.03489L5.6965 5.03558C6.28337 4.38181 6.78659 3.91314 7.32146 3.52068C8.48937 2.66372 10.1091 3.1448 10.9553 4.32051L11.2937 4.79067C12.1595 5.99367 12.091 7.73553 10.9192 8.64319C10.3904 9.05284 9.83563 9.35799 9.09186 9.57229C10.2912 11.0727 11.4612 12.4089 12.7004 13.6699C14.07 15.0413 15.5202 16.3212 17.1664 17.6377C17.3734 17.0662 17.6665 16.5536 18.1125 15.96C19.0274 14.7425 20.7841 14.6039 22.0201 15.4935L22.4341 15.7915C23.6007 16.6311 24.0949 18.2365 23.2723 19.4152Z"/>
</mask>
<path d="M21.6969 21.0371L21.169 21.8864L21.7627 22.2554L22.3132 21.8246L21.6969 21.0371ZM23.2723 19.4152L22.4522 18.8429L22.4522 18.8429L23.2723 19.4152ZM21.6963 21.0366L22.2242 20.1874L21.7289 19.8795L21.2171 20.1589L21.6963 21.0366ZM19.2285 22.3838L19.7077 23.2616L19.7077 23.2616L19.2285 22.3838ZM16.1306 22.2419L16.6907 21.4134L16.6907 21.4134L16.1306 22.2419ZM15.3757 21.7277L15.9418 20.9034L15.9143 20.8845L15.8856 20.8675L15.3757 21.7277ZM15.2906 21.6753L14.7518 22.5177L14.7518 22.5177L15.2906 21.6753ZM4.75115 11.2796L5.5876 10.7315L5.58753 10.7314L4.75115 11.2796ZM4.45424 10.8265L5.29062 10.2784L5.29049 10.2782L4.45424 10.8265ZM4.28496 7.79933L5.17557 8.25409L5.17557 8.25409L4.28496 7.79933ZM5.69517 5.03756L6.58579 5.49232L6.84235 4.98986L6.54496 4.51043L5.69517 5.03756ZM5.69499 5.03726L4.95078 4.36932L4.45 4.92728L4.8452 5.56439L5.69499 5.03726ZM5.69559 5.03659L6.43981 5.70453L6.60379 5.52182L6.66452 5.28394L5.69559 5.03659ZM5.69603 5.03489L6.51799 4.46535L5.26938 2.66335L4.7271 4.78754L5.69603 5.03489ZM5.6965 5.03558L4.87454 5.60512L5.59529 6.64532L6.44066 5.70358L5.6965 5.03558ZM7.32146 3.52068L7.91305 4.32692L7.91305 4.32692L7.32146 3.52068ZM10.9553 4.32051L11.7669 3.73634L11.7669 3.73634L10.9553 4.32051ZM11.2937 4.79067L10.4821 5.37484L10.4821 5.37484L11.2937 4.79067ZM10.9192 8.64319L10.3069 7.85262L10.9192 8.64319ZM9.09186 9.57229L8.815 8.61138L7.37514 9.02624L8.31076 10.1967L9.09186 9.57229ZM12.7004 13.6699L11.9872 14.3708L11.9929 14.3765L12.7004 13.6699ZM17.1664 17.6377L16.5419 18.4187L17.6314 19.29L18.1066 17.9783L17.1664 17.6377ZM18.1125 15.96L18.912 16.5607L18.912 16.5607L18.1125 15.96ZM22.0201 15.4935L22.6043 14.6819L22.6043 14.6819L22.0201 15.4935ZM22.4341 15.7915L21.85 16.6031L21.85 16.6031L22.4341 15.7915ZM22.3132 21.8246C23.0718 21.231 23.6223 20.6609 24.0923 19.9875L22.4522 18.8429C22.1122 19.33 21.7068 19.7596 21.0807 20.2495L22.3132 21.8246ZM21.1683 21.8859L21.169 21.8864L22.2249 20.1878L22.2242 20.1874L21.1683 21.8859ZM21.2171 20.1589L18.7494 21.5061L19.7077 23.2616L22.1754 21.9144L21.2171 20.1589ZM18.7494 21.5061C18.0971 21.8622 17.3005 21.8256 16.6907 21.4134L15.5706 23.0703C16.8061 23.9055 18.405 23.9727 19.7077 23.2616L18.7494 21.5061ZM16.6907 21.4134C16.4315 21.2382 16.1821 21.0684 15.9418 20.9034L14.8095 22.552C15.0545 22.7202 15.308 22.8928 15.5706 23.0703L16.6907 21.4134ZM15.8856 20.8675C15.8667 20.8563 15.848 20.8447 15.8294 20.8329L14.7518 22.5177C14.7894 22.5418 14.8274 22.5652 14.8657 22.5879L15.8856 20.8675ZM15.8294 20.8329C12.6239 18.7826 10.9409 17.5585 9.62797 16.222C8.31164 14.882 7.33638 13.4006 5.5876 10.7315L3.9147 11.8276C5.63347 14.4509 6.71913 16.1149 8.20125 17.6236C9.68671 19.1356 11.5398 20.4633 14.7518 22.5177L15.8294 20.8329ZM5.58753 10.7314L5.29062 10.2784L3.61786 11.3747L3.91477 11.8277L5.58753 10.7314ZM5.29049 10.2782C4.89176 9.67009 4.84839 8.89486 5.17557 8.25409L3.39435 7.34457C2.73702 8.6319 2.82959 10.1725 3.61799 11.3749L5.29049 10.2782ZM5.17557 8.25409L6.58579 5.49232L4.80456 4.58279L3.39435 7.34457L5.17557 8.25409ZM6.54496 4.51043L6.54478 4.51014L4.8452 5.56439L4.84538 5.56468L6.54496 4.51043ZM6.4392 5.70521L6.43981 5.70453L4.95138 4.36865L4.95078 4.36932L6.4392 5.70521ZM6.66452 5.28394L6.66495 5.28225L4.7271 4.78754L4.72667 4.78924L6.66452 5.28394ZM4.87406 5.60443L4.87454 5.60512L6.51847 4.46604L6.51799 4.46535L4.87406 5.60443ZM6.44066 5.70358C6.99504 5.08601 7.44785 4.66826 7.91305 4.32692L6.72988 2.71443C6.12534 3.15802 5.57169 3.67762 4.95234 4.36757L6.44066 5.70358ZM7.91305 4.32692C8.5125 3.88707 9.52761 4.04876 10.1437 4.90468L11.7669 3.73634C10.6905 2.24085 8.46623 1.44038 6.72988 2.71443L7.91305 4.32692ZM10.1437 4.90468L10.4821 5.37484L12.1053 4.2065L11.7669 3.73634L10.1437 4.90468ZM10.4821 5.37484C11.1059 6.24157 10.961 7.34593 10.3069 7.85262L11.5316 9.43376C13.221 8.12513 13.2132 5.74577 12.1053 4.2065L10.4821 5.37484ZM10.3069 7.85262C9.86902 8.19178 9.42663 8.43515 8.815 8.61138L9.36873 10.5332C10.2446 10.2808 10.9118 9.9139 11.5316 9.43376L10.3069 7.85262ZM8.31076 10.1967C9.52777 11.7192 10.7203 13.0817 11.9872 14.3708L13.4137 12.9689C12.2022 11.7362 11.0547 10.4262 9.87297 8.94789L8.31076 10.1967ZM11.9929 14.3765C13.3929 15.7785 14.8717 17.0831 16.5419 18.4187L17.791 16.8567C16.1687 15.5594 14.747 14.3041 13.408 12.9632L11.9929 14.3765ZM17.3131 15.3593C16.8237 16.0105 16.4751 16.6099 16.2262 17.2971L18.1066 17.9783C18.2718 17.5224 18.5092 17.0967 18.912 16.5607L17.3131 15.3593ZM22.6043 14.6819C20.996 13.5243 18.604 13.6413 17.3131 15.3593L18.912 16.5607C19.4507 15.8437 20.5722 15.6835 21.436 16.3051L22.6043 14.6819ZM23.0183 14.9798L22.6043 14.6819L21.436 16.3051L21.85 16.6031L23.0183 14.9798ZM24.0923 19.9875C25.3105 18.2419 24.5011 16.0471 23.0183 14.9798L21.85 16.6031C22.7003 17.2152 22.8792 18.2311 22.4522 18.8429L24.0923 19.9875Z" fill="#333332" mask="url(#path-1-inside-1_607_2)"/>
</svg>
