<svg width="297" height="289" viewBox="0 0 297 289" fill="none" xmlns="http://www.w3.org/2000/svg">
<circle cx="152.423" cy="144.5" r="144.5" fill="#DC8C22"/>
<path d="M1.4025 106.299C1.00692 106.299 0.665288 106.227 0.377596 106.083C0.125865 105.975 0 105.76 0 105.436C0 105.076 0.107885 104.825 0.323654 104.681C0.575385 104.501 0.899038 104.357 1.29462 104.249C2.3375 103.962 3.23654 103.512 3.99173 102.901C4.78288 102.289 5.37625 101.534 5.77183 100.635C6.67087 98.6212 7.51596 96.6434 8.30711 94.7014C9.09827 92.7236 9.87144 90.7816 10.6266 88.8757C11.3818 86.9337 12.137 84.9738 12.8922 82.996C13.6474 80.9821 14.4026 78.9503 15.1578 76.9005C15.6972 75.4261 16.0388 74.3652 16.1827 73.7179C16.3265 73.0346 16.4344 72.639 16.5063 72.5312C17.1537 72.3513 17.765 72.1895 18.3404 72.0457C18.9158 71.9018 19.5271 71.704 20.1744 71.4523C20.8217 71.2006 21.3612 70.8769 21.7927 70.4813C22.2602 70.0858 22.6018 69.7801 22.8176 69.5643C22.9614 69.4564 23.1053 69.4025 23.2491 69.4025C23.393 69.3665 23.5368 69.4744 23.6807 69.7262C23.7886 69.9419 23.8785 70.1757 23.9504 70.4274C24.0583 70.6432 24.1482 70.8949 24.2201 71.1826C24.9753 73.592 25.7485 76.0554 26.5396 78.5727C27.3308 81.054 28.1219 83.5354 28.9131 86.0167C29.7402 88.4981 30.5493 90.9614 31.3405 93.4068C32.1316 95.8162 32.9048 98.1717 33.66 100.473C33.8758 101.192 34.1994 101.804 34.631 102.307C35.0985 102.811 35.6199 103.206 36.1953 103.494C36.7707 103.782 37.418 104.033 38.1372 104.249C38.5328 104.357 38.8385 104.501 39.0542 104.681C39.306 104.825 39.4318 105.058 39.4318 105.382C39.4318 105.634 39.3239 105.832 39.1082 105.975C38.8924 106.119 38.6407 106.191 38.353 106.191C37.6337 106.191 36.7347 106.155 35.6559 106.083C34.613 106.047 33.5521 106.011 32.4733 105.975C31.3944 105.939 30.4414 105.921 29.6143 105.921C28.9311 105.921 28.086 105.939 27.079 105.975C26.1081 106.011 25.1191 106.047 24.1122 106.083C23.1053 106.119 22.2422 106.137 21.523 106.137C21.1993 106.137 20.9116 106.083 20.6599 105.975C20.4441 105.832 20.3363 105.634 20.3363 105.382C20.3363 105.058 20.4621 104.807 20.7138 104.627C20.9656 104.447 21.2713 104.321 21.6309 104.249C22.9614 103.962 23.9324 103.584 24.5437 103.116C25.1551 102.649 25.3529 101.948 25.1371 101.013C24.9933 100.329 24.8135 99.6102 24.5977 98.855C24.3819 98.0998 24.1662 97.3446 23.9504 96.5894C23.7706 95.7983 23.5728 95.0431 23.357 94.3238C23.2851 94.0362 23.1952 93.8204 23.0873 93.6765C22.9794 93.5327 22.7637 93.4608 22.44 93.4608H12.8922C12.6405 93.4608 12.4427 93.5327 12.2988 93.6765C12.155 93.8204 12.0471 94.0541 11.9752 94.3778C11.8313 94.8812 11.6695 95.3847 11.4897 95.8882C11.3099 96.3916 11.1301 96.8951 10.9503 97.3986C10.8064 97.902 10.6626 98.4055 10.5188 98.9089C10.3749 99.4124 10.2311 99.8979 10.0872 100.365C9.83548 101.444 9.94337 102.271 10.4109 102.847C10.8784 103.422 11.8853 103.89 13.4316 104.249C14.2947 104.429 14.7263 104.807 14.7263 105.382C14.7263 105.634 14.6184 105.832 14.4026 105.975C14.2228 106.083 13.9171 106.137 13.4856 106.137C12.4427 106.137 11.4717 106.101 10.5727 106.029C9.67365 105.993 8.68471 105.975 7.60587 105.975C6.52702 105.975 5.50212 106.029 4.53115 106.137C3.56019 106.245 2.51731 106.299 1.4025 106.299ZM14.4026 90.5479H21.4151C21.9545 90.5479 22.2242 90.422 22.2242 90.1703C22.2242 90.0624 22.2063 89.9725 22.1703 89.9006C22.1703 89.8287 22.1523 89.7387 22.1163 89.6309L18.5022 77.4399C18.3943 77.0443 18.2864 76.8465 18.1786 76.8465C18.1066 76.8465 17.9808 77.0443 17.801 77.4399L13.5395 89.6309C13.4676 89.7747 13.4316 89.9186 13.4316 90.0624C13.4316 90.2422 13.5215 90.3681 13.7013 90.44C13.9171 90.5119 14.1509 90.5479 14.4026 90.5479Z" fill="white"/>
<path d="M41.3051 106.191C41.0174 106.191 40.7656 106.137 40.5499 106.029C40.3341 105.885 40.2262 105.688 40.2262 105.436C40.2262 105.148 40.3341 104.932 40.5499 104.789C40.7656 104.609 41.0713 104.465 41.4669 104.357C42.258 104.105 42.7795 103.836 43.0312 103.548C43.3189 103.26 43.4627 102.847 43.4627 102.307V89.9006C43.4627 89.1454 43.3549 88.534 43.1391 88.0665C42.9593 87.5631 42.5277 87.2214 41.8445 87.0416C41.6647 86.9697 41.5028 86.8798 41.359 86.7719C41.2152 86.6281 41.1432 86.3943 41.1432 86.0707C41.1432 85.5672 41.359 85.2615 41.7905 85.1537C42.9413 84.866 44.2 84.4884 45.5665 84.0209C46.969 83.5534 48.1557 83.0859 49.1267 82.6184C49.3065 82.4745 49.5223 82.3487 49.774 82.2408C50.0617 82.0969 50.2595 82.025 50.3674 82.025C50.691 82.025 50.8528 82.2228 50.8528 82.6184C50.8528 82.7982 50.8349 83.1758 50.7989 83.7512C50.7989 84.2906 50.7809 84.848 50.745 85.4234C50.745 85.9987 50.727 86.4842 50.691 86.8798C50.691 87.2035 50.7629 87.3653 50.9068 87.3653C51.4462 86.6101 52.0755 85.8729 52.7948 85.1537C53.55 84.4344 54.3591 83.8411 55.2222 83.3736C56.0852 82.9061 56.9303 82.6723 57.7575 82.6723C59.0161 82.6723 59.8972 82.9061 60.4006 83.3736C60.9401 83.8411 61.2098 84.4524 61.2098 85.2076C61.2098 85.747 61.0479 86.3404 60.7243 86.9877C60.4366 87.635 60.059 88.1924 59.5915 88.6599C59.124 89.1274 58.6205 89.3612 58.0811 89.3612C57.7575 89.3612 57.4158 89.2892 57.0562 89.1454C56.6966 88.9656 56.337 88.7858 55.9774 88.606C55.6177 88.4621 55.2581 88.3183 54.8985 88.1744C54.5749 87.9946 54.2692 87.9047 53.9815 87.9047C53.0465 87.9047 52.2374 88.2463 51.5541 88.9296C50.8708 89.6129 50.5292 90.9794 50.5292 93.0292V101.822C50.5292 102.541 50.745 103.08 51.1765 103.44C51.644 103.764 52.3812 104.069 53.3881 104.357C53.7837 104.465 54.0714 104.609 54.2512 104.789C54.467 104.932 54.5749 105.148 54.5749 105.436C54.5749 105.939 54.2692 106.191 53.6578 106.191C52.579 106.191 51.4642 106.137 50.3134 106.029C49.1627 105.957 48.1198 105.921 47.1848 105.921C46.5734 105.921 45.9441 105.939 45.2968 105.975C44.6854 106.011 44.0381 106.047 43.3549 106.083C42.7076 106.155 42.0243 106.191 41.3051 106.191Z" fill="white"/>
<path d="M72.072 106.785C70.166 106.785 68.4399 106.281 66.8935 105.274C65.3831 104.231 64.1784 102.847 63.2794 101.121C62.4163 99.3585 61.9848 97.3806 61.9848 95.1869C61.9848 92.8494 62.5242 90.7457 63.603 88.8757C64.6819 87.0057 66.1203 85.5133 67.9184 84.3985C69.7525 83.2837 71.7843 82.7262 74.0139 82.7262C76.9627 82.7262 79.4081 83.6972 81.3501 85.6391C81.6737 85.9987 81.8355 86.3224 81.8355 86.6101C81.8355 86.8259 81.6737 87.1495 81.3501 87.5811C81.0264 87.9766 80.6668 88.3362 80.2712 88.6599C79.8756 88.9836 79.534 89.1454 79.2463 89.1454C78.9226 89.1454 78.599 89.0555 78.2753 88.8757C77.9876 88.6599 77.7 88.4262 77.4123 88.1744C76.4773 87.3833 75.5243 86.7539 74.5533 86.2864C73.6183 85.783 72.8092 85.5312 72.1259 85.5312C70.7594 85.5312 69.7165 86.1066 68.9973 87.2574C68.314 88.3722 67.9724 90.2062 67.9724 92.7595C67.9724 94.5216 68.2421 96.05 68.7815 97.3446C69.3569 98.6033 70.166 99.5742 71.2089 100.257C72.2518 100.941 73.5104 101.282 74.9849 101.282C76.0637 101.282 76.9987 101.121 77.7899 100.797C78.581 100.437 79.4081 99.8979 80.2712 99.1787C80.451 99.0708 80.5949 98.9629 80.7027 98.855C80.8466 98.7471 81.0084 98.6932 81.1882 98.6932C81.6198 98.6932 81.8355 98.9809 81.8355 99.5562C81.8355 99.7001 81.7996 99.9159 81.7276 100.204C81.6917 100.455 81.5838 100.743 81.404 101.067C81.0803 101.786 80.451 102.595 79.516 103.494C78.617 104.393 77.5381 105.166 76.2795 105.814C75.0208 106.461 73.6183 106.785 72.072 106.785Z" fill="white"/>
<path d="M84.442 106.191C83.7228 106.191 83.3632 105.939 83.3632 105.436C83.3632 104.968 83.7768 104.609 84.6039 104.357C85.1433 104.177 85.6108 103.98 86.0064 103.764C86.4019 103.548 86.6177 103.045 86.6537 102.253V76.3611C86.6537 75.3901 86.5278 74.545 86.2761 73.8258C86.0243 73.1065 85.449 72.657 84.5499 72.4772C84.1543 72.4053 83.9566 72.1356 83.9566 71.6681C83.9566 71.2006 84.1364 70.9309 84.496 70.8589C85.3231 70.6791 86.2581 70.4274 87.301 70.1038C88.3798 69.7441 89.4227 69.3845 90.4296 69.0249C91.4366 68.6293 92.2097 68.3416 92.7492 68.1618C93.0369 68.0539 93.2706 68 93.4504 68C93.6662 68 93.81 68.0719 93.8819 68.2158C93.9539 68.3237 93.9898 68.4675 93.9898 68.6473C93.9898 68.8271 93.9539 69.0968 93.8819 69.4564C93.846 69.7801 93.81 70.1937 93.7741 70.6971C93.7381 71.1646 93.7021 71.722 93.6662 72.3693V84.83C93.6662 85.1896 93.6842 85.5133 93.7201 85.801C93.7561 86.0887 93.846 86.2864 93.9898 86.3943C94.5293 85.9268 95.1766 85.4234 95.9318 84.8839C96.6869 84.3086 97.55 83.8051 98.521 83.3736C99.5279 82.942 100.643 82.7262 101.865 82.7262C103.771 82.7262 105.372 83.4095 106.666 84.7761C107.961 86.1066 108.608 87.9766 108.608 90.3861V102.145C108.608 102.901 108.806 103.422 109.202 103.71C109.597 103.962 110.047 104.177 110.55 104.357C110.946 104.465 111.233 104.609 111.413 104.789C111.629 104.932 111.737 105.148 111.737 105.436C111.737 105.939 111.341 106.191 110.55 106.191C109.687 106.191 108.986 106.155 108.446 106.083C107.907 106.047 107.386 106.011 106.882 105.975C106.415 105.939 105.803 105.921 105.048 105.921C104.257 105.921 103.646 105.939 103.214 105.975C102.782 106.011 102.333 106.047 101.865 106.083C101.398 106.155 100.733 106.191 99.8695 106.191C98.9705 106.191 98.521 105.921 98.521 105.382C98.521 105.094 98.6289 104.879 98.8446 104.735C99.0964 104.555 99.3661 104.429 99.6538 104.357C100.121 104.177 100.553 103.944 100.948 103.656C101.344 103.368 101.542 102.829 101.542 102.038V91.411C101.542 90.6198 101.38 89.9186 101.056 89.3072C100.733 88.6599 100.301 88.1564 99.7617 87.7968C99.2582 87.4012 98.7008 87.2035 98.0894 87.2035C97.55 87.2035 96.9567 87.2934 96.3094 87.4732C95.662 87.653 95.0327 87.9587 94.4214 88.3902C94.1337 88.606 93.9359 88.8577 93.828 89.1454C93.7561 89.3971 93.7201 89.7927 93.7201 90.3321V102.145C93.7201 102.865 93.8999 103.368 94.2595 103.656C94.6192 103.908 95.0327 104.123 95.5002 104.303C95.8239 104.411 96.0936 104.555 96.3094 104.735C96.5251 104.879 96.633 105.094 96.633 105.382C96.633 105.921 96.3093 106.191 95.662 106.191C94.9428 106.191 94.2595 106.155 93.6122 106.083C93.0009 106.047 92.4075 106.011 91.8321 105.975C91.2927 105.939 90.6993 105.921 90.052 105.921C89.4407 105.921 88.8293 105.939 88.218 105.975C87.6426 106.011 87.0492 106.047 86.4379 106.083C85.8266 106.155 85.1613 106.191 84.442 106.191Z" fill="white"/>
<path d="M114.52 97.1828C114.16 97.2187 113.981 97.0389 113.981 96.6434C113.981 95.5645 114.07 94.7554 114.25 94.216C114.466 93.6406 114.772 93.3169 115.167 93.245C117.109 92.9573 119.141 92.6696 121.263 92.3819C123.42 92.0942 125.47 91.8785 127.412 91.7346C127.736 91.6987 127.952 91.7706 128.059 91.9504C128.167 92.0942 128.221 92.292 128.221 92.5437C128.221 93.6226 128.149 94.3778 128.006 94.8093C127.862 95.2409 127.574 95.4926 127.142 95.5645C125.236 95.8522 123.151 96.1579 120.885 96.4815C118.62 96.7692 116.498 97.003 114.52 97.1828Z" fill="white"/>
<path d="M131.642 106.191C131.354 106.191 131.102 106.137 130.886 106.029C130.671 105.885 130.563 105.688 130.563 105.436C130.563 104.861 130.94 104.483 131.695 104.303C133.062 104.015 133.997 103.656 134.5 103.224C135.04 102.757 135.31 101.93 135.31 100.743V76.5768C135.31 75.3541 135.094 74.4731 134.662 73.9337C134.231 73.3583 133.368 72.9267 132.073 72.639C131.606 72.5312 131.282 72.3873 131.102 72.2075C130.922 71.9917 130.832 71.758 130.832 71.5062C130.832 71.2905 130.94 71.1107 131.156 70.9668C131.372 70.787 131.66 70.6971 132.019 70.6971C132.846 70.6971 133.673 70.7151 134.5 70.7511C135.364 70.787 136.191 70.841 136.982 70.9129C137.809 70.9488 138.582 70.9668 139.301 70.9668C140.164 70.9668 140.92 70.9309 141.567 70.8589C142.25 70.7511 142.987 70.6612 143.779 70.5892C144.606 70.4813 145.595 70.4274 146.745 70.4274C151.133 70.4274 154.603 71.3624 157.156 73.2324C159.746 75.0664 161.04 77.6017 161.04 80.8383C161.04 83.1038 160.555 85.1896 159.584 87.0956C158.649 89.0015 157.21 90.5479 155.268 91.7346C153.362 92.8854 150.935 93.4608 147.986 93.4608C147.051 93.4608 146.332 93.3169 145.828 93.0292C145.361 92.7415 145.127 92.3999 145.127 92.0043C145.127 91.7526 145.235 91.5548 145.451 91.411C145.703 91.2312 145.918 91.1412 146.098 91.1412C146.494 91.1412 146.835 91.1952 147.123 91.3031C147.411 91.375 147.806 91.411 148.31 91.411C149.82 91.411 150.953 90.5659 151.708 88.8757C152.499 87.1855 152.895 84.9559 152.895 82.1868C152.895 78.8784 152.355 76.4869 151.277 75.0125C150.198 73.5381 148.687 72.8009 146.745 72.8009C145.738 72.8009 144.965 73.0346 144.426 73.5021C143.922 73.9337 143.671 74.6169 143.671 75.5519L143.617 100.635C143.617 101.786 143.922 102.613 144.534 103.116C145.145 103.584 146.206 103.98 147.716 104.303C148.112 104.375 148.4 104.501 148.579 104.681C148.795 104.825 148.903 105.058 148.903 105.382C148.903 105.634 148.813 105.832 148.633 105.975C148.454 106.119 148.202 106.191 147.878 106.191C147.087 106.191 146.17 106.155 145.127 106.083C144.12 106.047 143.113 106.011 142.106 105.975C141.099 105.939 140.236 105.921 139.517 105.921C138.762 105.921 137.935 105.939 137.036 105.975C136.137 106.011 135.202 106.047 134.231 106.083C133.296 106.155 132.433 106.191 131.642 106.191Z" fill="white"/>
<path d="M164.677 106.191C164.389 106.191 164.138 106.137 163.922 106.029C163.706 105.885 163.598 105.688 163.598 105.436C163.598 105.148 163.706 104.932 163.922 104.789C164.138 104.609 164.443 104.465 164.839 104.357C165.63 104.105 166.151 103.836 166.403 103.548C166.691 103.26 166.835 102.847 166.835 102.307V89.9006C166.835 89.1454 166.727 88.534 166.511 88.0665C166.331 87.5631 165.9 87.2214 165.216 87.0416C165.037 86.9697 164.875 86.8798 164.731 86.7719C164.587 86.6281 164.515 86.3943 164.515 86.0707C164.515 85.5672 164.731 85.2615 165.162 85.1537C166.313 84.866 167.572 84.4884 168.938 84.0209C170.341 83.5534 171.528 83.0859 172.499 82.6184C172.678 82.4745 172.894 82.3487 173.146 82.2408C173.434 82.0969 173.631 82.025 173.739 82.025C174.063 82.025 174.225 82.2228 174.225 82.6184C174.225 82.7982 174.207 83.1758 174.171 83.7512C174.171 84.2906 174.153 84.848 174.117 85.4234C174.117 85.9987 174.099 86.4842 174.063 86.8798C174.063 87.2035 174.135 87.3653 174.279 87.3653C174.818 86.6101 175.447 85.8729 176.167 85.1537C176.922 84.4344 177.731 83.8411 178.594 83.3736C179.457 82.9061 180.302 82.6723 181.129 82.6723C182.388 82.6723 183.269 82.9061 183.773 83.3736C184.312 83.8411 184.582 84.4524 184.582 85.2076C184.582 85.747 184.42 86.3404 184.096 86.9877C183.809 87.635 183.431 88.1924 182.963 88.6599C182.496 89.1274 181.992 89.3612 181.453 89.3612C181.129 89.3612 180.788 89.2892 180.428 89.1454C180.069 88.9656 179.709 88.7858 179.349 88.606C178.99 88.4621 178.63 88.3183 178.27 88.1744C177.947 87.9946 177.641 87.9047 177.353 87.9047C176.418 87.9047 175.609 88.2463 174.926 88.9296C174.243 89.6129 173.901 90.9794 173.901 93.0292V101.822C173.901 102.541 174.117 103.08 174.548 103.44C175.016 103.764 175.753 104.069 176.76 104.357C177.156 104.465 177.443 104.609 177.623 104.789C177.839 104.932 177.947 105.148 177.947 105.436C177.947 105.939 177.641 106.191 177.03 106.191C175.951 106.191 174.836 106.137 173.685 106.029C172.535 105.957 171.492 105.921 170.557 105.921C169.945 105.921 169.316 105.939 168.669 105.975C168.057 106.011 167.41 106.047 166.727 106.083C166.08 106.155 165.396 106.191 164.677 106.191Z" fill="white"/>
<path d="M186.743 106.191C186.527 106.191 186.329 106.137 186.149 106.029C185.97 105.885 185.88 105.706 185.88 105.49C185.88 105.202 185.97 104.968 186.149 104.789C186.329 104.609 186.563 104.483 186.851 104.411C187.786 104.195 188.433 103.962 188.793 103.71C189.188 103.422 189.386 102.991 189.386 102.415V90.7637C189.386 89.541 189.188 88.6779 188.793 88.1744C188.433 87.635 187.858 87.3113 187.066 87.2035C186.851 87.1675 186.689 87.0596 186.581 86.8798C186.473 86.7 186.419 86.4842 186.419 86.2325C186.419 85.6931 186.617 85.3874 187.012 85.3155C188.882 84.9559 190.537 84.4524 191.975 83.8051C193.45 83.1578 194.582 82.6543 195.374 82.2947C195.949 82.007 196.309 81.8632 196.452 81.8632C196.92 81.8632 197.154 82.0789 197.154 82.5105C197.118 83.1218 197.028 83.895 196.884 84.83C196.776 85.729 196.668 86.664 196.56 87.635C196.488 88.606 196.452 89.541 196.452 90.44V102.361C196.452 102.865 196.632 103.26 196.992 103.548C197.387 103.836 198.071 104.123 199.042 104.411C199.329 104.519 199.563 104.645 199.743 104.789C199.923 104.932 200.013 105.148 200.013 105.436C200.013 105.903 199.743 106.137 199.203 106.137C198.52 106.137 197.801 106.119 197.046 106.083C196.291 106.047 195.553 106.011 194.834 105.975C194.151 105.939 193.486 105.921 192.838 105.921C192.227 105.921 191.58 105.939 190.896 105.975C190.249 106.011 189.566 106.047 188.847 106.083C188.163 106.155 187.462 106.191 186.743 106.191ZM192.676 79.4358C191.562 79.4358 190.573 79.0222 189.71 78.1951C188.882 77.368 188.469 76.379 188.469 75.2283C188.469 74.0056 188.882 72.9807 189.71 72.1536C190.573 71.3264 191.562 70.9129 192.676 70.9129C193.935 70.9129 194.978 71.3264 195.805 72.1536C196.632 72.9807 197.046 74.0056 197.046 75.2283C197.046 76.379 196.632 77.368 195.805 78.1951C194.978 79.0222 193.935 79.4358 192.676 79.4358Z" fill="white"/>
<path d="M202.867 106.191C202.616 106.191 202.364 106.137 202.112 106.029C201.896 105.885 201.788 105.688 201.788 105.436C201.788 105.148 201.914 104.932 202.166 104.789C202.418 104.609 202.706 104.465 203.029 104.357C203.569 104.177 204.036 103.98 204.432 103.764C204.863 103.512 205.079 103.027 205.079 102.307V89.9545C205.079 89.1634 204.953 88.4981 204.701 87.9587C204.486 87.4192 204.054 87.0776 203.407 86.9337C203.263 86.8978 203.119 86.8079 202.975 86.664C202.867 86.5202 202.813 86.2864 202.813 85.9628C202.813 85.4593 202.993 85.1537 203.353 85.0458C204.576 84.7581 205.906 84.3805 207.345 83.913C208.819 83.4095 210.078 82.8881 211.121 82.3487C211.264 82.2767 211.426 82.1868 211.606 82.0789C211.786 81.9711 211.948 81.9171 212.091 81.9171C212.307 81.9171 212.433 81.989 212.469 82.1329C212.541 82.2408 212.577 82.3846 212.577 82.5644C212.577 82.8521 212.523 83.3196 212.415 83.9669C212.343 84.5783 212.307 85.1357 212.307 85.6391C212.307 85.783 212.307 85.9448 212.307 86.1246C212.343 86.3044 212.379 86.4123 212.415 86.4483C213.638 85.2615 214.878 84.3445 216.137 83.6972C217.396 83.0499 218.852 82.7262 220.506 82.7262C222.376 82.7262 223.941 83.4275 225.199 84.83C226.494 86.1965 227.141 88.0665 227.141 90.44V102.307C227.141 103.027 227.339 103.512 227.735 103.764C228.166 103.98 228.652 104.177 229.191 104.357C229.479 104.465 229.731 104.609 229.946 104.789C230.162 104.932 230.27 105.148 230.27 105.436C230.27 105.688 230.162 105.885 229.946 106.029C229.767 106.137 229.569 106.191 229.353 106.191C228.634 106.191 227.95 106.155 227.303 106.083C226.692 106.047 226.081 106.011 225.469 105.975C224.894 105.939 224.282 105.921 223.635 105.921C223.024 105.921 222.412 105.939 221.801 105.975C221.19 106.011 220.578 106.047 219.967 106.083C219.356 106.155 218.69 106.191 217.971 106.191C217.755 106.191 217.54 106.137 217.324 106.029C217.144 105.885 217.054 105.688 217.054 105.436C217.054 105.148 217.162 104.932 217.378 104.789C217.594 104.609 217.845 104.465 218.133 104.357C218.672 104.177 219.122 103.98 219.482 103.764C219.841 103.512 220.021 103.027 220.021 102.307V91.5728C220.021 90.2062 219.697 89.1454 219.05 88.3902C218.439 87.599 217.612 87.1855 216.569 87.1495C215.778 87.1495 215.076 87.2754 214.465 87.5271C213.854 87.7788 213.224 88.1205 212.577 88.552C212.433 88.6959 212.325 88.8577 212.253 89.0375C212.181 89.2173 212.145 89.3971 212.145 89.5769V102.307C212.145 103.027 212.343 103.512 212.739 103.764C213.134 103.98 213.584 104.177 214.087 104.357C214.807 104.573 215.166 104.932 215.166 105.436C215.166 105.652 215.076 105.832 214.896 105.975C214.717 106.119 214.501 106.191 214.249 106.191C213.53 106.191 212.865 106.155 212.253 106.083C211.642 106.047 211.067 106.011 210.527 105.975C209.988 105.939 209.394 105.921 208.747 105.921C208.136 105.921 207.506 105.939 206.859 105.975C206.248 106.011 205.6 106.047 204.917 106.083C204.27 106.155 203.587 106.191 202.867 106.191Z" fill="white"/>
<path d="M242.127 106.785C239.753 106.785 237.973 106.191 236.786 105.004C235.6 103.782 235.006 102.074 235.006 99.8799V87.4732C235.006 87.1495 234.881 86.9158 234.629 86.7719C234.413 86.6281 233.981 86.5382 233.334 86.5022H232.633C232.381 86.5022 232.165 86.3044 231.986 85.9088C231.842 85.4773 231.77 85.0997 231.77 84.7761C231.77 84.7041 231.788 84.6142 231.824 84.5063C231.896 84.3625 231.986 84.2726 232.094 84.2366C232.957 83.913 233.874 83.4275 234.845 82.7802C235.851 82.0969 236.804 81.3777 237.704 80.6225C238.639 79.8673 239.394 79.238 239.969 78.7345C240.221 78.5547 240.437 78.3929 240.616 78.249C240.796 78.1052 241.03 78.0333 241.318 78.0333C241.641 78.0333 241.875 78.1052 242.019 78.249C242.163 78.3569 242.199 78.6446 242.127 79.1121L241.803 82.2947C241.767 82.7262 241.857 83.0319 242.073 83.2117C242.325 83.3556 242.666 83.4275 243.098 83.4275H249.517C249.625 83.4275 249.733 83.5534 249.841 83.8051C249.948 84.0568 250.002 84.2906 250.002 84.5063C250.002 85.0098 249.93 85.4953 249.787 85.9628C249.643 86.4303 249.481 86.664 249.301 86.664H244.284C243.457 86.664 242.882 86.7719 242.558 86.9877C242.271 87.1675 242.127 87.5091 242.127 88.0126V98.2077C242.127 99.8619 242.432 101.103 243.044 101.93C243.691 102.721 244.536 103.116 245.579 103.116C246.622 103.116 247.377 103.009 247.845 102.793C248.348 102.577 248.798 102.397 249.193 102.253C249.337 102.181 249.445 102.145 249.517 102.145C249.697 102.145 249.841 102.253 249.948 102.469C250.056 102.685 250.11 102.937 250.11 103.224C250.11 103.44 249.733 103.836 248.977 104.411C248.222 104.986 247.233 105.526 246.011 106.029C244.824 106.533 243.529 106.785 242.127 106.785Z" fill="white"/>
<path d="M261.924 106.785C259.982 106.785 258.238 106.281 256.691 105.274C255.181 104.231 253.976 102.829 253.077 101.067C252.214 99.2686 251.782 97.2367 251.782 94.9712C251.782 92.7056 252.304 90.6558 253.347 88.8217C254.39 86.9517 255.81 85.4773 257.608 84.3985C259.406 83.2837 261.384 82.7262 263.542 82.7262C265.088 82.7262 266.473 83.0679 267.695 83.7512C268.918 84.3985 269.889 85.2795 270.608 86.3943C271.364 87.5091 271.741 88.7678 271.741 90.1703C271.741 91.5368 271.184 92.2201 270.069 92.2201H259.28C258.777 92.2201 258.399 92.3639 258.148 92.6516C257.932 92.9393 257.824 93.4248 257.824 94.1081C257.824 95.4746 258.13 96.7333 258.741 97.884C259.352 98.9988 260.179 99.8799 261.222 100.527C262.265 101.175 263.47 101.498 264.836 101.498C265.879 101.498 266.832 101.3 267.695 100.905C268.594 100.509 269.476 99.9698 270.339 99.2865C270.482 99.1786 270.608 99.0887 270.716 99.0168C270.86 98.9089 270.986 98.855 271.094 98.855C271.453 98.855 271.633 99.0887 271.633 99.5562C271.633 99.9518 271.489 100.491 271.202 101.175C270.842 102.074 270.231 102.973 269.368 103.872C268.541 104.735 267.498 105.436 266.239 105.975C264.98 106.515 263.542 106.785 261.924 106.785ZM259.28 89.9545H262.517C263.524 89.9545 264.225 89.9365 264.621 89.9006C265.016 89.8646 265.376 89.7927 265.7 89.6848C265.879 89.6129 266.023 89.4331 266.131 89.1454C266.239 88.8577 266.293 88.534 266.293 88.1744C266.293 87.2035 265.951 86.4123 265.268 85.801C264.621 85.1896 263.812 84.8839 262.841 84.8839C262.085 84.8839 261.366 85.0997 260.683 85.5312C260.036 85.9268 259.496 86.4662 259.065 87.1495C258.669 87.7968 258.489 88.4801 258.525 89.1993C258.525 89.7028 258.777 89.9545 259.28 89.9545Z" fill="white"/>
<path d="M275.301 106.191C275.013 106.191 274.761 106.137 274.546 106.029C274.33 105.885 274.222 105.688 274.222 105.436C274.222 105.148 274.33 104.932 274.546 104.789C274.761 104.609 275.067 104.465 275.463 104.357C276.254 104.105 276.775 103.836 277.027 103.548C277.315 103.26 277.459 102.847 277.459 102.307V89.9006C277.459 89.1454 277.351 88.534 277.135 88.0665C276.955 87.5631 276.524 87.2214 275.84 87.0416C275.66 86.9697 275.499 86.8798 275.355 86.7719C275.211 86.6281 275.139 86.3943 275.139 86.0707C275.139 85.5672 275.355 85.2615 275.786 85.1537C276.937 84.866 278.196 84.4884 279.562 84.0209C280.965 83.5534 282.152 83.0859 283.123 82.6184C283.302 82.4745 283.518 82.3487 283.77 82.2408C284.058 82.0969 284.255 82.025 284.363 82.025C284.687 82.025 284.849 82.2228 284.849 82.6184C284.849 82.7982 284.831 83.1758 284.795 83.7512C284.795 84.2906 284.777 84.848 284.741 85.4234C284.741 85.9987 284.723 86.4842 284.687 86.8798C284.687 87.2035 284.759 87.3653 284.903 87.3653C285.442 86.6101 286.071 85.8729 286.791 85.1537C287.546 84.4344 288.355 83.8411 289.218 83.3736C290.081 82.9061 290.926 82.6723 291.753 82.6723C293.012 82.6723 293.893 82.9061 294.396 83.3736C294.936 83.8411 295.206 84.4524 295.206 85.2076C295.206 85.747 295.044 86.3404 294.72 86.9877C294.432 87.635 294.055 88.1924 293.587 88.6599C293.12 89.1274 292.616 89.3612 292.077 89.3612C291.753 89.3612 291.412 89.2892 291.052 89.1454C290.692 88.9656 290.333 88.7858 289.973 88.606C289.614 88.4621 289.254 88.3183 288.894 88.1744C288.571 87.9946 288.265 87.9047 287.977 87.9047C287.042 87.9047 286.233 88.2463 285.55 88.9296C284.867 89.6129 284.525 90.9794 284.525 93.0292V101.822C284.525 102.541 284.741 103.08 285.172 103.44C285.64 103.764 286.377 104.069 287.384 104.357C287.78 104.465 288.067 104.609 288.247 104.789C288.463 104.932 288.571 105.148 288.571 105.436C288.571 105.939 288.265 106.191 287.654 106.191C286.575 106.191 285.46 106.137 284.309 106.029C283.158 105.957 282.116 105.921 281.181 105.921C280.569 105.921 279.94 105.939 279.293 105.975C278.681 106.011 278.034 106.047 277.351 106.083C276.703 106.155 276.02 106.191 275.301 106.191Z" fill="white"/>
</svg>
