<svg width="449" height="437" viewBox="0 0 449 437" fill="none" xmlns="http://www.w3.org/2000/svg">
<circle cx="230.5" cy="218.5" r="218.5" fill="#DC8C22"/>
<path d="M2.141 160.737C1.54284 160.737 1.02625 160.628 0.591231 160.41C0.210586 160.247 0.0202637 159.921 0.0202637 159.432C0.0202637 158.888 0.183397 158.507 0.509664 158.29C0.890309 158.018 1.37971 157.8 1.97787 157.637C3.55482 157.202 4.91427 156.522 6.0562 155.598C7.25251 154.673 8.14975 153.532 8.7479 152.172C10.1074 149.127 11.3852 146.136 12.5815 143.2C13.7779 140.209 14.947 137.273 16.0889 134.391C17.2308 131.454 18.3728 128.491 19.5147 125.5C20.6566 122.455 21.7986 119.382 22.9405 116.283C23.7562 114.053 24.2728 112.449 24.4903 111.47C24.7078 110.437 24.8709 109.839 24.9797 109.676C25.9585 109.404 26.8829 109.159 27.753 108.942C28.623 108.724 29.5474 108.425 30.5262 108.044C31.505 107.664 32.3207 107.174 32.9732 106.576C33.6801 105.978 34.1967 105.516 34.523 105.19C34.7405 105.027 34.958 104.945 35.1755 104.945C35.393 104.891 35.6106 105.054 35.8281 105.434C35.9912 105.761 36.1271 106.114 36.2359 106.495C36.399 106.821 36.535 107.202 36.6437 107.637C37.7857 111.28 38.9548 115.005 40.1511 118.811C41.3474 122.563 42.5437 126.315 43.74 130.068C44.9907 133.82 46.2142 137.544 47.4105 141.242C48.6069 144.885 49.776 148.447 50.9179 151.927C51.2442 153.015 51.7336 153.939 52.3861 154.701C53.093 155.462 53.8815 156.06 54.7515 156.495C55.6216 156.93 56.6004 157.311 57.6879 157.637C58.2861 157.8 58.7483 158.018 59.0746 158.29C59.4552 158.507 59.6455 158.861 59.6455 159.35C59.6455 159.731 59.4824 160.03 59.1561 160.247C58.8299 160.465 58.4492 160.573 58.0142 160.573C56.9267 160.573 55.5672 160.519 53.9359 160.41C52.3589 160.356 50.7548 160.302 49.1234 160.247C47.4921 160.193 46.0511 160.166 44.8004 160.166C43.7672 160.166 42.4893 160.193 40.9668 160.247C39.4986 160.302 38.0032 160.356 36.4806 160.41C34.958 160.465 33.6529 160.492 32.5654 160.492C32.076 160.492 31.641 160.41 31.2603 160.247C30.9341 160.03 30.7709 159.731 30.7709 159.35C30.7709 158.861 30.9612 158.48 31.3419 158.208C31.7225 157.936 32.1847 157.746 32.7285 157.637C34.7405 157.202 36.2087 156.631 37.1331 155.924C38.0576 155.217 38.3566 154.157 38.0304 152.743C37.8129 151.71 37.541 150.622 37.2147 149.48C36.8884 148.338 36.5622 147.197 36.2359 146.055C35.964 144.858 35.6649 143.716 35.3387 142.629C35.2299 142.194 35.094 141.867 34.9308 141.65C34.7677 141.432 34.4414 141.324 33.952 141.324H19.5147C19.1341 141.324 18.835 141.432 18.6175 141.65C18.4 141.867 18.2368 142.221 18.1281 142.71C17.9106 143.472 17.6659 144.233 17.394 144.994C17.1221 145.756 16.8502 146.517 16.5783 147.278C16.3608 148.039 16.1433 148.801 15.9258 149.562C15.7083 150.323 15.4908 151.057 15.2732 151.764C14.8926 153.396 15.0557 154.646 15.7626 155.516C16.4696 156.386 17.9921 157.093 20.3304 157.637C21.6355 157.909 22.288 158.48 22.288 159.35C22.288 159.731 22.1248 160.03 21.7986 160.247C21.5267 160.41 21.0645 160.492 20.4119 160.492C18.835 160.492 17.3668 160.438 16.0073 160.329C14.6479 160.274 13.1525 160.247 11.5212 160.247C9.88984 160.247 8.34007 160.329 6.87187 160.492C5.40367 160.655 3.82671 160.737 2.141 160.737ZM21.7986 136.919H32.4023C33.2179 136.919 33.6258 136.729 33.6258 136.348C33.6258 136.185 33.5986 136.049 33.5442 135.94C33.5442 135.832 33.517 135.696 33.4626 135.532L27.9977 117.098C27.8345 116.5 27.6714 116.201 27.5083 116.201C27.3995 116.201 27.2092 116.5 26.9373 117.098L20.4935 135.532C20.3848 135.75 20.3304 135.968 20.3304 136.185C20.3304 136.457 20.4663 136.647 20.7382 136.756C21.0645 136.865 21.4179 136.919 21.7986 136.919Z" fill="white"/>
<path d="M62.4781 160.573C62.0431 160.573 61.6624 160.492 61.3361 160.329C61.0099 160.111 60.8467 159.812 60.8467 159.432C60.8467 158.997 61.0099 158.67 61.3361 158.453C61.6624 158.181 62.1246 157.963 62.7228 157.8C63.9191 157.42 64.7076 157.012 65.0882 156.577C65.5232 156.142 65.7407 155.516 65.7407 154.701V135.94C65.7407 134.798 65.5776 133.874 65.2514 133.167C64.9795 132.406 64.3269 131.889 63.2937 131.617C63.0219 131.509 62.7772 131.373 62.5596 131.209C62.3421 130.992 62.2334 130.638 62.2334 130.149C62.2334 129.388 62.5596 128.926 63.2122 128.762C64.9523 128.327 66.8555 127.756 68.9219 127.05C71.0426 126.343 72.8371 125.636 74.3053 124.929C74.5771 124.711 74.9034 124.521 75.2841 124.358C75.7191 124.14 76.0182 124.032 76.1813 124.032C76.6707 124.032 76.9154 124.331 76.9154 124.929C76.9154 125.201 76.8882 125.772 76.8338 126.642C76.8338 127.457 76.8066 128.3 76.7523 129.17C76.7523 130.04 76.7251 130.774 76.6707 131.373C76.6707 131.862 76.7794 132.107 76.997 132.107C77.8126 130.965 78.7642 129.85 79.8518 128.762C80.9937 127.675 82.2172 126.778 83.5223 126.071C84.8274 125.364 86.1052 125.01 87.3559 125.01C89.2592 125.01 90.5914 125.364 91.3527 126.071C92.1684 126.778 92.5762 127.702 92.5762 128.844C92.5762 129.66 92.3315 130.557 91.8421 131.536C91.4071 132.515 90.8361 133.357 90.1292 134.064C89.4223 134.771 88.661 135.125 87.8453 135.125C87.3559 135.125 86.8393 135.016 86.2956 134.798C85.7518 134.526 85.208 134.255 84.6642 133.983C84.1205 133.765 83.5767 133.548 83.0329 133.33C82.5435 133.058 82.0813 132.922 81.6463 132.922C80.2324 132.922 79.0089 133.439 77.9758 134.472C76.9426 135.505 76.426 137.572 76.426 140.671V153.967C76.426 155.054 76.7523 155.87 77.4048 156.414C78.1117 156.903 79.2265 157.365 80.749 157.8C81.3472 157.963 81.7822 158.181 82.0541 158.453C82.3804 158.67 82.5435 158.997 82.5435 159.432C82.5435 160.193 82.0813 160.573 81.1569 160.573C79.5255 160.573 77.8398 160.492 76.0997 160.329C74.3596 160.22 72.7827 160.166 71.3689 160.166C70.4444 160.166 69.4928 160.193 68.514 160.247C67.5896 160.302 66.6108 160.356 65.5776 160.41C64.5988 160.519 63.5656 160.573 62.4781 160.573Z" fill="white"/>
<path d="M109.001 161.471C106.119 161.471 103.509 160.709 101.171 159.187C98.8868 157.61 97.0651 155.516 95.7057 152.906C94.4006 150.242 93.7481 147.251 93.7481 143.934C93.7481 140.399 94.5638 137.218 96.1951 134.391C97.8264 131.563 100.002 129.306 102.72 127.621C105.494 125.935 108.566 125.092 111.937 125.092C116.396 125.092 120.094 126.56 123.031 129.497C123.52 130.04 123.765 130.53 123.765 130.965C123.765 131.291 123.52 131.78 123.031 132.433C122.541 133.031 121.997 133.575 121.399 134.064C120.801 134.554 120.284 134.798 119.849 134.798C119.36 134.798 118.871 134.662 118.381 134.391C117.946 134.064 117.511 133.711 117.076 133.33C115.662 132.134 114.221 131.182 112.753 130.475C111.339 129.714 110.116 129.333 109.083 129.333C107.016 129.333 105.439 130.203 104.352 131.944C103.319 133.629 102.802 136.403 102.802 140.263C102.802 142.928 103.21 145.239 104.025 147.197C104.896 149.1 106.119 150.568 107.696 151.601C109.273 152.634 111.176 153.151 113.406 153.151C115.037 153.151 116.451 152.906 117.647 152.417C118.843 151.873 120.094 151.057 121.399 149.97C121.671 149.807 121.889 149.644 122.052 149.48C122.269 149.317 122.514 149.236 122.786 149.236C123.438 149.236 123.765 149.671 123.765 150.541C123.765 150.758 123.71 151.085 123.602 151.52C123.547 151.9 123.384 152.335 123.112 152.825C122.623 153.912 121.671 155.136 120.257 156.495C118.898 157.855 117.266 159.024 115.363 160.003C113.46 160.981 111.339 161.471 109.001 161.471Z" fill="white"/>
<path d="M127.706 160.573C126.618 160.573 126.075 160.193 126.075 159.432C126.075 158.725 126.7 158.181 127.951 157.8C128.766 157.528 129.473 157.229 130.071 156.903C130.67 156.577 130.996 155.815 131.05 154.619V115.467C131.05 113.999 130.86 112.721 130.479 111.633C130.099 110.546 129.229 109.866 127.869 109.594C127.271 109.486 126.972 109.078 126.972 108.371C126.972 107.664 127.244 107.256 127.788 107.147C129.038 106.875 130.452 106.495 132.029 106.005C133.66 105.462 135.237 104.918 136.76 104.374C138.282 103.776 139.452 103.341 140.267 103.069C140.702 102.906 141.056 102.824 141.328 102.824C141.654 102.824 141.871 102.933 141.98 103.15C142.089 103.314 142.143 103.531 142.143 103.803C142.143 104.075 142.089 104.483 141.98 105.027C141.926 105.516 141.871 106.141 141.817 106.903C141.763 107.609 141.708 108.452 141.654 109.431V128.273C141.654 128.817 141.681 129.306 141.735 129.741C141.79 130.176 141.926 130.475 142.143 130.638C142.959 129.932 143.938 129.17 145.08 128.355C146.222 127.485 147.527 126.723 148.995 126.071C150.517 125.418 152.203 125.092 154.052 125.092C156.934 125.092 159.354 126.125 161.311 128.191C163.269 130.203 164.248 133.031 164.248 136.674V154.456C164.248 155.598 164.547 156.386 165.145 156.821C165.743 157.202 166.423 157.528 167.184 157.8C167.782 157.963 168.217 158.181 168.489 158.453C168.816 158.67 168.979 158.997 168.979 159.432C168.979 160.193 168.381 160.573 167.184 160.573C165.879 160.573 164.819 160.519 164.003 160.41C163.188 160.356 162.399 160.302 161.638 160.247C160.931 160.193 160.006 160.166 158.864 160.166C157.668 160.166 156.744 160.193 156.091 160.247C155.439 160.302 154.759 160.356 154.052 160.41C153.345 160.519 152.339 160.573 151.034 160.573C149.675 160.573 148.995 160.166 148.995 159.35C148.995 158.915 149.158 158.589 149.484 158.371C149.865 158.099 150.273 157.909 150.708 157.8C151.415 157.528 152.067 157.175 152.665 156.74C153.264 156.305 153.563 155.489 153.563 154.293V138.224C153.563 137.028 153.318 135.968 152.829 135.043C152.339 134.064 151.687 133.303 150.871 132.759C150.11 132.161 149.267 131.862 148.342 131.862C147.527 131.862 146.629 131.998 145.651 132.27C144.672 132.542 143.72 133.004 142.796 133.656C142.361 133.983 142.062 134.363 141.899 134.798C141.79 135.179 141.735 135.777 141.735 136.593V154.456C141.735 155.544 142.007 156.305 142.551 156.74C143.095 157.12 143.72 157.447 144.427 157.719C144.917 157.882 145.324 158.099 145.651 158.371C145.977 158.589 146.14 158.915 146.14 159.35C146.14 160.166 145.651 160.573 144.672 160.573C143.584 160.573 142.551 160.519 141.572 160.41C140.648 160.356 139.751 160.302 138.881 160.247C138.065 160.193 137.168 160.166 136.189 160.166C135.264 160.166 134.34 160.193 133.416 160.247C132.546 160.302 131.648 160.356 130.724 160.41C129.8 160.519 128.794 160.573 127.706 160.573Z" fill="white"/>
<path d="M173.187 146.952C172.643 147.006 172.371 146.734 172.371 146.136C172.371 144.505 172.507 143.281 172.779 142.466C173.106 141.596 173.568 141.106 174.166 140.997C177.102 140.562 180.175 140.127 183.383 139.692C186.646 139.257 189.745 138.931 192.682 138.714C193.171 138.659 193.497 138.768 193.66 139.04C193.823 139.257 193.905 139.556 193.905 139.937C193.905 141.568 193.796 142.71 193.579 143.363C193.361 144.015 192.926 144.396 192.274 144.505C189.392 144.94 186.238 145.402 182.812 145.891C179.386 146.326 176.178 146.68 173.187 146.952Z" fill="white"/>
<path d="M199.077 160.573C198.642 160.573 198.261 160.492 197.935 160.329C197.609 160.111 197.446 159.812 197.446 159.432C197.446 158.561 198.016 157.991 199.158 157.719C201.225 157.284 202.639 156.74 203.4 156.087C204.216 155.38 204.623 154.13 204.623 152.335V115.793C204.623 113.944 204.297 112.612 203.645 111.797C202.992 110.927 201.687 110.274 199.729 109.839C199.022 109.676 198.533 109.458 198.261 109.186C197.989 108.86 197.853 108.507 197.853 108.126C197.853 107.8 198.017 107.528 198.343 107.31C198.669 107.039 199.104 106.903 199.648 106.903C200.899 106.903 202.149 106.93 203.4 106.984C204.705 107.038 205.956 107.12 207.152 107.229C208.403 107.283 209.572 107.31 210.659 107.31C211.964 107.31 213.106 107.256 214.085 107.147C215.118 106.984 216.233 106.848 217.429 106.739C218.68 106.576 220.175 106.495 221.916 106.495C228.55 106.495 233.797 107.909 237.658 110.736C241.573 113.509 243.531 117.343 243.531 122.237C243.531 125.663 242.797 128.817 241.328 131.699C239.915 134.581 237.74 136.919 234.803 138.714C231.921 140.454 228.251 141.324 223.792 141.324C222.378 141.324 221.29 141.106 220.529 140.671C219.822 140.236 219.469 139.72 219.469 139.121C219.469 138.741 219.632 138.442 219.958 138.224C220.339 137.952 220.665 137.816 220.937 137.816C221.535 137.816 222.052 137.898 222.487 138.061C222.922 138.17 223.52 138.224 224.281 138.224C226.565 138.224 228.278 136.946 229.42 134.391C230.616 131.835 231.214 128.463 231.214 124.276C231.214 119.274 230.399 115.657 228.767 113.428C227.136 111.198 224.852 110.084 221.916 110.084C220.393 110.084 219.224 110.437 218.408 111.144C217.647 111.797 217.266 112.83 217.266 114.244L217.185 152.172C217.185 153.912 217.647 155.163 218.571 155.924C219.496 156.631 221.1 157.229 223.384 157.719C223.982 157.827 224.417 158.018 224.689 158.29C225.015 158.507 225.178 158.861 225.178 159.35C225.178 159.731 225.042 160.03 224.77 160.247C224.499 160.465 224.118 160.573 223.628 160.573C222.432 160.573 221.046 160.519 219.469 160.41C217.946 160.356 216.423 160.302 214.901 160.247C213.378 160.193 212.073 160.166 210.986 160.166C209.844 160.166 208.593 160.193 207.234 160.247C205.874 160.302 204.46 160.356 202.992 160.41C201.578 160.519 200.273 160.573 199.077 160.573Z" fill="white"/>
<path d="M249.03 160.573C248.595 160.573 248.214 160.492 247.888 160.329C247.562 160.111 247.399 159.812 247.399 159.432C247.399 158.997 247.562 158.67 247.888 158.453C248.214 158.181 248.677 157.963 249.275 157.8C250.471 157.42 251.26 157.012 251.64 156.577C252.075 156.142 252.293 155.516 252.293 154.701V135.94C252.293 134.798 252.13 133.874 251.803 133.167C251.532 132.406 250.879 131.889 249.846 131.617C249.574 131.509 249.329 131.373 249.112 131.209C248.894 130.992 248.785 130.638 248.785 130.149C248.785 129.388 249.112 128.926 249.764 128.762C251.504 128.327 253.408 127.756 255.474 127.05C257.595 126.343 259.389 125.636 260.857 124.929C261.129 124.711 261.455 124.521 261.836 124.358C262.271 124.14 262.57 124.032 262.733 124.032C263.223 124.032 263.467 124.331 263.467 124.929C263.467 125.201 263.44 125.772 263.386 126.642C263.386 127.457 263.359 128.3 263.304 129.17C263.304 130.04 263.277 130.774 263.223 131.373C263.223 131.862 263.331 132.107 263.549 132.107C264.365 130.965 265.316 129.85 266.404 128.762C267.546 127.675 268.769 126.778 270.074 126.071C271.379 125.364 272.657 125.01 273.908 125.01C275.811 125.01 277.143 125.364 277.905 126.071C278.72 126.778 279.128 127.702 279.128 128.844C279.128 129.66 278.884 130.557 278.394 131.536C277.959 132.515 277.388 133.357 276.681 134.064C275.974 134.771 275.213 135.125 274.397 135.125C273.908 135.125 273.391 135.016 272.848 134.798C272.304 134.526 271.76 134.255 271.216 133.983C270.673 133.765 270.129 133.548 269.585 133.33C269.096 133.058 268.633 132.922 268.198 132.922C266.784 132.922 265.561 133.439 264.528 134.472C263.495 135.505 262.978 137.572 262.978 140.671V153.967C262.978 155.054 263.304 155.87 263.957 156.414C264.664 156.903 265.778 157.365 267.301 157.8C267.899 157.963 268.334 158.181 268.606 158.453C268.932 158.67 269.096 158.997 269.096 159.432C269.096 160.193 268.633 160.573 267.709 160.573C266.078 160.573 264.392 160.492 262.652 160.329C260.912 160.22 259.335 160.166 257.921 160.166C256.996 160.166 256.045 160.193 255.066 160.247C254.142 160.302 253.163 160.356 252.13 160.41C251.151 160.519 250.118 160.573 249.03 160.573Z" fill="white"/>
<path d="M282.396 160.573C282.07 160.573 281.771 160.492 281.499 160.329C281.227 160.111 281.091 159.839 281.091 159.513C281.091 159.078 281.227 158.725 281.499 158.453C281.771 158.181 282.124 157.991 282.559 157.882C283.973 157.556 284.952 157.202 285.496 156.821C286.094 156.386 286.393 155.734 286.393 154.864V137.245C286.393 135.397 286.094 134.091 285.496 133.33C284.952 132.515 284.082 132.025 282.885 131.862C282.559 131.808 282.314 131.644 282.151 131.373C281.988 131.101 281.907 130.774 281.907 130.394C281.907 129.578 282.206 129.116 282.804 129.007C285.631 128.463 288.133 127.702 290.308 126.723C292.537 125.744 294.25 124.983 295.447 124.439C296.317 124.004 296.861 123.787 297.078 123.787C297.785 123.787 298.138 124.113 298.138 124.766C298.084 125.69 297.948 126.859 297.731 128.273C297.567 129.632 297.404 131.046 297.241 132.515C297.132 133.983 297.078 135.397 297.078 136.756V154.782C297.078 155.544 297.35 156.142 297.894 156.577C298.492 157.012 299.525 157.447 300.993 157.882C301.428 158.045 301.782 158.235 302.054 158.453C302.325 158.67 302.461 158.997 302.461 159.432C302.461 160.138 302.054 160.492 301.238 160.492C300.205 160.492 299.117 160.465 297.975 160.41C296.833 160.356 295.719 160.302 294.631 160.247C293.598 160.193 292.592 160.166 291.613 160.166C290.689 160.166 289.71 160.193 288.677 160.247C287.698 160.302 286.665 160.356 285.577 160.41C284.544 160.519 283.484 160.573 282.396 160.573ZM291.368 120.116C289.683 120.116 288.187 119.491 286.882 118.24C285.631 116.99 285.006 115.494 285.006 113.754C285.006 111.905 285.631 110.356 286.882 109.105C288.187 107.854 289.683 107.229 291.368 107.229C293.272 107.229 294.849 107.854 296.099 109.105C297.35 110.356 297.975 111.905 297.975 113.754C297.975 115.494 297.35 116.99 296.099 118.24C294.849 119.491 293.272 120.116 291.368 120.116Z" fill="white"/>
<path d="M306.778 160.573C306.397 160.573 306.017 160.492 305.636 160.329C305.31 160.111 305.147 159.812 305.147 159.432C305.147 158.997 305.337 158.67 305.718 158.453C306.098 158.181 306.533 157.963 307.023 157.8C307.838 157.528 308.545 157.229 309.144 156.903C309.796 156.522 310.122 155.788 310.122 154.701V136.022C310.122 134.826 309.932 133.82 309.551 133.004C309.225 132.188 308.573 131.672 307.594 131.454C307.376 131.4 307.159 131.264 306.941 131.046C306.778 130.829 306.697 130.475 306.697 129.986C306.697 129.225 306.968 128.762 307.512 128.599C309.361 128.164 311.373 127.593 313.548 126.886C315.778 126.125 317.681 125.337 319.258 124.521C319.475 124.412 319.72 124.276 319.992 124.113C320.264 123.95 320.509 123.868 320.726 123.868C321.052 123.868 321.243 123.977 321.297 124.195C321.406 124.358 321.46 124.575 321.46 124.847C321.46 125.282 321.379 125.989 321.215 126.968C321.107 127.892 321.052 128.735 321.052 129.497C321.052 129.714 321.052 129.959 321.052 130.231C321.107 130.503 321.161 130.666 321.215 130.72C323.064 128.926 324.94 127.539 326.844 126.56C328.747 125.581 330.949 125.092 333.45 125.092C336.278 125.092 338.644 126.152 340.547 128.273C342.504 130.339 343.483 133.167 343.483 136.756V154.701C343.483 155.788 343.782 156.522 344.38 156.903C345.033 157.229 345.767 157.528 346.583 157.8C347.018 157.963 347.398 158.181 347.725 158.453C348.051 158.67 348.214 158.997 348.214 159.432C348.214 159.812 348.051 160.111 347.725 160.329C347.453 160.492 347.154 160.573 346.827 160.573C345.74 160.573 344.707 160.519 343.728 160.41C342.803 160.356 341.879 160.302 340.955 160.247C340.085 160.193 339.16 160.166 338.181 160.166C337.257 160.166 336.332 160.193 335.408 160.247C334.484 160.302 333.559 160.356 332.635 160.41C331.71 160.519 330.704 160.573 329.617 160.573C329.291 160.573 328.964 160.492 328.638 160.329C328.366 160.111 328.23 159.812 328.23 159.432C328.23 158.997 328.393 158.67 328.72 158.453C329.046 158.181 329.426 157.963 329.862 157.8C330.677 157.528 331.357 157.229 331.901 156.903C332.444 156.522 332.716 155.788 332.716 154.701V138.469C332.716 136.403 332.227 134.798 331.248 133.656C330.324 132.46 329.073 131.835 327.496 131.78C326.3 131.78 325.239 131.971 324.315 132.351C323.391 132.732 322.439 133.249 321.46 133.901C321.243 134.119 321.079 134.363 320.971 134.635C320.862 134.907 320.808 135.179 320.808 135.451V154.701C320.808 155.788 321.107 156.522 321.705 156.903C322.303 157.229 322.983 157.528 323.744 157.8C324.832 158.126 325.375 158.67 325.375 159.432C325.375 159.758 325.239 160.03 324.967 160.247C324.696 160.465 324.369 160.573 323.989 160.573C322.901 160.573 321.895 160.519 320.971 160.41C320.046 160.356 319.176 160.302 318.361 160.247C317.545 160.193 316.648 160.166 315.669 160.166C314.744 160.166 313.793 160.193 312.814 160.247C311.89 160.302 310.911 160.356 309.878 160.41C308.899 160.519 307.866 160.573 306.778 160.573Z" fill="white"/>
<path d="M366.143 161.471C362.554 161.471 359.862 160.573 358.068 158.779C356.273 156.93 355.376 154.347 355.376 151.03V132.27C355.376 131.78 355.186 131.427 354.805 131.209C354.479 130.992 353.826 130.856 352.847 130.802H351.787C351.406 130.802 351.08 130.503 350.808 129.904C350.591 129.252 350.482 128.681 350.482 128.191C350.482 128.083 350.509 127.947 350.564 127.784C350.672 127.566 350.808 127.43 350.971 127.376C352.276 126.886 353.663 126.152 355.131 125.174C356.654 124.14 358.095 123.053 359.454 121.911C360.868 120.769 362.01 119.817 362.88 119.056C363.261 118.784 363.587 118.539 363.859 118.322C364.131 118.104 364.484 117.996 364.919 117.996C365.409 117.996 365.762 118.104 365.98 118.322C366.197 118.485 366.252 118.92 366.143 119.627L365.653 124.439C365.599 125.092 365.735 125.554 366.061 125.826C366.442 126.044 366.958 126.152 367.611 126.152H377.317C377.481 126.152 377.644 126.343 377.807 126.723C377.97 127.104 378.052 127.457 378.052 127.784C378.052 128.545 377.943 129.279 377.725 129.986C377.508 130.693 377.263 131.046 376.991 131.046H369.405C368.155 131.046 367.285 131.209 366.795 131.536C366.36 131.808 366.143 132.324 366.143 133.085V148.502C366.143 151.003 366.605 152.879 367.529 154.13C368.508 155.326 369.786 155.924 371.363 155.924C372.94 155.924 374.082 155.761 374.789 155.435C375.55 155.108 376.23 154.837 376.828 154.619C377.046 154.51 377.209 154.456 377.317 154.456C377.589 154.456 377.807 154.619 377.97 154.945C378.133 155.272 378.215 155.652 378.215 156.087C378.215 156.414 377.644 157.012 376.502 157.882C375.36 158.752 373.864 159.567 372.016 160.329C370.221 161.09 368.263 161.471 366.143 161.471Z" fill="white"/>
<path d="M396.078 161.471C393.141 161.471 390.504 160.709 388.166 159.187C385.882 157.61 384.06 155.489 382.701 152.825C381.396 150.106 380.743 147.033 380.743 143.608C380.743 140.182 381.532 137.082 383.109 134.309C384.686 131.481 386.834 129.252 389.552 127.621C392.271 125.935 395.262 125.092 398.525 125.092C400.863 125.092 402.957 125.609 404.805 126.642C406.654 127.621 408.122 128.953 409.21 130.638C410.352 132.324 410.923 134.227 410.923 136.348C410.923 138.415 410.08 139.448 408.394 139.448H392.081C391.32 139.448 390.749 139.665 390.368 140.1C390.042 140.535 389.879 141.269 389.879 142.303C389.879 144.369 390.341 146.272 391.265 148.012C392.19 149.698 393.44 151.03 395.017 152.009C396.594 152.988 398.416 153.477 400.482 153.477C402.059 153.477 403.5 153.178 404.805 152.58C406.165 151.982 407.497 151.166 408.802 150.133C409.02 149.97 409.21 149.834 409.373 149.725C409.591 149.562 409.781 149.48 409.944 149.48C410.488 149.48 410.76 149.834 410.76 150.541C410.76 151.139 410.542 151.955 410.107 152.988C409.563 154.347 408.639 155.707 407.334 157.066C406.083 158.371 404.506 159.432 402.603 160.247C400.7 161.063 398.525 161.471 396.078 161.471ZM392.081 136.022H396.975C398.498 136.022 399.558 135.995 400.156 135.94C400.754 135.886 401.298 135.777 401.787 135.614C402.059 135.505 402.277 135.233 402.44 134.798C402.603 134.363 402.685 133.874 402.685 133.33C402.685 131.862 402.168 130.666 401.135 129.741C400.156 128.817 398.933 128.355 397.464 128.355C396.322 128.355 395.235 128.681 394.202 129.333C393.223 129.932 392.407 130.747 391.755 131.78C391.157 132.759 390.885 133.792 390.939 134.88C390.939 135.641 391.32 136.022 392.081 136.022Z" fill="white"/>
<path d="M416.306 160.573C415.871 160.573 415.49 160.492 415.164 160.329C414.837 160.111 414.674 159.812 414.674 159.432C414.674 158.997 414.837 158.67 415.164 158.453C415.49 158.181 415.952 157.963 416.55 157.8C417.747 157.42 418.535 157.012 418.916 156.577C419.351 156.142 419.568 155.516 419.568 154.701V135.94C419.568 134.798 419.405 133.874 419.079 133.167C418.807 132.406 418.155 131.889 417.121 131.617C416.849 131.509 416.605 131.373 416.387 131.209C416.17 130.992 416.061 130.638 416.061 130.149C416.061 129.388 416.387 128.926 417.04 128.762C418.78 128.327 420.683 127.756 422.749 127.05C424.87 126.343 426.665 125.636 428.133 124.929C428.405 124.711 428.731 124.521 429.112 124.358C429.547 124.14 429.846 124.032 430.009 124.032C430.498 124.032 430.743 124.331 430.743 124.929C430.743 125.201 430.716 125.772 430.661 126.642C430.661 127.457 430.634 128.3 430.58 129.17C430.58 130.04 430.553 130.774 430.498 131.373C430.498 131.862 430.607 132.107 430.825 132.107C431.64 130.965 432.592 129.85 433.679 128.762C434.821 127.675 436.045 126.778 437.35 126.071C438.655 125.364 439.933 125.01 441.184 125.01C443.087 125.01 444.419 125.364 445.18 126.071C445.996 126.778 446.404 127.702 446.404 128.844C446.404 129.66 446.159 130.557 445.67 131.536C445.235 132.515 444.664 133.357 443.957 134.064C443.25 134.771 442.489 135.125 441.673 135.125C441.184 135.125 440.667 135.016 440.123 134.798C439.579 134.526 439.036 134.255 438.492 133.983C437.948 133.765 437.404 133.548 436.861 133.33C436.371 133.058 435.909 132.922 435.474 132.922C434.06 132.922 432.837 133.439 431.803 134.472C430.77 135.505 430.254 137.572 430.254 140.671V153.967C430.254 155.054 430.58 155.87 431.232 156.414C431.939 156.903 433.054 157.365 434.577 157.8C435.175 157.963 435.61 158.181 435.882 158.453C436.208 158.67 436.371 158.997 436.371 159.432C436.371 160.193 435.909 160.573 434.984 160.573C433.353 160.573 431.667 160.492 429.927 160.329C428.187 160.22 426.61 160.166 425.196 160.166C424.272 160.166 423.32 160.193 422.342 160.247C421.417 160.302 420.438 160.356 419.405 160.41C418.426 160.519 417.393 160.573 416.306 160.573Z" fill="white"/>
</svg>
