<svg width="289" height="289" viewBox="0 0 289 289" fill="none" xmlns="http://www.w3.org/2000/svg">
<circle cx="144.5" cy="144.5" r="144.5" fill="#DC8C22"/>
<path d="M9.55053 98.1457C9.22687 98.1457 8.95716 98.0558 8.74139 97.876C8.56158 97.7322 8.47168 97.5524 8.47168 97.3366C8.47168 96.7972 8.86726 96.4196 9.65841 96.2038C10.8811 95.8801 11.7442 95.5025 12.2476 95.071C12.7871 94.6395 13.0568 93.8483 13.0568 92.6975V68.1538C13.0568 67.003 12.823 66.1759 12.3555 65.6725C11.888 65.133 11.0249 64.7374 9.7663 64.4857C9.2988 64.3778 8.97514 64.234 8.79533 64.0542C8.61553 63.8384 8.52562 63.6047 8.52562 63.3529C8.52562 63.1372 8.63351 62.9574 8.84928 62.8135C9.06505 62.6337 9.33476 62.5438 9.65841 62.5438C10.8092 62.5438 11.7622 62.5798 12.5174 62.6517C13.2725 62.7236 13.9738 62.7955 14.6211 62.8674C15.3044 62.9034 16.0955 62.9214 16.9946 62.9214C17.8217 62.9214 18.5769 62.8854 19.2601 62.8135C19.9434 62.7056 20.6986 62.6157 21.5257 62.5438C22.3888 62.4719 23.4317 62.4359 24.6544 62.4359C28.9338 62.4359 32.1703 63.0473 34.364 64.2699C36.5936 65.4567 37.7084 67.5245 37.7084 70.4733C37.7084 71.5881 37.4567 72.649 36.9532 73.6559C36.4498 74.6269 35.8024 75.436 35.0113 76.0833C34.4359 76.5868 33.8246 77.0003 33.1773 77.324C32.5659 77.6476 31.8647 77.9174 31.0735 78.1331C30.9297 78.1691 30.8577 78.259 30.8577 78.4028C30.8577 78.5467 30.9297 78.6366 31.0735 78.6725C32.0085 78.8883 32.9795 79.176 33.9864 79.5356C34.9933 79.8593 35.9283 80.3448 36.7914 80.9921C37.6904 81.6394 38.3917 82.4845 38.8951 83.5274C39.4346 84.5343 39.7043 85.8289 39.7043 87.4112C39.7043 89.425 39.3806 91.0253 38.7333 92.2121C38.122 93.3628 37.3668 94.2439 36.4677 94.8552C35.6047 95.4666 34.7955 95.97 34.0403 96.3656C32.8536 96.941 31.505 97.3725 29.9947 97.6602C28.4843 97.9479 26.6862 98.0918 24.6004 98.0918C23.4137 98.0918 22.209 98.0558 20.9863 97.9839C19.7996 97.912 18.5409 97.876 17.2103 97.876C16.4551 97.876 15.628 97.894 14.729 97.9299C13.8299 97.9659 12.9309 98.0019 12.0319 98.0378C11.1688 98.1098 10.3417 98.1457 9.55053 98.1457ZM24.6544 95.1249C25.7332 95.1249 26.7401 94.8013 27.6751 94.154C28.6461 93.5067 29.4013 92.6436 29.9407 91.5648C30.5161 90.4499 30.8038 89.1913 30.8038 87.7888C30.8038 86.5661 30.642 85.5412 30.3183 84.7141C30.0306 83.887 29.671 83.2217 29.2395 82.7182C28.8439 82.2148 28.4663 81.8372 28.1067 81.5854C27.819 81.3337 27.2975 81.082 26.5424 80.8302C25.8231 80.5425 24.9241 80.3987 23.8452 80.3987C23.2339 80.3987 22.6585 80.5605 22.1191 80.8842C21.6156 81.1719 21.3639 81.6034 21.3639 82.1788V91.6726C21.3639 92.8594 21.6516 93.7404 22.227 94.3158C22.8024 94.8552 23.6115 95.1249 24.6544 95.1249ZM23.5216 77.9713C24.3847 77.9713 25.1758 77.8814 25.895 77.7016C26.6143 77.4858 27.3515 77.0902 28.1067 76.5149C28.3584 76.2631 28.7 75.7597 29.1316 75.0045C29.5991 74.2133 29.8328 73.0805 29.8328 71.6061C29.8328 70.0957 29.635 68.8371 29.2395 67.8301C28.8439 66.8232 28.2325 66.068 27.4054 65.5646C26.6143 65.0611 25.5534 64.8094 24.2228 64.8094C23.2159 64.8094 22.4787 65.0072 22.0112 65.4027C21.5797 65.7624 21.3639 66.3198 21.3639 67.0749V76.0833C21.3639 76.8025 21.6156 77.306 22.1191 77.5937C22.6225 77.8454 23.09 77.9713 23.5216 77.9713Z" fill="white"/>
<path d="M43.3171 98.0378C43.1014 98.0378 42.9036 97.9839 42.7238 97.876C42.544 97.7322 42.4541 97.5524 42.4541 97.3366C42.4541 97.0489 42.544 96.8151 42.7238 96.6353C42.9036 96.4555 43.1373 96.3297 43.425 96.2577C44.36 96.042 45.0073 95.8082 45.367 95.5565C45.7625 95.2688 45.9603 94.8373 45.9603 94.2619V82.6103C45.9603 81.3876 45.7625 80.5246 45.367 80.0211C45.0073 79.4817 44.432 79.158 43.6408 79.0501C43.425 79.0142 43.2632 78.9063 43.1553 78.7265C43.0474 78.5467 42.9935 78.3309 42.9935 78.0792C42.9935 77.5398 43.1913 77.2341 43.5869 77.1622C45.4569 76.8025 47.1111 76.2991 48.5495 75.6518C50.024 75.0045 51.1568 74.501 51.9479 74.1414C52.5233 73.8537 52.8829 73.7099 53.0268 73.7099C53.4943 73.7099 53.728 73.9256 53.728 74.3572C53.692 74.9685 53.6021 75.7417 53.4583 76.6767C53.3504 77.5757 53.2425 78.5107 53.1346 79.4817C53.0627 80.4526 53.0268 81.3876 53.0268 82.2867V94.2079C53.0268 94.7114 53.2066 95.107 53.5662 95.3947C53.9618 95.6824 54.645 95.97 55.616 96.2577C55.9037 96.3656 56.1374 96.4915 56.3172 96.6353C56.497 96.7792 56.587 96.9949 56.587 97.2826C56.587 97.7501 56.3172 97.9839 55.7778 97.9839C55.0945 97.9839 54.3753 97.9659 53.6201 97.9299C52.8649 97.894 52.1277 97.858 51.4085 97.8221C50.7252 97.7861 50.0599 97.7681 49.4126 97.7681C48.8013 97.7681 48.154 97.7861 47.4707 97.8221C46.8234 97.858 46.1401 97.894 45.4209 97.9299C44.7376 98.0019 44.0364 98.0378 43.3171 98.0378ZM49.2508 71.2824C48.136 71.2824 47.147 70.8689 46.284 70.0418C45.4569 69.2147 45.0433 68.2257 45.0433 67.0749C45.0433 65.8523 45.4569 64.8274 46.284 64.0002C47.147 63.1731 48.136 62.7596 49.2508 62.7596C50.5095 62.7596 51.5523 63.1731 52.3795 64.0002C53.2066 64.8274 53.6201 65.8523 53.6201 67.0749C53.6201 68.2257 53.2066 69.2147 52.3795 70.0418C51.5523 70.8689 50.5095 71.2824 49.2508 71.2824Z" fill="white"/>
<path d="M72.0642 98.6312C71.0213 98.6312 70.0503 98.5413 69.1513 98.3615C68.2882 98.1817 67.4971 98.0019 66.7778 97.8221C66.2384 97.6423 65.7349 97.4984 65.2674 97.3905C64.8359 97.2826 64.4763 97.2287 64.1886 97.2287C63.829 97.2287 63.4874 97.3006 63.1637 97.4445C62.84 97.5524 62.5344 97.7142 62.2467 97.9299C61.923 98.1817 61.6713 98.3075 61.4915 98.3075C61.1678 98.3075 60.9161 98.2356 60.7363 98.0918C60.5924 97.9479 60.5205 97.7861 60.5205 97.6063C60.5205 97.2826 60.6104 96.6533 60.7902 95.7183C61.006 94.7833 61.0959 93.6146 61.0599 92.2121L60.8442 68.2077C60.8442 67.2727 60.7003 66.4456 60.4126 65.7264C60.1609 64.9712 59.6035 64.5037 58.7404 64.3239C58.5606 64.2879 58.3988 64.198 58.2549 64.0542C58.1471 63.9103 58.0931 63.7125 58.0931 63.4608C58.0931 63.281 58.1471 63.1192 58.2549 62.9753C58.3628 62.8315 58.5067 62.7416 58.6865 62.7056C59.4776 62.5618 60.3947 62.328 61.4375 62.0044C62.4804 61.6448 63.4873 61.2851 64.4583 60.9255C65.4652 60.5299 66.2384 60.2423 66.7778 60.0624C67.1374 59.9186 67.3892 59.8467 67.533 59.8467C67.7488 59.8467 67.8926 59.9186 67.9646 60.0624C68.0724 60.1703 68.1264 60.3142 68.1264 60.494C68.1264 60.7098 68.0724 61.1593 67.9646 61.8425C67.8926 62.5258 67.8567 63.2091 67.8567 63.8924V75.436C67.8567 75.9035 67.8926 76.2811 67.9646 76.5688C68.0365 76.8205 68.1624 76.9464 68.3422 76.9464C69.457 76.1912 70.6077 75.6158 71.7945 75.2202C73.0172 74.7887 74.1679 74.5729 75.2468 74.5729C77.1168 74.5729 78.807 75.0584 80.3174 76.0294C81.8277 77.0003 83.0145 78.3309 83.8775 80.0211C84.7766 81.7113 85.2261 83.6173 85.2261 85.739C85.2261 88.2563 84.6687 90.5039 83.5539 92.4818C82.4391 94.4237 80.8927 95.9341 78.9148 97.0129C76.9729 98.0918 74.6894 98.6312 72.0642 98.6312ZM73.0351 96.3656C74.0061 96.3656 74.8332 95.9521 75.5165 95.1249C76.1998 94.2619 76.7212 93.1291 77.0808 91.7266C77.4764 90.3241 77.6742 88.7957 77.6742 87.1415C77.6742 85.703 77.4764 84.2466 77.0808 82.7722C76.7212 81.2977 76.1278 80.075 75.3007 79.1041C74.5096 78.0972 73.4847 77.5937 72.226 77.5937C71.5787 77.5937 70.8235 77.7016 69.9604 77.9174C69.0973 78.0972 68.3961 78.4028 67.8567 78.8344V90.3241C67.8567 91.4749 68.0904 92.5177 68.5579 93.4527C69.0614 94.3877 69.7087 95.107 70.4998 95.6104C71.291 96.1139 72.1361 96.3656 73.0351 96.3656Z" fill="white"/>
<path d="M87.6181 98.0378C87.2944 98.0378 87.0247 97.9839 86.809 97.876C86.6292 97.7322 86.5393 97.5344 86.5393 97.2826C86.5393 96.9949 86.6471 96.7792 86.8629 96.6353C87.0787 96.4555 87.3844 96.3117 87.7799 96.2038C88.3194 96.024 88.7869 95.8262 89.1824 95.6104C89.614 95.3947 89.8297 94.9092 89.8297 94.154V68.2077C89.8297 67.2368 89.6859 66.3917 89.3982 65.6725C89.1465 64.9532 88.5711 64.5037 87.672 64.3239C87.3124 64.252 87.1326 63.9823 87.1326 63.5148C87.1326 63.0473 87.2944 62.7775 87.6181 62.7056C88.5531 62.5258 89.56 62.2741 90.6389 61.9504C91.7177 61.5908 92.7426 61.2312 93.7136 60.8716C94.6846 60.476 95.4397 60.1883 95.9792 60.0085C96.2669 59.9006 96.5006 59.8467 96.6804 59.8467C96.8962 59.8467 97.04 59.9186 97.112 60.0624C97.1839 60.1703 97.2198 60.3142 97.2198 60.494C97.2198 60.7457 97.1659 61.2132 97.058 61.8965C96.9861 62.5798 96.9321 63.3529 96.8962 64.216V94.0461C96.8962 94.8373 97.094 95.3407 97.4895 95.5565C97.9211 95.7363 98.4066 95.9161 98.946 96.0959C99.3416 96.2398 99.6472 96.3836 99.863 96.5274C100.079 96.6713 100.187 96.8871 100.187 97.1748C100.187 97.4265 100.079 97.6243 99.863 97.7681C99.6832 97.876 99.4315 97.9299 99.1078 97.9299C98.4245 97.9299 97.7413 97.912 97.058 97.876C96.4107 97.84 95.7634 97.8221 95.1161 97.8221C94.5047 97.7861 93.8754 97.7681 93.2281 97.7681C92.6168 97.7681 92.0054 97.7861 91.3941 97.8221C90.8187 97.858 90.2253 97.894 89.614 97.9299C89.0026 98.0019 88.3373 98.0378 87.6181 98.0378Z" fill="white"/>
<path d="M103.054 98.0378C102.838 98.0378 102.64 97.9839 102.461 97.876C102.281 97.7322 102.191 97.5524 102.191 97.3366C102.191 97.0489 102.281 96.8151 102.461 96.6353C102.64 96.4555 102.874 96.3297 103.162 96.2577C104.097 96.042 104.744 95.8082 105.104 95.5565C105.499 95.2688 105.697 94.8373 105.697 94.2619V82.6103C105.697 81.3876 105.499 80.5246 105.104 80.0211C104.744 79.4817 104.169 79.158 103.378 79.0501C103.162 79.0142 103 78.9063 102.892 78.7265C102.784 78.5467 102.73 78.3309 102.73 78.0792C102.73 77.5398 102.928 77.2341 103.324 77.1622C105.194 76.8025 106.848 76.2991 108.286 75.6518C109.761 75.0045 110.894 74.501 111.685 74.1414C112.26 73.8537 112.62 73.7099 112.764 73.7099C113.231 73.7099 113.465 73.9256 113.465 74.3572C113.429 74.9685 113.339 75.7417 113.195 76.6767C113.087 77.5757 112.979 78.5107 112.872 79.4817C112.8 80.4526 112.764 81.3876 112.764 82.2867V94.2079C112.764 94.7114 112.943 95.107 113.303 95.3947C113.699 95.6824 114.382 95.97 115.353 96.2577C115.641 96.3656 115.874 96.4915 116.054 96.6353C116.234 96.7792 116.324 96.9949 116.324 97.2826C116.324 97.7501 116.054 97.9839 115.515 97.9839C114.831 97.9839 114.112 97.9659 113.357 97.9299C112.602 97.894 111.865 97.858 111.145 97.8221C110.462 97.7861 109.797 97.7681 109.15 97.7681C108.538 97.7681 107.891 97.7861 107.208 97.8221C106.56 97.858 105.877 97.894 105.158 97.9299C104.475 98.0019 103.773 98.0378 103.054 98.0378ZM108.988 71.2824C107.873 71.2824 106.884 70.8689 106.021 70.0418C105.194 69.2147 104.78 68.2257 104.78 67.0749C104.78 65.8523 105.194 64.8274 106.021 64.0002C106.884 63.1731 107.873 62.7596 108.988 62.7596C110.246 62.7596 111.289 63.1731 112.116 64.0002C112.943 64.8274 113.357 65.8523 113.357 67.0749C113.357 68.2257 112.943 69.2147 112.116 70.0418C111.289 70.8689 110.246 71.2824 108.988 71.2824Z" fill="white"/>
<path d="M123.925 98.6312C122.955 98.6312 122.055 98.3974 121.228 97.9299C120.401 97.4624 119.736 96.8511 119.233 96.0959C118.765 95.3407 118.531 94.5136 118.531 93.6146C118.531 92.3919 118.909 91.367 119.664 90.5399C120.455 89.7127 121.606 88.9755 123.116 88.3282L127.917 86.2245C128.636 85.9008 129.068 85.6131 129.212 85.3614C129.392 85.1097 129.482 84.6422 129.482 83.9589L129.535 80.8842C129.571 79.8773 129.392 79.0861 128.996 78.5107C128.6 77.8994 128.007 77.5937 127.216 77.5937C126.748 77.5937 126.281 77.7016 125.813 77.9174C125.346 78.0972 124.986 78.3129 124.735 78.5647C124.627 78.7085 124.537 78.8883 124.465 79.1041C124.429 79.2839 124.411 79.4817 124.411 79.6974C124.411 79.9132 124.429 80.1829 124.465 80.5066C124.501 80.7943 124.519 81.046 124.519 81.2618C124.519 81.4775 124.231 81.7652 123.656 82.1249C123.08 82.4485 122.415 82.7542 121.66 83.0419C120.905 83.2936 120.257 83.4195 119.718 83.4195C119.466 83.4195 119.233 83.3116 119.017 83.0958C118.837 82.88 118.747 82.6103 118.747 82.2867C118.747 81.7113 118.945 81.1539 119.34 80.6145C119.736 80.0391 120.383 79.3918 121.282 78.6725C122.217 77.8814 123.242 77.1801 124.357 76.5688C125.472 75.9574 126.569 75.472 127.648 75.1124C128.762 74.7527 129.697 74.5729 130.453 74.5729C132.394 74.5729 133.941 75.2023 135.092 76.4609C136.242 77.6836 136.782 79.3199 136.71 81.3697L136.44 92.266C136.404 93.0931 136.548 93.7944 136.872 94.3698C137.195 94.9451 137.591 95.2328 138.058 95.2328C138.742 95.2328 139.335 94.9991 139.838 94.5316C139.946 94.4237 140.054 94.3698 140.162 94.3698C140.342 94.3698 140.486 94.4237 140.594 94.5316C140.738 94.6395 140.809 94.7833 140.809 94.9631C140.809 95.3947 140.486 95.9521 139.838 96.6353C139.155 97.2826 138.436 97.7681 137.681 98.0918C136.926 98.4514 136.134 98.6312 135.307 98.6312C133.293 98.6312 131.621 97.6063 130.291 95.5565H130.183C128.996 96.6353 127.917 97.4085 126.946 97.876C126.011 98.3795 125.004 98.6312 123.925 98.6312ZM127.162 95.1249C127.558 95.1249 127.881 95.071 128.133 94.9631C128.385 94.8193 128.636 94.6035 128.888 94.3158C128.996 94.172 129.086 93.9922 129.158 93.7764C129.23 93.5247 129.266 93.237 129.266 92.9133L129.428 89.0295C129.428 88.6699 129.374 88.4361 129.266 88.3282C129.158 88.2203 129.032 88.1664 128.888 88.1664C128.816 88.1664 128.726 88.1844 128.618 88.2203C128.511 88.2563 128.385 88.3102 128.241 88.3822C127.198 88.8856 126.425 89.4071 125.921 89.9465C125.418 90.4499 125.166 91.2771 125.166 92.4278C125.166 93.4707 125.382 94.1899 125.813 94.5855C126.245 94.9451 126.695 95.1249 127.162 95.1249Z" fill="white"/>
<path d="M188.213 99.0088C186.379 99.0088 184.833 98.775 183.574 98.3075C182.315 97.876 181.236 97.3006 180.337 96.5814C179.474 95.8262 178.701 94.9811 178.018 94.0461C177.227 93.0032 176.453 91.9603 175.698 90.9174C174.979 89.8746 174.26 88.7418 173.541 87.5191C172.821 86.2964 172.066 84.8939 171.275 83.3116C170.915 82.5204 170.43 81.963 169.819 81.6394C169.495 81.4236 169.171 81.2798 168.848 81.2078C168.524 81.1359 168.236 81.0999 167.985 81.0999C167.805 81.0999 167.661 81.2078 167.553 81.4236C167.445 81.6034 167.391 81.8551 167.391 82.1788V92.4818C167.391 93.5966 167.697 94.4057 168.308 94.9092C168.92 95.4126 169.98 95.8262 171.491 96.1499C171.886 96.2218 172.174 96.3476 172.354 96.5274C172.57 96.6713 172.678 96.905 172.678 97.2287C172.678 97.4804 172.588 97.6782 172.408 97.8221C172.228 97.9659 171.976 98.0378 171.653 98.0378C170.861 98.0378 169.944 98.0019 168.902 97.9299C167.895 97.894 166.888 97.858 165.881 97.8221C164.874 97.7861 164.011 97.7681 163.292 97.7681C162.536 97.7681 161.709 97.7861 160.81 97.8221C159.911 97.858 158.976 97.894 158.005 97.9299C157.07 98.0019 156.207 98.0378 155.416 98.0378C155.128 98.0378 154.877 97.9839 154.661 97.876C154.445 97.7322 154.337 97.5344 154.337 97.2826C154.337 96.7073 154.715 96.3297 155.47 96.1499C156.836 95.8622 157.771 95.5025 158.275 95.071C158.814 94.6035 159.084 93.7764 159.084 92.5897V68.3696C159.084 67.5065 158.994 66.8232 158.814 66.3198C158.671 65.8163 158.365 65.4387 157.897 65.187C157.43 64.8993 156.747 64.6655 155.848 64.4857C155.38 64.3778 155.056 64.234 154.877 64.0542C154.697 63.8384 154.607 63.6047 154.607 63.3529C154.607 63.1372 154.715 62.9574 154.931 62.8135C155.146 62.6337 155.434 62.5438 155.794 62.5438C156.944 62.5438 157.879 62.5798 158.599 62.6517C159.354 62.7236 160.055 62.7955 160.702 62.8674C161.386 62.9034 162.177 62.9214 163.076 62.9214C163.903 62.9214 164.622 62.8854 165.233 62.8135C165.881 62.7056 166.6 62.6157 167.391 62.5438C168.218 62.4719 169.261 62.4359 170.52 62.4359C174.727 62.4359 177.964 63.1551 180.229 64.5936C182.495 66.0321 183.628 68.2077 183.628 71.1206C183.628 72.7389 183.268 74.1054 182.549 75.2202C181.866 76.2991 180.985 77.1981 179.906 77.9174C178.863 78.6006 177.802 79.1221 176.723 79.4817C176.579 79.5176 176.507 79.6075 176.507 79.7514C176.543 79.8593 176.597 79.9851 176.669 80.129C177.748 81.7113 178.791 83.2576 179.798 84.768C180.841 86.2424 181.902 87.627 182.981 88.9216C184.059 90.1802 185.174 91.349 186.325 92.4278C187.548 93.5786 188.788 94.2619 190.047 94.4776C191.342 94.6574 192.618 94.7474 193.877 94.7474C194.416 94.7474 194.686 95.071 194.686 95.7183C194.686 96.5095 194.398 97.1568 193.823 97.6602C193.283 98.1277 192.528 98.4694 191.557 98.6851C190.586 98.9009 189.472 99.0088 188.213 99.0088ZM169.441 79.3738C170.808 79.3738 171.94 79.0681 172.839 78.4568C173.738 77.8454 174.422 77.0183 174.889 75.9754C175.357 74.8966 175.59 73.6739 175.59 72.3074C175.59 70.6531 175.375 69.2686 174.943 68.1538C174.512 67.039 173.864 66.2119 173.001 65.6725C172.138 65.0971 171.023 64.8094 169.657 64.8094C168.866 64.8094 168.29 65.133 167.931 65.7803C167.607 66.3917 167.445 67.7223 167.445 69.7721C167.409 70.5992 167.391 71.6421 167.391 72.9007C167.391 74.1594 167.391 75.6518 167.391 77.3779C167.391 78.0972 167.571 78.6186 167.931 78.9423C168.326 79.2299 168.83 79.3738 169.441 79.3738Z" fill="white"/>
<path d="M205.785 98.6312C203.844 98.6312 202.099 98.1277 200.553 97.1208C199.043 96.0779 197.838 94.6754 196.939 92.9133C196.076 91.1152 195.644 89.0834 195.644 86.8178C195.644 84.5523 196.166 82.5024 197.209 80.6684C198.252 78.7984 199.672 77.324 201.47 76.2451C203.268 75.1303 205.246 74.5729 207.404 74.5729C208.95 74.5729 210.335 74.9146 211.557 75.5978C212.78 76.2451 213.751 77.1262 214.47 78.241C215.225 79.3558 215.603 80.6145 215.603 82.017C215.603 83.3835 215.046 84.0668 213.931 84.0668H203.142C202.639 84.0668 202.261 84.2106 202.01 84.4983C201.794 84.786 201.686 85.2715 201.686 85.9548C201.686 87.3213 201.992 88.5799 202.603 89.7307C203.214 90.8455 204.041 91.7266 205.084 92.3739C206.127 93.0212 207.332 93.3449 208.698 93.3449C209.741 93.3449 210.694 93.1471 211.557 92.7515C212.456 92.3559 213.337 91.8165 214.2 91.1332C214.344 91.0253 214.47 90.9354 214.578 90.8635C214.722 90.7556 214.848 90.7017 214.956 90.7017C215.315 90.7017 215.495 90.9354 215.495 91.4029C215.495 91.7985 215.351 92.3379 215.064 93.0212C214.704 93.9202 214.093 94.8193 213.23 95.7183C212.402 96.5814 211.359 97.2826 210.101 97.8221C208.842 98.3615 207.404 98.6312 205.785 98.6312ZM203.142 81.8012H206.379C207.386 81.8012 208.087 81.7832 208.483 81.7473C208.878 81.7113 209.238 81.6394 209.561 81.5315C209.741 81.4596 209.885 81.2798 209.993 80.9921C210.101 80.7044 210.155 80.3807 210.155 80.0211C210.155 79.0501 209.813 78.259 209.13 77.6476C208.483 77.0363 207.673 76.7306 206.702 76.7306C205.947 76.7306 205.228 76.9464 204.545 77.3779C203.897 77.7735 203.358 78.3129 202.927 78.9962C202.531 79.6435 202.351 80.3268 202.387 81.046C202.387 81.5495 202.639 81.8012 203.142 81.8012Z" fill="white"/>
<path d="M228.549 113.465C225.024 113.465 222.273 112.908 220.296 111.793C218.354 110.714 217.383 109.222 217.383 107.316C217.383 106.237 217.508 105.356 217.76 104.673C218.012 104.025 218.587 103.378 219.486 102.731C220.17 102.227 220.835 101.724 221.482 101.22C222.13 100.717 222.687 100.303 223.154 99.9798L225.798 100.897C224.683 101.544 223.802 102.245 223.154 103.001C222.543 103.756 222.237 104.637 222.237 105.644C222.237 107.118 222.849 108.341 224.071 109.312C225.33 110.283 226.894 110.768 228.764 110.768C231.246 110.768 233.008 110.283 234.051 109.312C234.698 108.664 235.22 107.927 235.615 107.1C236.011 106.309 236.208 105.5 236.208 104.673C236.208 104.097 236.011 103.63 235.615 103.27C235.22 102.911 234.5 102.605 233.457 102.353C232.451 102.101 231.03 101.886 229.196 101.706C225.456 101.346 222.795 100.645 221.213 99.6022C219.63 98.5593 218.839 97.1748 218.839 95.4486C218.839 95.1249 218.929 94.8013 219.109 94.4776C219.325 94.118 219.72 93.7404 220.296 93.3449C220.871 92.9133 221.392 92.5357 221.86 92.2121C222.327 91.8524 222.723 91.5288 223.047 91.2411C223.37 90.9174 223.586 90.6298 223.694 90.378L226.391 91.295C225.672 91.5468 225.078 91.8884 224.611 92.3199C224.179 92.7515 223.964 93.1291 223.964 93.4527C223.964 93.8483 224.197 94.172 224.665 94.4237C225.132 94.6754 225.923 94.8912 227.038 95.071C228.153 95.2149 229.681 95.3587 231.623 95.5025C235.507 95.8262 238.33 96.4375 240.092 97.3366C241.854 98.1997 242.736 99.4763 242.736 101.166C242.736 102.641 242.322 104.097 241.495 105.536C240.668 107.01 239.571 108.341 238.204 109.528C236.838 110.75 235.309 111.703 233.619 112.386C231.965 113.106 230.275 113.465 228.549 113.465ZM229.25 90.3241C230.401 90.3241 231.3 89.6948 231.947 88.4361C232.63 87.1415 232.972 85.4513 232.972 83.3655C232.972 82.0349 232.792 80.8842 232.433 79.9132C232.109 78.9063 231.659 78.1331 231.084 77.5937C230.509 77.0183 229.825 76.7306 229.034 76.7306C228.351 76.7306 227.722 77.0183 227.146 77.5937C226.571 78.1691 226.103 78.9423 225.744 79.9132C225.42 80.8482 225.258 81.945 225.258 83.2037C225.258 84.5343 225.438 85.739 225.798 86.8178C226.157 87.8967 226.643 88.7598 227.254 89.4071C227.865 90.0184 228.531 90.3241 229.25 90.3241ZM228.657 92.6975C227.074 92.6975 225.51 92.3199 223.964 91.5648C222.453 90.7736 221.195 89.6948 220.188 88.3282C219.217 86.9617 218.731 85.4333 218.731 83.7431C218.731 81.945 219.235 80.3448 220.242 78.9423C221.284 77.5398 222.633 76.4609 224.287 75.7057C225.977 74.9146 227.758 74.519 229.628 74.519C230.742 74.519 231.785 74.6449 232.756 74.8966C233.763 75.1483 234.86 75.3641 236.047 75.5439C236.73 75.6877 237.413 75.7956 238.096 75.8675C238.78 75.9395 239.535 75.9754 240.362 75.9754C240.901 75.9754 241.441 75.9574 241.98 75.9215C242.52 75.8496 242.969 75.8136 243.329 75.8136C243.904 75.8136 244.192 76.2092 244.192 77.0003C244.192 77.6836 243.958 78.3309 243.491 78.9423C243.275 79.194 243.041 79.3199 242.789 79.3199H241.333C240.398 79.3199 239.769 79.4637 239.445 79.7514C239.373 79.8233 239.319 79.9132 239.283 80.0211C239.247 80.093 239.211 80.2908 239.175 80.6145C239.175 80.9022 239.175 81.4596 239.175 82.2867C239.175 84.1567 238.69 85.8828 237.719 87.4651C236.748 89.0474 235.471 90.3241 233.889 91.295C232.307 92.23 230.563 92.6975 228.657 92.6975Z" fill="white"/>
<path d="M245.864 98.0378C245.648 98.0378 245.451 97.9839 245.271 97.876C245.091 97.7322 245.001 97.5524 245.001 97.3366C245.001 97.0489 245.091 96.8151 245.271 96.6353C245.451 96.4555 245.684 96.3297 245.972 96.2577C246.907 96.042 247.554 95.8082 247.914 95.5565C248.31 95.2688 248.507 94.8373 248.507 94.2619V82.6103C248.507 81.3876 248.31 80.5246 247.914 80.0211C247.554 79.4817 246.979 79.158 246.188 79.0501C245.972 79.0142 245.81 78.9063 245.702 78.7265C245.594 78.5467 245.541 78.3309 245.541 78.0792C245.541 77.5398 245.738 77.2341 246.134 77.1622C248.004 76.8025 249.658 76.2991 251.097 75.6518C252.571 75.0045 253.704 74.501 254.495 74.1414C255.07 73.8537 255.43 73.7099 255.574 73.7099C256.041 73.7099 256.275 73.9256 256.275 74.3572C256.239 74.9685 256.149 75.7417 256.005 76.6767C255.897 77.5757 255.79 78.5107 255.682 79.4817C255.61 80.4526 255.574 81.3876 255.574 82.2867V94.2079C255.574 94.7114 255.754 95.107 256.113 95.3947C256.509 95.6824 257.192 95.97 258.163 96.2577C258.451 96.3656 258.684 96.4915 258.864 96.6353C259.044 96.7792 259.134 96.9949 259.134 97.2826C259.134 97.7501 258.864 97.9839 258.325 97.9839C257.642 97.9839 256.922 97.9659 256.167 97.9299C255.412 97.894 254.675 97.858 253.956 97.8221C253.272 97.7861 252.607 97.7681 251.96 97.7681C251.348 97.7681 250.701 97.7861 250.018 97.8221C249.37 97.858 248.687 97.894 247.968 97.9299C247.285 98.0019 246.583 98.0378 245.864 98.0378ZM251.798 71.2824C250.683 71.2824 249.694 70.8689 248.831 70.0418C248.004 69.2147 247.59 68.2257 247.59 67.0749C247.59 65.8523 248.004 64.8274 248.831 64.0002C249.694 63.1731 250.683 62.7596 251.798 62.7596C253.056 62.7596 254.099 63.1731 254.926 64.0002C255.754 64.8274 256.167 65.8523 256.167 67.0749C256.167 68.2257 255.754 69.2147 254.926 70.0418C254.099 70.8689 253.056 71.2824 251.798 71.2824Z" fill="white"/>
<path d="M266.736 98.6312C265.765 98.6312 264.866 98.3974 264.039 97.9299C263.211 97.4624 262.546 96.8511 262.043 96.0959C261.575 95.3407 261.341 94.5136 261.341 93.6146C261.341 92.3919 261.719 91.367 262.474 90.5399C263.265 89.7127 264.416 88.9755 265.927 88.3282L270.727 86.2245C271.447 85.9008 271.878 85.6131 272.022 85.3614C272.202 85.1097 272.292 84.6422 272.292 83.9589L272.346 80.8842C272.382 79.8773 272.202 79.0861 271.806 78.5107C271.411 77.8994 270.817 77.5937 270.026 77.5937C269.559 77.5937 269.091 77.7016 268.624 77.9174C268.156 78.0972 267.797 78.3129 267.545 78.5647C267.437 78.7085 267.347 78.8883 267.275 79.1041C267.239 79.2839 267.221 79.4817 267.221 79.6974C267.221 79.9132 267.239 80.1829 267.275 80.5066C267.311 80.7943 267.329 81.046 267.329 81.2618C267.329 81.4775 267.041 81.7652 266.466 82.1249C265.891 82.4485 265.225 82.7542 264.47 83.0419C263.715 83.2936 263.068 83.4195 262.528 83.4195C262.276 83.4195 262.043 83.3116 261.827 83.0958C261.647 82.88 261.557 82.6103 261.557 82.2867C261.557 81.7113 261.755 81.1539 262.151 80.6145C262.546 80.0391 263.193 79.3918 264.092 78.6725C265.027 77.8814 266.052 77.1801 267.167 76.5688C268.282 75.9574 269.379 75.472 270.458 75.1124C271.572 74.7527 272.507 74.5729 273.263 74.5729C275.205 74.5729 276.751 75.2023 277.902 76.4609C279.052 77.6836 279.592 79.3199 279.52 81.3697L279.25 92.266C279.214 93.0931 279.358 93.7944 279.682 94.3698C280.005 94.9451 280.401 95.2328 280.869 95.2328C281.552 95.2328 282.145 94.9991 282.649 94.5316C282.756 94.4237 282.864 94.3698 282.972 94.3698C283.152 94.3698 283.296 94.4237 283.404 94.5316C283.548 94.6395 283.62 94.7833 283.62 94.9631C283.62 95.3947 283.296 95.9521 282.649 96.6353C281.965 97.2826 281.246 97.7681 280.491 98.0918C279.736 98.4514 278.945 98.6312 278.117 98.6312C276.104 98.6312 274.431 97.6063 273.101 95.5565H272.993C271.806 96.6353 270.727 97.4085 269.756 97.876C268.821 98.3795 267.814 98.6312 266.736 98.6312ZM269.972 95.1249C270.368 95.1249 270.691 95.071 270.943 94.9631C271.195 94.8193 271.447 94.6035 271.698 94.3158C271.806 94.172 271.896 93.9922 271.968 93.7764C272.04 93.5247 272.076 93.237 272.076 92.9133L272.238 89.0295C272.238 88.6699 272.184 88.4361 272.076 88.3282C271.968 88.2203 271.842 88.1664 271.698 88.1664C271.626 88.1664 271.536 88.1844 271.429 88.2203C271.321 88.2563 271.195 88.3102 271.051 88.3822C270.008 88.8856 269.235 89.4071 268.731 89.9465C268.228 90.4499 267.976 91.2771 267.976 92.4278C267.976 93.4707 268.192 94.1899 268.624 94.5855C269.055 94.9451 269.505 95.1249 269.972 95.1249Z" fill="white"/>
</svg>
