<svg width="437" height="437" viewBox="0 0 437 437" fill="none" xmlns="http://www.w3.org/2000/svg">
<circle cx="218.5" cy="218.5" r="218.5" fill="#DC8C22"/>
<path d="M27.0201 154.959C23.7319 154.959 20.6265 154.434 17.7037 153.383C14.8265 152.287 12.2691 150.735 10.0313 148.725C7.83918 146.716 6.12659 144.341 4.89354 141.601C3.66048 138.861 3.04395 135.824 3.04395 132.49C3.04395 129.339 3.63764 126.325 4.82503 123.447C6.05809 120.57 7.79351 118.013 10.0313 115.775C12.3147 113.537 15.0549 111.779 18.2517 110.5C21.4485 109.176 24.9878 108.514 28.8697 108.514C29.8287 108.514 30.9248 108.582 32.1579 108.719C33.4366 108.856 34.7381 109.039 36.0625 109.267C37.3869 109.496 38.62 109.77 39.7617 110.089C40.9491 110.363 41.9082 110.66 42.6389 110.98C43.0499 111.117 43.3696 111.322 43.5979 111.596C43.8263 111.825 43.9633 112.167 44.0089 112.624C44.2373 114.222 44.42 115.729 44.557 117.145C44.7396 118.561 44.831 119.748 44.831 120.707C44.831 121.164 44.7168 121.507 44.4885 121.735C44.3058 121.963 44.0318 122.077 43.6664 122.077C43.1184 122.077 42.7074 121.94 42.4334 121.666C42.205 121.392 41.9995 121.05 41.8168 120.639C41.4058 119.771 40.9263 118.881 40.3783 117.967C39.8759 117.008 39.2594 116.14 38.5287 115.364C37.9806 114.816 37.3184 114.291 36.5421 113.788C35.8114 113.286 34.898 112.875 33.8019 112.555C32.7059 112.236 31.3815 112.076 29.8287 112.076C27.3626 112.076 25.1705 112.578 23.2524 113.583C21.3343 114.588 19.7131 115.981 18.3887 117.762C17.11 119.497 16.1281 121.484 15.443 123.721C14.8037 125.914 14.484 128.243 14.484 130.709C14.484 133.769 14.7808 136.577 15.3745 139.135C15.9682 141.646 16.8359 143.816 17.9777 145.643C19.1194 147.469 20.5351 148.885 22.2249 149.89C23.9146 150.849 25.8784 151.328 28.1162 151.328C29.3036 151.328 30.2626 151.123 30.9933 150.712C31.7697 150.301 32.3862 149.935 32.8429 149.616C33.2996 149.25 33.6649 148.679 33.9389 147.903C34.2586 147.081 34.4185 146.168 34.4185 145.163C34.4641 144.752 34.487 144.181 34.487 143.45C34.487 142.72 34.487 141.989 34.487 141.258C34.5326 140.528 34.5555 139.957 34.5555 139.546C34.5555 139.043 34.4413 138.587 34.213 138.176C34.0303 137.719 33.6421 137.376 33.0484 137.148C32.6374 136.874 32.1579 136.646 31.6098 136.463C31.1075 136.28 30.5823 136.143 30.0343 136.052C29.5319 135.915 29.0752 135.801 28.6642 135.71C28.2988 135.664 27.9335 135.504 27.5681 135.23C27.2028 134.956 27.0201 134.613 27.0201 134.202C27.0201 133.883 27.1799 133.632 27.4996 133.449C27.8193 133.266 28.139 133.175 28.4587 133.175C29.5091 133.175 30.6508 133.198 31.8838 133.243C33.1626 133.289 34.4185 133.358 35.6515 133.449C36.8846 133.495 37.9806 133.517 38.9397 133.517C40.2641 133.517 41.657 133.472 43.1184 133.38C44.6255 133.289 46.064 133.243 47.4341 133.243C47.7538 133.243 48.0278 133.335 48.2561 133.517C48.4845 133.654 48.5987 133.906 48.5987 134.271C48.5987 134.728 48.4616 135.07 48.1876 135.299C47.9593 135.481 47.6396 135.618 47.2286 135.71C45.9499 136.029 45.0821 136.44 44.6255 136.943C44.1688 137.445 43.8491 138.153 43.6664 139.066C43.4837 140.071 43.3467 140.961 43.2554 141.738C43.2097 142.469 43.1869 143.291 43.1869 144.204V146.396C43.1869 146.624 43.2782 146.853 43.4609 147.081C43.6436 147.309 43.8491 147.538 44.0774 147.766C44.2601 147.994 44.42 148.223 44.557 148.451C44.694 148.679 44.7625 148.931 44.7625 149.205C44.7625 149.479 44.6711 149.776 44.4885 150.095C44.3058 150.369 43.9633 150.552 43.4609 150.643C43.0956 150.689 42.4562 150.94 41.5428 151.397C40.6294 151.808 39.4877 152.31 38.1176 152.904C36.7476 153.452 35.1263 153.931 33.2539 154.342C31.3815 154.753 29.3036 154.959 27.0201 154.959Z" fill="white"/>
<path d="M66.5294 154.959C63.7893 154.959 61.3231 154.342 59.131 153.109C56.9389 151.876 55.1807 150.187 53.8563 148.04C52.5776 145.848 51.9382 143.382 51.9382 140.642C51.9382 138.45 52.3492 136.372 53.1712 134.408C53.9933 132.444 55.135 130.709 56.5964 129.202C58.0578 127.695 59.7704 126.507 61.7342 125.64C63.6979 124.772 65.7987 124.338 68.0365 124.338C70.8679 124.338 73.4254 125 75.7088 126.325C77.9923 127.649 79.7962 129.407 81.1206 131.599C82.4907 133.746 83.1757 136.098 83.1757 138.655C83.1757 141.578 82.5363 144.295 81.2576 146.807C80.0245 149.273 78.175 151.26 75.7088 152.767C73.2884 154.228 70.2286 154.959 66.5294 154.959ZM67.8995 151.945C68.8585 151.945 69.6805 151.762 70.3656 151.397C71.0963 150.986 71.69 150.392 72.1467 149.616C72.6947 148.702 73.06 147.469 73.2427 145.917C73.4711 144.318 73.5852 142.446 73.5852 140.299C73.5852 137.833 73.3112 135.641 72.7632 133.723C72.2152 131.759 71.4388 130.206 70.4341 129.065C69.475 127.923 68.3333 127.352 67.0089 127.352C66.2782 127.352 65.616 127.489 65.0223 127.763C64.4286 127.991 63.9034 128.334 63.4467 128.791C62.6704 129.704 62.1223 131.006 61.8027 132.695C61.5287 134.385 61.3916 136.463 61.3916 138.929C61.3916 141.121 61.6657 143.222 62.2137 145.231C62.8074 147.195 63.5838 148.817 64.5428 150.095C65.5475 151.328 66.6664 151.945 67.8995 151.945Z" fill="white"/>
<path d="M87.2811 154.205C87.0071 154.205 86.7559 154.137 86.5275 154C86.2992 153.817 86.185 153.589 86.185 153.315C86.185 152.95 86.2992 152.653 86.5275 152.424C86.7559 152.196 87.0527 152.036 87.4181 151.945C88.6055 151.671 89.4275 151.374 89.8842 151.054C90.3866 150.689 90.6377 150.141 90.6377 149.41V134.613C90.6377 133.061 90.3866 131.965 89.8842 131.325C89.4275 130.64 88.6968 130.229 87.6921 130.092C87.4181 130.047 87.2126 129.91 87.0756 129.681C86.9386 129.453 86.8701 129.179 86.8701 128.859C86.8701 128.174 87.1212 127.786 87.6236 127.695C89.9984 127.238 92.0992 126.599 93.9259 125.777C95.7983 124.955 97.2369 124.315 98.2416 123.858C98.9723 123.493 99.429 123.31 99.6117 123.31C100.205 123.31 100.502 123.584 100.502 124.132C100.457 124.909 100.342 125.891 100.16 127.078C100.023 128.22 99.8857 129.407 99.7487 130.64C99.6574 131.873 99.6117 133.061 99.6117 134.202V149.342C99.6117 149.981 99.84 150.483 100.297 150.849C100.799 151.214 101.667 151.579 102.9 151.945C103.265 152.082 103.562 152.242 103.79 152.424C104.019 152.607 104.133 152.881 104.133 153.246C104.133 153.84 103.79 154.137 103.105 154.137C102.238 154.137 101.324 154.114 100.365 154.068C99.4062 154.023 98.47 153.977 97.5566 153.931C96.6889 153.886 95.844 153.863 95.022 153.863C94.2456 153.863 93.4236 153.886 92.5558 153.931C91.7338 153.977 90.8661 154.023 89.9527 154.068C89.085 154.16 88.1945 154.205 87.2811 154.205ZM94.8165 120.228C93.4007 120.228 92.1448 119.703 91.0488 118.652C89.9984 117.602 89.4732 116.346 89.4732 114.885C89.4732 113.332 89.9984 112.03 91.0488 110.98C92.1448 109.929 93.4007 109.404 94.8165 109.404C96.4149 109.404 97.7393 109.929 98.7896 110.98C99.84 112.03 100.365 113.332 100.365 114.885C100.365 116.346 99.84 117.602 98.7896 118.652C97.7393 119.703 96.4149 120.228 94.8165 120.228Z" fill="white"/>
<path d="M107.758 154.205C107.439 154.205 107.119 154.137 106.799 154C106.525 153.817 106.388 153.566 106.388 153.246C106.388 152.881 106.548 152.607 106.868 152.424C107.187 152.196 107.553 152.013 107.964 151.876C108.649 151.648 109.242 151.397 109.745 151.123C110.293 150.803 110.567 150.187 110.567 149.273V133.586C110.567 132.581 110.407 131.736 110.087 131.051C109.813 130.366 109.265 129.932 108.443 129.75C108.261 129.704 108.078 129.59 107.895 129.407C107.758 129.225 107.69 128.928 107.69 128.517C107.69 127.877 107.918 127.489 108.375 127.352C109.927 126.987 111.617 126.507 113.444 125.914C115.316 125.274 116.915 124.612 118.239 123.927C118.422 123.836 118.627 123.721 118.856 123.584C119.084 123.447 119.29 123.379 119.472 123.379C119.746 123.379 119.906 123.47 119.952 123.653C120.043 123.79 120.089 123.973 120.089 124.201C120.089 124.566 120.02 125.16 119.883 125.982C119.792 126.758 119.746 127.466 119.746 128.106C119.746 128.288 119.746 128.494 119.746 128.722C119.792 128.951 119.838 129.088 119.883 129.133C121.436 127.626 123.012 126.462 124.61 125.64C126.208 124.818 128.058 124.406 130.159 124.406C132.534 124.406 134.52 125.297 136.119 127.078C137.763 128.814 138.585 131.188 138.585 134.202V149.273C138.585 150.187 138.836 150.803 139.338 151.123C139.886 151.397 140.503 151.648 141.188 151.876C141.553 152.013 141.873 152.196 142.147 152.424C142.421 152.607 142.558 152.881 142.558 153.246C142.558 153.566 142.421 153.817 142.147 154C141.919 154.137 141.667 154.205 141.393 154.205C140.48 154.205 139.612 154.16 138.79 154.068C138.014 154.023 137.237 153.977 136.461 153.931C135.73 153.886 134.954 153.863 134.132 153.863C133.356 153.863 132.579 153.886 131.803 153.931C131.027 153.977 130.25 154.023 129.474 154.068C128.697 154.16 127.853 154.205 126.939 154.205C126.665 154.205 126.391 154.137 126.117 154C125.889 153.817 125.775 153.566 125.775 153.246C125.775 152.881 125.912 152.607 126.186 152.424C126.46 152.196 126.779 152.013 127.145 151.876C127.83 151.648 128.401 151.397 128.857 151.123C129.314 150.803 129.542 150.187 129.542 149.273V135.641C129.542 133.906 129.131 132.558 128.309 131.599C127.533 130.595 126.482 130.069 125.158 130.024C124.153 130.024 123.263 130.184 122.486 130.503C121.71 130.823 120.911 131.257 120.089 131.805C119.906 131.988 119.769 132.193 119.678 132.421C119.586 132.65 119.541 132.878 119.541 133.106V149.273C119.541 150.187 119.792 150.803 120.294 151.123C120.797 151.397 121.368 151.648 122.007 151.876C122.92 152.15 123.377 152.607 123.377 153.246C123.377 153.52 123.263 153.749 123.034 153.931C122.806 154.114 122.532 154.205 122.212 154.205C121.299 154.205 120.454 154.16 119.678 154.068C118.901 154.023 118.171 153.977 117.486 153.931C116.801 153.886 116.047 153.863 115.225 153.863C114.449 153.863 113.65 153.886 112.827 153.931C112.051 153.977 111.229 154.023 110.361 154.068C109.539 154.16 108.672 154.205 107.758 154.205Z" fill="white"/>
<path d="M158.547 173.797C154.071 173.797 150.578 173.09 148.066 171.674C145.6 170.304 144.367 168.408 144.367 165.988C144.367 164.618 144.527 163.499 144.846 162.631C145.166 161.809 145.897 160.987 147.038 160.165C147.906 159.526 148.751 158.886 149.573 158.247C150.395 157.608 151.103 157.083 151.697 156.672L155.053 157.836C153.638 158.658 152.519 159.549 151.697 160.508C150.92 161.467 150.532 162.586 150.532 163.864C150.532 165.737 151.308 167.29 152.861 168.523C154.46 169.756 156.446 170.372 158.821 170.372C161.972 170.372 164.21 169.756 165.534 168.523C166.356 167.701 167.019 166.764 167.521 165.714C168.023 164.709 168.274 163.682 168.274 162.631C168.274 161.901 168.023 161.307 167.521 160.85C167.019 160.394 166.105 160.005 164.781 159.686C163.502 159.366 161.698 159.092 159.369 158.864C154.619 158.407 151.24 157.516 149.231 156.192C147.221 154.868 146.216 153.109 146.216 150.917C146.216 150.506 146.331 150.095 146.559 149.684C146.833 149.228 147.335 148.748 148.066 148.246C148.797 147.698 149.459 147.218 150.053 146.807C150.646 146.35 151.149 145.939 151.56 145.574C151.971 145.163 152.245 144.798 152.382 144.478L155.807 145.643C154.894 145.962 154.14 146.396 153.546 146.944C152.998 147.492 152.724 147.972 152.724 148.383C152.724 148.885 153.021 149.296 153.615 149.616C154.208 149.935 155.213 150.209 156.629 150.438C158.045 150.62 159.986 150.803 162.452 150.986C167.384 151.397 170.969 152.173 173.207 153.315C175.445 154.411 176.563 156.032 176.563 158.179C176.563 160.051 176.038 161.901 174.988 163.727C173.937 165.6 172.545 167.29 170.809 168.797C169.074 170.349 167.133 171.56 164.986 172.427C162.886 173.341 160.739 173.797 158.547 173.797ZM159.438 144.409C160.899 144.409 162.041 143.61 162.863 142.012C163.73 140.368 164.164 138.221 164.164 135.573C164.164 133.883 163.936 132.421 163.479 131.188C163.068 129.91 162.497 128.928 161.767 128.243C161.036 127.512 160.168 127.147 159.164 127.147C158.296 127.147 157.497 127.512 156.766 128.243C156.035 128.973 155.442 129.955 154.985 131.188C154.574 132.376 154.368 133.769 154.368 135.367C154.368 137.057 154.597 138.587 155.053 139.957C155.51 141.327 156.127 142.423 156.903 143.245C157.679 144.021 158.524 144.409 159.438 144.409ZM158.684 147.424C156.675 147.424 154.688 146.944 152.724 145.985C150.806 144.98 149.208 143.61 147.929 141.875C146.696 140.139 146.079 138.198 146.079 136.052C146.079 133.769 146.719 131.736 147.997 129.955C149.322 128.174 151.034 126.804 153.135 125.845C155.282 124.84 157.542 124.338 159.917 124.338C161.333 124.338 162.657 124.498 163.89 124.818C165.169 125.137 166.562 125.411 168.069 125.64C168.937 125.822 169.804 125.959 170.672 126.051C171.54 126.142 172.499 126.188 173.549 126.188C174.234 126.188 174.919 126.165 175.604 126.119C176.289 126.028 176.86 125.982 177.317 125.982C178.048 125.982 178.413 126.484 178.413 127.489C178.413 128.357 178.116 129.179 177.522 129.955C177.248 130.275 176.952 130.435 176.632 130.435H174.782C173.595 130.435 172.796 130.617 172.385 130.983C172.293 131.074 172.225 131.188 172.179 131.325C172.134 131.417 172.088 131.668 172.042 132.079C172.042 132.444 172.042 133.152 172.042 134.202C172.042 136.577 171.426 138.769 170.193 140.779C168.96 142.788 167.338 144.409 165.329 145.643C163.319 146.83 161.104 147.424 158.684 147.424Z" fill="white"/>
<path d="M213.097 154.959C211.772 154.959 210.539 154.845 209.397 154.616C208.301 154.388 207.297 154.16 206.383 153.931C205.698 153.703 205.059 153.52 204.465 153.383C203.917 153.246 203.46 153.178 203.095 153.178C202.638 153.178 202.205 153.269 201.793 153.452C201.382 153.589 200.994 153.794 200.629 154.068C200.218 154.388 199.898 154.548 199.67 154.548C199.259 154.548 198.939 154.457 198.711 154.274C198.528 154.091 198.437 153.886 198.437 153.657C198.437 153.246 198.551 152.447 198.779 151.26C199.053 150.072 199.168 148.588 199.122 146.807L198.848 116.323C198.848 115.136 198.665 114.085 198.3 113.172C197.98 112.213 197.272 111.619 196.176 111.391C195.948 111.345 195.742 111.231 195.56 111.048C195.423 110.866 195.354 110.614 195.354 110.295C195.354 110.066 195.423 109.861 195.56 109.678C195.697 109.496 195.879 109.381 196.108 109.336C197.112 109.153 198.277 108.856 199.601 108.445C200.926 107.989 202.205 107.532 203.438 107.075C204.716 106.573 205.698 106.207 206.383 105.979C206.84 105.796 207.16 105.705 207.342 105.705C207.616 105.705 207.799 105.796 207.89 105.979C208.027 106.116 208.096 106.299 208.096 106.527C208.096 106.801 208.027 107.372 207.89 108.24C207.799 109.107 207.753 109.975 207.753 110.843V125.503C207.753 126.096 207.799 126.576 207.89 126.941C207.982 127.261 208.141 127.421 208.37 127.421C209.786 126.462 211.247 125.731 212.754 125.229C214.307 124.68 215.768 124.406 217.138 124.406C219.513 124.406 221.659 125.023 223.578 126.256C225.496 127.489 227.003 129.179 228.099 131.325C229.24 133.472 229.811 135.892 229.811 138.587C229.811 141.783 229.103 144.638 227.688 147.15C226.272 149.616 224.308 151.534 221.796 152.904C219.33 154.274 216.43 154.959 213.097 154.959ZM214.33 152.082C215.563 152.082 216.613 151.557 217.481 150.506C218.348 149.41 219.011 147.972 219.467 146.191C219.97 144.409 220.221 142.469 220.221 140.368C220.221 138.541 219.97 136.691 219.467 134.819C219.011 132.947 218.257 131.394 217.207 130.161C216.202 128.882 214.9 128.243 213.302 128.243C212.48 128.243 211.521 128.38 210.425 128.654C209.329 128.882 208.438 129.27 207.753 129.818V144.409C207.753 145.871 208.05 147.195 208.644 148.383C209.283 149.57 210.105 150.483 211.11 151.123C212.115 151.762 213.188 152.082 214.33 152.082Z" fill="white"/>
<path d="M233.921 154.205C233.647 154.205 233.396 154.137 233.167 154C232.939 153.817 232.825 153.589 232.825 153.315C232.825 152.95 232.939 152.653 233.167 152.424C233.396 152.196 233.693 152.036 234.058 151.945C235.245 151.671 236.067 151.374 236.524 151.054C237.026 150.689 237.278 150.141 237.278 149.41V134.613C237.278 133.061 237.026 131.965 236.524 131.325C236.067 130.64 235.337 130.229 234.332 130.092C234.058 130.047 233.853 129.91 233.715 129.681C233.578 129.453 233.51 129.179 233.51 128.859C233.51 128.174 233.761 127.786 234.264 127.695C236.638 127.238 238.739 126.599 240.566 125.777C242.438 124.955 243.877 124.315 244.882 123.858C245.612 123.493 246.069 123.31 246.252 123.31C246.845 123.31 247.142 123.584 247.142 124.132C247.096 124.909 246.982 125.891 246.8 127.078C246.663 128.22 246.526 129.407 246.389 130.64C246.297 131.873 246.252 133.061 246.252 134.202V149.342C246.252 149.981 246.48 150.483 246.937 150.849C247.439 151.214 248.307 151.579 249.54 151.945C249.905 152.082 250.202 152.242 250.43 152.424C250.659 152.607 250.773 152.881 250.773 153.246C250.773 153.84 250.43 154.137 249.745 154.137C248.878 154.137 247.964 154.114 247.005 154.068C246.046 154.023 245.11 153.977 244.197 153.931C243.329 153.886 242.484 153.863 241.662 153.863C240.886 153.863 240.063 153.886 239.196 153.931C238.374 153.977 237.506 154.023 236.593 154.068C235.725 154.16 234.834 154.205 233.921 154.205ZM241.456 120.228C240.041 120.228 238.785 119.703 237.689 118.652C236.638 117.602 236.113 116.346 236.113 114.885C236.113 113.332 236.638 112.03 237.689 110.98C238.785 109.929 240.041 109.404 241.456 109.404C243.055 109.404 244.379 109.929 245.43 110.98C246.48 112.03 247.005 113.332 247.005 114.885C247.005 116.346 246.48 117.602 245.43 118.652C244.379 119.703 243.055 120.228 241.456 120.228Z" fill="white"/>
<path d="M266.386 173.797C261.911 173.797 258.417 173.09 255.905 171.674C253.439 170.304 252.206 168.408 252.206 165.988C252.206 164.618 252.366 163.499 252.686 162.631C253.005 161.809 253.736 160.987 254.878 160.165C255.745 159.526 256.59 158.886 257.412 158.247C258.234 157.608 258.942 157.083 259.536 156.672L262.893 157.836C261.477 158.658 260.358 159.549 259.536 160.508C258.76 161.467 258.371 162.586 258.371 163.864C258.371 165.737 259.148 167.29 260.7 168.523C262.299 169.756 264.285 170.372 266.66 170.372C269.811 170.372 272.049 169.756 273.374 168.523C274.196 167.701 274.858 166.764 275.36 165.714C275.863 164.709 276.114 163.682 276.114 162.631C276.114 161.901 275.863 161.307 275.36 160.85C274.858 160.394 273.944 160.005 272.62 159.686C271.341 159.366 269.537 159.092 267.208 158.864C262.459 158.407 259.079 157.516 257.07 156.192C255.06 154.868 254.056 153.109 254.056 150.917C254.056 150.506 254.17 150.095 254.398 149.684C254.672 149.228 255.175 148.748 255.905 148.246C256.636 147.698 257.298 147.218 257.892 146.807C258.486 146.35 258.988 145.939 259.399 145.574C259.81 145.163 260.084 144.798 260.221 144.478L263.646 145.643C262.733 145.962 261.979 146.396 261.385 146.944C260.837 147.492 260.563 147.972 260.563 148.383C260.563 148.885 260.86 149.296 261.454 149.616C262.048 149.935 263.052 150.209 264.468 150.438C265.884 150.62 267.825 150.803 270.291 150.986C275.223 151.397 278.808 152.173 281.046 153.315C283.284 154.411 284.403 156.032 284.403 158.179C284.403 160.051 283.877 161.901 282.827 163.727C281.777 165.6 280.384 167.29 278.648 168.797C276.913 170.349 274.972 171.56 272.826 172.427C270.725 173.341 268.578 173.797 266.386 173.797ZM267.277 144.409C268.738 144.409 269.88 143.61 270.702 142.012C271.57 140.368 272.004 138.221 272.004 135.573C272.004 133.883 271.775 132.421 271.318 131.188C270.907 129.91 270.337 128.928 269.606 128.243C268.875 127.512 268.007 127.147 267.003 127.147C266.135 127.147 265.336 127.512 264.605 128.243C263.874 128.973 263.281 129.955 262.824 131.188C262.413 132.376 262.208 133.769 262.208 135.367C262.208 137.057 262.436 138.587 262.893 139.957C263.349 141.327 263.966 142.423 264.742 143.245C265.519 144.021 266.363 144.409 267.277 144.409ZM266.523 147.424C264.514 147.424 262.527 146.944 260.563 145.985C258.645 144.98 257.047 143.61 255.768 141.875C254.535 140.139 253.919 138.198 253.919 136.052C253.919 133.769 254.558 131.736 255.837 129.955C257.161 128.174 258.874 126.804 260.974 125.845C263.121 124.84 265.382 124.338 267.756 124.338C269.172 124.338 270.496 124.498 271.729 124.818C273.008 125.137 274.401 125.411 275.908 125.64C276.776 125.822 277.644 125.959 278.511 126.051C279.379 126.142 280.338 126.188 281.388 126.188C282.073 126.188 282.759 126.165 283.444 126.119C284.129 126.028 284.699 125.982 285.156 125.982C285.887 125.982 286.252 126.484 286.252 127.489C286.252 128.357 285.955 129.179 285.362 129.955C285.088 130.275 284.791 130.435 284.471 130.435H282.622C281.434 130.435 280.635 130.617 280.224 130.983C280.133 131.074 280.064 131.188 280.018 131.325C279.973 131.417 279.927 131.668 279.881 132.079C279.881 132.444 279.881 133.152 279.881 134.202C279.881 136.577 279.265 138.769 278.032 140.779C276.799 142.788 275.177 144.409 273.168 145.643C271.159 146.83 268.944 147.424 266.523 147.424Z" fill="white"/>
<path d="M313.4 154.959C311.893 154.959 310.432 154.776 309.016 154.411C307.6 154.046 306.322 153.452 305.18 152.63C304.769 151.945 304.472 150.872 304.289 149.41C304.107 147.949 304.038 146.419 304.084 144.82C304.084 144.272 304.541 143.998 305.454 143.998C305.819 143.998 306.139 144.113 306.413 144.341C306.687 144.569 306.847 144.798 306.893 145.026C307.76 146.944 308.765 148.588 309.907 149.958C311.048 151.283 312.418 151.945 314.017 151.945C315.25 151.945 316.186 151.579 316.826 150.849C317.465 150.072 317.785 149.205 317.785 148.246C317.785 147.058 317.305 146.076 316.346 145.3C315.433 144.478 314.314 143.724 312.989 143.039C311.665 142.354 310.409 141.578 309.222 140.71C308.034 139.843 307.052 138.815 306.276 137.628C305.545 136.395 305.18 134.933 305.18 133.243C305.18 131.462 305.659 129.91 306.619 128.585C307.623 127.261 308.948 126.233 310.592 125.503C312.281 124.726 314.154 124.338 316.209 124.338C317.716 124.338 319.109 124.521 320.388 124.886C321.666 125.206 322.534 125.525 322.991 125.845C323.356 126.302 323.653 127.169 323.881 128.448C324.11 129.681 324.224 131.051 324.224 132.558C324.224 133.061 323.813 133.312 322.991 133.312C322.671 133.312 322.329 133.198 321.963 132.969C321.644 132.741 321.438 132.513 321.347 132.284C320.753 130.503 319.977 129.179 319.018 128.311C318.104 127.398 317.077 126.941 315.935 126.941C314.93 126.941 314.017 127.261 313.195 127.9C312.373 128.54 311.962 129.407 311.962 130.503C311.962 131.462 312.396 132.33 313.263 133.106C314.177 133.837 315.296 134.568 316.62 135.299C319.589 136.851 321.712 138.358 322.991 139.82C324.27 141.235 324.909 143.131 324.909 145.506C324.909 148.474 323.927 150.803 321.963 152.493C320.045 154.137 317.191 154.959 313.4 154.959Z" fill="white"/>
<path d="M341.237 154.959C338.816 154.959 336.624 154.32 334.66 153.041C332.742 151.716 331.212 149.958 330.071 147.766C328.975 145.528 328.427 143.017 328.427 140.231C328.427 137.262 329.112 134.591 330.482 132.216C331.852 129.841 333.679 127.946 335.962 126.53C338.291 125.114 340.871 124.406 343.703 124.406C347.448 124.406 350.553 125.64 353.019 128.106C353.43 128.562 353.636 128.973 353.636 129.339C353.636 129.613 353.43 130.024 353.019 130.572C352.608 131.074 352.152 131.531 351.649 131.942C351.147 132.353 350.713 132.558 350.348 132.558C349.937 132.558 349.526 132.444 349.115 132.216C348.749 131.942 348.384 131.645 348.019 131.325C346.831 130.321 345.621 129.521 344.388 128.928C343.201 128.288 342.173 127.969 341.305 127.969C339.57 127.969 338.246 128.699 337.332 130.161C336.464 131.577 336.031 133.906 336.031 137.148C336.031 139.386 336.373 141.327 337.058 142.971C337.789 144.569 338.816 145.802 340.141 146.67C341.465 147.538 343.064 147.972 344.936 147.972C346.306 147.972 347.493 147.766 348.498 147.355C349.503 146.898 350.553 146.213 351.649 145.3C351.878 145.163 352.06 145.026 352.197 144.889C352.38 144.752 352.586 144.683 352.814 144.683C353.362 144.683 353.636 145.049 353.636 145.78C353.636 145.962 353.59 146.236 353.499 146.602C353.453 146.921 353.316 147.287 353.088 147.698C352.677 148.611 351.878 149.639 350.69 150.78C349.549 151.922 348.178 152.904 346.58 153.726C344.982 154.548 343.201 154.959 341.237 154.959Z" fill="white"/>
<path d="M362.78 154.959C361.547 154.959 360.405 154.662 359.355 154.068C358.304 153.475 357.46 152.698 356.82 151.739C356.227 150.78 355.93 149.73 355.93 148.588C355.93 147.035 356.409 145.734 357.368 144.683C358.373 143.633 359.834 142.697 361.752 141.875L367.849 139.203C368.763 138.792 369.311 138.427 369.493 138.107C369.722 137.787 369.836 137.194 369.836 136.326L369.904 132.421C369.95 131.143 369.722 130.138 369.219 129.407C368.717 128.631 367.963 128.243 366.959 128.243C366.365 128.243 365.771 128.38 365.178 128.654C364.584 128.882 364.127 129.156 363.808 129.476C363.671 129.658 363.556 129.887 363.465 130.161C363.419 130.389 363.397 130.64 363.397 130.914C363.397 131.188 363.419 131.531 363.465 131.942C363.511 132.307 363.534 132.627 363.534 132.901C363.534 133.175 363.168 133.54 362.438 133.997C361.707 134.408 360.862 134.796 359.903 135.162C358.944 135.481 358.122 135.641 357.437 135.641C357.117 135.641 356.82 135.504 356.546 135.23C356.318 134.956 356.204 134.613 356.204 134.202C356.204 133.472 356.455 132.764 356.957 132.079C357.46 131.348 358.282 130.526 359.423 129.613C360.611 128.608 361.912 127.717 363.328 126.941C364.744 126.165 366.137 125.548 367.507 125.092C368.922 124.635 370.11 124.406 371.069 124.406C373.535 124.406 375.499 125.206 376.96 126.804C378.422 128.357 379.107 130.435 379.015 133.038L378.673 146.876C378.627 147.926 378.81 148.817 379.221 149.547C379.632 150.278 380.134 150.643 380.728 150.643C381.596 150.643 382.349 150.346 382.988 149.753C383.126 149.616 383.262 149.547 383.4 149.547C383.628 149.547 383.811 149.616 383.948 149.753C384.13 149.89 384.222 150.072 384.222 150.301C384.222 150.849 383.811 151.557 382.988 152.424C382.121 153.246 381.207 153.863 380.248 154.274C379.289 154.731 378.285 154.959 377.234 154.959C374.677 154.959 372.553 153.657 370.863 151.054H370.726C369.219 152.424 367.849 153.406 366.616 154C365.429 154.639 364.15 154.959 362.78 154.959ZM366.89 150.506C367.393 150.506 367.804 150.438 368.123 150.301C368.443 150.118 368.763 149.844 369.082 149.479C369.219 149.296 369.333 149.068 369.425 148.794C369.516 148.474 369.562 148.109 369.562 147.698L369.767 142.765C369.767 142.309 369.699 142.012 369.562 141.875C369.425 141.738 369.265 141.669 369.082 141.669C368.991 141.669 368.877 141.692 368.74 141.738C368.603 141.783 368.443 141.852 368.26 141.943C366.936 142.583 365.954 143.245 365.315 143.93C364.675 144.569 364.356 145.62 364.356 147.081C364.356 148.405 364.63 149.319 365.178 149.821C365.726 150.278 366.297 150.506 366.89 150.506Z" fill="white"/>
<path d="M386.446 154.205C386.035 154.205 385.693 154.137 385.419 154C385.19 153.817 385.076 153.566 385.076 153.246C385.076 152.881 385.213 152.607 385.487 152.424C385.761 152.196 386.149 152.013 386.652 151.876C387.337 151.648 387.931 151.397 388.433 151.123C388.981 150.849 389.255 150.232 389.255 149.273V116.323C389.255 115.09 389.072 114.017 388.707 113.103C388.387 112.19 387.657 111.619 386.515 111.391C386.058 111.3 385.83 110.957 385.83 110.363C385.83 109.77 386.035 109.427 386.446 109.336C387.634 109.107 388.912 108.788 390.283 108.377C391.653 107.92 392.954 107.463 394.187 107.007C395.42 106.504 396.379 106.139 397.064 105.911C397.43 105.774 397.727 105.705 397.955 105.705C398.229 105.705 398.412 105.796 398.503 105.979C398.594 106.116 398.64 106.299 398.64 106.527C398.64 106.847 398.571 107.44 398.434 108.308C398.343 109.176 398.275 110.158 398.229 111.254V149.136C398.229 150.141 398.48 150.78 398.982 151.054C399.53 151.283 400.147 151.511 400.832 151.739C401.334 151.922 401.723 152.105 401.997 152.287C402.271 152.47 402.408 152.744 402.408 153.109C402.408 153.429 402.271 153.68 401.997 153.863C401.768 154 401.449 154.068 401.038 154.068C400.17 154.068 399.302 154.046 398.434 154C397.612 153.954 396.79 153.931 395.968 153.931C395.192 153.886 394.393 153.863 393.571 153.863C392.794 153.863 392.018 153.886 391.242 153.931C390.511 153.977 389.757 154.023 388.981 154.068C388.205 154.16 387.36 154.205 386.446 154.205Z" fill="white"/>
<path d="M416.831 154.959C414.365 154.959 412.15 154.32 410.186 153.041C408.268 151.716 406.738 149.935 405.597 147.698C404.501 145.414 403.953 142.834 403.953 139.957C403.953 137.08 404.615 134.476 405.939 132.147C407.264 129.773 409.068 127.9 411.351 126.53C413.634 125.114 416.146 124.406 418.886 124.406C420.85 124.406 422.608 124.84 424.161 125.708C425.714 126.53 426.947 127.649 427.86 129.065C428.819 130.48 429.299 132.079 429.299 133.86C429.299 135.595 428.591 136.463 427.175 136.463H413.475C412.835 136.463 412.356 136.646 412.036 137.011C411.762 137.376 411.625 137.993 411.625 138.861C411.625 140.596 412.013 142.195 412.79 143.656C413.566 145.072 414.616 146.191 415.941 147.013C417.265 147.835 418.795 148.246 420.53 148.246C421.855 148.246 423.065 147.994 424.161 147.492C425.303 146.99 426.422 146.305 427.518 145.437C427.7 145.3 427.86 145.186 427.997 145.094C428.18 144.957 428.34 144.889 428.477 144.889C428.934 144.889 429.162 145.186 429.162 145.78C429.162 146.282 428.979 146.967 428.614 147.835C428.157 148.976 427.381 150.118 426.285 151.26C425.234 152.356 423.91 153.246 422.312 153.931C420.713 154.616 418.886 154.959 416.831 154.959ZM413.475 133.586H417.585C418.864 133.586 419.754 133.563 420.256 133.517C420.759 133.472 421.216 133.38 421.627 133.243C421.855 133.152 422.038 132.924 422.175 132.558C422.312 132.193 422.38 131.782 422.38 131.325C422.38 130.092 421.946 129.088 421.078 128.311C420.256 127.535 419.229 127.147 417.996 127.147C417.037 127.147 416.123 127.421 415.256 127.969C414.434 128.471 413.749 129.156 413.201 130.024C412.698 130.846 412.47 131.714 412.516 132.627C412.516 133.266 412.835 133.586 413.475 133.586Z" fill="white"/>
</svg>
